<?xml version="1.0" encoding="UTF-8" standalone="no"?>
<!DOCTYPE svg PUBLIC "-//W3C//DTD SVG 1.1//EN"
 "http://www.w3.org/Graphics/SVG/1.1/DTD/svg11.dtd">
<!-- Generated by graphviz version 3.0.0 (20220226.1711)
 -->
<!-- Pages: 1 -->
<svg width="138pt" height="485pt"
 viewBox="0.00 0.00 138.10 485.10" xmlns="http://www.w3.org/2000/svg" xmlns:xlink="http://www.w3.org/1999/xlink">
<g id="graph0" class="graph" transform="scale(1 1) rotate(0) translate(4 481.1)">
<polygon fill="white" stroke="transparent" points="-4,4 -4,-481.1 134.1,-481.1 134.1,4 -4,4"/>
<!-- fake -->
<g id="node1" class="node">
<title>fake</title>
</g>
<!-- 0x17 -->
<g id="node5" class="node">
<title>0x17</title>
<ellipse fill="none" stroke="black" cx="64.05" cy="-386.1" rx="28.7" ry="18"/>
<text text-anchor="middle" x="64.05" y="-382.4" font-family="Times New Roman,serif" font-size="14.00">0x17</text>
</g>
<!-- fake&#45;&gt;0x17 -->
<g id="edge1" class="edge">
<title>fake&#45;&gt;0x17</title>
<path fill="none" stroke="black" stroke-width="2" d="M64.05,-440.91C64.05,-432.89 64.05,-423.14 64.05,-414.16"/>
<polygon fill="black" stroke="black" stroke-width="2" points="67.55,-414.12 64.05,-404.12 60.55,-414.12 67.55,-414.12"/>
</g>
<!-- 0x9 -->
<g id="node2" class="node">
<title>0x9</title>
<ellipse fill="none" stroke="black" cx="28.05" cy="-28.05" rx="24.09" ry="24.09"/>
<ellipse fill="none" stroke="black" cx="28.05" cy="-28.05" rx="28.1" ry="28.1"/>
<text text-anchor="middle" x="28.05" y="-24.35" font-family="Times New Roman,serif" font-size="14.00">0x9</text>
</g>
<!-- 0x8 -->
<g id="node3" class="node">
<title>0x8</title>
<ellipse fill="none" stroke="black" cx="29.05" cy="-125.1" rx="27" ry="18"/>
<text text-anchor="middle" x="29.05" y="-121.4" font-family="Times New Roman,serif" font-size="14.00">0x8</text>
</g>
<!-- 0x8&#45;&gt;0x9 -->
<g id="edge6" class="edge">
<title>0x8&#45;&gt;0x9</title>
<path fill="none" stroke="black" d="M28.86,-106.66C28.75,-95.47 28.59,-80.5 28.44,-66.7"/>
<polygon fill="black" stroke="black" points="31.94,-66.41 28.34,-56.45 24.94,-66.48 31.94,-66.41"/>
<text text-anchor="middle" x="32.55" y="-77.9" font-family="Times New Roman,serif" font-size="14.00">g</text>
</g>
<!-- 0x4 -->
<g id="node4" class="node">
<title>0x4</title>
<ellipse fill="none" stroke="black" cx="102.05" cy="-125.1" rx="27" ry="18"/>
<text text-anchor="middle" x="102.05" y="-121.4" font-family="Times New Roman,serif" font-size="14.00">0x4</text>
</g>
<!-- 0x5 -->
<g id="node7" class="node">
<title>0x5</title>
<ellipse fill="none" stroke="black" cx="102.05" cy="-28.05" rx="24.09" ry="24.09"/>
<ellipse fill="none" stroke="black" cx="102.05" cy="-28.05" rx="28.1" ry="28.1"/>
<text text-anchor="middle" x="102.05" y="-24.35" font-family="Times New Roman,serif" font-size="14.00">0x5</text>
</g>
<!-- 0x4&#45;&gt;0x5 -->
<g id="edge3" class="edge">
<title>0x4&#45;&gt;0x5</title>
<path fill="none" stroke="black" d="M102.05,-106.66C102.05,-95.47 102.05,-80.5 102.05,-66.7"/>
<polygon fill="black" stroke="black" points="105.55,-66.45 102.05,-56.45 98.55,-66.45 105.55,-66.45"/>
<text text-anchor="middle" x="105.55" y="-77.9" font-family="Times New Roman,serif" font-size="14.00">c</text>
</g>
<!-- 0x6 -->
<g id="node6" class="node">
<title>0x6</title>
<ellipse fill="none" stroke="black" cx="29.05" cy="-299.1" rx="27" ry="18"/>
<text text-anchor="middle" x="29.05" y="-295.4" font-family="Times New Roman,serif" font-size="14.00">0x6</text>
</g>
<!-- 0x17&#45;&gt;0x6 -->
<g id="edge9" class="edge">
<title>0x17&#45;&gt;0x6</title>
<path fill="none" stroke="black" d="M57.13,-368.3C52.16,-356.23 45.37,-339.73 39.71,-325.99"/>
<polygon fill="black" stroke="black" points="42.87,-324.48 35.83,-316.56 36.4,-327.14 42.87,-324.48"/>
<text text-anchor="middle" x="60.05" y="-338.9" font-family="Times New Roman,serif" font-size="14.00">ε(9)</text>
</g>
<!-- 0x2 -->
<g id="node8" class="node">
<title>0x2</title>
<ellipse fill="none" stroke="black" cx="101.05" cy="-299.1" rx="27" ry="18"/>
<text text-anchor="middle" x="101.05" y="-295.4" font-family="Times New Roman,serif" font-size="14.00">0x2</text>
</g>
<!-- 0x17&#45;&gt;0x2 -->
<g id="edge8" class="edge">
<title>0x17&#45;&gt;0x2</title>
<path fill="none" stroke="black" d="M71.36,-368.3C76.61,-356.23 83.79,-339.73 89.78,-325.99"/>
<polygon fill="black" stroke="black" points="93.1,-327.13 93.88,-316.56 86.68,-324.34 93.1,-327.13"/>
<text text-anchor="middle" x="95.05" y="-338.9" font-family="Times New Roman,serif" font-size="14.00">ε(8)</text>
</g>
<!-- 0x7 -->
<g id="node9" class="node">
<title>0x7</title>
<ellipse fill="none" stroke="black" cx="29.05" cy="-212.1" rx="27" ry="18"/>
<text text-anchor="middle" x="29.05" y="-208.4" font-family="Times New Roman,serif" font-size="14.00">0x7</text>
</g>
<!-- 0x6&#45;&gt;0x7 -->
<g id="edge5" class="edge">
<title>0x6&#45;&gt;0x7</title>
<path fill="none" stroke="black" d="M29.05,-280.89C29.05,-269.26 29.05,-253.64 29.05,-240.33"/>
<polygon fill="black" stroke="black" points="32.55,-240.27 29.05,-230.27 25.55,-240.27 32.55,-240.27"/>
<text text-anchor="middle" x="31.55" y="-251.9" font-family="Times New Roman,serif" font-size="14.00">f</text>
</g>
<!-- 0x3 -->
<g id="node10" class="node">
<title>0x3</title>
<ellipse fill="none" stroke="black" cx="101.05" cy="-212.1" rx="27" ry="18"/>
<text text-anchor="middle" x="101.05" y="-208.4" font-family="Times New Roman,serif" font-size="14.00">0x3</text>
</g>
<!-- 0x2&#45;&gt;0x3 -->
<g id="edge2" class="edge">
<title>0x2&#45;&gt;0x3</title>
<path fill="none" stroke="black" d="M101.05,-280.89C101.05,-269.26 101.05,-253.64 101.05,-240.33"/>
<polygon fill="black" stroke="black" points="104.55,-240.27 101.05,-230.27 97.55,-240.27 104.55,-240.27"/>
<text text-anchor="middle" x="105.05" y="-251.9" font-family="Times New Roman,serif" font-size="14.00">b</text>
</g>
<!-- 0x7&#45;&gt;0x8 -->
<g id="edge7" class="edge">
<title>0x7&#45;&gt;0x8</title>
<path fill="none" stroke="black" d="M29.05,-193.89C29.05,-182.26 29.05,-166.64 29.05,-153.33"/>
<polygon fill="black" stroke="black" points="32.55,-153.27 29.05,-143.27 25.55,-153.27 32.55,-153.27"/>
<text text-anchor="middle" x="40.05" y="-164.9" font-family="Times New Roman,serif" font-size="14.00">ε(1)</text>
</g>
<!-- 0x3&#45;&gt;0x4 -->
<g id="edge4" class="edge">
<title>0x3&#45;&gt;0x4</title>
<path fill="none" stroke="black" d="M101.25,-193.89C101.39,-182.26 101.57,-166.64 101.73,-153.33"/>
<polygon fill="black" stroke="black" points="105.23,-153.31 101.85,-143.27 98.23,-153.23 105.23,-153.31"/>
<text text-anchor="middle" x="112.05" y="-164.9" font-family="Times New Roman,serif" font-size="14.00">ε(0)</text>
</g>
</g>
</svg>
