<?xml version="1.0" encoding="UTF-8" standalone="no"?>
<!DOCTYPE svg PUBLIC "-//W3C//DTD SVG 1.1//EN"
 "http://www.w3.org/Graphics/SVG/1.1/DTD/svg11.dtd">
<!-- Generated by graphviz version 3.0.0 (20220226.1711)
 -->
<!-- Pages: 1 -->
<svg width="264pt" height="1493pt"
 viewBox="0.00 0.00 264.00 1493.19" xmlns="http://www.w3.org/2000/svg" xmlns:xlink="http://www.w3.org/1999/xlink">
<g id="graph0" class="graph" transform="scale(1 1) rotate(0) translate(4 1489.19)">
<polygon fill="white" stroke="transparent" points="-4,4 -4,-1489.19 260,-1489.19 260,4 -4,4"/>
<!-- fake -->
<g id="node1" class="node">
<title>fake</title>
</g>
<!-- 0x19 -->
<g id="node15" class="node">
<title>0x19</title>
<ellipse fill="none" stroke="black" cx="64" cy="-1394.19" rx="28.7" ry="18"/>
<text text-anchor="middle" x="64" y="-1390.49" font-family="Times New Roman,serif" font-size="14.00">0x19</text>
</g>
<!-- fake&#45;&gt;0x19 -->
<g id="edge1" class="edge">
<title>fake&#45;&gt;0x19</title>
<path fill="none" stroke="black" stroke-width="2" d="M64,-1449.01C64,-1440.98 64,-1431.24 64,-1422.26"/>
<polygon fill="black" stroke="black" stroke-width="2" points="67.5,-1422.22 64,-1412.22 60.5,-1422.22 67.5,-1422.22"/>
</g>
<!-- 0xa -->
<g id="node2" class="node">
<title>0xa</title>
<ellipse fill="none" stroke="black" cx="27" cy="-1307.19" rx="27" ry="18"/>
<text text-anchor="middle" x="27" y="-1303.49" font-family="Times New Roman,serif" font-size="14.00">0xa</text>
</g>
<!-- 0xb -->
<g id="node5" class="node">
<title>0xb</title>
<ellipse fill="none" stroke="black" cx="27" cy="-1220.19" rx="27" ry="18"/>
<text text-anchor="middle" x="27" y="-1216.49" font-family="Times New Roman,serif" font-size="14.00">0xb</text>
</g>
<!-- 0xa&#45;&gt;0xb -->
<g id="edge13" class="edge">
<title>0xa&#45;&gt;0xb</title>
<path fill="none" stroke="black" d="M27,-1288.99C27,-1277.36 27,-1261.74 27,-1248.43"/>
<polygon fill="black" stroke="black" points="30.5,-1248.37 27,-1238.37 23.5,-1248.37 30.5,-1248.37"/>
<text text-anchor="middle" x="30.5" y="-1259.99" font-family="Times New Roman,serif" font-size="14.00">e</text>
</g>
<!-- 0x8 -->
<g id="node3" class="node">
<title>0x8</title>
<ellipse fill="none" stroke="black" cx="157" cy="-917.19" rx="27" ry="18"/>
<text text-anchor="middle" x="157" y="-913.49" font-family="Times New Roman,serif" font-size="14.00">0x8</text>
</g>
<!-- 0x9 -->
<g id="node11" class="node">
<title>0x9</title>
<ellipse fill="none" stroke="black" cx="147" cy="-830.19" rx="27" ry="18"/>
<text text-anchor="middle" x="147" y="-826.49" font-family="Times New Roman,serif" font-size="14.00">0x9</text>
</g>
<!-- 0x8&#45;&gt;0x9 -->
<g id="edge7" class="edge">
<title>0x8&#45;&gt;0x9</title>
<path fill="none" stroke="black" d="M154.98,-898.99C153.61,-887.36 151.77,-871.74 150.2,-858.43"/>
<polygon fill="black" stroke="black" points="153.67,-857.89 149.02,-848.37 146.71,-858.71 153.67,-857.89"/>
<text text-anchor="middle" x="155.5" y="-869.99" font-family="Times New Roman,serif" font-size="14.00">g</text>
</g>
<!-- 0x16 -->
<g id="node4" class="node">
<title>0x16</title>
<ellipse fill="none" stroke="black" cx="116" cy="-32.6" rx="28.68" ry="28.68"/>
<ellipse fill="none" stroke="black" cx="116" cy="-32.6" rx="32.7" ry="32.7"/>
<text text-anchor="middle" x="116" y="-28.9" font-family="Times New Roman,serif" font-size="14.00">0x16</text>
</g>
<!-- 0xc -->
<g id="node21" class="node">
<title>0xc</title>
<ellipse fill="none" stroke="black" cx="27" cy="-1133.19" rx="27" ry="18"/>
<text text-anchor="middle" x="27" y="-1129.49" font-family="Times New Roman,serif" font-size="14.00">0xc</text>
</g>
<!-- 0xb&#45;&gt;0xc -->
<g id="edge15" class="edge">
<title>0xb&#45;&gt;0xc</title>
<path fill="none" stroke="black" d="M27,-1201.99C27,-1190.36 27,-1174.74 27,-1161.43"/>
<polygon fill="black" stroke="black" points="30.5,-1161.37 27,-1151.37 23.5,-1161.37 30.5,-1161.37"/>
<text text-anchor="middle" x="38" y="-1172.99" font-family="Times New Roman,serif" font-size="14.00">ε(2)</text>
</g>
<!-- 0x1 -->
<g id="node6" class="node">
<title>0x1</title>
<ellipse fill="none" stroke="black" cx="88" cy="-1079.19" rx="27" ry="18"/>
<text text-anchor="middle" x="88" y="-1075.49" font-family="Times New Roman,serif" font-size="14.00">0x1</text>
</g>
<!-- 0x12 -->
<g id="node26" class="node">
<title>0x12</title>
<ellipse fill="none" stroke="black" cx="107" cy="-743.19" rx="28.7" ry="18"/>
<text text-anchor="middle" x="107" y="-739.49" font-family="Times New Roman,serif" font-size="14.00">0x12</text>
</g>
<!-- 0x1&#45;&gt;0x12 -->
<g id="edge27" class="edge">
<title>0x1&#45;&gt;0x12</title>
<path fill="none" stroke="black" d="M86.69,-1060.95C85.2,-1039.98 83,-1003.51 83,-972.19 83,-972.19 83,-972.19 83,-829.19 83,-808.88 89.43,-786.82 95.63,-770.27"/>
<polygon fill="black" stroke="black" points="98.98,-771.33 99.41,-760.74 92.47,-768.75 98.98,-771.33"/>
<text text-anchor="middle" x="97.5" y="-913.49" font-family="Times New Roman,serif" font-size="14.00">ε(11)</text>
</g>
<!-- 0xd -->
<g id="node7" class="node">
<title>0xd</title>
<ellipse fill="none" stroke="black" cx="30" cy="-971.19" rx="27" ry="18"/>
<text text-anchor="middle" x="30" y="-967.49" font-family="Times New Roman,serif" font-size="14.00">0xd</text>
</g>
<!-- 0xd&#45;&gt;0x12 -->
<g id="edge24" class="edge">
<title>0xd&#45;&gt;0x12</title>
<path fill="none" stroke="black" d="M29.83,-953.03C30.23,-917.87 35.06,-836.19 69,-779.19 72.17,-773.86 76.41,-768.86 80.9,-764.39"/>
<polygon fill="black" stroke="black" points="83.52,-766.74 88.55,-757.42 78.8,-761.56 83.52,-766.74"/>
<text text-anchor="middle" x="50" y="-869.99" font-family="Times New Roman,serif" font-size="14.00">ε(e)</text>
</g>
<!-- 0x14 -->
<g id="node8" class="node">
<title>0x14</title>
<ellipse fill="none" stroke="black" cx="116" cy="-221.19" rx="28.7" ry="18"/>
<text text-anchor="middle" x="116" y="-217.49" font-family="Times New Roman,serif" font-size="14.00">0x14</text>
</g>
<!-- 0x15 -->
<g id="node25" class="node">
<title>0x15</title>
<ellipse fill="none" stroke="black" cx="116" cy="-134.19" rx="28.7" ry="18"/>
<text text-anchor="middle" x="116" y="-130.49" font-family="Times New Roman,serif" font-size="14.00">0x15</text>
</g>
<!-- 0x14&#45;&gt;0x15 -->
<g id="edge30" class="edge">
<title>0x14&#45;&gt;0x15</title>
<path fill="none" stroke="black" d="M116,-202.99C116,-191.36 116,-175.74 116,-162.43"/>
<polygon fill="black" stroke="black" points="119.5,-162.37 116,-152.37 112.5,-162.37 119.5,-162.37"/>
<text text-anchor="middle" x="127" y="-173.99" font-family="Times New Roman,serif" font-size="14.00">ε(7)</text>
</g>
<!-- 0x11 -->
<g id="node9" class="node">
<title>0x11</title>
<ellipse fill="none" stroke="black" cx="87" cy="-395.19" rx="28.7" ry="18"/>
<text text-anchor="middle" x="87" y="-391.49" font-family="Times New Roman,serif" font-size="14.00">0x11</text>
</g>
<!-- 0xe -->
<g id="node12" class="node">
<title>0xe</title>
<ellipse fill="none" stroke="black" cx="74" cy="-656.19" rx="27" ry="18"/>
<text text-anchor="middle" x="74" y="-652.49" font-family="Times New Roman,serif" font-size="14.00">0xe</text>
</g>
<!-- 0x11&#45;&gt;0xe -->
<g id="edge22" class="edge">
<title>0x11&#45;&gt;0xe</title>
<path fill="none" stroke="black" d="M75.3,-411.68C66.12,-424.86 54.08,-444.69 49,-464.19 35.22,-517.1 40.46,-533.37 50,-587.19 52.55,-601.59 57.77,-617 62.69,-629.51"/>
<polygon fill="black" stroke="black" points="59.48,-630.92 66.52,-638.84 65.96,-628.26 59.48,-630.92"/>
<text text-anchor="middle" x="53" y="-521.99" font-family="Times New Roman,serif" font-size="14.00">ε(5)</text>
</g>
<!-- 0x13 -->
<g id="node16" class="node">
<title>0x13</title>
<ellipse fill="none" stroke="black" cx="116" cy="-308.19" rx="28.7" ry="18"/>
<text text-anchor="middle" x="116" y="-304.49" font-family="Times New Roman,serif" font-size="14.00">0x13</text>
</g>
<!-- 0x11&#45;&gt;0x13 -->
<g id="edge31" class="edge">
<title>0x11&#45;&gt;0x13</title>
<path fill="none" stroke="black" d="M91.12,-377.36C93.66,-367.58 97.16,-355.08 101,-344.19 102.04,-341.24 103.22,-338.17 104.43,-335.14"/>
<polygon fill="black" stroke="black" points="107.73,-336.33 108.37,-325.75 101.28,-333.62 107.73,-336.33"/>
<text text-anchor="middle" x="115.5" y="-347.99" font-family="Times New Roman,serif" font-size="14.00">ε(12)</text>
</g>
<!-- 0x3 -->
<g id="node10" class="node">
<title>0x3</title>
<ellipse fill="none" stroke="black" cx="229" cy="-1025.19" rx="27" ry="18"/>
<text text-anchor="middle" x="229" y="-1021.49" font-family="Times New Roman,serif" font-size="14.00">0x3</text>
</g>
<!-- 0x4 -->
<g id="node23" class="node">
<title>0x4</title>
<ellipse fill="none" stroke="black" cx="229" cy="-917.19" rx="27" ry="18"/>
<text text-anchor="middle" x="229" y="-913.49" font-family="Times New Roman,serif" font-size="14.00">0x4</text>
</g>
<!-- 0x3&#45;&gt;0x4 -->
<g id="edge5" class="edge">
<title>0x3&#45;&gt;0x4</title>
<path fill="none" stroke="black" d="M229,-1007.16C229,-990.57 229,-965.08 229,-945.63"/>
<polygon fill="black" stroke="black" points="232.5,-945.54 229,-935.54 225.5,-945.54 232.5,-945.54"/>
<text text-anchor="middle" x="240" y="-967.49" font-family="Times New Roman,serif" font-size="14.00">ε(0)</text>
</g>
<!-- 0x9&#45;&gt;0x12 -->
<g id="edge25" class="edge">
<title>0x9&#45;&gt;0x12</title>
<path fill="none" stroke="black" d="M139.29,-812.81C133.53,-800.58 125.56,-783.64 118.98,-769.65"/>
<polygon fill="black" stroke="black" points="122.11,-768.09 114.69,-760.53 115.78,-771.07 122.11,-768.09"/>
<text text-anchor="middle" x="139" y="-782.99" font-family="Times New Roman,serif" font-size="14.00">ε(f)</text>
</g>
<!-- 0xf -->
<g id="node18" class="node">
<title>0xf</title>
<ellipse fill="none" stroke="black" cx="86" cy="-569.19" rx="27" ry="18"/>
<text text-anchor="middle" x="86" y="-565.49" font-family="Times New Roman,serif" font-size="14.00">0xf</text>
</g>
<!-- 0xe&#45;&gt;0xf -->
<g id="edge18" class="edge">
<title>0xe&#45;&gt;0xf</title>
<path fill="none" stroke="black" d="M76.43,-637.99C78.07,-626.36 80.28,-610.74 82.15,-597.43"/>
<polygon fill="black" stroke="black" points="85.64,-597.76 83.58,-587.37 78.71,-596.78 85.64,-597.76"/>
<text text-anchor="middle" x="83.5" y="-608.99" font-family="Times New Roman,serif" font-size="14.00">g</text>
</g>
<!-- 0x6 -->
<g id="node13" class="node">
<title>0x6</title>
<ellipse fill="none" stroke="black" cx="157" cy="-1133.19" rx="27" ry="18"/>
<text text-anchor="middle" x="157" y="-1129.49" font-family="Times New Roman,serif" font-size="14.00">0x6</text>
</g>
<!-- 0x7 -->
<g id="node14" class="node">
<title>0x7</title>
<ellipse fill="none" stroke="black" cx="157" cy="-1025.19" rx="27" ry="18"/>
<text text-anchor="middle" x="157" y="-1021.49" font-family="Times New Roman,serif" font-size="14.00">0x7</text>
</g>
<!-- 0x6&#45;&gt;0x7 -->
<g id="edge6" class="edge">
<title>0x6&#45;&gt;0x7</title>
<path fill="none" stroke="black" d="M157,-1115.16C157,-1098.57 157,-1073.08 157,-1053.63"/>
<polygon fill="black" stroke="black" points="160.5,-1053.54 157,-1043.54 153.5,-1053.54 160.5,-1053.54"/>
<text text-anchor="middle" x="159.5" y="-1075.49" font-family="Times New Roman,serif" font-size="14.00">f</text>
</g>
<!-- 0x7&#45;&gt;0x8 -->
<g id="edge8" class="edge">
<title>0x7&#45;&gt;0x8</title>
<path fill="none" stroke="black" d="M157,-1007.16C157,-990.57 157,-965.08 157,-945.63"/>
<polygon fill="black" stroke="black" points="160.5,-945.54 157,-935.54 153.5,-945.54 160.5,-945.54"/>
<text text-anchor="middle" x="168" y="-967.49" font-family="Times New Roman,serif" font-size="14.00">ε(1)</text>
</g>
<!-- 0x19&#45;&gt;0xa -->
<g id="edge17" class="edge">
<title>0x19&#45;&gt;0xa</title>
<path fill="none" stroke="black" d="M56.69,-1376.4C51.44,-1364.33 44.25,-1347.83 38.27,-1334.09"/>
<polygon fill="black" stroke="black" points="41.37,-1332.44 34.17,-1324.66 34.95,-1335.23 41.37,-1332.44"/>
<text text-anchor="middle" x="58.5" y="-1346.99" font-family="Times New Roman,serif" font-size="14.00">ε(d)</text>
</g>
<!-- 0x18 -->
<g id="node27" class="node">
<title>0x18</title>
<ellipse fill="none" stroke="black" cx="101" cy="-1307.19" rx="28.7" ry="18"/>
<text text-anchor="middle" x="101" y="-1303.49" font-family="Times New Roman,serif" font-size="14.00">0x18</text>
</g>
<!-- 0x19&#45;&gt;0x18 -->
<g id="edge16" class="edge">
<title>0x19&#45;&gt;0x18</title>
<path fill="none" stroke="black" d="M71.31,-1376.4C76.56,-1364.33 83.75,-1347.83 89.73,-1334.09"/>
<polygon fill="black" stroke="black" points="93.05,-1335.23 93.83,-1324.66 86.63,-1332.44 93.05,-1335.23"/>
<text text-anchor="middle" x="95" y="-1346.99" font-family="Times New Roman,serif" font-size="14.00">ε(c)</text>
</g>
<!-- 0x13&#45;&gt;0x14 -->
<g id="edge28" class="edge">
<title>0x13&#45;&gt;0x14</title>
<path fill="none" stroke="black" d="M116,-289.99C116,-278.36 116,-262.74 116,-249.43"/>
<polygon fill="black" stroke="black" points="119.5,-249.37 116,-239.37 112.5,-249.37 119.5,-249.37"/>
<text text-anchor="middle" x="119.5" y="-260.99" font-family="Times New Roman,serif" font-size="14.00">a</text>
</g>
<!-- 0x5 -->
<g id="node17" class="node">
<title>0x5</title>
<ellipse fill="none" stroke="black" cx="224" cy="-830.19" rx="27" ry="18"/>
<text text-anchor="middle" x="224" y="-826.49" font-family="Times New Roman,serif" font-size="14.00">0x5</text>
</g>
<!-- 0x5&#45;&gt;0x12 -->
<g id="edge26" class="edge">
<title>0x5&#45;&gt;0x12</title>
<path fill="none" stroke="black" d="M206.48,-816.47C187.12,-802.4 155.73,-779.6 133.39,-763.37"/>
<polygon fill="black" stroke="black" points="135.17,-760.33 125.02,-757.29 131.05,-766 135.17,-760.33"/>
<text text-anchor="middle" x="186.5" y="-782.99" font-family="Times New Roman,serif" font-size="14.00">ε(10)</text>
</g>
<!-- 0x10 -->
<g id="node22" class="node">
<title>0x10</title>
<ellipse fill="none" stroke="black" cx="87" cy="-482.19" rx="28.7" ry="18"/>
<text text-anchor="middle" x="87" y="-478.49" font-family="Times New Roman,serif" font-size="14.00">0x10</text>
</g>
<!-- 0xf&#45;&gt;0x10 -->
<g id="edge20" class="edge">
<title>0xf&#45;&gt;0x10</title>
<path fill="none" stroke="black" d="M86.2,-550.99C86.34,-539.36 86.52,-523.74 86.68,-510.43"/>
<polygon fill="black" stroke="black" points="90.18,-510.41 86.8,-500.37 83.18,-510.33 90.18,-510.41"/>
<text text-anchor="middle" x="97" y="-521.99" font-family="Times New Roman,serif" font-size="14.00">ε(3)</text>
</g>
<!-- 0x2 -->
<g id="node19" class="node">
<title>0x2</title>
<ellipse fill="none" stroke="black" cx="229" cy="-1133.19" rx="27" ry="18"/>
<text text-anchor="middle" x="229" y="-1129.49" font-family="Times New Roman,serif" font-size="14.00">0x2</text>
</g>
<!-- 0x2&#45;&gt;0x3 -->
<g id="edge3" class="edge">
<title>0x2&#45;&gt;0x3</title>
<path fill="none" stroke="black" d="M229,-1115.16C229,-1098.57 229,-1073.08 229,-1053.63"/>
<polygon fill="black" stroke="black" points="232.5,-1053.54 229,-1043.54 225.5,-1053.54 232.5,-1053.54"/>
<text text-anchor="middle" x="233" y="-1075.49" font-family="Times New Roman,serif" font-size="14.00">b</text>
</g>
<!-- 0x0 -->
<g id="node20" class="node">
<title>0x0</title>
<ellipse fill="none" stroke="black" cx="99" cy="-1220.19" rx="27" ry="18"/>
<text text-anchor="middle" x="99" y="-1216.49" font-family="Times New Roman,serif" font-size="14.00">0x0</text>
</g>
<!-- 0x0&#45;&gt;0x1 -->
<g id="edge2" class="edge">
<title>0x0&#45;&gt;0x1</title>
<path fill="none" stroke="black" d="M97.65,-1202.15C95.78,-1178.5 92.37,-1135.46 90.15,-1107.35"/>
<polygon fill="black" stroke="black" points="93.64,-1107.07 89.36,-1097.38 86.66,-1107.62 93.64,-1107.07"/>
<text text-anchor="middle" x="99.5" y="-1172.99" font-family="Times New Roman,serif" font-size="14.00">a</text>
</g>
<!-- 0xc&#45;&gt;0xd -->
<g id="edge14" class="edge">
<title>0xc&#45;&gt;0xd</title>
<path fill="none" stroke="black" d="M27.32,-1115.07C27.84,-1087.4 28.87,-1032.63 29.49,-999.52"/>
<polygon fill="black" stroke="black" points="32.99,-999.26 29.68,-989.19 25.99,-999.13 32.99,-999.26"/>
<text text-anchor="middle" x="31.5" y="-1075.49" font-family="Times New Roman,serif" font-size="14.00">f</text>
</g>
<!-- 0x10&#45;&gt;0x11 -->
<g id="edge19" class="edge">
<title>0x10&#45;&gt;0x11</title>
<path fill="none" stroke="black" d="M87,-463.99C87,-452.36 87,-436.74 87,-423.43"/>
<polygon fill="black" stroke="black" points="90.5,-423.37 87,-413.37 83.5,-423.37 90.5,-423.37"/>
<text text-anchor="middle" x="91" y="-434.99" font-family="Times New Roman,serif" font-size="14.00">o</text>
</g>
<!-- 0x4&#45;&gt;0x5 -->
<g id="edge4" class="edge">
<title>0x4&#45;&gt;0x5</title>
<path fill="none" stroke="black" d="M227.99,-898.99C227.3,-887.36 226.39,-871.74 225.6,-858.43"/>
<polygon fill="black" stroke="black" points="229.09,-858.15 225.01,-848.37 222.1,-858.56 229.09,-858.15"/>
<text text-anchor="middle" x="229.5" y="-869.99" font-family="Times New Roman,serif" font-size="14.00">c</text>
</g>
<!-- 0x17 -->
<g id="node24" class="node">
<title>0x17</title>
<ellipse fill="none" stroke="black" cx="173" cy="-1220.19" rx="28.7" ry="18"/>
<text text-anchor="middle" x="173" y="-1216.49" font-family="Times New Roman,serif" font-size="14.00">0x17</text>
</g>
<!-- 0x17&#45;&gt;0x6 -->
<g id="edge10" class="edge">
<title>0x17&#45;&gt;0x6</title>
<path fill="none" stroke="black" d="M169.76,-1201.99C167.56,-1190.28 164.59,-1174.54 162.08,-1161.17"/>
<polygon fill="black" stroke="black" points="165.47,-1160.26 160.18,-1151.08 158.59,-1161.56 165.47,-1160.26"/>
<text text-anchor="middle" x="176" y="-1172.99" font-family="Times New Roman,serif" font-size="14.00">ε(9)</text>
</g>
<!-- 0x17&#45;&gt;0x2 -->
<g id="edge9" class="edge">
<title>0x17&#45;&gt;0x2</title>
<path fill="none" stroke="black" d="M183.53,-1203.21C191.82,-1190.62 203.52,-1172.87 212.97,-1158.53"/>
<polygon fill="black" stroke="black" points="215.94,-1160.39 218.51,-1150.11 210.09,-1156.54 215.94,-1160.39"/>
<text text-anchor="middle" x="215" y="-1172.99" font-family="Times New Roman,serif" font-size="14.00">ε(8)</text>
</g>
<!-- 0x15&#45;&gt;0x16 -->
<g id="edge29" class="edge">
<title>0x15&#45;&gt;0x16</title>
<path fill="none" stroke="black" d="M116,-115.85C116,-104.63 116,-89.54 116,-75.33"/>
<polygon fill="black" stroke="black" points="119.5,-75.22 116,-65.22 112.5,-75.22 119.5,-75.22"/>
<text text-anchor="middle" x="120" y="-86.99" font-family="Times New Roman,serif" font-size="14.00">b</text>
</g>
<!-- 0x12&#45;&gt;0xe -->
<g id="edge21" class="edge">
<title>0x12&#45;&gt;0xe</title>
<path fill="none" stroke="black" d="M85.4,-730.78C76.76,-724.97 67.75,-717.04 63,-707.19 59.42,-699.76 59.88,-691.15 61.92,-683.19"/>
<polygon fill="black" stroke="black" points="65.28,-684.18 65.17,-673.59 58.65,-681.94 65.28,-684.18"/>
<text text-anchor="middle" x="74" y="-695.99" font-family="Times New Roman,serif" font-size="14.00">ε(4)</text>
</g>
<!-- 0x12&#45;&gt;0xe -->
<g id="edge23" class="edge">
<title>0x12&#45;&gt;0xe</title>
<path fill="none" stroke="black" d="M100.48,-725.4C95.82,-713.41 89.47,-697.05 84.16,-683.35"/>
<polygon fill="black" stroke="black" points="87.39,-682.01 80.51,-673.95 80.86,-684.54 87.39,-682.01"/>
<text text-anchor="middle" x="103" y="-695.99" font-family="Times New Roman,serif" font-size="14.00">ε(6)</text>
</g>
<!-- 0x12&#45;&gt;0x13 -->
<g id="edge32" class="edge">
<title>0x12&#45;&gt;0x13</title>
<path fill="none" stroke="black" d="M118.5,-726.47C129.37,-710.05 144,-683.11 144,-657.19 144,-657.19 144,-657.19 144,-394.19 144,-373.61 136.5,-351.56 129.26,-335.08"/>
<polygon fill="black" stroke="black" points="132.25,-333.2 124.86,-325.6 125.9,-336.15 132.25,-333.2"/>
<text text-anchor="middle" x="158.5" y="-521.99" font-family="Times New Roman,serif" font-size="14.00">ε(13)</text>
</g>
<!-- 0x18&#45;&gt;0x0 -->
<g id="edge11" class="edge">
<title>0x18&#45;&gt;0x0</title>
<path fill="none" stroke="black" d="M100.6,-1288.99C100.32,-1277.36 99.95,-1261.74 99.64,-1248.43"/>
<polygon fill="black" stroke="black" points="103.14,-1248.29 99.4,-1238.37 96.14,-1248.45 103.14,-1248.29"/>
<text text-anchor="middle" x="111" y="-1259.99" font-family="Times New Roman,serif" font-size="14.00">ε(a)</text>
</g>
<!-- 0x18&#45;&gt;0x17 -->
<g id="edge12" class="edge">
<title>0x18&#45;&gt;0x17</title>
<path fill="none" stroke="black" d="M113.87,-1291C124.86,-1278.03 140.84,-1259.16 153.41,-1244.32"/>
<polygon fill="black" stroke="black" points="156.2,-1246.44 160,-1236.55 150.86,-1241.91 156.2,-1246.44"/>
<text text-anchor="middle" x="152.5" y="-1259.99" font-family="Times New Roman,serif" font-size="14.00">ε(b)</text>
</g>
</g>
</svg>
