<?xml version="1.0" encoding="UTF-8" standalone="no"?>
<!DOCTYPE svg PUBLIC "-//W3C//DTD SVG 1.1//EN"
 "http://www.w3.org/Graphics/SVG/1.1/DTD/svg11.dtd">
<!-- Generated by graphviz version 2.50.0 (20211204.2007)
 -->
<!-- Pages: 1 -->
<svg width="377pt" height="826pt"
 viewBox="0.00 0.00 377.00 826.48" xmlns="http://www.w3.org/2000/svg" xmlns:xlink="http://www.w3.org/1999/xlink">
<g id="graph0" class="graph" transform="scale(1 1) rotate(0) translate(4 822.48)">
<polygon fill="white" stroke="transparent" points="-4,4 -4,-822.48 373,-822.48 373,4 -4,4"/>
<!-- fake -->
<g id="node1" class="node">
<title>fake</title>
</g>
<!-- 0x9 -->
<g id="node2" class="node">
<title>0x9</title>
<ellipse fill="none" stroke="black" cx="66" cy="-717.43" rx="24.09" ry="24.09"/>
<ellipse fill="none" stroke="black" cx="66" cy="-717.43" rx="28.1" ry="28.1"/>
<text text-anchor="middle" x="66" y="-713.73" font-family="Times New Roman,serif" font-size="14.00">0x9</text>
</g>
<!-- fake&#45;&gt;0x9 -->
<g id="edge1" class="edge">
<title>fake&#45;&gt;0x9</title>
<path fill="none" stroke="black" stroke-width="2" d="M66,-782.29C66,-774.53 66,-765.03 66,-755.75"/>
<polygon fill="black" stroke="black" stroke-width="2" points="69.5,-755.48 66,-745.48 62.5,-755.48 69.5,-755.48"/>
</g>
<!-- 0x8 -->
<g id="node5" class="node">
<title>0x8</title>
<ellipse fill="none" stroke="black" cx="66" cy="-610.34" rx="24.09" ry="24.09"/>
<ellipse fill="none" stroke="black" cx="66" cy="-610.34" rx="28.1" ry="28.1"/>
<text text-anchor="middle" x="66" y="-606.64" font-family="Times New Roman,serif" font-size="14.00">0x8</text>
</g>
<!-- 0x9&#45;&gt;0x8 -->
<g id="edge18" class="edge">
<title>0x9&#45;&gt;0x8</title>
<path fill="none" stroke="black" d="M66,-689.37C66,-677.08 66,-662.34 66,-649"/>
<polygon fill="black" stroke="black" points="69.5,-648.67 66,-638.67 62.5,-648.67 69.5,-648.67"/>
<text text-anchor="middle" x="77.5" y="-660.18" font-family="Times New Roman,serif" font-size="14.00">ε(d)</text>
</g>
<!-- 0x0 -->
<g id="node3" class="node">
<title>0x0</title>
<ellipse fill="none" stroke="black" cx="323" cy="-426.29" rx="27" ry="18"/>
<text text-anchor="middle" x="323" y="-422.59" font-family="Times New Roman,serif" font-size="14.00">0x0</text>
</g>
<!-- 0x1 -->
<g id="node10" class="node">
<title>0x1</title>
<ellipse fill="none" stroke="black" cx="323" cy="-329.24" rx="24.09" ry="24.09"/>
<ellipse fill="none" stroke="black" cx="323" cy="-329.24" rx="28.1" ry="28.1"/>
<text text-anchor="middle" x="323" y="-325.54" font-family="Times New Roman,serif" font-size="14.00">0x1</text>
</g>
<!-- 0x0&#45;&gt;0x1 -->
<g id="edge2" class="edge">
<title>0x0&#45;&gt;0x1</title>
<path fill="none" stroke="black" d="M323,-407.85C323,-396.66 323,-381.7 323,-367.89"/>
<polygon fill="black" stroke="black" points="326.5,-367.64 323,-357.64 319.5,-367.64 326.5,-367.64"/>
<text text-anchor="middle" x="326.5" y="-379.09" font-family="Times New Roman,serif" font-size="14.00">a</text>
</g>
<!-- 0x3 -->
<g id="node4" class="node">
<title>0x3</title>
<ellipse fill="none" stroke="black" cx="155" cy="-329.24" rx="27" ry="18"/>
<text text-anchor="middle" x="155" y="-325.54" font-family="Times New Roman,serif" font-size="14.00">0x3</text>
</g>
<!-- 0x4 -->
<g id="node9" class="node">
<title>0x4</title>
<ellipse fill="none" stroke="black" cx="100" cy="-222.14" rx="24.09" ry="24.09"/>
<ellipse fill="none" stroke="black" cx="100" cy="-222.14" rx="28.1" ry="28.1"/>
<text text-anchor="middle" x="100" y="-218.44" font-family="Times New Roman,serif" font-size="14.00">0x4</text>
</g>
<!-- 0x3&#45;&gt;0x4 -->
<g id="edge7" class="edge">
<title>0x3&#45;&gt;0x4</title>
<path fill="none" stroke="black" d="M146.41,-311.82C138.65,-297 127.01,-274.76 117.33,-256.26"/>
<polygon fill="black" stroke="black" points="120.36,-254.49 112.62,-247.25 114.15,-257.74 120.36,-254.49"/>
<text text-anchor="middle" x="141" y="-271.99" font-family="Times New Roman,serif" font-size="14.00">ε(2)</text>
</g>
<!-- 0x8&#45;&gt;0x8 -->
<g id="edge17" class="edge">
<title>0x8&#45;&gt;0x8</title>
<path fill="none" stroke="black" d="M92.5,-620.03C103.13,-620.57 112.05,-617.34 112.05,-610.34 112.05,-605.74 108.21,-602.76 102.56,-601.42"/>
<polygon fill="black" stroke="black" points="102.74,-597.92 92.5,-600.64 102.2,-604.9 102.74,-597.92"/>
<text text-anchor="middle" x="123.05" y="-606.64" font-family="Times New Roman,serif" font-size="14.00">ε(c)</text>
</g>
<!-- 0x7 -->
<g id="node7" class="node">
<title>0x7</title>
<ellipse fill="none" stroke="black" cx="187" cy="-513.29" rx="27" ry="18"/>
<text text-anchor="middle" x="187" y="-509.59" font-family="Times New Roman,serif" font-size="14.00">0x7</text>
</g>
<!-- 0x8&#45;&gt;0x7 -->
<g id="edge13" class="edge">
<title>0x8&#45;&gt;0x7</title>
<path fill="none" stroke="black" d="M87.63,-592.34C108.61,-575.87 140.39,-550.9 162.34,-533.66"/>
<polygon fill="black" stroke="black" points="164.53,-536.39 170.23,-527.46 160.2,-530.89 164.53,-536.39"/>
<text text-anchor="middle" x="151" y="-553.09" font-family="Times New Roman,serif" font-size="14.00">ε(8)</text>
</g>
<!-- 0x6 -->
<g id="node6" class="node">
<title>0x6</title>
<ellipse fill="none" stroke="black" cx="99" cy="-28.05" rx="24.09" ry="24.09"/>
<ellipse fill="none" stroke="black" cx="99" cy="-28.05" rx="28.1" ry="28.1"/>
<text text-anchor="middle" x="99" y="-24.35" font-family="Times New Roman,serif" font-size="14.00">0x6</text>
</g>
<!-- 0x6&#45;&gt;0x8 -->
<g id="edge15" class="edge">
<title>0x6&#45;&gt;0x8</title>
<path fill="none" stroke="black" d="M73.51,-40.05C44.17,-54.63 0,-83.35 0,-124.1 0,-514.29 0,-514.29 0,-514.29 0,-542.06 19.25,-567.56 36.96,-585.14"/>
<polygon fill="black" stroke="black" points="34.72,-587.84 44.39,-592.17 39.53,-582.75 34.72,-587.84"/>
<text text-anchor="middle" x="11" y="-325.54" font-family="Times New Roman,serif" font-size="14.00">ε(a)</text>
</g>
<!-- 0x6&#45;&gt;0x7 -->
<g id="edge11" class="edge">
<title>0x6&#45;&gt;0x7</title>
<path fill="none" stroke="black" d="M125.31,-38.24C158.13,-51.58 210,-79.7 210,-124.1 210,-427.29 210,-427.29 210,-427.29 210,-447.54 203.84,-469.6 197.89,-486.17"/>
<polygon fill="black" stroke="black" points="194.55,-485.12 194.28,-495.71 201.09,-487.6 194.55,-485.12"/>
<text text-anchor="middle" x="221" y="-271.99" font-family="Times New Roman,serif" font-size="14.00">ε(6)</text>
</g>
<!-- 0x5 -->
<g id="node11" class="node">
<title>0x5</title>
<ellipse fill="none" stroke="black" cx="100" cy="-125.1" rx="27" ry="18"/>
<text text-anchor="middle" x="100" y="-121.4" font-family="Times New Roman,serif" font-size="14.00">0x5</text>
</g>
<!-- 0x6&#45;&gt;0x5 -->
<g id="edge6" class="edge">
<title>0x6&#45;&gt;0x5</title>
<path fill="none" stroke="black" d="M82.07,-50.43C75.15,-61.77 69.67,-76.02 74,-89.1 75.39,-93.3 77.5,-97.41 79.94,-101.25"/>
<polygon fill="black" stroke="black" points="77.3,-103.58 86,-109.64 82.98,-99.48 77.3,-103.58"/>
<text text-anchor="middle" x="85" y="-77.9" font-family="Times New Roman,serif" font-size="14.00">ε(1)</text>
</g>
<!-- 0x7&#45;&gt;0x0 -->
<g id="edge8" class="edge">
<title>0x7&#45;&gt;0x0</title>
<path fill="none" stroke="black" d="M211.02,-504.73C228.22,-498.72 251.53,-489.33 270,-477.29 281.87,-469.55 293.51,-459 302.83,-449.59"/>
<polygon fill="black" stroke="black" points="305.38,-452 309.78,-442.37 300.33,-447.15 305.38,-452"/>
<text text-anchor="middle" x="299" y="-466.09" font-family="Times New Roman,serif" font-size="14.00">ε(3)</text>
</g>
<!-- 0x2 -->
<g id="node8" class="node">
<title>0x2</title>
<ellipse fill="none" stroke="black" cx="155" cy="-426.29" rx="27" ry="18"/>
<text text-anchor="middle" x="155" y="-422.59" font-family="Times New Roman,serif" font-size="14.00">0x2</text>
</g>
<!-- 0x7&#45;&gt;0x2 -->
<g id="edge9" class="edge">
<title>0x7&#45;&gt;0x2</title>
<path fill="none" stroke="black" d="M180.68,-495.49C176.16,-483.5 170,-467.14 164.85,-453.44"/>
<polygon fill="black" stroke="black" points="168.11,-452.17 161.31,-444.05 161.56,-454.64 168.11,-452.17"/>
<text text-anchor="middle" x="183" y="-466.09" font-family="Times New Roman,serif" font-size="14.00">ε(4)</text>
</g>
<!-- 0x2&#45;&gt;0x3 -->
<g id="edge3" class="edge">
<title>0x2&#45;&gt;0x3</title>
<path fill="none" stroke="black" d="M155,-407.85C155,-393.7 155,-373.49 155,-357.24"/>
<polygon fill="black" stroke="black" points="158.5,-357.24 155,-347.24 151.5,-357.24 158.5,-357.24"/>
<text text-anchor="middle" x="159" y="-379.09" font-family="Times New Roman,serif" font-size="14.00">b</text>
</g>
<!-- 0x4&#45;&gt;0x8 -->
<g id="edge14" class="edge">
<title>0x4&#45;&gt;0x8</title>
<path fill="none" stroke="black" d="M82.79,-244.69C68.33,-265 50,-296.92 50,-328.24 50,-514.29 50,-514.29 50,-514.29 50,-533.87 53.34,-555.41 56.97,-573.03"/>
<polygon fill="black" stroke="black" points="53.58,-573.88 59.12,-582.9 60.42,-572.39 53.58,-573.88"/>
<text text-anchor="middle" x="61" y="-422.59" font-family="Times New Roman,serif" font-size="14.00">ε(9)</text>
</g>
<!-- 0x4&#45;&gt;0x7 -->
<g id="edge10" class="edge">
<title>0x4&#45;&gt;0x7</title>
<path fill="none" stroke="black" d="M96.6,-250.18C92.38,-293.42 89,-379.83 119,-444.29 128.21,-464.08 145.76,-481.4 160.72,-493.6"/>
<polygon fill="black" stroke="black" points="158.66,-496.44 168.7,-499.84 162.98,-490.92 158.66,-496.44"/>
<text text-anchor="middle" x="113" y="-379.09" font-family="Times New Roman,serif" font-size="14.00">ε(5)</text>
</g>
<!-- 0x4&#45;&gt;0x5 -->
<g id="edge4" class="edge">
<title>0x4&#45;&gt;0x5</title>
<path fill="none" stroke="black" d="M100,-193.91C100,-181.14 100,-165.96 100,-153.2"/>
<polygon fill="black" stroke="black" points="103.5,-153.16 100,-143.16 96.5,-153.16 103.5,-153.16"/>
<text text-anchor="middle" x="111" y="-164.9" font-family="Times New Roman,serif" font-size="14.00">ε(0)</text>
</g>
<!-- 0x1&#45;&gt;0x8 -->
<g id="edge16" class="edge">
<title>0x1&#45;&gt;0x8</title>
<path fill="none" stroke="black" d="M339.57,-352.07C355.29,-375.65 374.39,-413.91 359,-444.29 308.65,-543.65 170.6,-586.58 103.54,-602.01"/>
<polygon fill="black" stroke="black" points="102.42,-598.67 93.42,-604.25 103.94,-605.5 102.42,-598.67"/>
<text text-anchor="middle" x="357.5" y="-466.09" font-family="Times New Roman,serif" font-size="14.00">ε(b)</text>
</g>
<!-- 0x1&#45;&gt;0x7 -->
<g id="edge12" class="edge">
<title>0x1&#45;&gt;0x7</title>
<path fill="none" stroke="black" d="M306.14,-351.68C294.22,-367.12 278.1,-388.62 265,-408.29 245.22,-437.98 246.28,-449.43 224,-477.29 220.11,-482.15 215.55,-486.99 211,-491.45"/>
<polygon fill="black" stroke="black" points="208.35,-489.14 203.45,-498.53 213.14,-494.24 208.35,-489.14"/>
<text text-anchor="middle" x="276" y="-422.59" font-family="Times New Roman,serif" font-size="14.00">ε(7)</text>
</g>
<!-- 0x5&#45;&gt;0x6 -->
<g id="edge5" class="edge">
<title>0x5&#45;&gt;0x6</title>
<path fill="none" stroke="black" d="M100.09,-106.97C100.12,-97.32 100.12,-85.03 100,-74.1 99.97,-71.56 99.93,-68.95 99.89,-66.32"/>
<polygon fill="black" stroke="black" points="103.39,-66.13 99.7,-56.2 96.39,-66.27 103.39,-66.13"/>
<text text-anchor="middle" x="104.5" y="-77.9" font-family="Times New Roman,serif" font-size="14.00">c</text>
</g>
</g>
</svg>
