<?xml version="1.0" encoding="UTF-8" standalone="no"?>
<!DOCTYPE svg PUBLIC "-//W3C//DTD SVG 1.1//EN"
 "http://www.w3.org/Graphics/SVG/1.1/DTD/svg11.dtd">
<!-- Generated by graphviz version 3.0.0 (20220226.1711)
 -->
<!-- Pages: 1 -->
<svg width="113pt" height="784pt"
 viewBox="0.00 0.00 112.60 784.39" xmlns="http://www.w3.org/2000/svg" xmlns:xlink="http://www.w3.org/1999/xlink">
<g id="graph0" class="graph" transform="scale(1 1) rotate(0) translate(4 780.39)">
<polygon fill="white" stroke="transparent" points="-4,4 -4,-780.39 108.6,-780.39 108.6,4 -4,4"/>
<!-- fake -->
<g id="node1" class="node">
<title>fake</title>
</g>
<!-- 0x10 -->
<g id="node2" class="node">
<title>0x10</title>
<ellipse fill="none" stroke="black" cx="56.6" cy="-685.39" rx="28.7" ry="18"/>
<text text-anchor="middle" x="56.6" y="-681.69" font-family="Times New Roman,serif" font-size="14.00">0x10</text>
</g>
<!-- fake&#45;&gt;0x10 -->
<g id="edge1" class="edge">
<title>fake&#45;&gt;0x10</title>
<path fill="none" stroke="black" stroke-width="2" d="M56.6,-740.2C56.6,-732.18 56.6,-722.44 56.6,-713.46"/>
<polygon fill="black" stroke="black" stroke-width="2" points="60.1,-713.42 56.6,-703.42 53.1,-713.42 60.1,-713.42"/>
</g>
<!-- 0x11 -->
<g id="node3" class="node">
<title>0x11</title>
<ellipse fill="none" stroke="black" cx="28.6" cy="-598.39" rx="28.7" ry="18"/>
<text text-anchor="middle" x="28.6" y="-594.69" font-family="Times New Roman,serif" font-size="14.00">0x11</text>
</g>
<!-- 0x10&#45;&gt;0x11 -->
<g id="edge2" class="edge">
<title>0x10&#45;&gt;0x11</title>
<path fill="none" stroke="black" d="M51.07,-667.6C47.15,-655.72 41.83,-639.56 37.35,-625.95"/>
<polygon fill="black" stroke="black" points="40.57,-624.55 34.12,-616.15 33.92,-626.74 40.57,-624.55"/>
<text text-anchor="middle" x="55.6" y="-638.19" font-family="Times New Roman,serif" font-size="14.00">ε(9)</text>
</g>
<!-- 0x13 -->
<g id="node5" class="node">
<title>0x13</title>
<ellipse fill="none" stroke="black" cx="56.6" cy="-424.39" rx="28.7" ry="18"/>
<text text-anchor="middle" x="56.6" y="-420.69" font-family="Times New Roman,serif" font-size="14.00">0x13</text>
</g>
<!-- 0x10&#45;&gt;0x13 -->
<g id="edge6" class="edge">
<title>0x10&#45;&gt;0x13</title>
<path fill="none" stroke="black" d="M64.63,-668.05C67.05,-662.29 69.38,-655.69 70.6,-649.39 86.48,-566.91 86.48,-542.87 70.6,-460.39 70.01,-457.34 69.16,-454.22 68.16,-451.15"/>
<polygon fill="black" stroke="black" points="71.42,-449.87 64.63,-441.73 64.86,-452.32 71.42,-449.87"/>
<text text-anchor="middle" x="93.1" y="-551.19" font-family="Times New Roman,serif" font-size="14.00">ε(d)</text>
</g>
<!-- 0x12 -->
<g id="node4" class="node">
<title>0x12</title>
<ellipse fill="none" stroke="black" cx="28.6" cy="-511.39" rx="28.7" ry="18"/>
<text text-anchor="middle" x="28.6" y="-507.69" font-family="Times New Roman,serif" font-size="14.00">0x12</text>
</g>
<!-- 0x11&#45;&gt;0x12 -->
<g id="edge3" class="edge">
<title>0x11&#45;&gt;0x12</title>
<path fill="none" stroke="black" d="M16.25,-581.99C9.97,-572.29 4.28,-559.37 7.6,-547.39 8.6,-543.76 10.09,-540.13 11.83,-536.66"/>
<polygon fill="black" stroke="black" points="14.89,-538.35 16.81,-527.93 8.81,-534.88 14.89,-538.35"/>
<text text-anchor="middle" x="11.1" y="-551.19" font-family="Times New Roman,serif" font-size="14.00">k</text>
</g>
<!-- 0x12&#45;&gt;0x11 -->
<g id="edge4" class="edge">
<title>0x12&#45;&gt;0x11</title>
<path fill="none" stroke="black" d="M28.6,-529.57C28.6,-541.2 28.6,-556.81 28.6,-570.12"/>
<polygon fill="black" stroke="black" points="25.1,-570.19 28.6,-580.19 32.1,-570.19 25.1,-570.19"/>
<text text-anchor="middle" x="39.6" y="-551.19" font-family="Times New Roman,serif" font-size="14.00">ε(a)</text>
</g>
<!-- 0x12&#45;&gt;0x13 -->
<g id="edge7" class="edge">
<title>0x12&#45;&gt;0x13</title>
<path fill="none" stroke="black" d="M34.13,-493.6C38.04,-481.72 43.37,-465.56 47.85,-451.95"/>
<polygon fill="black" stroke="black" points="51.27,-452.74 51.08,-442.15 44.62,-450.55 51.27,-452.74"/>
<text text-anchor="middle" x="55.6" y="-464.19" font-family="Times New Roman,serif" font-size="14.00">ε(e)</text>
</g>
<!-- 0x14 -->
<g id="node6" class="node">
<title>0x14</title>
<ellipse fill="none" stroke="black" cx="56.6" cy="-337.39" rx="28.7" ry="18"/>
<text text-anchor="middle" x="56.6" y="-333.69" font-family="Times New Roman,serif" font-size="14.00">0x14</text>
</g>
<!-- 0x13&#45;&gt;0x14 -->
<g id="edge5" class="edge">
<title>0x13&#45;&gt;0x14</title>
<path fill="none" stroke="black" d="M56.6,-406.19C56.6,-394.55 56.6,-378.94 56.6,-365.63"/>
<polygon fill="black" stroke="black" points="60.1,-365.57 56.6,-355.57 53.1,-365.57 60.1,-365.57"/>
<text text-anchor="middle" x="60.1" y="-377.19" font-family="Times New Roman,serif" font-size="14.00">u</text>
</g>
<!-- 0x15 -->
<g id="node7" class="node">
<title>0x15</title>
<ellipse fill="none" stroke="black" cx="56.6" cy="-235.79" rx="28.68" ry="28.68"/>
<ellipse fill="none" stroke="black" cx="56.6" cy="-235.79" rx="32.7" ry="32.7"/>
<text text-anchor="middle" x="56.6" y="-232.09" font-family="Times New Roman,serif" font-size="14.00">0x15</text>
</g>
<!-- 0x14&#45;&gt;0x15 -->
<g id="edge11" class="edge">
<title>0x14&#45;&gt;0x15</title>
<path fill="none" stroke="black" d="M56.6,-319.04C56.6,-307.83 56.6,-292.73 56.6,-278.53"/>
<polygon fill="black" stroke="black" points="60.1,-278.42 56.6,-268.42 53.1,-278.42 60.1,-278.42"/>
<text text-anchor="middle" x="66.6" y="-290.19" font-family="Times New Roman,serif" font-size="14.00">ε(f)</text>
</g>
<!-- 0x16 -->
<g id="node8" class="node">
<title>0x16</title>
<ellipse fill="none" stroke="black" cx="56.6" cy="-134.19" rx="28.7" ry="18"/>
<text text-anchor="middle" x="56.6" y="-130.49" font-family="Times New Roman,serif" font-size="14.00">0x16</text>
</g>
<!-- 0x15&#45;&gt;0x16 -->
<g id="edge8" class="edge">
<title>0x15&#45;&gt;0x16</title>
<path fill="none" stroke="black" d="M56.6,-203.01C56.6,-189.97 56.6,-175.04 56.6,-162.51"/>
<polygon fill="black" stroke="black" points="60.1,-162.22 56.6,-152.22 53.1,-162.22 60.1,-162.22"/>
<text text-anchor="middle" x="68.1" y="-173.99" font-family="Times New Roman,serif" font-size="14.00">ε(b)</text>
</g>
<!-- 0x17 -->
<g id="node9" class="node">
<title>0x17</title>
<ellipse fill="none" stroke="black" cx="56.6" cy="-32.6" rx="28.68" ry="28.68"/>
<ellipse fill="none" stroke="black" cx="56.6" cy="-32.6" rx="32.7" ry="32.7"/>
<text text-anchor="middle" x="56.6" y="-28.9" font-family="Times New Roman,serif" font-size="14.00">0x17</text>
</g>
<!-- 0x16&#45;&gt;0x17 -->
<g id="edge9" class="edge">
<title>0x16&#45;&gt;0x17</title>
<path fill="none" stroke="black" d="M49.58,-116.4C47.55,-110.72 45.61,-104.28 44.6,-98.19 43.28,-90.28 43.59,-81.85 44.73,-73.77"/>
<polygon fill="black" stroke="black" points="48.2,-74.26 46.57,-63.79 41.32,-72.99 48.2,-74.26"/>
<text text-anchor="middle" x="48.1" y="-86.99" font-family="Times New Roman,serif" font-size="14.00">e</text>
</g>
<!-- 0x17&#45;&gt;0x16 -->
<g id="edge10" class="edge">
<title>0x17&#45;&gt;0x16</title>
<path fill="none" stroke="black" d="M56.6,-65.22C56.6,-78.18 56.6,-93.04 56.6,-105.56"/>
<polygon fill="black" stroke="black" points="53.1,-105.85 56.6,-115.85 60.1,-105.85 53.1,-105.85"/>
<text text-anchor="middle" x="67.6" y="-86.99" font-family="Times New Roman,serif" font-size="14.00">ε(c)</text>
</g>
</g>
</svg>
