<?xml version="1.0" encoding="UTF-8" standalone="no"?>
<!DOCTYPE svg PUBLIC "-//W3C//DTD SVG 1.1//EN"
 "http://www.w3.org/Graphics/SVG/1.1/DTD/svg11.dtd">
<!-- Generated by graphviz version 2.43.0 (0)
 -->
<!-- Title: %3 Pages: 1 -->
<svg width="319pt" height="418pt"
 viewBox="0.00 0.00 318.81 417.70" xmlns="http://www.w3.org/2000/svg" xmlns:xlink="http://www.w3.org/1999/xlink">
<g id="graph0" class="graph" transform="scale(1 1) rotate(0) translate(4 413.7)">
<title>%3</title>
<polygon fill="white" stroke="transparent" points="-4,4 -4,-413.7 314.81,-413.7 314.81,4 -4,4"/>
<!-- fake -->
<g id="node1" class="node">
<title>fake</title>
</g>
<!-- t0 -->
<g id="node2" class="node">
<title>t0</title>
<ellipse fill="none" stroke="black" cx="205.81" cy="-300.7" rx="18" ry="18"/>
<ellipse fill="none" stroke="black" cx="205.81" cy="-300.7" rx="22" ry="22"/>
<text text-anchor="middle" x="205.81" y="-297" font-family="Times,serif" font-size="14.00">t0</text>
</g>
<!-- fake&#45;&gt;t0 -->
<g id="edge1" class="edge">
<title>fake&#45;&gt;t0</title>
<path fill="none" stroke="black" stroke-width="2" d="M205.81,-373.54C205.81,-362.14 205.81,-346.83 205.81,-333.27"/>
<polygon fill="black" stroke="black" stroke-width="2" points="209.31,-332.89 205.81,-322.89 202.31,-332.89 209.31,-332.89"/>
</g>
<!-- sink -->
<g id="node3" class="node">
<title>sink</title>
<ellipse fill="none" stroke="black" cx="62.81" cy="-22" rx="27" ry="18"/>
<text text-anchor="middle" x="62.81" y="-18.3" font-family="Times,serif" font-size="14.00">sink</text>
</g>
<!-- t0&#45;&gt;sink -->
<g id="edge15" class="edge">
<title>t0&#45;&gt;sink</title>
<path fill="none" stroke="black" d="M183.71,-298.62C143.43,-295.33 58.84,-281.95 21.81,-227.7 -19.83,-166.68 5.96,-130 34.81,-62 37.09,-56.63 40.21,-51.28 43.55,-46.34"/>
<polygon fill="black" stroke="black" points="46.59,-48.12 49.66,-37.98 40.94,-43.99 46.59,-48.12"/>
<text text-anchor="middle" x="5.31" y="-152.8" font-family="Times,serif" font-size="14.00">c</text>
</g>
<!-- t2 -->
<g id="node4" class="node">
<title>t2</title>
<ellipse fill="none" stroke="black" cx="206.81" cy="-204.85" rx="27" ry="18"/>
<text text-anchor="middle" x="206.81" y="-201.15" font-family="Times,serif" font-size="14.00">t2</text>
</g>
<!-- t0&#45;&gt;t2 -->
<g id="edge3" class="edge">
<title>t0&#45;&gt;t2</title>
<path fill="none" stroke="black" d="M206.04,-278.4C206.18,-265.04 206.36,-247.68 206.52,-233.3"/>
<polygon fill="black" stroke="black" points="210.02,-233.02 206.63,-222.99 203.02,-232.95 210.02,-233.02"/>
<text text-anchor="middle" x="210.31" y="-249.5" font-family="Times,serif" font-size="14.00">a</text>
</g>
<!-- t1 -->
<g id="node8" class="node">
<title>t1</title>
<ellipse fill="none" stroke="black" cx="133.81" cy="-113" rx="27" ry="18"/>
<text text-anchor="middle" x="133.81" y="-109.3" font-family="Times,serif" font-size="14.00">t1</text>
</g>
<!-- t0&#45;&gt;t1 -->
<g id="edge2" class="edge">
<title>t0&#45;&gt;t1</title>
<path fill="none" stroke="black" d="M193.69,-282.05C184.42,-267.89 171.9,-247.21 163.81,-227.7 151.94,-199.08 143.6,-164.44 138.78,-140.97"/>
<polygon fill="black" stroke="black" points="142.19,-140.16 136.81,-131.03 135.32,-141.52 142.19,-140.16"/>
<text text-anchor="middle" x="167.31" y="-201.15" font-family="Times,serif" font-size="14.00">b</text>
</g>
<!-- sink&#45;&gt;sink -->
<g id="edge16" class="edge">
<title>sink&#45;&gt;sink</title>
<path fill="none" stroke="black" d="M89.6,-24.87C99.59,-24.96 107.81,-24.01 107.81,-22 107.81,-20.75 104.6,-19.9 99.75,-19.47"/>
<polygon fill="black" stroke="black" points="99.71,-15.97 89.6,-19.13 99.48,-22.96 99.71,-15.97"/>
<text text-anchor="middle" x="111.31" y="-18.3" font-family="Times,serif" font-size="14.00">c</text>
</g>
<!-- sink&#45;&gt;sink -->
<g id="edge17" class="edge">
<title>sink&#45;&gt;sink</title>
<path fill="none" stroke="black" d="M88.69,-27.13C107.29,-28.8 125.81,-27.09 125.81,-22 125.81,-17.86 113.58,-15.96 99.02,-16.29"/>
<polygon fill="black" stroke="black" points="98.48,-12.81 88.69,-16.87 98.88,-19.8 98.48,-12.81"/>
<text text-anchor="middle" x="129.31" y="-18.3" font-family="Times,serif" font-size="14.00">a</text>
</g>
<!-- sink&#45;&gt;sink -->
<g id="edge18" class="edge">
<title>sink&#45;&gt;sink</title>
<path fill="none" stroke="black" d="M88.1,-28.67C114.38,-32.71 143.81,-30.49 143.81,-22 143.81,-14.57 121.27,-11.94 98.04,-14.11"/>
<polygon fill="black" stroke="black" points="97.6,-10.64 88.1,-15.33 98.46,-17.59 97.6,-10.64"/>
<text text-anchor="middle" x="147.31" y="-18.3" font-family="Times,serif" font-size="14.00">b</text>
</g>
<!-- t2&#45;&gt;sink -->
<g id="edge19" class="edge">
<title>t2&#45;&gt;sink</title>
<path fill="none" stroke="black" d="M205.08,-186.73C201.89,-163.41 193.13,-121.53 169.81,-95 148.24,-70.46 116.5,-50.51 93.19,-37.88"/>
<polygon fill="black" stroke="black" points="94.57,-34.65 84.09,-33.09 91.3,-40.84 94.57,-34.65"/>
<text text-anchor="middle" x="195.31" y="-109.3" font-family="Times,serif" font-size="14.00">c</text>
</g>
<!-- t4 -->
<g id="node7" class="node">
<title>t4</title>
<ellipse fill="none" stroke="black" cx="263.81" cy="-22" rx="18" ry="18"/>
<ellipse fill="none" stroke="black" cx="263.81" cy="-22" rx="22" ry="22"/>
<text text-anchor="middle" x="263.81" y="-18.3" font-family="Times,serif" font-size="14.00">t4</text>
</g>
<!-- t2&#45;&gt;t4 -->
<g id="edge7" class="edge">
<title>t2&#45;&gt;t4</title>
<path fill="none" stroke="black" d="M217.3,-188.09C221.67,-180.97 226.49,-172.31 229.81,-164 244.37,-127.55 253.8,-83.22 258.96,-54.12"/>
<polygon fill="black" stroke="black" points="262.43,-54.57 260.66,-44.12 255.53,-53.39 262.43,-54.57"/>
<text text-anchor="middle" x="254.31" y="-109.3" font-family="Times,serif" font-size="14.00">a</text>
</g>
<!-- t2&#45;&gt;t1 -->
<g id="edge6" class="edge">
<title>t2&#45;&gt;t1</title>
<path fill="none" stroke="black" d="M192.65,-189.48C185.57,-182.07 176.99,-172.76 169.81,-164 163.07,-155.77 156.13,-146.39 150.17,-137.99"/>
<polygon fill="black" stroke="black" points="152.96,-135.87 144.36,-129.69 147.22,-139.89 152.96,-135.87"/>
<text text-anchor="middle" x="173.31" y="-152.8" font-family="Times,serif" font-size="14.00">b</text>
</g>
<!-- t3 -->
<g id="node5" class="node">
<title>t3</title>
<ellipse fill="none" stroke="black" cx="108.81" cy="-391.7" rx="27" ry="18"/>
<text text-anchor="middle" x="108.81" y="-388" font-family="Times,serif" font-size="14.00">t3</text>
</g>
<!-- t3&#45;&gt;t0 -->
<g id="edge8" class="edge">
<title>t3&#45;&gt;t0</title>
<path fill="none" stroke="black" d="M123.97,-376.79C139.49,-362.55 163.85,-340.19 181.96,-323.58"/>
<polygon fill="black" stroke="black" points="184.79,-325.73 189.79,-316.39 180.06,-320.57 184.79,-325.73"/>
<text text-anchor="middle" x="167.31" y="-344.5" font-family="Times,serif" font-size="14.00">c</text>
</g>
<!-- t3&#45;&gt;t3 -->
<g id="edge9" class="edge">
<title>t3&#45;&gt;t3</title>
<path fill="none" stroke="black" d="M133.34,-399.45C144.32,-400.19 153.81,-397.6 153.81,-391.7 153.81,-387.73 149.52,-385.26 143.38,-384.29"/>
<polygon fill="black" stroke="black" points="143.46,-380.79 133.34,-383.94 143.22,-387.79 143.46,-380.79"/>
<text text-anchor="middle" x="157.31" y="-388" font-family="Times,serif" font-size="14.00">b</text>
</g>
<!-- t3&#45;&gt;t1 -->
<g id="edge10" class="edge">
<title>t3&#45;&gt;t1</title>
<path fill="none" stroke="black" d="M110.37,-373.39C114.59,-326.71 126.23,-197.93 131.34,-141.31"/>
<polygon fill="black" stroke="black" points="134.83,-141.58 132.25,-131.3 127.86,-140.95 134.83,-141.58"/>
<text text-anchor="middle" x="126.31" y="-249.5" font-family="Times,serif" font-size="14.00">a</text>
</g>
<!-- a0 -->
<g id="node6" class="node">
<title>a0</title>
<ellipse fill="none" stroke="black" cx="53.81" cy="-204.85" rx="18.72" ry="18.72"/>
<ellipse fill="none" stroke="black" cx="53.81" cy="-204.85" rx="22.7" ry="22.7"/>
<text text-anchor="middle" x="53.81" y="-201.15" font-family="Times,serif" font-size="14.00">a0</text>
</g>
<!-- a0&#45;&gt;sink -->
<g id="edge20" class="edge">
<title>a0&#45;&gt;sink</title>
<path fill="none" stroke="black" d="M45.45,-183.36C37.59,-161.47 27.85,-125.75 33.81,-95 36.92,-78.92 43.62,-61.89 49.79,-48.43"/>
<polygon fill="black" stroke="black" points="52.98,-49.85 54.13,-39.32 46.67,-46.84 52.98,-49.85"/>
<text text-anchor="middle" x="37.31" y="-109.3" font-family="Times,serif" font-size="14.00">c</text>
</g>
<!-- a0&#45;&gt;sink -->
<g id="edge21" class="edge">
<title>a0&#45;&gt;sink</title>
<path fill="none" stroke="black" d="M54.91,-181.67C56.56,-148.59 59.66,-86.38 61.44,-50.47"/>
<polygon fill="black" stroke="black" points="64.95,-50.39 61.95,-40.23 57.96,-50.04 64.95,-50.39"/>
<text text-anchor="middle" x="63.31" y="-109.3" font-family="Times,serif" font-size="14.00">b</text>
</g>
<!-- a0&#45;&gt;t1 -->
<g id="edge14" class="edge">
<title>a0&#45;&gt;t1</title>
<path fill="none" stroke="black" d="M64.44,-184.5C70.98,-173.48 79.98,-159.77 89.81,-149 95.06,-143.25 101.31,-137.69 107.42,-132.75"/>
<polygon fill="black" stroke="black" points="109.8,-135.34 115.57,-126.45 105.52,-129.8 109.8,-135.34"/>
<text text-anchor="middle" x="93.31" y="-152.8" font-family="Times,serif" font-size="14.00">a</text>
</g>
<!-- t4&#45;&gt;t0 -->
<g id="edge12" class="edge">
<title>t4&#45;&gt;t0</title>
<path fill="none" stroke="black" d="M264.78,-44.02C265.86,-81.88 265.08,-163.58 242.81,-227.7 237.47,-243.08 229.38,-259.29 222.13,-272.42"/>
<polygon fill="black" stroke="black" points="218.93,-270.96 217.05,-281.39 225.02,-274.41 218.93,-270.96"/>
<text text-anchor="middle" x="263.31" y="-152.8" font-family="Times,serif" font-size="14.00">b</text>
</g>
<!-- t4&#45;&gt;t0 -->
<g id="edge13" class="edge">
<title>t4&#45;&gt;t0</title>
<path fill="none" stroke="black" d="M272.89,-42.43C275.31,-48.56 277.59,-55.44 278.81,-62 280.03,-68.55 278.93,-70.33 278.81,-77 277.56,-144.34 282.56,-163.3 262.81,-227.7 258.03,-243.28 256.42,-247.53 246.81,-260.7 242.11,-267.13 236.27,-273.41 230.49,-278.97"/>
<polygon fill="black" stroke="black" points="227.75,-276.74 222.75,-286.08 232.48,-281.89 227.75,-276.74"/>
<text text-anchor="middle" x="281.31" y="-152.8" font-family="Times,serif" font-size="14.00">c</text>
</g>
<!-- t4&#45;&gt;t4 -->
<g id="edge11" class="edge">
<title>t4&#45;&gt;t4</title>
<path fill="none" stroke="black" d="M284.39,-30.37C294.65,-31.53 303.81,-28.74 303.81,-22 303.81,-17.68 300.05,-14.99 294.65,-13.91"/>
<polygon fill="black" stroke="black" points="294.48,-10.41 284.39,-13.63 294.29,-17.4 294.48,-10.41"/>
<text text-anchor="middle" x="307.31" y="-18.3" font-family="Times,serif" font-size="14.00">a</text>
</g>
<!-- t1&#45;&gt;sink -->
<g id="edge22" class="edge">
<title>t1&#45;&gt;sink</title>
<path fill="none" stroke="black" d="M121.44,-96.5C110.45,-82.71 94.21,-62.36 81.61,-46.56"/>
<polygon fill="black" stroke="black" points="84.01,-43.96 75.03,-38.32 78.54,-48.32 84.01,-43.96"/>
<text text-anchor="middle" x="108.31" y="-65.8" font-family="Times,serif" font-size="14.00">a</text>
</g>
<!-- t1&#45;&gt;t2 -->
<g id="edge4" class="edge">
<title>t1&#45;&gt;t2</title>
<path fill="none" stroke="black" d="M151.34,-126.8C159.09,-132.98 167.97,-140.81 174.81,-149 182.31,-157.97 189.09,-168.93 194.46,-178.68"/>
<polygon fill="black" stroke="black" points="191.38,-180.36 199.15,-187.56 197.57,-177.09 191.38,-180.36"/>
<text text-anchor="middle" x="189.31" y="-152.8" font-family="Times,serif" font-size="14.00">c</text>
</g>
<!-- t1&#45;&gt;t4 -->
<g id="edge5" class="edge">
<title>t1&#45;&gt;t4</title>
<path fill="none" stroke="black" d="M151.89,-99.62C174.1,-84.41 211.98,-58.48 237.44,-41.05"/>
<polygon fill="black" stroke="black" points="239.61,-43.81 245.89,-35.27 235.66,-38.03 239.61,-43.81"/>
<text text-anchor="middle" x="210.31" y="-65.8" font-family="Times,serif" font-size="14.00">b</text>
</g>
</g>
</svg>
