<?xml version="1.0" encoding="UTF-8" standalone="no"?>
<!DOCTYPE svg PUBLIC "-//W3C//DTD SVG 1.1//EN"
 "http://www.w3.org/Graphics/SVG/1.1/DTD/svg11.dtd">
<!-- Generated by graphviz version 3.0.0 (20220226.1711)
 -->
<!-- Pages: 1 -->
<svg width="65pt" height="399pt"
 viewBox="0.00 0.00 65.40 399.40" xmlns="http://www.w3.org/2000/svg" xmlns:xlink="http://www.w3.org/1999/xlink">
<g id="graph0" class="graph" transform="scale(1 1) rotate(0) translate(4 395.4)">
<polygon fill="white" stroke="transparent" points="-4,4 -4,-395.4 61.4,-395.4 61.4,4 -4,4"/>
<!-- fake -->
<g id="node1" class="node">
<title>fake</title>
</g>
<!-- 0xa -->
<g id="node2" class="node">
<title>0xa</title>
<ellipse fill="none" stroke="black" cx="28.7" cy="-300.4" rx="27" ry="18"/>
<text text-anchor="middle" x="28.7" y="-296.7" font-family="Times New Roman,serif" font-size="14.00">0xa</text>
</g>
<!-- fake&#45;&gt;0xa -->
<g id="edge1" class="edge">
<title>fake&#45;&gt;0xa</title>
<path fill="none" stroke="black" stroke-width="2" d="M28.7,-355.21C28.7,-347.19 28.7,-337.44 28.7,-328.46"/>
<polygon fill="black" stroke="black" stroke-width="2" points="32.2,-328.42 28.7,-318.42 25.2,-328.42 32.2,-328.42"/>
</g>
<!-- 0xb -->
<g id="node3" class="node">
<title>0xb</title>
<ellipse fill="none" stroke="black" cx="28.7" cy="-213.4" rx="27" ry="18"/>
<text text-anchor="middle" x="28.7" y="-209.7" font-family="Times New Roman,serif" font-size="14.00">0xb</text>
</g>
<!-- 0xa&#45;&gt;0xb -->
<g id="edge2" class="edge">
<title>0xa&#45;&gt;0xb</title>
<path fill="none" stroke="black" d="M28.7,-282.19C28.7,-270.56 28.7,-254.94 28.7,-241.63"/>
<polygon fill="black" stroke="black" points="32.2,-241.57 28.7,-231.57 25.2,-241.57 32.2,-241.57"/>
<text text-anchor="middle" x="32.2" y="-253.2" font-family="Times New Roman,serif" font-size="14.00">e</text>
</g>
<!-- 0xc -->
<g id="node4" class="node">
<title>0xc</title>
<ellipse fill="none" stroke="black" cx="28.7" cy="-126.4" rx="27" ry="18"/>
<text text-anchor="middle" x="28.7" y="-122.7" font-family="Times New Roman,serif" font-size="14.00">0xc</text>
</g>
<!-- 0xb&#45;&gt;0xc -->
<g id="edge4" class="edge">
<title>0xb&#45;&gt;0xc</title>
<path fill="none" stroke="black" d="M28.7,-195.19C28.7,-183.56 28.7,-167.94 28.7,-154.63"/>
<polygon fill="black" stroke="black" points="32.2,-154.57 28.7,-144.57 25.2,-154.57 32.2,-154.57"/>
<text text-anchor="middle" x="39.7" y="-166.2" font-family="Times New Roman,serif" font-size="14.00">ε(2)</text>
</g>
<!-- 0xd -->
<g id="node5" class="node">
<title>0xd</title>
<ellipse fill="none" stroke="black" cx="28.7" cy="-28.7" rx="24.87" ry="24.87"/>
<ellipse fill="none" stroke="black" cx="28.7" cy="-28.7" rx="28.9" ry="28.9"/>
<text text-anchor="middle" x="28.7" y="-25" font-family="Times New Roman,serif" font-size="14.00">0xd</text>
</g>
<!-- 0xc&#45;&gt;0xd -->
<g id="edge3" class="edge">
<title>0xc&#45;&gt;0xd</title>
<path fill="none" stroke="black" d="M28.7,-108.29C28.7,-97.06 28.7,-81.92 28.7,-67.93"/>
<polygon fill="black" stroke="black" points="32.2,-67.54 28.7,-57.54 25.2,-67.54 32.2,-67.54"/>
<text text-anchor="middle" x="31.2" y="-79.2" font-family="Times New Roman,serif" font-size="14.00">f</text>
</g>
</g>
</svg>
