<?xml version="1.0" encoding="UTF-8" standalone="no"?>
<!DOCTYPE svg PUBLIC "-//W3C//DTD SVG 1.1//EN"
 "http://www.w3.org/Graphics/SVG/1.1/DTD/svg11.dtd">
<!-- Generated by graphviz version 3.0.0 (20220226.1711)
 -->
<!-- Pages: 1 -->
<svg width="64pt" height="572pt"
 viewBox="0.00 0.00 64.10 572.10" xmlns="http://www.w3.org/2000/svg" xmlns:xlink="http://www.w3.org/1999/xlink">
<g id="graph0" class="graph" transform="scale(1 1) rotate(0) translate(4 568.1)">
<polygon fill="white" stroke="transparent" points="-4,4 -4,-568.1 60.1,-568.1 60.1,4 -4,4"/>
<!-- fake -->
<g id="node1" class="node">
<title>fake</title>
</g>
<!-- 0x0 -->
<g id="node2" class="node">
<title>0x0</title>
<ellipse fill="none" stroke="black" cx="28.05" cy="-473.1" rx="27" ry="18"/>
<text text-anchor="middle" x="28.05" y="-469.4" font-family="Times New Roman,serif" font-size="14.00">0x0</text>
</g>
<!-- fake&#45;&gt;0x0 -->
<g id="edge1" class="edge">
<title>fake&#45;&gt;0x0</title>
<path fill="none" stroke="black" stroke-width="2" d="M28.05,-527.91C28.05,-519.89 28.05,-510.14 28.05,-501.16"/>
<polygon fill="black" stroke="black" stroke-width="2" points="31.55,-501.12 28.05,-491.12 24.55,-501.12 31.55,-501.12"/>
</g>
<!-- 0x1 -->
<g id="node3" class="node">
<title>0x1</title>
<ellipse fill="none" stroke="black" cx="28.05" cy="-386.1" rx="27" ry="18"/>
<text text-anchor="middle" x="28.05" y="-382.4" font-family="Times New Roman,serif" font-size="14.00">0x1</text>
</g>
<!-- 0x0&#45;&gt;0x1 -->
<g id="edge2" class="edge">
<title>0x0&#45;&gt;0x1</title>
<path fill="none" stroke="black" d="M28.05,-454.89C28.05,-443.26 28.05,-427.64 28.05,-414.33"/>
<polygon fill="black" stroke="black" points="31.55,-414.27 28.05,-404.27 24.55,-414.27 31.55,-414.27"/>
<text text-anchor="middle" x="30.55" y="-425.9" font-family="Times New Roman,serif" font-size="14.00">f</text>
</g>
<!-- 0x2 -->
<g id="node4" class="node">
<title>0x2</title>
<ellipse fill="none" stroke="black" cx="28.05" cy="-299.1" rx="27" ry="18"/>
<text text-anchor="middle" x="28.05" y="-295.4" font-family="Times New Roman,serif" font-size="14.00">0x2</text>
</g>
<!-- 0x1&#45;&gt;0x2 -->
<g id="edge4" class="edge">
<title>0x1&#45;&gt;0x2</title>
<path fill="none" stroke="black" d="M28.05,-367.89C28.05,-356.26 28.05,-340.64 28.05,-327.33"/>
<polygon fill="black" stroke="black" points="31.55,-327.27 28.05,-317.27 24.55,-327.27 31.55,-327.27"/>
<text text-anchor="middle" x="39.05" y="-338.9" font-family="Times New Roman,serif" font-size="14.00">ε(0)</text>
</g>
<!-- 0x3 -->
<g id="node5" class="node">
<title>0x3</title>
<ellipse fill="none" stroke="black" cx="28.05" cy="-212.1" rx="27" ry="18"/>
<text text-anchor="middle" x="28.05" y="-208.4" font-family="Times New Roman,serif" font-size="14.00">0x3</text>
</g>
<!-- 0x2&#45;&gt;0x3 -->
<g id="edge3" class="edge">
<title>0x2&#45;&gt;0x3</title>
<path fill="none" stroke="black" d="M28.05,-280.89C28.05,-269.26 28.05,-253.64 28.05,-240.33"/>
<polygon fill="black" stroke="black" points="31.55,-240.27 28.05,-230.27 24.55,-240.27 31.55,-240.27"/>
<text text-anchor="middle" x="31.55" y="-251.9" font-family="Times New Roman,serif" font-size="14.00">a</text>
</g>
<!-- 0x4 -->
<g id="node6" class="node">
<title>0x4</title>
<ellipse fill="none" stroke="black" cx="28.05" cy="-125.1" rx="27" ry="18"/>
<text text-anchor="middle" x="28.05" y="-121.4" font-family="Times New Roman,serif" font-size="14.00">0x4</text>
</g>
<!-- 0x3&#45;&gt;0x4 -->
<g id="edge6" class="edge">
<title>0x3&#45;&gt;0x4</title>
<path fill="none" stroke="black" d="M28.05,-193.89C28.05,-182.26 28.05,-166.64 28.05,-153.33"/>
<polygon fill="black" stroke="black" points="31.55,-153.27 28.05,-143.27 24.55,-153.27 31.55,-153.27"/>
<text text-anchor="middle" x="39.05" y="-164.9" font-family="Times New Roman,serif" font-size="14.00">ε(1)</text>
</g>
<!-- 0x5 -->
<g id="node7" class="node">
<title>0x5</title>
<ellipse fill="none" stroke="black" cx="28.05" cy="-28.05" rx="24.09" ry="24.09"/>
<ellipse fill="none" stroke="black" cx="28.05" cy="-28.05" rx="28.1" ry="28.1"/>
<text text-anchor="middle" x="28.05" y="-24.35" font-family="Times New Roman,serif" font-size="14.00">0x5</text>
</g>
<!-- 0x4&#45;&gt;0x5 -->
<g id="edge5" class="edge">
<title>0x4&#45;&gt;0x5</title>
<path fill="none" stroke="black" d="M28.05,-106.66C28.05,-95.47 28.05,-80.5 28.05,-66.7"/>
<polygon fill="black" stroke="black" points="31.55,-66.45 28.05,-56.45 24.55,-66.45 31.55,-66.45"/>
<text text-anchor="middle" x="31.55" y="-77.9" font-family="Times New Roman,serif" font-size="14.00">s</text>
</g>
</g>
</svg>
