<?xml version="1.0" encoding="UTF-8" standalone="no"?>
<!DOCTYPE svg PUBLIC "-//W3C//DTD SVG 1.1//EN"
 "http://www.w3.org/Graphics/SVG/1.1/DTD/svg11.dtd">
<!-- Generated by graphviz version 2.43.0 (0)
 -->
<!-- Title: %3 Pages: 1 -->
<svg width="299pt" height="224pt"
 viewBox="0.00 0.00 299.00 224.10" xmlns="http://www.w3.org/2000/svg" xmlns:xlink="http://www.w3.org/1999/xlink">
<g id="graph0" class="graph" transform="scale(1 1) rotate(0) translate(4 220.1)">
<title>%3</title>
<polygon fill="white" stroke="transparent" points="-4,4 -4,-220.1 295,-220.1 295,4 -4,4"/>
<!-- fake0 -->
<g id="node1" class="node">
<title>fake0</title>
</g>
<!-- 0x0 -->
<g id="node2" class="node">
<title>0x0</title>
<ellipse fill="none" stroke="black" cx="47" cy="-115.05" rx="24.09" ry="24.09"/>
<ellipse fill="none" stroke="black" cx="47" cy="-115.05" rx="28.1" ry="28.1"/>
<text text-anchor="middle" x="47" y="-111.35" font-family="Times,serif" font-size="14.00">0x0</text>
</g>
<!-- fake0&#45;&gt;0x0 -->
<g id="edge1" class="edge">
<title>fake0&#45;&gt;0x0</title>
<path fill="none" stroke="black" stroke-width="2" d="M47,-179.91C47,-172.14 47,-162.64 47,-153.37"/>
<polygon fill="black" stroke="black" stroke-width="2" points="50.5,-153.1 47,-143.1 43.5,-153.1 50.5,-153.1"/>
</g>
<!-- 0 -->
<g id="node5" class="node">
<title>0</title>
<ellipse fill="none" stroke="black" cx="108" cy="-18" rx="27" ry="18"/>
<text text-anchor="middle" x="108" y="-14.3" font-family="Times,serif" font-size="14.00">0</text>
</g>
<!-- 0x0&#45;&gt;0 -->
<g id="edge2" class="edge">
<title>0x0&#45;&gt;0</title>
<path fill="none" stroke="black" d="M46.98,-87C48.08,-76.04 50.81,-63.72 57,-54 62.07,-46.04 69.68,-39.42 77.47,-34.15"/>
<polygon fill="black" stroke="black" points="79.53,-37 86.23,-28.79 75.88,-31.03 79.53,-37"/>
<text text-anchor="middle" x="60.5" y="-57.8" font-family="Times,serif" font-size="14.00">ε</text>
</g>
<!-- x -->
<g id="node6" class="node">
<title>x</title>
<ellipse fill="none" stroke="black" cx="180" cy="-18" rx="27" ry="18"/>
<text text-anchor="middle" x="180" y="-14.3" font-family="Times,serif" font-size="14.00">x</text>
</g>
<!-- 0x0&#45;&gt;x -->
<g id="edge3" class="edge">
<title>0x0&#45;&gt;x</title>
<path fill="none" stroke="black" d="M68.84,-97.04C73.71,-93.54 78.94,-90.01 84,-87 100.06,-77.44 106.34,-79.19 122,-69 134.79,-60.68 147.76,-49.77 158.19,-40.27"/>
<polygon fill="black" stroke="black" points="160.69,-42.72 165.62,-33.34 155.92,-37.6 160.69,-42.72"/>
<text text-anchor="middle" x="145.5" y="-57.8" font-family="Times,serif" font-size="14.00">ε</text>
</g>
<!-- 1 -->
<g id="node7" class="node">
<title>1</title>
<ellipse fill="none" stroke="black" cx="27" cy="-18" rx="27" ry="18"/>
<text text-anchor="middle" x="27" y="-14.3" font-family="Times,serif" font-size="14.00">1</text>
</g>
<!-- 0x0&#45;&gt;1 -->
<g id="edge4" class="edge">
<title>0x0&#45;&gt;1</title>
<path fill="none" stroke="black" d="M34.07,-89.89C31.16,-83.3 28.49,-76.03 27,-69 25.48,-61.81 24.96,-53.91 24.95,-46.55"/>
<polygon fill="black" stroke="black" points="28.46,-46.4 25.25,-36.31 21.46,-46.2 28.46,-46.4"/>
<text text-anchor="middle" x="30.5" y="-57.8" font-family="Times,serif" font-size="14.00">ε</text>
</g>
<!-- 0x1 -->
<g id="node3" class="node">
<title>0x1</title>
<ellipse fill="none" stroke="black" cx="234" cy="-115.05" rx="27" ry="18"/>
<text text-anchor="middle" x="234" y="-111.35" font-family="Times,serif" font-size="14.00">0x1</text>
</g>
<!-- 0x1&#45;&gt;0 -->
<g id="edge5" class="edge">
<title>0x1&#45;&gt;0</title>
<path fill="none" stroke="black" d="M220.42,-99.11C208.24,-86.23 189.5,-67.61 171,-54 160.94,-46.6 149.16,-39.65 138.52,-33.93"/>
<polygon fill="black" stroke="black" points="140.02,-30.76 129.53,-29.23 136.77,-36.97 140.02,-30.76"/>
<text text-anchor="middle" x="190.5" y="-57.8" font-family="Times,serif" font-size="14.00">a</text>
</g>
<!-- 0x1&#45;&gt;x -->
<g id="edge6" class="edge">
<title>0x1&#45;&gt;x</title>
<path fill="none" stroke="black" d="M229.74,-97.21C226.14,-84.72 220.24,-67.57 212,-54 209.19,-49.37 205.7,-44.81 202.08,-40.58"/>
<polygon fill="black" stroke="black" points="204.43,-37.96 195.09,-32.95 199.27,-42.69 204.43,-37.96"/>
<text text-anchor="middle" x="222.5" y="-57.8" font-family="Times,serif" font-size="14.00">a</text>
</g>
<!-- 2 -->
<g id="node8" class="node">
<title>2</title>
<ellipse fill="none" stroke="black" cx="264" cy="-18" rx="27" ry="18"/>
<text text-anchor="middle" x="264" y="-14.3" font-family="Times,serif" font-size="14.00">2</text>
</g>
<!-- 0x1&#45;&gt;2 -->
<g id="edge7" class="edge">
<title>0x1&#45;&gt;2</title>
<path fill="none" stroke="black" d="M239.36,-97.06C243.89,-82.73 250.43,-61.98 255.64,-45.48"/>
<polygon fill="black" stroke="black" points="259.01,-46.44 258.68,-35.85 252.34,-44.33 259.01,-46.44"/>
<text text-anchor="middle" x="255.5" y="-57.8" font-family="Times,serif" font-size="14.00">a</text>
</g>
<!-- 0x2 -->
<g id="node4" class="node">
<title>0x2</title>
<ellipse fill="none" stroke="black" cx="121" cy="-115.05" rx="24.09" ry="24.09"/>
<ellipse fill="none" stroke="black" cx="121" cy="-115.05" rx="28.1" ry="28.1"/>
<text text-anchor="middle" x="121" y="-111.35" font-family="Times,serif" font-size="14.00">0x2</text>
</g>
<!-- 0x2&#45;&gt;0 -->
<g id="edge8" class="edge">
<title>0x2&#45;&gt;0</title>
<path fill="none" stroke="black" d="M117.31,-87.07C115.56,-74.29 113.48,-59.06 111.73,-46.25"/>
<polygon fill="black" stroke="black" points="115.17,-45.59 110.35,-36.16 108.23,-46.54 115.17,-45.59"/>
<text text-anchor="middle" x="117.5" y="-57.8" font-family="Times,serif" font-size="14.00">ε</text>
</g>
<!-- 0x2&#45;&gt;x -->
<g id="edge9" class="edge">
<title>0x2&#45;&gt;x</title>
<path fill="none" stroke="black" d="M136.87,-91.86C141.85,-84.66 147.29,-76.58 152,-69 156.91,-61.11 161.97,-52.32 166.41,-44.33"/>
<polygon fill="black" stroke="black" points="169.55,-45.88 171.29,-35.43 163.41,-42.51 169.55,-45.88"/>
<text text-anchor="middle" x="163.5" y="-57.8" font-family="Times,serif" font-size="14.00">ε</text>
</g>
<!-- 0x2&#45;&gt;1 -->
<g id="edge10" class="edge">
<title>0x2&#45;&gt;1</title>
<path fill="none" stroke="black" d="M101.65,-94.26C90.15,-82.53 75.27,-67.39 62,-54 57.66,-49.62 53,-44.95 48.55,-40.49"/>
<polygon fill="black" stroke="black" points="50.88,-37.87 41.33,-33.28 45.93,-42.82 50.88,-37.87"/>
<text text-anchor="middle" x="79.5" y="-57.8" font-family="Times,serif" font-size="14.00">ε</text>
</g>
</g>
</svg>
