<?xml version="1.0" encoding="UTF-8" standalone="no"?>
<!DOCTYPE svg PUBLIC "-//W3C//DTD SVG 1.1//EN"
 "http://www.w3.org/Graphics/SVG/1.1/DTD/svg11.dtd">
<!-- Generated by graphviz version 3.0.0 (20220226.1711)
 -->
<!-- Pages: 1 -->
<svg width="120pt" height="957pt"
 viewBox="0.00 0.00 119.60 957.09" xmlns="http://www.w3.org/2000/svg" xmlns:xlink="http://www.w3.org/1999/xlink">
<g id="graph0" class="graph" transform="scale(1 1) rotate(0) translate(4 953.09)">
<polygon fill="white" stroke="transparent" points="-4,4 -4,-953.09 115.6,-953.09 115.6,4 -4,4"/>
<!-- fake -->
<g id="node1" class="node">
<title>fake</title>
</g>
<!-- 0x37 -->
<g id="node2" class="node">
<title>0x37</title>
<ellipse fill="none" stroke="black" cx="57.6" cy="-858.09" rx="28.7" ry="18"/>
<text text-anchor="middle" x="57.6" y="-854.39" font-family="Times New Roman,serif" font-size="14.00">0x37</text>
</g>
<!-- fake&#45;&gt;0x37 -->
<g id="edge1" class="edge">
<title>fake&#45;&gt;0x37</title>
<path fill="none" stroke="black" stroke-width="2" d="M57.6,-912.9C57.6,-904.88 57.6,-895.14 57.6,-886.16"/>
<polygon fill="black" stroke="black" stroke-width="2" points="61.1,-886.12 57.6,-876.12 54.1,-886.12 61.1,-886.12"/>
</g>
<!-- 0x38 -->
<g id="node3" class="node">
<title>0x38</title>
<ellipse fill="none" stroke="black" cx="57.6" cy="-771.09" rx="28.7" ry="18"/>
<text text-anchor="middle" x="57.6" y="-767.39" font-family="Times New Roman,serif" font-size="14.00">0x38</text>
</g>
<!-- 0x37&#45;&gt;0x38 -->
<g id="edge2" class="edge">
<title>0x37&#45;&gt;0x38</title>
<path fill="none" stroke="black" d="M57.6,-839.89C57.6,-828.25 57.6,-812.64 57.6,-799.33"/>
<polygon fill="black" stroke="black" points="61.1,-799.27 57.6,-789.27 54.1,-799.27 61.1,-799.27"/>
<text text-anchor="middle" x="61.6" y="-810.89" font-family="Times New Roman,serif" font-size="14.00">b</text>
</g>
<!-- 0x39 -->
<g id="node4" class="node">
<title>0x39</title>
<ellipse fill="none" stroke="black" cx="57.6" cy="-684.09" rx="28.7" ry="18"/>
<text text-anchor="middle" x="57.6" y="-680.39" font-family="Times New Roman,serif" font-size="14.00">0x39</text>
</g>
<!-- 0x38&#45;&gt;0x39 -->
<g id="edge6" class="edge">
<title>0x38&#45;&gt;0x39</title>
<path fill="none" stroke="black" d="M57.6,-752.89C57.6,-741.25 57.6,-725.64 57.6,-712.33"/>
<polygon fill="black" stroke="black" points="61.1,-712.27 57.6,-702.27 54.1,-712.27 61.1,-712.27"/>
<text text-anchor="middle" x="72.1" y="-723.89" font-family="Times New Roman,serif" font-size="14.00">ε(29)</text>
</g>
<!-- 0x3a -->
<g id="node5" class="node">
<title>0x3a</title>
<ellipse fill="none" stroke="black" cx="29.6" cy="-597.09" rx="27.9" ry="18"/>
<text text-anchor="middle" x="29.6" y="-593.39" font-family="Times New Roman,serif" font-size="14.00">0x3a</text>
</g>
<!-- 0x39&#45;&gt;0x3a -->
<g id="edge3" class="edge">
<title>0x39&#45;&gt;0x3a</title>
<path fill="none" stroke="black" d="M49.91,-666.56C47.38,-660.79 44.69,-654.22 42.6,-648.09 40.04,-640.62 37.71,-632.38 35.74,-624.78"/>
<polygon fill="black" stroke="black" points="39.11,-623.81 33.31,-614.94 32.32,-625.49 39.11,-623.81"/>
<text text-anchor="middle" x="57.1" y="-636.89" font-family="Times New Roman,serif" font-size="14.00">ε(25)</text>
</g>
<!-- 0x3c -->
<g id="node7" class="node">
<title>0x3c</title>
<ellipse fill="none" stroke="black" cx="56.6" cy="-423.09" rx="28.7" ry="18"/>
<text text-anchor="middle" x="56.6" y="-419.39" font-family="Times New Roman,serif" font-size="14.00">0x3c</text>
</g>
<!-- 0x39&#45;&gt;0x3c -->
<g id="edge8" class="edge">
<title>0x39&#45;&gt;0x3c</title>
<path fill="none" stroke="black" d="M65.63,-666.75C68.05,-660.99 70.38,-654.39 71.6,-648.09 87.48,-565.61 88.49,-541.37 71.6,-459.09 70.97,-456.02 70.05,-452.88 68.99,-449.81"/>
<polygon fill="black" stroke="black" points="72.17,-448.35 65.2,-440.38 65.68,-450.96 72.17,-448.35"/>
<text text-anchor="middle" x="97.6" y="-549.89" font-family="Times New Roman,serif" font-size="14.00">ε(2a)</text>
</g>
<!-- 0x3b -->
<g id="node6" class="node">
<title>0x3b</title>
<ellipse fill="none" stroke="black" cx="28.6" cy="-510.09" rx="28.7" ry="18"/>
<text text-anchor="middle" x="28.6" y="-506.39" font-family="Times New Roman,serif" font-size="14.00">0x3b</text>
</g>
<!-- 0x3a&#45;&gt;0x3b -->
<g id="edge4" class="edge">
<title>0x3a&#45;&gt;0x3b</title>
<path fill="none" stroke="black" d="M15.86,-581.21C11.36,-575.37 6.92,-568.34 4.6,-561.09 1.71,-552.07 4.58,-542.59 9.22,-534.35"/>
<polygon fill="black" stroke="black" points="12.17,-536.24 14.76,-525.96 6.33,-532.38 12.17,-536.24"/>
<text text-anchor="middle" x="8.1" y="-549.89" font-family="Times New Roman,serif" font-size="14.00">e</text>
</g>
<!-- 0x3b&#45;&gt;0x3a -->
<g id="edge5" class="edge">
<title>0x3b&#45;&gt;0x3a</title>
<path fill="none" stroke="black" d="M28.8,-528.27C28.94,-539.9 29.12,-555.51 29.28,-568.82"/>
<polygon fill="black" stroke="black" points="25.78,-568.93 29.4,-578.89 32.78,-568.85 25.78,-568.93"/>
<text text-anchor="middle" x="44.1" y="-549.89" font-family="Times New Roman,serif" font-size="14.00">ε(26)</text>
</g>
<!-- 0x3b&#45;&gt;0x3c -->
<g id="edge9" class="edge">
<title>0x3b&#45;&gt;0x3c</title>
<path fill="none" stroke="black" d="M32.31,-492.24C34.63,-482.45 37.88,-469.95 41.6,-459.09 42.61,-456.12 43.77,-453.05 44.98,-450.02"/>
<polygon fill="black" stroke="black" points="48.27,-451.2 48.91,-440.62 41.82,-448.5 48.27,-451.2"/>
<text text-anchor="middle" x="56.6" y="-462.89" font-family="Times New Roman,serif" font-size="14.00">ε(2b)</text>
</g>
<!-- 0x3d -->
<g id="node8" class="node">
<title>0x3d</title>
<ellipse fill="none" stroke="black" cx="56.6" cy="-336.09" rx="28.7" ry="18"/>
<text text-anchor="middle" x="56.6" y="-332.39" font-family="Times New Roman,serif" font-size="14.00">0x3d</text>
</g>
<!-- 0x3c&#45;&gt;0x3d -->
<g id="edge7" class="edge">
<title>0x3c&#45;&gt;0x3d</title>
<path fill="none" stroke="black" d="M56.6,-404.89C56.6,-393.25 56.6,-377.64 56.6,-364.33"/>
<polygon fill="black" stroke="black" points="60.1,-364.27 56.6,-354.27 53.1,-364.27 60.1,-364.27"/>
<text text-anchor="middle" x="59.1" y="-375.89" font-family="Times New Roman,serif" font-size="14.00">f</text>
</g>
<!-- 0x3e -->
<g id="node9" class="node">
<title>0x3e</title>
<ellipse fill="none" stroke="black" cx="56.6" cy="-235.14" rx="27.9" ry="27.9"/>
<ellipse fill="none" stroke="black" cx="56.6" cy="-235.14" rx="31.9" ry="31.9"/>
<text text-anchor="middle" x="56.6" y="-231.44" font-family="Times New Roman,serif" font-size="14.00">0x3e</text>
</g>
<!-- 0x3d&#45;&gt;0x3e -->
<g id="edge13" class="edge">
<title>0x3d&#45;&gt;0x3e</title>
<path fill="none" stroke="black" d="M56.6,-317.85C56.6,-306.63 56.6,-291.48 56.6,-277.27"/>
<polygon fill="black" stroke="black" points="60.1,-277.16 56.6,-267.16 53.1,-277.16 60.1,-277.16"/>
<text text-anchor="middle" x="71.1" y="-288.89" font-family="Times New Roman,serif" font-size="14.00">ε(2c)</text>
</g>
<!-- 0x3f -->
<g id="node10" class="node">
<title>0x3f</title>
<ellipse fill="none" stroke="black" cx="56.6" cy="-134.19" rx="27" ry="18"/>
<text text-anchor="middle" x="56.6" y="-130.49" font-family="Times New Roman,serif" font-size="14.00">0x3f</text>
</g>
<!-- 0x3e&#45;&gt;0x3f -->
<g id="edge10" class="edge">
<title>0x3e&#45;&gt;0x3f</title>
<path fill="none" stroke="black" d="M56.6,-203.11C56.6,-190.13 56.6,-175.18 56.6,-162.62"/>
<polygon fill="black" stroke="black" points="60.1,-162.3 56.6,-152.3 53.1,-162.3 60.1,-162.3"/>
<text text-anchor="middle" x="71.1" y="-173.99" font-family="Times New Roman,serif" font-size="14.00">ε(27)</text>
</g>
<!-- 0x40 -->
<g id="node11" class="node">
<title>0x40</title>
<ellipse fill="none" stroke="black" cx="56.6" cy="-32.6" rx="28.68" ry="28.68"/>
<ellipse fill="none" stroke="black" cx="56.6" cy="-32.6" rx="32.7" ry="32.7"/>
<text text-anchor="middle" x="56.6" y="-28.9" font-family="Times New Roman,serif" font-size="14.00">0x40</text>
</g>
<!-- 0x3f&#45;&gt;0x40 -->
<g id="edge11" class="edge">
<title>0x3f&#45;&gt;0x40</title>
<path fill="none" stroke="black" d="M49.71,-116.75C47.63,-110.99 45.63,-104.4 44.6,-98.19 43.28,-90.28 43.59,-81.85 44.73,-73.77"/>
<polygon fill="black" stroke="black" points="48.2,-74.26 46.57,-63.79 41.32,-72.99 48.2,-74.26"/>
<text text-anchor="middle" x="48.1" y="-86.99" font-family="Times New Roman,serif" font-size="14.00">g</text>
</g>
<!-- 0x40&#45;&gt;0x3f -->
<g id="edge12" class="edge">
<title>0x40&#45;&gt;0x3f</title>
<path fill="none" stroke="black" d="M56.6,-65.22C56.6,-78.18 56.6,-93.04 56.6,-105.56"/>
<polygon fill="black" stroke="black" points="53.1,-105.85 56.6,-115.85 60.1,-105.85 53.1,-105.85"/>
<text text-anchor="middle" x="71.1" y="-86.99" font-family="Times New Roman,serif" font-size="14.00">ε(28)</text>
</g>
</g>
</svg>
