<?xml version="1.0" encoding="UTF-8" standalone="no"?>
<!DOCTYPE svg PUBLIC "-//W3C//DTD SVG 1.1//EN"
 "http://www.w3.org/Graphics/SVG/1.1/DTD/svg11.dtd">
<!-- Generated by graphviz version 3.0.0 (20220226.1711)
 -->
<!-- Pages: 1 -->
<svg width="73pt" height="1044pt"
 viewBox="0.00 0.00 73.19 1044.09" xmlns="http://www.w3.org/2000/svg" xmlns:xlink="http://www.w3.org/1999/xlink">
<g id="graph0" class="graph" transform="scale(1 1) rotate(0) translate(4 1040.09)">
<polygon fill="white" stroke="transparent" points="-4,4 -4,-1040.09 69.19,-1040.09 69.19,4 -4,4"/>
<!-- fake -->
<g id="node1" class="node">
<title>fake</title>
</g>
<!-- 0x24 -->
<g id="node2" class="node">
<title>0x24</title>
<ellipse fill="none" stroke="black" cx="32.6" cy="-945.09" rx="28.7" ry="18"/>
<text text-anchor="middle" x="32.6" y="-941.39" font-family="Times New Roman,serif" font-size="14.00">0x24</text>
</g>
<!-- fake&#45;&gt;0x24 -->
<g id="edge1" class="edge">
<title>fake&#45;&gt;0x24</title>
<path fill="none" stroke="black" stroke-width="2" d="M32.6,-999.9C32.6,-991.88 32.6,-982.14 32.6,-973.16"/>
<polygon fill="black" stroke="black" stroke-width="2" points="36.1,-973.12 32.6,-963.12 29.1,-973.12 36.1,-973.12"/>
</g>
<!-- 0x25 -->
<g id="node3" class="node">
<title>0x25</title>
<ellipse fill="none" stroke="black" cx="32.6" cy="-858.09" rx="28.7" ry="18"/>
<text text-anchor="middle" x="32.6" y="-854.39" font-family="Times New Roman,serif" font-size="14.00">0x25</text>
</g>
<!-- 0x24&#45;&gt;0x25 -->
<g id="edge2" class="edge">
<title>0x24&#45;&gt;0x25</title>
<path fill="none" stroke="black" d="M32.6,-926.89C32.6,-915.25 32.6,-899.64 32.6,-886.33"/>
<polygon fill="black" stroke="black" points="36.1,-886.27 32.6,-876.27 29.1,-886.27 36.1,-886.27"/>
<text text-anchor="middle" x="36.1" y="-897.89" font-family="Times New Roman,serif" font-size="14.00">a</text>
</g>
<!-- 0x26 -->
<g id="node4" class="node">
<title>0x26</title>
<ellipse fill="none" stroke="black" cx="32.6" cy="-771.09" rx="28.7" ry="18"/>
<text text-anchor="middle" x="32.6" y="-767.39" font-family="Times New Roman,serif" font-size="14.00">0x26</text>
</g>
<!-- 0x25&#45;&gt;0x26 -->
<g id="edge4" class="edge">
<title>0x25&#45;&gt;0x26</title>
<path fill="none" stroke="black" d="M32.6,-839.89C32.6,-828.25 32.6,-812.64 32.6,-799.33"/>
<polygon fill="black" stroke="black" points="36.1,-799.27 32.6,-789.27 29.1,-799.27 36.1,-799.27"/>
<text text-anchor="middle" x="46.1" y="-810.89" font-family="Times New Roman,serif" font-size="14.00">ε(1f)</text>
</g>
<!-- 0x27 -->
<g id="node5" class="node">
<title>0x27</title>
<ellipse fill="none" stroke="black" cx="32.6" cy="-684.09" rx="28.7" ry="18"/>
<text text-anchor="middle" x="32.6" y="-680.39" font-family="Times New Roman,serif" font-size="14.00">0x27</text>
</g>
<!-- 0x26&#45;&gt;0x27 -->
<g id="edge3" class="edge">
<title>0x26&#45;&gt;0x27</title>
<path fill="none" stroke="black" d="M32.6,-752.89C32.6,-741.25 32.6,-725.64 32.6,-712.33"/>
<polygon fill="black" stroke="black" points="36.1,-712.27 32.6,-702.27 29.1,-712.27 36.1,-712.27"/>
<text text-anchor="middle" x="36.6" y="-723.89" font-family="Times New Roman,serif" font-size="14.00">b</text>
</g>
<!-- 0x28 -->
<g id="node6" class="node">
<title>0x28</title>
<ellipse fill="none" stroke="black" cx="32.6" cy="-597.09" rx="28.7" ry="18"/>
<text text-anchor="middle" x="32.6" y="-593.39" font-family="Times New Roman,serif" font-size="14.00">0x28</text>
</g>
<!-- 0x27&#45;&gt;0x28 -->
<g id="edge6" class="edge">
<title>0x27&#45;&gt;0x28</title>
<path fill="none" stroke="black" d="M32.6,-665.89C32.6,-654.25 32.6,-638.64 32.6,-625.33"/>
<polygon fill="black" stroke="black" points="36.1,-625.27 32.6,-615.27 29.1,-625.27 36.1,-625.27"/>
<text text-anchor="middle" x="47.1" y="-636.89" font-family="Times New Roman,serif" font-size="14.00">ε(20)</text>
</g>
<!-- 0x29 -->
<g id="node7" class="node">
<title>0x29</title>
<ellipse fill="none" stroke="black" cx="32.6" cy="-510.09" rx="28.7" ry="18"/>
<text text-anchor="middle" x="32.6" y="-506.39" font-family="Times New Roman,serif" font-size="14.00">0x29</text>
</g>
<!-- 0x28&#45;&gt;0x29 -->
<g id="edge5" class="edge">
<title>0x28&#45;&gt;0x29</title>
<path fill="none" stroke="black" d="M32.6,-578.89C32.6,-567.25 32.6,-551.64 32.6,-538.33"/>
<polygon fill="black" stroke="black" points="36.1,-538.27 32.6,-528.27 29.1,-538.27 36.1,-538.27"/>
<text text-anchor="middle" x="36.1" y="-549.89" font-family="Times New Roman,serif" font-size="14.00">c</text>
</g>
<!-- 0x2a -->
<g id="node8" class="node">
<title>0x2a</title>
<ellipse fill="none" stroke="black" cx="32.6" cy="-423.09" rx="27.9" ry="18"/>
<text text-anchor="middle" x="32.6" y="-419.39" font-family="Times New Roman,serif" font-size="14.00">0x2a</text>
</g>
<!-- 0x29&#45;&gt;0x2a -->
<g id="edge8" class="edge">
<title>0x29&#45;&gt;0x2a</title>
<path fill="none" stroke="black" d="M32.6,-491.89C32.6,-480.25 32.6,-464.64 32.6,-451.33"/>
<polygon fill="black" stroke="black" points="36.1,-451.27 32.6,-441.27 29.1,-451.27 36.1,-451.27"/>
<text text-anchor="middle" x="47.1" y="-462.89" font-family="Times New Roman,serif" font-size="14.00">ε(21)</text>
</g>
<!-- 0x2b -->
<g id="node9" class="node">
<title>0x2b</title>
<ellipse fill="none" stroke="black" cx="32.6" cy="-336.09" rx="28.7" ry="18"/>
<text text-anchor="middle" x="32.6" y="-332.39" font-family="Times New Roman,serif" font-size="14.00">0x2b</text>
</g>
<!-- 0x2a&#45;&gt;0x2b -->
<g id="edge7" class="edge">
<title>0x2a&#45;&gt;0x2b</title>
<path fill="none" stroke="black" d="M32.6,-404.89C32.6,-393.25 32.6,-377.64 32.6,-364.33"/>
<polygon fill="black" stroke="black" points="36.1,-364.27 32.6,-354.27 29.1,-364.27 36.1,-364.27"/>
<text text-anchor="middle" x="36.6" y="-375.89" font-family="Times New Roman,serif" font-size="14.00">d</text>
</g>
<!-- 0x2c -->
<g id="node10" class="node">
<title>0x2c</title>
<ellipse fill="none" stroke="black" cx="32.6" cy="-234.49" rx="28.68" ry="28.68"/>
<ellipse fill="none" stroke="black" cx="32.6" cy="-234.49" rx="32.7" ry="32.7"/>
<text text-anchor="middle" x="32.6" y="-230.79" font-family="Times New Roman,serif" font-size="14.00">0x2c</text>
</g>
<!-- 0x2b&#45;&gt;0x2c -->
<g id="edge12" class="edge">
<title>0x2b&#45;&gt;0x2c</title>
<path fill="none" stroke="black" d="M32.6,-317.74C32.6,-306.53 32.6,-291.43 32.6,-277.23"/>
<polygon fill="black" stroke="black" points="36.1,-277.12 32.6,-267.12 29.1,-277.12 36.1,-277.12"/>
<text text-anchor="middle" x="47.1" y="-288.89" font-family="Times New Roman,serif" font-size="14.00">ε(22)</text>
</g>
<!-- 0x2d -->
<g id="node11" class="node">
<title>0x2d</title>
<ellipse fill="none" stroke="black" cx="32.6" cy="-132.9" rx="28.7" ry="18"/>
<text text-anchor="middle" x="32.6" y="-129.2" font-family="Times New Roman,serif" font-size="14.00">0x2d</text>
</g>
<!-- 0x2c&#45;&gt;0x2d -->
<g id="edge9" class="edge">
<title>0x2c&#45;&gt;0x2d</title>
<path fill="none" stroke="black" d="M32.6,-201.71C32.6,-188.67 32.6,-173.74 32.6,-161.21"/>
<polygon fill="black" stroke="black" points="36.1,-160.92 32.6,-150.92 29.1,-160.92 36.1,-160.92"/>
<text text-anchor="middle" x="47.6" y="-172.7" font-family="Times New Roman,serif" font-size="14.00">ε(1d)</text>
</g>
<!-- 0x2e -->
<g id="node12" class="node">
<title>0x2e</title>
<ellipse fill="none" stroke="black" cx="32.6" cy="-31.95" rx="27.9" ry="27.9"/>
<ellipse fill="none" stroke="black" cx="32.6" cy="-31.95" rx="31.9" ry="31.9"/>
<text text-anchor="middle" x="32.6" y="-28.25" font-family="Times New Roman,serif" font-size="14.00">0x2e</text>
</g>
<!-- 0x2d&#45;&gt;0x2e -->
<g id="edge10" class="edge">
<title>0x2d&#45;&gt;0x2e</title>
<path fill="none" stroke="black" d="M25.58,-115.1C23.55,-109.42 21.61,-102.98 20.6,-96.9 19.28,-88.98 19.62,-80.54 20.79,-72.47"/>
<polygon fill="black" stroke="black" points="24.25,-72.99 22.66,-62.51 17.37,-71.69 24.25,-72.99"/>
<text text-anchor="middle" x="24.1" y="-85.7" font-family="Times New Roman,serif" font-size="14.00">e</text>
</g>
<!-- 0x2e&#45;&gt;0x2d -->
<g id="edge11" class="edge">
<title>0x2e&#45;&gt;0x2d</title>
<path fill="none" stroke="black" d="M32.6,-63.97C32.6,-76.9 32.6,-91.81 32.6,-104.35"/>
<polygon fill="black" stroke="black" points="29.1,-104.66 32.6,-114.66 36.1,-104.66 29.1,-104.66"/>
<text text-anchor="middle" x="46.6" y="-85.7" font-family="Times New Roman,serif" font-size="14.00">ε(1e)</text>
</g>
</g>
</svg>
