<?xml version="1.0" encoding="UTF-8" standalone="no"?>
<!DOCTYPE svg PUBLIC "-//W3C//DTD SVG 1.1//EN"
 "http://www.w3.org/Graphics/SVG/1.1/DTD/svg11.dtd">
<!-- Generated by graphviz version 3.0.0 (20220226.1711)
 -->
<!-- Pages: 1 -->
<svg width="72pt" height="1798pt"
 viewBox="0.00 0.00 71.90 1797.90" xmlns="http://www.w3.org/2000/svg" xmlns:xlink="http://www.w3.org/1999/xlink">
<g id="graph0" class="graph" transform="scale(1 1) rotate(0) translate(4 1793.9)">
<polygon fill="white" stroke="transparent" points="-4,4 -4,-1793.9 67.9,-1793.9 67.9,4 -4,4"/>
<!-- fake -->
<g id="node1" class="node">
<title>fake</title>
</g>
<!-- 0xd6 -->
<g id="node2" class="node">
<title>0xd6</title>
<ellipse fill="none" stroke="black" cx="31.95" cy="-1698.9" rx="28.7" ry="18"/>
<text text-anchor="middle" x="31.95" y="-1695.2" font-family="Times New Roman,serif" font-size="14.00">0xd6</text>
</g>
<!-- fake&#45;&gt;0xd6 -->
<g id="edge1" class="edge">
<title>fake&#45;&gt;0xd6</title>
<path fill="none" stroke="black" stroke-width="2" d="M31.95,-1753.71C31.95,-1745.68 31.95,-1735.94 31.95,-1726.96"/>
<polygon fill="black" stroke="black" stroke-width="2" points="35.45,-1726.92 31.95,-1716.92 28.45,-1726.92 35.45,-1726.92"/>
</g>
<!-- 0xd7 -->
<g id="node3" class="node">
<title>0xd7</title>
<ellipse fill="none" stroke="black" cx="31.95" cy="-1611.9" rx="28.7" ry="18"/>
<text text-anchor="middle" x="31.95" y="-1608.2" font-family="Times New Roman,serif" font-size="14.00">0xd7</text>
</g>
<!-- 0xd6&#45;&gt;0xd7 -->
<g id="edge2" class="edge">
<title>0xd6&#45;&gt;0xd7</title>
<path fill="none" stroke="black" d="M31.95,-1680.69C31.95,-1669.06 31.95,-1653.44 31.95,-1640.13"/>
<polygon fill="black" stroke="black" points="35.45,-1640.07 31.95,-1630.07 28.45,-1640.07 35.45,-1640.07"/>
<text text-anchor="middle" x="34.45" y="-1651.7" font-family="Times New Roman,serif" font-size="14.00">]</text>
</g>
<!-- 0xd8 -->
<g id="node4" class="node">
<title>0xd8</title>
<ellipse fill="none" stroke="black" cx="31.95" cy="-1524.9" rx="28.7" ry="18"/>
<text text-anchor="middle" x="31.95" y="-1521.2" font-family="Times New Roman,serif" font-size="14.00">0xd8</text>
</g>
<!-- 0xd7&#45;&gt;0xd8 -->
<g id="edge4" class="edge">
<title>0xd7&#45;&gt;0xd8</title>
<path fill="none" stroke="black" d="M31.95,-1593.69C31.95,-1582.06 31.95,-1566.44 31.95,-1553.13"/>
<polygon fill="black" stroke="black" points="35.45,-1553.07 31.95,-1543.07 28.45,-1553.07 35.45,-1553.07"/>
<text text-anchor="middle" x="46.45" y="-1564.7" font-family="Times New Roman,serif" font-size="14.00">ε(59)</text>
</g>
<!-- 0xd9 -->
<g id="node5" class="node">
<title>0xd9</title>
<ellipse fill="none" stroke="black" cx="31.95" cy="-1437.9" rx="28.7" ry="18"/>
<text text-anchor="middle" x="31.95" y="-1434.2" font-family="Times New Roman,serif" font-size="14.00">0xd9</text>
</g>
<!-- 0xd8&#45;&gt;0xd9 -->
<g id="edge3" class="edge">
<title>0xd8&#45;&gt;0xd9</title>
<path fill="none" stroke="black" d="M31.95,-1506.69C31.95,-1495.06 31.95,-1479.44 31.95,-1466.13"/>
<polygon fill="black" stroke="black" points="35.45,-1466.07 31.95,-1456.07 28.45,-1466.07 35.45,-1466.07"/>
<text text-anchor="middle" x="33.95" y="-1477.7" font-family="Times New Roman,serif" font-size="14.00">,</text>
</g>
<!-- 0xda -->
<g id="node6" class="node">
<title>0xda</title>
<ellipse fill="none" stroke="black" cx="31.95" cy="-1350.9" rx="28.7" ry="18"/>
<text text-anchor="middle" x="31.95" y="-1347.2" font-family="Times New Roman,serif" font-size="14.00">0xda</text>
</g>
<!-- 0xd9&#45;&gt;0xda -->
<g id="edge6" class="edge">
<title>0xd9&#45;&gt;0xda</title>
<path fill="none" stroke="black" d="M31.95,-1419.69C31.95,-1408.06 31.95,-1392.44 31.95,-1379.13"/>
<polygon fill="black" stroke="black" points="35.45,-1379.07 31.95,-1369.07 28.45,-1379.07 35.45,-1379.07"/>
<text text-anchor="middle" x="45.95" y="-1390.7" font-family="Times New Roman,serif" font-size="14.00">ε(5a)</text>
</g>
<!-- 0xdb -->
<g id="node7" class="node">
<title>0xdb</title>
<ellipse fill="none" stroke="black" cx="31.95" cy="-1263.9" rx="29.5" ry="18"/>
<text text-anchor="middle" x="31.95" y="-1260.2" font-family="Times New Roman,serif" font-size="14.00">0xdb</text>
</g>
<!-- 0xda&#45;&gt;0xdb -->
<g id="edge5" class="edge">
<title>0xda&#45;&gt;0xdb</title>
<path fill="none" stroke="black" d="M31.95,-1332.69C31.95,-1321.06 31.95,-1305.44 31.95,-1292.13"/>
<polygon fill="black" stroke="black" points="35.45,-1292.07 31.95,-1282.07 28.45,-1292.07 35.45,-1292.07"/>
<text text-anchor="middle" x="34.45" y="-1303.7" font-family="Times New Roman,serif" font-size="14.00">[</text>
</g>
<!-- 0xdc -->
<g id="node8" class="node">
<title>0xdc</title>
<ellipse fill="none" stroke="black" cx="31.95" cy="-1176.9" rx="28.7" ry="18"/>
<text text-anchor="middle" x="31.95" y="-1173.2" font-family="Times New Roman,serif" font-size="14.00">0xdc</text>
</g>
<!-- 0xdb&#45;&gt;0xdc -->
<g id="edge8" class="edge">
<title>0xdb&#45;&gt;0xdc</title>
<path fill="none" stroke="black" d="M31.95,-1245.69C31.95,-1234.06 31.95,-1218.44 31.95,-1205.13"/>
<polygon fill="black" stroke="black" points="35.45,-1205.07 31.95,-1195.07 28.45,-1205.07 35.45,-1205.07"/>
<text text-anchor="middle" x="46.95" y="-1216.7" font-family="Times New Roman,serif" font-size="14.00">ε(5b)</text>
</g>
<!-- 0xdd -->
<g id="node9" class="node">
<title>0xdd</title>
<ellipse fill="none" stroke="black" cx="31.95" cy="-1089.9" rx="29.5" ry="18"/>
<text text-anchor="middle" x="31.95" y="-1086.2" font-family="Times New Roman,serif" font-size="14.00">0xdd</text>
</g>
<!-- 0xdc&#45;&gt;0xdd -->
<g id="edge7" class="edge">
<title>0xdc&#45;&gt;0xdd</title>
<path fill="none" stroke="black" d="M31.95,-1158.69C31.95,-1147.06 31.95,-1131.44 31.95,-1118.13"/>
<polygon fill="black" stroke="black" points="35.45,-1118.07 31.95,-1108.07 28.45,-1118.07 35.45,-1118.07"/>
<text text-anchor="middle" x="35.45" y="-1129.7" font-family="Times New Roman,serif" font-size="14.00">s</text>
</g>
<!-- 0xde -->
<g id="node10" class="node">
<title>0xde</title>
<ellipse fill="none" stroke="black" cx="31.95" cy="-1002.9" rx="28.7" ry="18"/>
<text text-anchor="middle" x="31.95" y="-999.2" font-family="Times New Roman,serif" font-size="14.00">0xde</text>
</g>
<!-- 0xdd&#45;&gt;0xde -->
<g id="edge10" class="edge">
<title>0xdd&#45;&gt;0xde</title>
<path fill="none" stroke="black" d="M31.95,-1071.69C31.95,-1060.06 31.95,-1044.44 31.95,-1031.13"/>
<polygon fill="black" stroke="black" points="35.45,-1031.07 31.95,-1021.07 28.45,-1031.07 35.45,-1031.07"/>
<text text-anchor="middle" x="46.45" y="-1042.7" font-family="Times New Roman,serif" font-size="14.00">ε(5c)</text>
</g>
<!-- 0xdf -->
<g id="node11" class="node">
<title>0xdf</title>
<ellipse fill="none" stroke="black" cx="31.95" cy="-915.9" rx="27.1" ry="18"/>
<text text-anchor="middle" x="31.95" y="-912.2" font-family="Times New Roman,serif" font-size="14.00">0xdf</text>
</g>
<!-- 0xde&#45;&gt;0xdf -->
<g id="edge9" class="edge">
<title>0xde&#45;&gt;0xdf</title>
<path fill="none" stroke="black" d="M31.95,-984.69C31.95,-973.06 31.95,-957.44 31.95,-944.13"/>
<polygon fill="black" stroke="black" points="35.45,-944.07 31.95,-934.07 28.45,-944.07 35.45,-944.07"/>
<text text-anchor="middle" x="35.45" y="-955.7" font-family="Times New Roman,serif" font-size="14.00">g</text>
</g>
<!-- 0xe0 -->
<g id="node12" class="node">
<title>0xe0</title>
<ellipse fill="none" stroke="black" cx="31.95" cy="-828.9" rx="27.9" ry="18"/>
<text text-anchor="middle" x="31.95" y="-825.2" font-family="Times New Roman,serif" font-size="14.00">0xe0</text>
</g>
<!-- 0xdf&#45;&gt;0xe0 -->
<g id="edge12" class="edge">
<title>0xdf&#45;&gt;0xe0</title>
<path fill="none" stroke="black" d="M31.95,-897.69C31.95,-886.06 31.95,-870.44 31.95,-857.13"/>
<polygon fill="black" stroke="black" points="35.45,-857.07 31.95,-847.07 28.45,-857.07 35.45,-857.07"/>
<text text-anchor="middle" x="46.95" y="-868.7" font-family="Times New Roman,serif" font-size="14.00">ε(5d)</text>
</g>
<!-- 0xe1 -->
<g id="node13" class="node">
<title>0xe1</title>
<ellipse fill="none" stroke="black" cx="31.95" cy="-741.9" rx="27.9" ry="18"/>
<text text-anchor="middle" x="31.95" y="-738.2" font-family="Times New Roman,serif" font-size="14.00">0xe1</text>
</g>
<!-- 0xe0&#45;&gt;0xe1 -->
<g id="edge11" class="edge">
<title>0xe0&#45;&gt;0xe1</title>
<path fill="none" stroke="black" d="M31.95,-810.69C31.95,-799.06 31.95,-783.44 31.95,-770.13"/>
<polygon fill="black" stroke="black" points="35.45,-770.07 31.95,-760.07 28.45,-770.07 35.45,-770.07"/>
<text text-anchor="middle" x="33.95" y="-781.7" font-family="Times New Roman,serif" font-size="14.00">.</text>
</g>
<!-- 0xe2 -->
<g id="node14" class="node">
<title>0xe2</title>
<ellipse fill="none" stroke="black" cx="31.95" cy="-654.9" rx="27.9" ry="18"/>
<text text-anchor="middle" x="31.95" y="-651.2" font-family="Times New Roman,serif" font-size="14.00">0xe2</text>
</g>
<!-- 0xe1&#45;&gt;0xe2 -->
<g id="edge14" class="edge">
<title>0xe1&#45;&gt;0xe2</title>
<path fill="none" stroke="black" d="M31.95,-723.69C31.95,-712.06 31.95,-696.44 31.95,-683.13"/>
<polygon fill="black" stroke="black" points="35.45,-683.07 31.95,-673.07 28.45,-683.07 35.45,-683.07"/>
<text text-anchor="middle" x="45.95" y="-694.7" font-family="Times New Roman,serif" font-size="14.00">ε(5e)</text>
</g>
<!-- 0xe3 -->
<g id="node15" class="node">
<title>0xe3</title>
<ellipse fill="none" stroke="black" cx="31.95" cy="-567.9" rx="27.9" ry="18"/>
<text text-anchor="middle" x="31.95" y="-564.2" font-family="Times New Roman,serif" font-size="14.00">0xe3</text>
</g>
<!-- 0xe2&#45;&gt;0xe3 -->
<g id="edge13" class="edge">
<title>0xe2&#45;&gt;0xe3</title>
<path fill="none" stroke="black" d="M31.95,-636.69C31.95,-625.06 31.95,-609.44 31.95,-596.13"/>
<polygon fill="black" stroke="black" points="35.45,-596.07 31.95,-586.07 28.45,-596.07 35.45,-596.07"/>
<text text-anchor="middle" x="36.95" y="-607.7" font-family="Times New Roman,serif" font-size="14.00">T</text>
</g>
<!-- 0xe4 -->
<g id="node16" class="node">
<title>0xe4</title>
<ellipse fill="none" stroke="black" cx="31.95" cy="-480.9" rx="27.9" ry="18"/>
<text text-anchor="middle" x="31.95" y="-477.2" font-family="Times New Roman,serif" font-size="14.00">0xe4</text>
</g>
<!-- 0xe3&#45;&gt;0xe4 -->
<g id="edge16" class="edge">
<title>0xe3&#45;&gt;0xe4</title>
<path fill="none" stroke="black" d="M31.95,-549.69C31.95,-538.06 31.95,-522.44 31.95,-509.13"/>
<polygon fill="black" stroke="black" points="35.45,-509.07 31.95,-499.07 28.45,-509.07 35.45,-509.07"/>
<text text-anchor="middle" x="45.45" y="-520.7" font-family="Times New Roman,serif" font-size="14.00">ε(5f)</text>
</g>
<!-- 0xe5 -->
<g id="node17" class="node">
<title>0xe5</title>
<ellipse fill="none" stroke="black" cx="31.95" cy="-393.9" rx="27.9" ry="18"/>
<text text-anchor="middle" x="31.95" y="-390.2" font-family="Times New Roman,serif" font-size="14.00">0xe5</text>
</g>
<!-- 0xe4&#45;&gt;0xe5 -->
<g id="edge15" class="edge">
<title>0xe4&#45;&gt;0xe5</title>
<path fill="none" stroke="black" d="M31.95,-462.69C31.95,-451.06 31.95,-435.44 31.95,-422.13"/>
<polygon fill="black" stroke="black" points="35.45,-422.07 31.95,-412.07 28.45,-422.07 35.45,-422.07"/>
<text text-anchor="middle" x="35.45" y="-433.7" font-family="Times New Roman,serif" font-size="14.00">e</text>
</g>
<!-- 0xe6 -->
<g id="node18" class="node">
<title>0xe6</title>
<ellipse fill="none" stroke="black" cx="31.95" cy="-306.9" rx="27.9" ry="18"/>
<text text-anchor="middle" x="31.95" y="-303.2" font-family="Times New Roman,serif" font-size="14.00">0xe6</text>
</g>
<!-- 0xe5&#45;&gt;0xe6 -->
<g id="edge18" class="edge">
<title>0xe5&#45;&gt;0xe6</title>
<path fill="none" stroke="black" d="M31.95,-375.69C31.95,-364.06 31.95,-348.44 31.95,-335.13"/>
<polygon fill="black" stroke="black" points="35.45,-335.07 31.95,-325.07 28.45,-335.07 35.45,-335.07"/>
<text text-anchor="middle" x="46.45" y="-346.7" font-family="Times New Roman,serif" font-size="14.00">ε(60)</text>
</g>
<!-- 0xe7 -->
<g id="node19" class="node">
<title>0xe7</title>
<ellipse fill="none" stroke="black" cx="31.95" cy="-219.9" rx="27.9" ry="18"/>
<text text-anchor="middle" x="31.95" y="-216.2" font-family="Times New Roman,serif" font-size="14.00">0xe7</text>
</g>
<!-- 0xe6&#45;&gt;0xe7 -->
<g id="edge17" class="edge">
<title>0xe6&#45;&gt;0xe7</title>
<path fill="none" stroke="black" d="M31.95,-288.69C31.95,-277.06 31.95,-261.44 31.95,-248.13"/>
<polygon fill="black" stroke="black" points="35.45,-248.07 31.95,-238.07 28.45,-248.07 35.45,-248.07"/>
<text text-anchor="middle" x="35.45" y="-259.7" font-family="Times New Roman,serif" font-size="14.00">x</text>
</g>
<!-- 0xe8 -->
<g id="node20" class="node">
<title>0xe8</title>
<ellipse fill="none" stroke="black" cx="31.95" cy="-132.9" rx="27.9" ry="18"/>
<text text-anchor="middle" x="31.95" y="-129.2" font-family="Times New Roman,serif" font-size="14.00">0xe8</text>
</g>
<!-- 0xe7&#45;&gt;0xe8 -->
<g id="edge20" class="edge">
<title>0xe7&#45;&gt;0xe8</title>
<path fill="none" stroke="black" d="M31.95,-201.69C31.95,-190.06 31.95,-174.44 31.95,-161.13"/>
<polygon fill="black" stroke="black" points="35.45,-161.07 31.95,-151.07 28.45,-161.07 35.45,-161.07"/>
<text text-anchor="middle" x="46.45" y="-172.7" font-family="Times New Roman,serif" font-size="14.00">ε(61)</text>
</g>
<!-- 0xe9 -->
<g id="node21" class="node">
<title>0xe9</title>
<ellipse fill="none" stroke="black" cx="31.95" cy="-31.95" rx="27.9" ry="27.9"/>
<ellipse fill="none" stroke="black" cx="31.95" cy="-31.95" rx="31.9" ry="31.9"/>
<text text-anchor="middle" x="31.95" y="-28.25" font-family="Times New Roman,serif" font-size="14.00">0xe9</text>
</g>
<!-- 0xe8&#45;&gt;0xe9 -->
<g id="edge19" class="edge">
<title>0xe8&#45;&gt;0xe9</title>
<path fill="none" stroke="black" d="M31.95,-114.66C31.95,-103.43 31.95,-88.28 31.95,-74.07"/>
<polygon fill="black" stroke="black" points="35.45,-73.97 31.95,-63.97 28.45,-73.97 35.45,-73.97"/>
<text text-anchor="middle" x="33.95" y="-85.7" font-family="Times New Roman,serif" font-size="14.00">t</text>
</g>
</g>
</svg>
