<?xml version="1.0" encoding="UTF-8" standalone="no"?>
<!DOCTYPE svg PUBLIC "-//W3C//DTD SVG 1.1//EN"
 "http://www.w3.org/Graphics/SVG/1.1/DTD/svg11.dtd">
<!-- Generated by graphviz version 3.0.0 (20220226.1711)
 -->
<!-- Pages: 1 -->
<svg width="78pt" height="1804pt"
 viewBox="0.00 0.00 78.39 1804.39" xmlns="http://www.w3.org/2000/svg" xmlns:xlink="http://www.w3.org/1999/xlink">
<g id="graph0" class="graph" transform="scale(1 1) rotate(0) translate(4 1800.39)">
<polygon fill="white" stroke="transparent" points="-4,4 -4,-1800.39 74.39,-1800.39 74.39,4 -4,4"/>
<!-- fake -->
<g id="node1" class="node">
<title>fake</title>
</g>
<!-- 0x1de -->
<g id="node2" class="node">
<title>0x1de</title>
<ellipse fill="none" stroke="black" cx="35.2" cy="-1705.39" rx="32.49" ry="18"/>
<text text-anchor="middle" x="35.2" y="-1701.69" font-family="Times New Roman,serif" font-size="14.00">0x1de</text>
</g>
<!-- fake&#45;&gt;0x1de -->
<g id="edge1" class="edge">
<title>fake&#45;&gt;0x1de</title>
<path fill="none" stroke="black" stroke-width="2" d="M35.2,-1760.21C35.2,-1752.18 35.2,-1742.44 35.2,-1733.46"/>
<polygon fill="black" stroke="black" stroke-width="2" points="38.7,-1733.42 35.2,-1723.42 31.7,-1733.42 38.7,-1733.42"/>
</g>
<!-- 0x1df -->
<g id="node3" class="node">
<title>0x1df</title>
<ellipse fill="none" stroke="black" cx="35.2" cy="-1618.39" rx="31.7" ry="18"/>
<text text-anchor="middle" x="35.2" y="-1614.69" font-family="Times New Roman,serif" font-size="14.00">0x1df</text>
</g>
<!-- 0x1de&#45;&gt;0x1df -->
<g id="edge2" class="edge">
<title>0x1de&#45;&gt;0x1df</title>
<path fill="none" stroke="black" d="M35.2,-1687.19C35.2,-1675.56 35.2,-1659.94 35.2,-1646.63"/>
<polygon fill="black" stroke="black" points="38.7,-1646.57 35.2,-1636.57 31.7,-1646.57 38.7,-1646.57"/>
<text text-anchor="middle" x="37.7" y="-1658.19" font-family="Times New Roman,serif" font-size="14.00">]</text>
</g>
<!-- 0x1e0 -->
<g id="node4" class="node">
<title>0x1e0</title>
<ellipse fill="none" stroke="black" cx="35.2" cy="-1531.39" rx="32.49" ry="18"/>
<text text-anchor="middle" x="35.2" y="-1527.69" font-family="Times New Roman,serif" font-size="14.00">0x1e0</text>
</g>
<!-- 0x1df&#45;&gt;0x1e0 -->
<g id="edge4" class="edge">
<title>0x1df&#45;&gt;0x1e0</title>
<path fill="none" stroke="black" d="M35.2,-1600.19C35.2,-1588.56 35.2,-1572.94 35.2,-1559.63"/>
<polygon fill="black" stroke="black" points="38.7,-1559.57 35.2,-1549.57 31.7,-1559.57 38.7,-1559.57"/>
<text text-anchor="middle" x="49.7" y="-1571.19" font-family="Times New Roman,serif" font-size="14.00">ε(c7)</text>
</g>
<!-- 0x1e1 -->
<g id="node5" class="node">
<title>0x1e1</title>
<ellipse fill="none" stroke="black" cx="35.2" cy="-1444.39" rx="32.49" ry="18"/>
<text text-anchor="middle" x="35.2" y="-1440.69" font-family="Times New Roman,serif" font-size="14.00">0x1e1</text>
</g>
<!-- 0x1e0&#45;&gt;0x1e1 -->
<g id="edge3" class="edge">
<title>0x1e0&#45;&gt;0x1e1</title>
<path fill="none" stroke="black" d="M35.2,-1513.19C35.2,-1501.56 35.2,-1485.94 35.2,-1472.63"/>
<polygon fill="black" stroke="black" points="38.7,-1472.57 35.2,-1462.57 31.7,-1472.57 38.7,-1472.57"/>
<text text-anchor="middle" x="37.2" y="-1484.19" font-family="Times New Roman,serif" font-size="14.00">,</text>
</g>
<!-- 0x1e2 -->
<g id="node6" class="node">
<title>0x1e2</title>
<ellipse fill="none" stroke="black" cx="35.2" cy="-1357.39" rx="32.49" ry="18"/>
<text text-anchor="middle" x="35.2" y="-1353.69" font-family="Times New Roman,serif" font-size="14.00">0x1e2</text>
</g>
<!-- 0x1e1&#45;&gt;0x1e2 -->
<g id="edge6" class="edge">
<title>0x1e1&#45;&gt;0x1e2</title>
<path fill="none" stroke="black" d="M35.2,-1426.19C35.2,-1414.56 35.2,-1398.94 35.2,-1385.63"/>
<polygon fill="black" stroke="black" points="38.7,-1385.57 35.2,-1375.57 31.7,-1385.57 38.7,-1385.57"/>
<text text-anchor="middle" x="49.7" y="-1397.19" font-family="Times New Roman,serif" font-size="14.00">ε(c8)</text>
</g>
<!-- 0x1e3 -->
<g id="node7" class="node">
<title>0x1e3</title>
<ellipse fill="none" stroke="black" cx="35.2" cy="-1270.39" rx="32.49" ry="18"/>
<text text-anchor="middle" x="35.2" y="-1266.69" font-family="Times New Roman,serif" font-size="14.00">0x1e3</text>
</g>
<!-- 0x1e2&#45;&gt;0x1e3 -->
<g id="edge5" class="edge">
<title>0x1e2&#45;&gt;0x1e3</title>
<path fill="none" stroke="black" d="M35.2,-1339.19C35.2,-1327.56 35.2,-1311.94 35.2,-1298.63"/>
<polygon fill="black" stroke="black" points="38.7,-1298.57 35.2,-1288.57 31.7,-1298.57 38.7,-1298.57"/>
<text text-anchor="middle" x="37.7" y="-1310.19" font-family="Times New Roman,serif" font-size="14.00">[</text>
</g>
<!-- 0x1e4 -->
<g id="node8" class="node">
<title>0x1e4</title>
<ellipse fill="none" stroke="black" cx="35.2" cy="-1183.39" rx="32.49" ry="18"/>
<text text-anchor="middle" x="35.2" y="-1179.69" font-family="Times New Roman,serif" font-size="14.00">0x1e4</text>
</g>
<!-- 0x1e3&#45;&gt;0x1e4 -->
<g id="edge8" class="edge">
<title>0x1e3&#45;&gt;0x1e4</title>
<path fill="none" stroke="black" d="M35.2,-1252.19C35.2,-1240.56 35.2,-1224.94 35.2,-1211.63"/>
<polygon fill="black" stroke="black" points="38.7,-1211.57 35.2,-1201.57 31.7,-1211.57 38.7,-1211.57"/>
<text text-anchor="middle" x="49.7" y="-1223.19" font-family="Times New Roman,serif" font-size="14.00">ε(c9)</text>
</g>
<!-- 0x1e5 -->
<g id="node9" class="node">
<title>0x1e5</title>
<ellipse fill="none" stroke="black" cx="35.2" cy="-1096.39" rx="32.49" ry="18"/>
<text text-anchor="middle" x="35.2" y="-1092.69" font-family="Times New Roman,serif" font-size="14.00">0x1e5</text>
</g>
<!-- 0x1e4&#45;&gt;0x1e5 -->
<g id="edge7" class="edge">
<title>0x1e4&#45;&gt;0x1e5</title>
<path fill="none" stroke="black" d="M35.2,-1165.19C35.2,-1153.56 35.2,-1137.94 35.2,-1124.63"/>
<polygon fill="black" stroke="black" points="38.7,-1124.57 35.2,-1114.57 31.7,-1124.57 38.7,-1124.57"/>
<text text-anchor="middle" x="38.7" y="-1136.19" font-family="Times New Roman,serif" font-size="14.00">s</text>
</g>
<!-- 0x1e6 -->
<g id="node10" class="node">
<title>0x1e6</title>
<ellipse fill="none" stroke="black" cx="35.2" cy="-1009.39" rx="32.49" ry="18"/>
<text text-anchor="middle" x="35.2" y="-1005.69" font-family="Times New Roman,serif" font-size="14.00">0x1e6</text>
</g>
<!-- 0x1e5&#45;&gt;0x1e6 -->
<g id="edge10" class="edge">
<title>0x1e5&#45;&gt;0x1e6</title>
<path fill="none" stroke="black" d="M35.2,-1078.19C35.2,-1066.56 35.2,-1050.94 35.2,-1037.63"/>
<polygon fill="black" stroke="black" points="38.7,-1037.57 35.2,-1027.57 31.7,-1037.57 38.7,-1037.57"/>
<text text-anchor="middle" x="49.2" y="-1049.19" font-family="Times New Roman,serif" font-size="14.00">ε(ca)</text>
</g>
<!-- 0x1e7 -->
<g id="node11" class="node">
<title>0x1e7</title>
<ellipse fill="none" stroke="black" cx="35.2" cy="-922.39" rx="32.49" ry="18"/>
<text text-anchor="middle" x="35.2" y="-918.69" font-family="Times New Roman,serif" font-size="14.00">0x1e7</text>
</g>
<!-- 0x1e6&#45;&gt;0x1e7 -->
<g id="edge9" class="edge">
<title>0x1e6&#45;&gt;0x1e7</title>
<path fill="none" stroke="black" d="M35.2,-991.19C35.2,-979.56 35.2,-963.94 35.2,-950.63"/>
<polygon fill="black" stroke="black" points="38.7,-950.57 35.2,-940.57 31.7,-950.57 38.7,-950.57"/>
<text text-anchor="middle" x="38.7" y="-962.19" font-family="Times New Roman,serif" font-size="14.00">g</text>
</g>
<!-- 0x1e8 -->
<g id="node12" class="node">
<title>0x1e8</title>
<ellipse fill="none" stroke="black" cx="35.2" cy="-835.39" rx="32.49" ry="18"/>
<text text-anchor="middle" x="35.2" y="-831.69" font-family="Times New Roman,serif" font-size="14.00">0x1e8</text>
</g>
<!-- 0x1e7&#45;&gt;0x1e8 -->
<g id="edge12" class="edge">
<title>0x1e7&#45;&gt;0x1e8</title>
<path fill="none" stroke="black" d="M35.2,-904.19C35.2,-892.56 35.2,-876.94 35.2,-863.63"/>
<polygon fill="black" stroke="black" points="38.7,-863.57 35.2,-853.57 31.7,-863.57 38.7,-863.57"/>
<text text-anchor="middle" x="50.2" y="-875.19" font-family="Times New Roman,serif" font-size="14.00">ε(cb)</text>
</g>
<!-- 0x1e9 -->
<g id="node13" class="node">
<title>0x1e9</title>
<ellipse fill="none" stroke="black" cx="35.2" cy="-748.39" rx="32.49" ry="18"/>
<text text-anchor="middle" x="35.2" y="-744.69" font-family="Times New Roman,serif" font-size="14.00">0x1e9</text>
</g>
<!-- 0x1e8&#45;&gt;0x1e9 -->
<g id="edge11" class="edge">
<title>0x1e8&#45;&gt;0x1e9</title>
<path fill="none" stroke="black" d="M35.2,-817.19C35.2,-805.56 35.2,-789.94 35.2,-776.63"/>
<polygon fill="black" stroke="black" points="38.7,-776.57 35.2,-766.57 31.7,-776.57 38.7,-776.57"/>
<text text-anchor="middle" x="37.2" y="-788.19" font-family="Times New Roman,serif" font-size="14.00">.</text>
</g>
<!-- 0x1ea -->
<g id="node14" class="node">
<title>0x1ea</title>
<ellipse fill="none" stroke="black" cx="35.2" cy="-661.39" rx="31.7" ry="18"/>
<text text-anchor="middle" x="35.2" y="-657.69" font-family="Times New Roman,serif" font-size="14.00">0x1ea</text>
</g>
<!-- 0x1e9&#45;&gt;0x1ea -->
<g id="edge14" class="edge">
<title>0x1e9&#45;&gt;0x1ea</title>
<path fill="none" stroke="black" d="M35.2,-730.19C35.2,-718.56 35.2,-702.94 35.2,-689.63"/>
<polygon fill="black" stroke="black" points="38.7,-689.57 35.2,-679.57 31.7,-689.57 38.7,-689.57"/>
<text text-anchor="middle" x="49.7" y="-701.19" font-family="Times New Roman,serif" font-size="14.00">ε(cc)</text>
</g>
<!-- 0x1eb -->
<g id="node15" class="node">
<title>0x1eb</title>
<ellipse fill="none" stroke="black" cx="35.2" cy="-574.39" rx="32.49" ry="18"/>
<text text-anchor="middle" x="35.2" y="-570.69" font-family="Times New Roman,serif" font-size="14.00">0x1eb</text>
</g>
<!-- 0x1ea&#45;&gt;0x1eb -->
<g id="edge13" class="edge">
<title>0x1ea&#45;&gt;0x1eb</title>
<path fill="none" stroke="black" d="M35.2,-643.19C35.2,-631.56 35.2,-615.94 35.2,-602.63"/>
<polygon fill="black" stroke="black" points="38.7,-602.57 35.2,-592.57 31.7,-602.57 38.7,-602.57"/>
<text text-anchor="middle" x="40.2" y="-614.19" font-family="Times New Roman,serif" font-size="14.00">T</text>
</g>
<!-- 0x1ec -->
<g id="node16" class="node">
<title>0x1ec</title>
<ellipse fill="none" stroke="black" cx="35.2" cy="-487.39" rx="32.49" ry="18"/>
<text text-anchor="middle" x="35.2" y="-483.69" font-family="Times New Roman,serif" font-size="14.00">0x1ec</text>
</g>
<!-- 0x1eb&#45;&gt;0x1ec -->
<g id="edge16" class="edge">
<title>0x1eb&#45;&gt;0x1ec</title>
<path fill="none" stroke="black" d="M35.2,-556.19C35.2,-544.56 35.2,-528.94 35.2,-515.63"/>
<polygon fill="black" stroke="black" points="38.7,-515.57 35.2,-505.57 31.7,-515.57 38.7,-515.57"/>
<text text-anchor="middle" x="50.2" y="-527.19" font-family="Times New Roman,serif" font-size="14.00">ε(cd)</text>
</g>
<!-- 0x1ed -->
<g id="node17" class="node">
<title>0x1ed</title>
<ellipse fill="none" stroke="black" cx="35.2" cy="-400.39" rx="32.49" ry="18"/>
<text text-anchor="middle" x="35.2" y="-396.69" font-family="Times New Roman,serif" font-size="14.00">0x1ed</text>
</g>
<!-- 0x1ec&#45;&gt;0x1ed -->
<g id="edge15" class="edge">
<title>0x1ec&#45;&gt;0x1ed</title>
<path fill="none" stroke="black" d="M35.2,-469.19C35.2,-457.56 35.2,-441.94 35.2,-428.63"/>
<polygon fill="black" stroke="black" points="38.7,-428.57 35.2,-418.57 31.7,-428.57 38.7,-428.57"/>
<text text-anchor="middle" x="38.7" y="-440.19" font-family="Times New Roman,serif" font-size="14.00">e</text>
</g>
<!-- 0x1ee -->
<g id="node18" class="node">
<title>0x1ee</title>
<ellipse fill="none" stroke="black" cx="35.2" cy="-313.39" rx="31.7" ry="18"/>
<text text-anchor="middle" x="35.2" y="-309.69" font-family="Times New Roman,serif" font-size="14.00">0x1ee</text>
</g>
<!-- 0x1ed&#45;&gt;0x1ee -->
<g id="edge18" class="edge">
<title>0x1ed&#45;&gt;0x1ee</title>
<path fill="none" stroke="black" d="M35.2,-382.19C35.2,-370.56 35.2,-354.94 35.2,-341.63"/>
<polygon fill="black" stroke="black" points="38.7,-341.57 35.2,-331.57 31.7,-341.57 38.7,-341.57"/>
<text text-anchor="middle" x="49.2" y="-353.19" font-family="Times New Roman,serif" font-size="14.00">ε(ce)</text>
</g>
<!-- 0x1ef -->
<g id="node19" class="node">
<title>0x1ef</title>
<ellipse fill="none" stroke="black" cx="35.2" cy="-226.39" rx="30.59" ry="18"/>
<text text-anchor="middle" x="35.2" y="-222.69" font-family="Times New Roman,serif" font-size="14.00">0x1ef</text>
</g>
<!-- 0x1ee&#45;&gt;0x1ef -->
<g id="edge17" class="edge">
<title>0x1ee&#45;&gt;0x1ef</title>
<path fill="none" stroke="black" d="M35.2,-295.19C35.2,-283.56 35.2,-267.94 35.2,-254.63"/>
<polygon fill="black" stroke="black" points="38.7,-254.57 35.2,-244.57 31.7,-254.57 38.7,-254.57"/>
<text text-anchor="middle" x="38.7" y="-266.19" font-family="Times New Roman,serif" font-size="14.00">x</text>
</g>
<!-- 0x1f0 -->
<g id="node20" class="node">
<title>0x1f0</title>
<ellipse fill="none" stroke="black" cx="35.2" cy="-139.39" rx="31.4" ry="18"/>
<text text-anchor="middle" x="35.2" y="-135.69" font-family="Times New Roman,serif" font-size="14.00">0x1f0</text>
</g>
<!-- 0x1ef&#45;&gt;0x1f0 -->
<g id="edge20" class="edge">
<title>0x1ef&#45;&gt;0x1f0</title>
<path fill="none" stroke="black" d="M35.2,-208.19C35.2,-196.56 35.2,-180.94 35.2,-167.63"/>
<polygon fill="black" stroke="black" points="38.7,-167.57 35.2,-157.57 31.7,-167.57 38.7,-167.57"/>
<text text-anchor="middle" x="48.7" y="-179.19" font-family="Times New Roman,serif" font-size="14.00">ε(cf)</text>
</g>
<!-- 0x1f1 -->
<g id="node21" class="node">
<title>0x1f1</title>
<ellipse fill="none" stroke="black" cx="35.2" cy="-35.2" rx="31.37" ry="31.37"/>
<ellipse fill="none" stroke="black" cx="35.2" cy="-35.2" rx="35.4" ry="35.4"/>
<text text-anchor="middle" x="35.2" y="-31.5" font-family="Times New Roman,serif" font-size="14.00">0x1f1</text>
</g>
<!-- 0x1f0&#45;&gt;0x1f1 -->
<g id="edge19" class="edge">
<title>0x1f0&#45;&gt;0x1f1</title>
<path fill="none" stroke="black" d="M35.2,-121.06C35.2,-109.97 35.2,-95.04 35.2,-80.79"/>
<polygon fill="black" stroke="black" points="38.7,-80.61 35.2,-70.61 31.7,-80.61 38.7,-80.61"/>
<text text-anchor="middle" x="37.2" y="-92.19" font-family="Times New Roman,serif" font-size="14.00">t</text>
</g>
</g>
</svg>
