<?xml version="1.0" encoding="UTF-8" standalone="no"?>
<!DOCTYPE svg PUBLIC "-//W3C//DTD SVG 1.1//EN"
 "http://www.w3.org/Graphics/SVG/1.1/DTD/svg11.dtd">
<!-- Generated by graphviz version 3.0.0 (20220226.1711)
 -->
<!-- Pages: 1 -->
<svg width="81pt" height="1807pt"
 viewBox="0.00 0.00 81.50 1806.99" xmlns="http://www.w3.org/2000/svg" xmlns:xlink="http://www.w3.org/1999/xlink">
<g id="graph0" class="graph" transform="scale(1 1) rotate(0) translate(4 1802.99)">
<polygon fill="white" stroke="transparent" points="-4,4 -4,-1802.99 77.5,-1802.99 77.5,4 -4,4"/>
<!-- fake -->
<g id="node1" class="node">
<title>fake</title>
</g>
<!-- 0x286 -->
<g id="node2" class="node">
<title>0x286</title>
<ellipse fill="none" stroke="black" cx="36.5" cy="-1707.99" rx="32.49" ry="18"/>
<text text-anchor="middle" x="36.5" y="-1704.29" font-family="Times New Roman,serif" font-size="14.00">0x286</text>
</g>
<!-- fake&#45;&gt;0x286 -->
<g id="edge1" class="edge">
<title>fake&#45;&gt;0x286</title>
<path fill="none" stroke="black" stroke-width="2" d="M36.5,-1762.81C36.5,-1754.78 36.5,-1745.04 36.5,-1736.06"/>
<polygon fill="black" stroke="black" stroke-width="2" points="40,-1736.02 36.5,-1726.02 33,-1736.02 40,-1736.02"/>
</g>
<!-- 0x287 -->
<g id="node3" class="node">
<title>0x287</title>
<ellipse fill="none" stroke="black" cx="36.5" cy="-1620.99" rx="32.49" ry="18"/>
<text text-anchor="middle" x="36.5" y="-1617.29" font-family="Times New Roman,serif" font-size="14.00">0x287</text>
</g>
<!-- 0x286&#45;&gt;0x287 -->
<g id="edge2" class="edge">
<title>0x286&#45;&gt;0x287</title>
<path fill="none" stroke="black" d="M36.5,-1689.79C36.5,-1678.16 36.5,-1662.54 36.5,-1649.23"/>
<polygon fill="black" stroke="black" points="40,-1649.17 36.5,-1639.17 33,-1649.17 40,-1649.17"/>
<text text-anchor="middle" x="39" y="-1660.79" font-family="Times New Roman,serif" font-size="14.00">]</text>
</g>
<!-- 0x288 -->
<g id="node4" class="node">
<title>0x288</title>
<ellipse fill="none" stroke="black" cx="36.5" cy="-1533.99" rx="32.49" ry="18"/>
<text text-anchor="middle" x="36.5" y="-1530.29" font-family="Times New Roman,serif" font-size="14.00">0x288</text>
</g>
<!-- 0x287&#45;&gt;0x288 -->
<g id="edge4" class="edge">
<title>0x287&#45;&gt;0x288</title>
<path fill="none" stroke="black" d="M36.5,-1602.79C36.5,-1591.16 36.5,-1575.54 36.5,-1562.23"/>
<polygon fill="black" stroke="black" points="40,-1562.17 36.5,-1552.17 33,-1562.17 40,-1562.17"/>
<text text-anchor="middle" x="55" y="-1573.79" font-family="Times New Roman,serif" font-size="14.00">ε(10d)</text>
</g>
<!-- 0x289 -->
<g id="node5" class="node">
<title>0x289</title>
<ellipse fill="none" stroke="black" cx="36.5" cy="-1446.99" rx="32.49" ry="18"/>
<text text-anchor="middle" x="36.5" y="-1443.29" font-family="Times New Roman,serif" font-size="14.00">0x289</text>
</g>
<!-- 0x288&#45;&gt;0x289 -->
<g id="edge3" class="edge">
<title>0x288&#45;&gt;0x289</title>
<path fill="none" stroke="black" d="M36.5,-1515.79C36.5,-1504.16 36.5,-1488.54 36.5,-1475.23"/>
<polygon fill="black" stroke="black" points="40,-1475.17 36.5,-1465.17 33,-1475.17 40,-1475.17"/>
<text text-anchor="middle" x="38.5" y="-1486.79" font-family="Times New Roman,serif" font-size="14.00">,</text>
</g>
<!-- 0x28a -->
<g id="node6" class="node">
<title>0x28a</title>
<ellipse fill="none" stroke="black" cx="36.5" cy="-1359.99" rx="32.49" ry="18"/>
<text text-anchor="middle" x="36.5" y="-1356.29" font-family="Times New Roman,serif" font-size="14.00">0x28a</text>
</g>
<!-- 0x289&#45;&gt;0x28a -->
<g id="edge6" class="edge">
<title>0x289&#45;&gt;0x28a</title>
<path fill="none" stroke="black" d="M36.5,-1428.79C36.5,-1417.16 36.5,-1401.54 36.5,-1388.23"/>
<polygon fill="black" stroke="black" points="40,-1388.17 36.5,-1378.17 33,-1388.17 40,-1388.17"/>
<text text-anchor="middle" x="54" y="-1399.79" font-family="Times New Roman,serif" font-size="14.00">ε(10e)</text>
</g>
<!-- 0x28b -->
<g id="node7" class="node">
<title>0x28b</title>
<ellipse fill="none" stroke="black" cx="36.5" cy="-1272.99" rx="33.29" ry="18"/>
<text text-anchor="middle" x="36.5" y="-1269.29" font-family="Times New Roman,serif" font-size="14.00">0x28b</text>
</g>
<!-- 0x28a&#45;&gt;0x28b -->
<g id="edge5" class="edge">
<title>0x28a&#45;&gt;0x28b</title>
<path fill="none" stroke="black" d="M36.5,-1341.79C36.5,-1330.16 36.5,-1314.54 36.5,-1301.23"/>
<polygon fill="black" stroke="black" points="40,-1301.17 36.5,-1291.17 33,-1301.17 40,-1301.17"/>
<text text-anchor="middle" x="39" y="-1312.79" font-family="Times New Roman,serif" font-size="14.00">[</text>
</g>
<!-- 0x28c -->
<g id="node8" class="node">
<title>0x28c</title>
<ellipse fill="none" stroke="black" cx="36.5" cy="-1185.99" rx="32.49" ry="18"/>
<text text-anchor="middle" x="36.5" y="-1182.29" font-family="Times New Roman,serif" font-size="14.00">0x28c</text>
</g>
<!-- 0x28b&#45;&gt;0x28c -->
<g id="edge8" class="edge">
<title>0x28b&#45;&gt;0x28c</title>
<path fill="none" stroke="black" d="M36.5,-1254.79C36.5,-1243.16 36.5,-1227.54 36.5,-1214.23"/>
<polygon fill="black" stroke="black" points="40,-1214.17 36.5,-1204.17 33,-1214.17 40,-1214.17"/>
<text text-anchor="middle" x="53.5" y="-1225.79" font-family="Times New Roman,serif" font-size="14.00">ε(10f)</text>
</g>
<!-- 0x28d -->
<g id="node9" class="node">
<title>0x28d</title>
<ellipse fill="none" stroke="black" cx="36.5" cy="-1098.99" rx="33.29" ry="18"/>
<text text-anchor="middle" x="36.5" y="-1095.29" font-family="Times New Roman,serif" font-size="14.00">0x28d</text>
</g>
<!-- 0x28c&#45;&gt;0x28d -->
<g id="edge7" class="edge">
<title>0x28c&#45;&gt;0x28d</title>
<path fill="none" stroke="black" d="M36.5,-1167.79C36.5,-1156.16 36.5,-1140.54 36.5,-1127.23"/>
<polygon fill="black" stroke="black" points="40,-1127.17 36.5,-1117.17 33,-1127.17 40,-1127.17"/>
<text text-anchor="middle" x="40" y="-1138.79" font-family="Times New Roman,serif" font-size="14.00">s</text>
</g>
<!-- 0x28e -->
<g id="node10" class="node">
<title>0x28e</title>
<ellipse fill="none" stroke="black" cx="36.5" cy="-1011.99" rx="32.49" ry="18"/>
<text text-anchor="middle" x="36.5" y="-1008.29" font-family="Times New Roman,serif" font-size="14.00">0x28e</text>
</g>
<!-- 0x28d&#45;&gt;0x28e -->
<g id="edge10" class="edge">
<title>0x28d&#45;&gt;0x28e</title>
<path fill="none" stroke="black" d="M36.5,-1080.79C36.5,-1069.16 36.5,-1053.54 36.5,-1040.23"/>
<polygon fill="black" stroke="black" points="40,-1040.17 36.5,-1030.17 33,-1040.17 40,-1040.17"/>
<text text-anchor="middle" x="54.5" y="-1051.79" font-family="Times New Roman,serif" font-size="14.00">ε(110)</text>
</g>
<!-- 0x28f -->
<g id="node11" class="node">
<title>0x28f</title>
<ellipse fill="none" stroke="black" cx="36.5" cy="-924.99" rx="31.4" ry="18"/>
<text text-anchor="middle" x="36.5" y="-921.29" font-family="Times New Roman,serif" font-size="14.00">0x28f</text>
</g>
<!-- 0x28e&#45;&gt;0x28f -->
<g id="edge9" class="edge">
<title>0x28e&#45;&gt;0x28f</title>
<path fill="none" stroke="black" d="M36.5,-993.79C36.5,-982.16 36.5,-966.54 36.5,-953.23"/>
<polygon fill="black" stroke="black" points="40,-953.17 36.5,-943.17 33,-953.17 40,-953.17"/>
<text text-anchor="middle" x="40" y="-964.79" font-family="Times New Roman,serif" font-size="14.00">g</text>
</g>
<!-- 0x290 -->
<g id="node12" class="node">
<title>0x290</title>
<ellipse fill="none" stroke="black" cx="36.5" cy="-837.99" rx="32.49" ry="18"/>
<text text-anchor="middle" x="36.5" y="-834.29" font-family="Times New Roman,serif" font-size="14.00">0x290</text>
</g>
<!-- 0x28f&#45;&gt;0x290 -->
<g id="edge12" class="edge">
<title>0x28f&#45;&gt;0x290</title>
<path fill="none" stroke="black" d="M36.5,-906.79C36.5,-895.16 36.5,-879.54 36.5,-866.23"/>
<polygon fill="black" stroke="black" points="40,-866.17 36.5,-856.17 33,-866.17 40,-866.17"/>
<text text-anchor="middle" x="54.5" y="-877.79" font-family="Times New Roman,serif" font-size="14.00">ε(111)</text>
</g>
<!-- 0x291 -->
<g id="node13" class="node">
<title>0x291</title>
<ellipse fill="none" stroke="black" cx="36.5" cy="-750.99" rx="32.49" ry="18"/>
<text text-anchor="middle" x="36.5" y="-747.29" font-family="Times New Roman,serif" font-size="14.00">0x291</text>
</g>
<!-- 0x290&#45;&gt;0x291 -->
<g id="edge11" class="edge">
<title>0x290&#45;&gt;0x291</title>
<path fill="none" stroke="black" d="M36.5,-819.79C36.5,-808.16 36.5,-792.54 36.5,-779.23"/>
<polygon fill="black" stroke="black" points="40,-779.17 36.5,-769.17 33,-779.17 40,-779.17"/>
<text text-anchor="middle" x="38.5" y="-790.79" font-family="Times New Roman,serif" font-size="14.00">.</text>
</g>
<!-- 0x292 -->
<g id="node14" class="node">
<title>0x292</title>
<ellipse fill="none" stroke="black" cx="36.5" cy="-663.99" rx="32.49" ry="18"/>
<text text-anchor="middle" x="36.5" y="-660.29" font-family="Times New Roman,serif" font-size="14.00">0x292</text>
</g>
<!-- 0x291&#45;&gt;0x292 -->
<g id="edge14" class="edge">
<title>0x291&#45;&gt;0x292</title>
<path fill="none" stroke="black" d="M36.5,-732.79C36.5,-721.16 36.5,-705.54 36.5,-692.23"/>
<polygon fill="black" stroke="black" points="40,-692.17 36.5,-682.17 33,-692.17 40,-692.17"/>
<text text-anchor="middle" x="54.5" y="-703.79" font-family="Times New Roman,serif" font-size="14.00">ε(112)</text>
</g>
<!-- 0x293 -->
<g id="node15" class="node">
<title>0x293</title>
<ellipse fill="none" stroke="black" cx="36.5" cy="-576.99" rx="32.49" ry="18"/>
<text text-anchor="middle" x="36.5" y="-573.29" font-family="Times New Roman,serif" font-size="14.00">0x293</text>
</g>
<!-- 0x292&#45;&gt;0x293 -->
<g id="edge13" class="edge">
<title>0x292&#45;&gt;0x293</title>
<path fill="none" stroke="black" d="M36.5,-645.79C36.5,-634.16 36.5,-618.54 36.5,-605.23"/>
<polygon fill="black" stroke="black" points="40,-605.17 36.5,-595.17 33,-605.17 40,-605.17"/>
<text text-anchor="middle" x="41.5" y="-616.79" font-family="Times New Roman,serif" font-size="14.00">T</text>
</g>
<!-- 0x294 -->
<g id="node16" class="node">
<title>0x294</title>
<ellipse fill="none" stroke="black" cx="36.5" cy="-489.99" rx="32.49" ry="18"/>
<text text-anchor="middle" x="36.5" y="-486.29" font-family="Times New Roman,serif" font-size="14.00">0x294</text>
</g>
<!-- 0x293&#45;&gt;0x294 -->
<g id="edge16" class="edge">
<title>0x293&#45;&gt;0x294</title>
<path fill="none" stroke="black" d="M36.5,-558.79C36.5,-547.16 36.5,-531.54 36.5,-518.23"/>
<polygon fill="black" stroke="black" points="40,-518.17 36.5,-508.17 33,-518.17 40,-518.17"/>
<text text-anchor="middle" x="54.5" y="-529.79" font-family="Times New Roman,serif" font-size="14.00">ε(113)</text>
</g>
<!-- 0x295 -->
<g id="node17" class="node">
<title>0x295</title>
<ellipse fill="none" stroke="black" cx="36.5" cy="-402.99" rx="32.49" ry="18"/>
<text text-anchor="middle" x="36.5" y="-399.29" font-family="Times New Roman,serif" font-size="14.00">0x295</text>
</g>
<!-- 0x294&#45;&gt;0x295 -->
<g id="edge15" class="edge">
<title>0x294&#45;&gt;0x295</title>
<path fill="none" stroke="black" d="M36.5,-471.79C36.5,-460.16 36.5,-444.54 36.5,-431.23"/>
<polygon fill="black" stroke="black" points="40,-431.17 36.5,-421.17 33,-431.17 40,-431.17"/>
<text text-anchor="middle" x="40" y="-442.79" font-family="Times New Roman,serif" font-size="14.00">e</text>
</g>
<!-- 0x296 -->
<g id="node18" class="node">
<title>0x296</title>
<ellipse fill="none" stroke="black" cx="36.5" cy="-315.99" rx="32.49" ry="18"/>
<text text-anchor="middle" x="36.5" y="-312.29" font-family="Times New Roman,serif" font-size="14.00">0x296</text>
</g>
<!-- 0x295&#45;&gt;0x296 -->
<g id="edge18" class="edge">
<title>0x295&#45;&gt;0x296</title>
<path fill="none" stroke="black" d="M36.5,-384.79C36.5,-373.16 36.5,-357.54 36.5,-344.23"/>
<polygon fill="black" stroke="black" points="40,-344.17 36.5,-334.17 33,-344.17 40,-344.17"/>
<text text-anchor="middle" x="54.5" y="-355.79" font-family="Times New Roman,serif" font-size="14.00">ε(114)</text>
</g>
<!-- 0x297 -->
<g id="node19" class="node">
<title>0x297</title>
<ellipse fill="none" stroke="black" cx="36.5" cy="-228.99" rx="32.49" ry="18"/>
<text text-anchor="middle" x="36.5" y="-225.29" font-family="Times New Roman,serif" font-size="14.00">0x297</text>
</g>
<!-- 0x296&#45;&gt;0x297 -->
<g id="edge17" class="edge">
<title>0x296&#45;&gt;0x297</title>
<path fill="none" stroke="black" d="M36.5,-297.79C36.5,-286.16 36.5,-270.54 36.5,-257.23"/>
<polygon fill="black" stroke="black" points="40,-257.17 36.5,-247.17 33,-257.17 40,-257.17"/>
<text text-anchor="middle" x="40" y="-268.79" font-family="Times New Roman,serif" font-size="14.00">x</text>
</g>
<!-- 0x298 -->
<g id="node20" class="node">
<title>0x298</title>
<ellipse fill="none" stroke="black" cx="36.5" cy="-141.99" rx="32.49" ry="18"/>
<text text-anchor="middle" x="36.5" y="-138.29" font-family="Times New Roman,serif" font-size="14.00">0x298</text>
</g>
<!-- 0x297&#45;&gt;0x298 -->
<g id="edge20" class="edge">
<title>0x297&#45;&gt;0x298</title>
<path fill="none" stroke="black" d="M36.5,-210.79C36.5,-199.16 36.5,-183.54 36.5,-170.23"/>
<polygon fill="black" stroke="black" points="40,-170.17 36.5,-160.17 33,-170.17 40,-170.17"/>
<text text-anchor="middle" x="54.5" y="-181.79" font-family="Times New Roman,serif" font-size="14.00">ε(115)</text>
</g>
<!-- 0x299 -->
<g id="node21" class="node">
<title>0x299</title>
<ellipse fill="none" stroke="black" cx="36.5" cy="-36.5" rx="32.49" ry="32.49"/>
<ellipse fill="none" stroke="black" cx="36.5" cy="-36.5" rx="36.49" ry="36.49"/>
<text text-anchor="middle" x="36.5" y="-32.8" font-family="Times New Roman,serif" font-size="14.00">0x299</text>
</g>
<!-- 0x298&#45;&gt;0x299 -->
<g id="edge19" class="edge">
<title>0x298&#45;&gt;0x299</title>
<path fill="none" stroke="black" d="M36.5,-123.9C36.5,-112.82 36.5,-97.8 36.5,-83.39"/>
<polygon fill="black" stroke="black" points="40,-83.08 36.5,-73.08 33,-83.08 40,-83.08"/>
<text text-anchor="middle" x="38.5" y="-94.79" font-family="Times New Roman,serif" font-size="14.00">t</text>
</g>
</g>
</svg>
