<?xml version="1.0" encoding="UTF-8" standalone="no"?>
<!DOCTYPE svg PUBLIC "-//W3C//DTD SVG 1.1//EN"
 "http://www.w3.org/Graphics/SVG/1.1/DTD/svg11.dtd">
<!-- Generated by graphviz version 3.0.0 (20220226.1711)
 -->
<!-- Pages: 1 -->
<svg width="73pt" height="1799pt"
 viewBox="0.00 0.00 73.19 1799.19" xmlns="http://www.w3.org/2000/svg" xmlns:xlink="http://www.w3.org/1999/xlink">
<g id="graph0" class="graph" transform="scale(1 1) rotate(0) translate(4 1795.19)">
<polygon fill="white" stroke="transparent" points="-4,4 -4,-1795.19 69.19,-1795.19 69.19,4 -4,4"/>
<!-- fake -->
<g id="node1" class="node">
<title>fake</title>
</g>
<!-- 0x2e -->
<g id="node2" class="node">
<title>0x2e</title>
<ellipse fill="none" stroke="black" cx="32.6" cy="-1700.19" rx="27.9" ry="18"/>
<text text-anchor="middle" x="32.6" y="-1696.49" font-family="Times New Roman,serif" font-size="14.00">0x2e</text>
</g>
<!-- fake&#45;&gt;0x2e -->
<g id="edge1" class="edge">
<title>fake&#45;&gt;0x2e</title>
<path fill="none" stroke="black" stroke-width="2" d="M32.6,-1755.01C32.6,-1746.98 32.6,-1737.24 32.6,-1728.26"/>
<polygon fill="black" stroke="black" stroke-width="2" points="36.1,-1728.22 32.6,-1718.22 29.1,-1728.22 36.1,-1728.22"/>
</g>
<!-- 0x2f -->
<g id="node3" class="node">
<title>0x2f</title>
<ellipse fill="none" stroke="black" cx="32.6" cy="-1613.19" rx="27" ry="18"/>
<text text-anchor="middle" x="32.6" y="-1609.49" font-family="Times New Roman,serif" font-size="14.00">0x2f</text>
</g>
<!-- 0x2e&#45;&gt;0x2f -->
<g id="edge2" class="edge">
<title>0x2e&#45;&gt;0x2f</title>
<path fill="none" stroke="black" d="M32.6,-1681.99C32.6,-1670.36 32.6,-1654.74 32.6,-1641.43"/>
<polygon fill="black" stroke="black" points="36.1,-1641.37 32.6,-1631.37 29.1,-1641.37 36.1,-1641.37"/>
<text text-anchor="middle" x="35.1" y="-1652.99" font-family="Times New Roman,serif" font-size="14.00">]</text>
</g>
<!-- 0x30 -->
<g id="node4" class="node">
<title>0x30</title>
<ellipse fill="none" stroke="black" cx="32.6" cy="-1526.19" rx="28.7" ry="18"/>
<text text-anchor="middle" x="32.6" y="-1522.49" font-family="Times New Roman,serif" font-size="14.00">0x30</text>
</g>
<!-- 0x2f&#45;&gt;0x30 -->
<g id="edge4" class="edge">
<title>0x2f&#45;&gt;0x30</title>
<path fill="none" stroke="black" d="M32.6,-1594.99C32.6,-1583.36 32.6,-1567.74 32.6,-1554.43"/>
<polygon fill="black" stroke="black" points="36.1,-1554.37 32.6,-1544.37 29.1,-1554.37 36.1,-1554.37"/>
<text text-anchor="middle" x="47.1" y="-1565.99" font-family="Times New Roman,serif" font-size="14.00">ε(13)</text>
</g>
<!-- 0x31 -->
<g id="node5" class="node">
<title>0x31</title>
<ellipse fill="none" stroke="black" cx="32.6" cy="-1439.19" rx="28.7" ry="18"/>
<text text-anchor="middle" x="32.6" y="-1435.49" font-family="Times New Roman,serif" font-size="14.00">0x31</text>
</g>
<!-- 0x30&#45;&gt;0x31 -->
<g id="edge3" class="edge">
<title>0x30&#45;&gt;0x31</title>
<path fill="none" stroke="black" d="M32.6,-1507.99C32.6,-1496.36 32.6,-1480.74 32.6,-1467.43"/>
<polygon fill="black" stroke="black" points="36.1,-1467.37 32.6,-1457.37 29.1,-1467.37 36.1,-1467.37"/>
<text text-anchor="middle" x="34.6" y="-1478.99" font-family="Times New Roman,serif" font-size="14.00">,</text>
</g>
<!-- 0x32 -->
<g id="node6" class="node">
<title>0x32</title>
<ellipse fill="none" stroke="black" cx="32.6" cy="-1352.19" rx="28.7" ry="18"/>
<text text-anchor="middle" x="32.6" y="-1348.49" font-family="Times New Roman,serif" font-size="14.00">0x32</text>
</g>
<!-- 0x31&#45;&gt;0x32 -->
<g id="edge6" class="edge">
<title>0x31&#45;&gt;0x32</title>
<path fill="none" stroke="black" d="M32.6,-1420.99C32.6,-1409.36 32.6,-1393.74 32.6,-1380.43"/>
<polygon fill="black" stroke="black" points="36.1,-1380.37 32.6,-1370.37 29.1,-1380.37 36.1,-1380.37"/>
<text text-anchor="middle" x="47.1" y="-1391.99" font-family="Times New Roman,serif" font-size="14.00">ε(14)</text>
</g>
<!-- 0x33 -->
<g id="node7" class="node">
<title>0x33</title>
<ellipse fill="none" stroke="black" cx="32.6" cy="-1265.19" rx="28.7" ry="18"/>
<text text-anchor="middle" x="32.6" y="-1261.49" font-family="Times New Roman,serif" font-size="14.00">0x33</text>
</g>
<!-- 0x32&#45;&gt;0x33 -->
<g id="edge5" class="edge">
<title>0x32&#45;&gt;0x33</title>
<path fill="none" stroke="black" d="M32.6,-1333.99C32.6,-1322.36 32.6,-1306.74 32.6,-1293.43"/>
<polygon fill="black" stroke="black" points="36.1,-1293.37 32.6,-1283.37 29.1,-1293.37 36.1,-1293.37"/>
<text text-anchor="middle" x="35.1" y="-1304.99" font-family="Times New Roman,serif" font-size="14.00">[</text>
</g>
<!-- 0x34 -->
<g id="node8" class="node">
<title>0x34</title>
<ellipse fill="none" stroke="black" cx="32.6" cy="-1178.19" rx="28.7" ry="18"/>
<text text-anchor="middle" x="32.6" y="-1174.49" font-family="Times New Roman,serif" font-size="14.00">0x34</text>
</g>
<!-- 0x33&#45;&gt;0x34 -->
<g id="edge8" class="edge">
<title>0x33&#45;&gt;0x34</title>
<path fill="none" stroke="black" d="M32.6,-1246.99C32.6,-1235.36 32.6,-1219.74 32.6,-1206.43"/>
<polygon fill="black" stroke="black" points="36.1,-1206.37 32.6,-1196.37 29.1,-1206.37 36.1,-1206.37"/>
<text text-anchor="middle" x="47.1" y="-1217.99" font-family="Times New Roman,serif" font-size="14.00">ε(15)</text>
</g>
<!-- 0x35 -->
<g id="node9" class="node">
<title>0x35</title>
<ellipse fill="none" stroke="black" cx="32.6" cy="-1091.19" rx="28.7" ry="18"/>
<text text-anchor="middle" x="32.6" y="-1087.49" font-family="Times New Roman,serif" font-size="14.00">0x35</text>
</g>
<!-- 0x34&#45;&gt;0x35 -->
<g id="edge7" class="edge">
<title>0x34&#45;&gt;0x35</title>
<path fill="none" stroke="black" d="M32.6,-1159.99C32.6,-1148.36 32.6,-1132.74 32.6,-1119.43"/>
<polygon fill="black" stroke="black" points="36.1,-1119.37 32.6,-1109.37 29.1,-1119.37 36.1,-1119.37"/>
<text text-anchor="middle" x="36.1" y="-1130.99" font-family="Times New Roman,serif" font-size="14.00">s</text>
</g>
<!-- 0x36 -->
<g id="node10" class="node">
<title>0x36</title>
<ellipse fill="none" stroke="black" cx="32.6" cy="-1004.19" rx="28.7" ry="18"/>
<text text-anchor="middle" x="32.6" y="-1000.49" font-family="Times New Roman,serif" font-size="14.00">0x36</text>
</g>
<!-- 0x35&#45;&gt;0x36 -->
<g id="edge10" class="edge">
<title>0x35&#45;&gt;0x36</title>
<path fill="none" stroke="black" d="M32.6,-1072.99C32.6,-1061.36 32.6,-1045.74 32.6,-1032.43"/>
<polygon fill="black" stroke="black" points="36.1,-1032.37 32.6,-1022.37 29.1,-1032.37 36.1,-1032.37"/>
<text text-anchor="middle" x="47.1" y="-1043.99" font-family="Times New Roman,serif" font-size="14.00">ε(16)</text>
</g>
<!-- 0x37 -->
<g id="node11" class="node">
<title>0x37</title>
<ellipse fill="none" stroke="black" cx="32.6" cy="-917.19" rx="28.7" ry="18"/>
<text text-anchor="middle" x="32.6" y="-913.49" font-family="Times New Roman,serif" font-size="14.00">0x37</text>
</g>
<!-- 0x36&#45;&gt;0x37 -->
<g id="edge9" class="edge">
<title>0x36&#45;&gt;0x37</title>
<path fill="none" stroke="black" d="M32.6,-985.99C32.6,-974.36 32.6,-958.74 32.6,-945.43"/>
<polygon fill="black" stroke="black" points="36.1,-945.37 32.6,-935.37 29.1,-945.37 36.1,-945.37"/>
<text text-anchor="middle" x="36.1" y="-956.99" font-family="Times New Roman,serif" font-size="14.00">g</text>
</g>
<!-- 0x38 -->
<g id="node12" class="node">
<title>0x38</title>
<ellipse fill="none" stroke="black" cx="32.6" cy="-830.19" rx="28.7" ry="18"/>
<text text-anchor="middle" x="32.6" y="-826.49" font-family="Times New Roman,serif" font-size="14.00">0x38</text>
</g>
<!-- 0x37&#45;&gt;0x38 -->
<g id="edge12" class="edge">
<title>0x37&#45;&gt;0x38</title>
<path fill="none" stroke="black" d="M32.6,-898.99C32.6,-887.36 32.6,-871.74 32.6,-858.43"/>
<polygon fill="black" stroke="black" points="36.1,-858.37 32.6,-848.37 29.1,-858.37 36.1,-858.37"/>
<text text-anchor="middle" x="47.1" y="-869.99" font-family="Times New Roman,serif" font-size="14.00">ε(17)</text>
</g>
<!-- 0x39 -->
<g id="node13" class="node">
<title>0x39</title>
<ellipse fill="none" stroke="black" cx="32.6" cy="-743.19" rx="28.7" ry="18"/>
<text text-anchor="middle" x="32.6" y="-739.49" font-family="Times New Roman,serif" font-size="14.00">0x39</text>
</g>
<!-- 0x38&#45;&gt;0x39 -->
<g id="edge11" class="edge">
<title>0x38&#45;&gt;0x39</title>
<path fill="none" stroke="black" d="M32.6,-811.99C32.6,-800.36 32.6,-784.74 32.6,-771.43"/>
<polygon fill="black" stroke="black" points="36.1,-771.37 32.6,-761.37 29.1,-771.37 36.1,-771.37"/>
<text text-anchor="middle" x="34.6" y="-782.99" font-family="Times New Roman,serif" font-size="14.00">.</text>
</g>
<!-- 0x3a -->
<g id="node14" class="node">
<title>0x3a</title>
<ellipse fill="none" stroke="black" cx="32.6" cy="-656.19" rx="27.9" ry="18"/>
<text text-anchor="middle" x="32.6" y="-652.49" font-family="Times New Roman,serif" font-size="14.00">0x3a</text>
</g>
<!-- 0x39&#45;&gt;0x3a -->
<g id="edge14" class="edge">
<title>0x39&#45;&gt;0x3a</title>
<path fill="none" stroke="black" d="M32.6,-724.99C32.6,-713.36 32.6,-697.74 32.6,-684.43"/>
<polygon fill="black" stroke="black" points="36.1,-684.37 32.6,-674.37 29.1,-684.37 36.1,-684.37"/>
<text text-anchor="middle" x="47.1" y="-695.99" font-family="Times New Roman,serif" font-size="14.00">ε(18)</text>
</g>
<!-- 0x3b -->
<g id="node15" class="node">
<title>0x3b</title>
<ellipse fill="none" stroke="black" cx="32.6" cy="-569.19" rx="28.7" ry="18"/>
<text text-anchor="middle" x="32.6" y="-565.49" font-family="Times New Roman,serif" font-size="14.00">0x3b</text>
</g>
<!-- 0x3a&#45;&gt;0x3b -->
<g id="edge13" class="edge">
<title>0x3a&#45;&gt;0x3b</title>
<path fill="none" stroke="black" d="M32.6,-637.99C32.6,-626.36 32.6,-610.74 32.6,-597.43"/>
<polygon fill="black" stroke="black" points="36.1,-597.37 32.6,-587.37 29.1,-597.37 36.1,-597.37"/>
<text text-anchor="middle" x="37.6" y="-608.99" font-family="Times New Roman,serif" font-size="14.00">T</text>
</g>
<!-- 0x3c -->
<g id="node16" class="node">
<title>0x3c</title>
<ellipse fill="none" stroke="black" cx="32.6" cy="-482.19" rx="28.7" ry="18"/>
<text text-anchor="middle" x="32.6" y="-478.49" font-family="Times New Roman,serif" font-size="14.00">0x3c</text>
</g>
<!-- 0x3b&#45;&gt;0x3c -->
<g id="edge16" class="edge">
<title>0x3b&#45;&gt;0x3c</title>
<path fill="none" stroke="black" d="M32.6,-550.99C32.6,-539.36 32.6,-523.74 32.6,-510.43"/>
<polygon fill="black" stroke="black" points="36.1,-510.37 32.6,-500.37 29.1,-510.37 36.1,-510.37"/>
<text text-anchor="middle" x="47.1" y="-521.99" font-family="Times New Roman,serif" font-size="14.00">ε(19)</text>
</g>
<!-- 0x3d -->
<g id="node17" class="node">
<title>0x3d</title>
<ellipse fill="none" stroke="black" cx="32.6" cy="-395.19" rx="28.7" ry="18"/>
<text text-anchor="middle" x="32.6" y="-391.49" font-family="Times New Roman,serif" font-size="14.00">0x3d</text>
</g>
<!-- 0x3c&#45;&gt;0x3d -->
<g id="edge15" class="edge">
<title>0x3c&#45;&gt;0x3d</title>
<path fill="none" stroke="black" d="M32.6,-463.99C32.6,-452.36 32.6,-436.74 32.6,-423.43"/>
<polygon fill="black" stroke="black" points="36.1,-423.37 32.6,-413.37 29.1,-423.37 36.1,-423.37"/>
<text text-anchor="middle" x="36.1" y="-434.99" font-family="Times New Roman,serif" font-size="14.00">e</text>
</g>
<!-- 0x3e -->
<g id="node18" class="node">
<title>0x3e</title>
<ellipse fill="none" stroke="black" cx="32.6" cy="-308.19" rx="27.9" ry="18"/>
<text text-anchor="middle" x="32.6" y="-304.49" font-family="Times New Roman,serif" font-size="14.00">0x3e</text>
</g>
<!-- 0x3d&#45;&gt;0x3e -->
<g id="edge18" class="edge">
<title>0x3d&#45;&gt;0x3e</title>
<path fill="none" stroke="black" d="M32.6,-376.99C32.6,-365.36 32.6,-349.74 32.6,-336.43"/>
<polygon fill="black" stroke="black" points="36.1,-336.37 32.6,-326.37 29.1,-336.37 36.1,-336.37"/>
<text text-anchor="middle" x="46.6" y="-347.99" font-family="Times New Roman,serif" font-size="14.00">ε(1a)</text>
</g>
<!-- 0x3f -->
<g id="node19" class="node">
<title>0x3f</title>
<ellipse fill="none" stroke="black" cx="32.6" cy="-221.19" rx="27" ry="18"/>
<text text-anchor="middle" x="32.6" y="-217.49" font-family="Times New Roman,serif" font-size="14.00">0x3f</text>
</g>
<!-- 0x3e&#45;&gt;0x3f -->
<g id="edge17" class="edge">
<title>0x3e&#45;&gt;0x3f</title>
<path fill="none" stroke="black" d="M32.6,-289.99C32.6,-278.36 32.6,-262.74 32.6,-249.43"/>
<polygon fill="black" stroke="black" points="36.1,-249.37 32.6,-239.37 29.1,-249.37 36.1,-249.37"/>
<text text-anchor="middle" x="36.1" y="-260.99" font-family="Times New Roman,serif" font-size="14.00">x</text>
</g>
<!-- 0x40 -->
<g id="node20" class="node">
<title>0x40</title>
<ellipse fill="none" stroke="black" cx="32.6" cy="-134.19" rx="28.7" ry="18"/>
<text text-anchor="middle" x="32.6" y="-130.49" font-family="Times New Roman,serif" font-size="14.00">0x40</text>
</g>
<!-- 0x3f&#45;&gt;0x40 -->
<g id="edge20" class="edge">
<title>0x3f&#45;&gt;0x40</title>
<path fill="none" stroke="black" d="M32.6,-202.99C32.6,-191.36 32.6,-175.74 32.6,-162.43"/>
<polygon fill="black" stroke="black" points="36.1,-162.37 32.6,-152.37 29.1,-162.37 36.1,-162.37"/>
<text text-anchor="middle" x="47.6" y="-173.99" font-family="Times New Roman,serif" font-size="14.00">ε(1b)</text>
</g>
<!-- 0x41 -->
<g id="node21" class="node">
<title>0x41</title>
<ellipse fill="none" stroke="black" cx="32.6" cy="-32.6" rx="28.68" ry="28.68"/>
<ellipse fill="none" stroke="black" cx="32.6" cy="-32.6" rx="32.7" ry="32.7"/>
<text text-anchor="middle" x="32.6" y="-28.9" font-family="Times New Roman,serif" font-size="14.00">0x41</text>
</g>
<!-- 0x40&#45;&gt;0x41 -->
<g id="edge19" class="edge">
<title>0x40&#45;&gt;0x41</title>
<path fill="none" stroke="black" d="M32.6,-115.85C32.6,-104.63 32.6,-89.54 32.6,-75.33"/>
<polygon fill="black" stroke="black" points="36.1,-75.22 32.6,-65.22 29.1,-75.22 36.1,-75.22"/>
<text text-anchor="middle" x="34.6" y="-86.99" font-family="Times New Roman,serif" font-size="14.00">t</text>
</g>
</g>
</svg>
