<?xml version="1.0" encoding="UTF-8" standalone="no"?>
<!DOCTYPE svg PUBLIC "-//W3C//DTD SVG 1.1//EN"
 "http://www.w3.org/Graphics/SVG/1.1/DTD/svg11.dtd">
<!-- Generated by graphviz version 3.0.0 (20220226.1711)
 -->
<!-- Pages: 1 -->
<svg width="82pt" height="1808pt"
 viewBox="0.00 0.00 82.29 1808.29" xmlns="http://www.w3.org/2000/svg" xmlns:xlink="http://www.w3.org/1999/xlink">
<g id="graph0" class="graph" transform="scale(1 1) rotate(0) translate(4 1804.29)">
<polygon fill="white" stroke="transparent" points="-4,4 -4,-1804.29 78.29,-1804.29 78.29,4 -4,4"/>
<!-- fake -->
<g id="node1" class="node">
<title>fake</title>
</g>
<!-- 0x3be -->
<g id="node2" class="node">
<title>0x3be</title>
<ellipse fill="none" stroke="black" cx="37.15" cy="-1709.29" rx="32.49" ry="18"/>
<text text-anchor="middle" x="37.15" y="-1705.59" font-family="Times New Roman,serif" font-size="14.00">0x3be</text>
</g>
<!-- fake&#45;&gt;0x3be -->
<g id="edge1" class="edge">
<title>fake&#45;&gt;0x3be</title>
<path fill="none" stroke="black" stroke-width="2" d="M37.15,-1764.11C37.15,-1756.08 37.15,-1746.34 37.15,-1737.36"/>
<polygon fill="black" stroke="black" stroke-width="2" points="40.65,-1737.32 37.15,-1727.32 33.65,-1737.32 40.65,-1737.32"/>
</g>
<!-- 0x3bf -->
<g id="node3" class="node">
<title>0x3bf</title>
<ellipse fill="none" stroke="black" cx="37.15" cy="-1622.29" rx="31.7" ry="18"/>
<text text-anchor="middle" x="37.15" y="-1618.59" font-family="Times New Roman,serif" font-size="14.00">0x3bf</text>
</g>
<!-- 0x3be&#45;&gt;0x3bf -->
<g id="edge2" class="edge">
<title>0x3be&#45;&gt;0x3bf</title>
<path fill="none" stroke="black" d="M37.15,-1691.09C37.15,-1679.46 37.15,-1663.84 37.15,-1650.53"/>
<polygon fill="black" stroke="black" points="40.65,-1650.47 37.15,-1640.47 33.65,-1650.47 40.65,-1650.47"/>
<text text-anchor="middle" x="39.65" y="-1662.09" font-family="Times New Roman,serif" font-size="14.00">]</text>
</g>
<!-- 0x3c0 -->
<g id="node4" class="node">
<title>0x3c0</title>
<ellipse fill="none" stroke="black" cx="37.15" cy="-1535.29" rx="32.49" ry="18"/>
<text text-anchor="middle" x="37.15" y="-1531.59" font-family="Times New Roman,serif" font-size="14.00">0x3c0</text>
</g>
<!-- 0x3bf&#45;&gt;0x3c0 -->
<g id="edge4" class="edge">
<title>0x3bf&#45;&gt;0x3c0</title>
<path fill="none" stroke="black" d="M37.15,-1604.09C37.15,-1592.46 37.15,-1576.84 37.15,-1563.53"/>
<polygon fill="black" stroke="black" points="40.65,-1563.47 37.15,-1553.47 33.65,-1563.47 40.65,-1563.47"/>
<text text-anchor="middle" x="54.15" y="-1575.09" font-family="Times New Roman,serif" font-size="14.00">ε(18f)</text>
</g>
<!-- 0x3c1 -->
<g id="node5" class="node">
<title>0x3c1</title>
<ellipse fill="none" stroke="black" cx="37.15" cy="-1448.29" rx="32.49" ry="18"/>
<text text-anchor="middle" x="37.15" y="-1444.59" font-family="Times New Roman,serif" font-size="14.00">0x3c1</text>
</g>
<!-- 0x3c0&#45;&gt;0x3c1 -->
<g id="edge3" class="edge">
<title>0x3c0&#45;&gt;0x3c1</title>
<path fill="none" stroke="black" d="M37.15,-1517.09C37.15,-1505.46 37.15,-1489.84 37.15,-1476.53"/>
<polygon fill="black" stroke="black" points="40.65,-1476.47 37.15,-1466.47 33.65,-1476.47 40.65,-1476.47"/>
<text text-anchor="middle" x="39.15" y="-1488.09" font-family="Times New Roman,serif" font-size="14.00">,</text>
</g>
<!-- 0x3c2 -->
<g id="node6" class="node">
<title>0x3c2</title>
<ellipse fill="none" stroke="black" cx="37.15" cy="-1361.29" rx="32.49" ry="18"/>
<text text-anchor="middle" x="37.15" y="-1357.59" font-family="Times New Roman,serif" font-size="14.00">0x3c2</text>
</g>
<!-- 0x3c1&#45;&gt;0x3c2 -->
<g id="edge6" class="edge">
<title>0x3c1&#45;&gt;0x3c2</title>
<path fill="none" stroke="black" d="M37.15,-1430.09C37.15,-1418.46 37.15,-1402.84 37.15,-1389.53"/>
<polygon fill="black" stroke="black" points="40.65,-1389.47 37.15,-1379.47 33.65,-1389.47 40.65,-1389.47"/>
<text text-anchor="middle" x="55.15" y="-1401.09" font-family="Times New Roman,serif" font-size="14.00">ε(190)</text>
</g>
<!-- 0x3c3 -->
<g id="node7" class="node">
<title>0x3c3</title>
<ellipse fill="none" stroke="black" cx="37.15" cy="-1274.29" rx="32.49" ry="18"/>
<text text-anchor="middle" x="37.15" y="-1270.59" font-family="Times New Roman,serif" font-size="14.00">0x3c3</text>
</g>
<!-- 0x3c2&#45;&gt;0x3c3 -->
<g id="edge5" class="edge">
<title>0x3c2&#45;&gt;0x3c3</title>
<path fill="none" stroke="black" d="M37.15,-1343.09C37.15,-1331.46 37.15,-1315.84 37.15,-1302.53"/>
<polygon fill="black" stroke="black" points="40.65,-1302.47 37.15,-1292.47 33.65,-1302.47 40.65,-1302.47"/>
<text text-anchor="middle" x="39.65" y="-1314.09" font-family="Times New Roman,serif" font-size="14.00">[</text>
</g>
<!-- 0x3c4 -->
<g id="node8" class="node">
<title>0x3c4</title>
<ellipse fill="none" stroke="black" cx="37.15" cy="-1187.29" rx="32.49" ry="18"/>
<text text-anchor="middle" x="37.15" y="-1183.59" font-family="Times New Roman,serif" font-size="14.00">0x3c4</text>
</g>
<!-- 0x3c3&#45;&gt;0x3c4 -->
<g id="edge8" class="edge">
<title>0x3c3&#45;&gt;0x3c4</title>
<path fill="none" stroke="black" d="M37.15,-1256.09C37.15,-1244.46 37.15,-1228.84 37.15,-1215.53"/>
<polygon fill="black" stroke="black" points="40.65,-1215.47 37.15,-1205.47 33.65,-1215.47 40.65,-1215.47"/>
<text text-anchor="middle" x="55.15" y="-1227.09" font-family="Times New Roman,serif" font-size="14.00">ε(191)</text>
</g>
<!-- 0x3c5 -->
<g id="node9" class="node">
<title>0x3c5</title>
<ellipse fill="none" stroke="black" cx="37.15" cy="-1100.29" rx="32.49" ry="18"/>
<text text-anchor="middle" x="37.15" y="-1096.59" font-family="Times New Roman,serif" font-size="14.00">0x3c5</text>
</g>
<!-- 0x3c4&#45;&gt;0x3c5 -->
<g id="edge7" class="edge">
<title>0x3c4&#45;&gt;0x3c5</title>
<path fill="none" stroke="black" d="M37.15,-1169.09C37.15,-1157.46 37.15,-1141.84 37.15,-1128.53"/>
<polygon fill="black" stroke="black" points="40.65,-1128.47 37.15,-1118.47 33.65,-1128.47 40.65,-1128.47"/>
<text text-anchor="middle" x="40.65" y="-1140.09" font-family="Times New Roman,serif" font-size="14.00">s</text>
</g>
<!-- 0x3c6 -->
<g id="node10" class="node">
<title>0x3c6</title>
<ellipse fill="none" stroke="black" cx="37.15" cy="-1013.29" rx="32.49" ry="18"/>
<text text-anchor="middle" x="37.15" y="-1009.59" font-family="Times New Roman,serif" font-size="14.00">0x3c6</text>
</g>
<!-- 0x3c5&#45;&gt;0x3c6 -->
<g id="edge10" class="edge">
<title>0x3c5&#45;&gt;0x3c6</title>
<path fill="none" stroke="black" d="M37.15,-1082.09C37.15,-1070.46 37.15,-1054.84 37.15,-1041.53"/>
<polygon fill="black" stroke="black" points="40.65,-1041.47 37.15,-1031.47 33.65,-1041.47 40.65,-1041.47"/>
<text text-anchor="middle" x="55.15" y="-1053.09" font-family="Times New Roman,serif" font-size="14.00">ε(192)</text>
</g>
<!-- 0x3c7 -->
<g id="node11" class="node">
<title>0x3c7</title>
<ellipse fill="none" stroke="black" cx="37.15" cy="-926.29" rx="32.49" ry="18"/>
<text text-anchor="middle" x="37.15" y="-922.59" font-family="Times New Roman,serif" font-size="14.00">0x3c7</text>
</g>
<!-- 0x3c6&#45;&gt;0x3c7 -->
<g id="edge9" class="edge">
<title>0x3c6&#45;&gt;0x3c7</title>
<path fill="none" stroke="black" d="M37.15,-995.09C37.15,-983.46 37.15,-967.84 37.15,-954.53"/>
<polygon fill="black" stroke="black" points="40.65,-954.47 37.15,-944.47 33.65,-954.47 40.65,-954.47"/>
<text text-anchor="middle" x="40.65" y="-966.09" font-family="Times New Roman,serif" font-size="14.00">g</text>
</g>
<!-- 0x3c8 -->
<g id="node12" class="node">
<title>0x3c8</title>
<ellipse fill="none" stroke="black" cx="37.15" cy="-839.29" rx="32.49" ry="18"/>
<text text-anchor="middle" x="37.15" y="-835.59" font-family="Times New Roman,serif" font-size="14.00">0x3c8</text>
</g>
<!-- 0x3c7&#45;&gt;0x3c8 -->
<g id="edge12" class="edge">
<title>0x3c7&#45;&gt;0x3c8</title>
<path fill="none" stroke="black" d="M37.15,-908.09C37.15,-896.46 37.15,-880.84 37.15,-867.53"/>
<polygon fill="black" stroke="black" points="40.65,-867.47 37.15,-857.47 33.65,-867.47 40.65,-867.47"/>
<text text-anchor="middle" x="55.15" y="-879.09" font-family="Times New Roman,serif" font-size="14.00">ε(193)</text>
</g>
<!-- 0x3c9 -->
<g id="node13" class="node">
<title>0x3c9</title>
<ellipse fill="none" stroke="black" cx="37.15" cy="-752.29" rx="32.49" ry="18"/>
<text text-anchor="middle" x="37.15" y="-748.59" font-family="Times New Roman,serif" font-size="14.00">0x3c9</text>
</g>
<!-- 0x3c8&#45;&gt;0x3c9 -->
<g id="edge11" class="edge">
<title>0x3c8&#45;&gt;0x3c9</title>
<path fill="none" stroke="black" d="M37.15,-821.09C37.15,-809.46 37.15,-793.84 37.15,-780.53"/>
<polygon fill="black" stroke="black" points="40.65,-780.47 37.15,-770.47 33.65,-780.47 40.65,-780.47"/>
<text text-anchor="middle" x="39.15" y="-792.09" font-family="Times New Roman,serif" font-size="14.00">.</text>
</g>
<!-- 0x3ca -->
<g id="node14" class="node">
<title>0x3ca</title>
<ellipse fill="none" stroke="black" cx="37.15" cy="-665.29" rx="32.49" ry="18"/>
<text text-anchor="middle" x="37.15" y="-661.59" font-family="Times New Roman,serif" font-size="14.00">0x3ca</text>
</g>
<!-- 0x3c9&#45;&gt;0x3ca -->
<g id="edge14" class="edge">
<title>0x3c9&#45;&gt;0x3ca</title>
<path fill="none" stroke="black" d="M37.15,-734.09C37.15,-722.46 37.15,-706.84 37.15,-693.53"/>
<polygon fill="black" stroke="black" points="40.65,-693.47 37.15,-683.47 33.65,-693.47 40.65,-693.47"/>
<text text-anchor="middle" x="55.15" y="-705.09" font-family="Times New Roman,serif" font-size="14.00">ε(194)</text>
</g>
<!-- 0x3cb -->
<g id="node15" class="node">
<title>0x3cb</title>
<ellipse fill="none" stroke="black" cx="37.15" cy="-578.29" rx="33.29" ry="18"/>
<text text-anchor="middle" x="37.15" y="-574.59" font-family="Times New Roman,serif" font-size="14.00">0x3cb</text>
</g>
<!-- 0x3ca&#45;&gt;0x3cb -->
<g id="edge13" class="edge">
<title>0x3ca&#45;&gt;0x3cb</title>
<path fill="none" stroke="black" d="M37.15,-647.09C37.15,-635.46 37.15,-619.84 37.15,-606.53"/>
<polygon fill="black" stroke="black" points="40.65,-606.47 37.15,-596.47 33.65,-606.47 40.65,-606.47"/>
<text text-anchor="middle" x="42.15" y="-618.09" font-family="Times New Roman,serif" font-size="14.00">T</text>
</g>
<!-- 0x3cc -->
<g id="node16" class="node">
<title>0x3cc</title>
<ellipse fill="none" stroke="black" cx="37.15" cy="-491.29" rx="32.49" ry="18"/>
<text text-anchor="middle" x="37.15" y="-487.59" font-family="Times New Roman,serif" font-size="14.00">0x3cc</text>
</g>
<!-- 0x3cb&#45;&gt;0x3cc -->
<g id="edge16" class="edge">
<title>0x3cb&#45;&gt;0x3cc</title>
<path fill="none" stroke="black" d="M37.15,-560.09C37.15,-548.46 37.15,-532.84 37.15,-519.53"/>
<polygon fill="black" stroke="black" points="40.65,-519.47 37.15,-509.47 33.65,-519.47 40.65,-519.47"/>
<text text-anchor="middle" x="55.15" y="-531.09" font-family="Times New Roman,serif" font-size="14.00">ε(195)</text>
</g>
<!-- 0x3cd -->
<g id="node17" class="node">
<title>0x3cd</title>
<ellipse fill="none" stroke="black" cx="37.15" cy="-404.29" rx="33.29" ry="18"/>
<text text-anchor="middle" x="37.15" y="-400.59" font-family="Times New Roman,serif" font-size="14.00">0x3cd</text>
</g>
<!-- 0x3cc&#45;&gt;0x3cd -->
<g id="edge15" class="edge">
<title>0x3cc&#45;&gt;0x3cd</title>
<path fill="none" stroke="black" d="M37.15,-473.09C37.15,-461.46 37.15,-445.84 37.15,-432.53"/>
<polygon fill="black" stroke="black" points="40.65,-432.47 37.15,-422.47 33.65,-432.47 40.65,-432.47"/>
<text text-anchor="middle" x="40.65" y="-444.09" font-family="Times New Roman,serif" font-size="14.00">e</text>
</g>
<!-- 0x3ce -->
<g id="node18" class="node">
<title>0x3ce</title>
<ellipse fill="none" stroke="black" cx="37.15" cy="-317.29" rx="32.49" ry="18"/>
<text text-anchor="middle" x="37.15" y="-313.59" font-family="Times New Roman,serif" font-size="14.00">0x3ce</text>
</g>
<!-- 0x3cd&#45;&gt;0x3ce -->
<g id="edge18" class="edge">
<title>0x3cd&#45;&gt;0x3ce</title>
<path fill="none" stroke="black" d="M37.15,-386.09C37.15,-374.46 37.15,-358.84 37.15,-345.53"/>
<polygon fill="black" stroke="black" points="40.65,-345.47 37.15,-335.47 33.65,-345.47 40.65,-345.47"/>
<text text-anchor="middle" x="55.15" y="-357.09" font-family="Times New Roman,serif" font-size="14.00">ε(196)</text>
</g>
<!-- 0x3cf -->
<g id="node19" class="node">
<title>0x3cf</title>
<ellipse fill="none" stroke="black" cx="37.15" cy="-230.29" rx="31.4" ry="18"/>
<text text-anchor="middle" x="37.15" y="-226.59" font-family="Times New Roman,serif" font-size="14.00">0x3cf</text>
</g>
<!-- 0x3ce&#45;&gt;0x3cf -->
<g id="edge17" class="edge">
<title>0x3ce&#45;&gt;0x3cf</title>
<path fill="none" stroke="black" d="M37.15,-299.09C37.15,-287.46 37.15,-271.84 37.15,-258.53"/>
<polygon fill="black" stroke="black" points="40.65,-258.47 37.15,-248.47 33.65,-258.47 40.65,-258.47"/>
<text text-anchor="middle" x="40.65" y="-270.09" font-family="Times New Roman,serif" font-size="14.00">x</text>
</g>
<!-- 0x3d0 -->
<g id="node20" class="node">
<title>0x3d0</title>
<ellipse fill="none" stroke="black" cx="37.15" cy="-143.29" rx="33.29" ry="18"/>
<text text-anchor="middle" x="37.15" y="-139.59" font-family="Times New Roman,serif" font-size="14.00">0x3d0</text>
</g>
<!-- 0x3cf&#45;&gt;0x3d0 -->
<g id="edge20" class="edge">
<title>0x3cf&#45;&gt;0x3d0</title>
<path fill="none" stroke="black" d="M37.15,-212.09C37.15,-200.46 37.15,-184.84 37.15,-171.53"/>
<polygon fill="black" stroke="black" points="40.65,-171.47 37.15,-161.47 33.65,-171.47 40.65,-171.47"/>
<text text-anchor="middle" x="55.15" y="-183.09" font-family="Times New Roman,serif" font-size="14.00">ε(197)</text>
</g>
<!-- 0x3d1 -->
<g id="node21" class="node">
<title>0x3d1</title>
<ellipse fill="none" stroke="black" cx="37.15" cy="-37.15" rx="33.28" ry="33.28"/>
<ellipse fill="none" stroke="black" cx="37.15" cy="-37.15" rx="37.29" ry="37.29"/>
<text text-anchor="middle" x="37.15" y="-33.45" font-family="Times New Roman,serif" font-size="14.00">0x3d1</text>
</g>
<!-- 0x3d0&#45;&gt;0x3d1 -->
<g id="edge19" class="edge">
<title>0x3d0&#45;&gt;0x3d1</title>
<path fill="none" stroke="black" d="M37.15,-125.1C37.15,-114.03 37.15,-99.08 37.15,-84.69"/>
<polygon fill="black" stroke="black" points="40.65,-84.39 37.15,-74.39 33.65,-84.39 40.65,-84.39"/>
<text text-anchor="middle" x="39.15" y="-96.09" font-family="Times New Roman,serif" font-size="14.00">t</text>
</g>
</g>
</svg>
