<?xml version="1.0" encoding="UTF-8" standalone="no"?>
<!DOCTYPE svg PUBLIC "-//W3C//DTD SVG 1.1//EN"
 "http://www.w3.org/Graphics/SVG/1.1/DTD/svg11.dtd">
<!-- Generated by graphviz version 3.0.0 (20220226.1711)
 -->
<!-- Pages: 1 -->
<svg width="73pt" height="1799pt"
 viewBox="0.00 0.00 73.19 1799.19" xmlns="http://www.w3.org/2000/svg" xmlns:xlink="http://www.w3.org/1999/xlink">
<g id="graph0" class="graph" transform="scale(1 1) rotate(0) translate(4 1795.19)">
<polygon fill="white" stroke="transparent" points="-4,4 -4,-1795.19 69.19,-1795.19 69.19,4 -4,4"/>
<!-- fake -->
<g id="node1" class="node">
<title>fake</title>
</g>
<!-- 0x5e -->
<g id="node2" class="node">
<title>0x5e</title>
<ellipse fill="none" stroke="black" cx="32.6" cy="-1700.19" rx="27.9" ry="18"/>
<text text-anchor="middle" x="32.6" y="-1696.49" font-family="Times New Roman,serif" font-size="14.00">0x5e</text>
</g>
<!-- fake&#45;&gt;0x5e -->
<g id="edge1" class="edge">
<title>fake&#45;&gt;0x5e</title>
<path fill="none" stroke="black" stroke-width="2" d="M32.6,-1755.01C32.6,-1746.98 32.6,-1737.24 32.6,-1728.26"/>
<polygon fill="black" stroke="black" stroke-width="2" points="36.1,-1728.22 32.6,-1718.22 29.1,-1728.22 36.1,-1728.22"/>
</g>
<!-- 0x5f -->
<g id="node3" class="node">
<title>0x5f</title>
<ellipse fill="none" stroke="black" cx="32.6" cy="-1613.19" rx="27" ry="18"/>
<text text-anchor="middle" x="32.6" y="-1609.49" font-family="Times New Roman,serif" font-size="14.00">0x5f</text>
</g>
<!-- 0x5e&#45;&gt;0x5f -->
<g id="edge2" class="edge">
<title>0x5e&#45;&gt;0x5f</title>
<path fill="none" stroke="black" d="M32.6,-1681.99C32.6,-1670.36 32.6,-1654.74 32.6,-1641.43"/>
<polygon fill="black" stroke="black" points="36.1,-1641.37 32.6,-1631.37 29.1,-1641.37 36.1,-1641.37"/>
<text text-anchor="middle" x="35.1" y="-1652.99" font-family="Times New Roman,serif" font-size="14.00">]</text>
</g>
<!-- 0x60 -->
<g id="node4" class="node">
<title>0x60</title>
<ellipse fill="none" stroke="black" cx="32.6" cy="-1526.19" rx="28.7" ry="18"/>
<text text-anchor="middle" x="32.6" y="-1522.49" font-family="Times New Roman,serif" font-size="14.00">0x60</text>
</g>
<!-- 0x5f&#45;&gt;0x60 -->
<g id="edge4" class="edge">
<title>0x5f&#45;&gt;0x60</title>
<path fill="none" stroke="black" d="M32.6,-1594.99C32.6,-1583.36 32.6,-1567.74 32.6,-1554.43"/>
<polygon fill="black" stroke="black" points="36.1,-1554.37 32.6,-1544.37 29.1,-1554.37 36.1,-1554.37"/>
<text text-anchor="middle" x="47.1" y="-1565.99" font-family="Times New Roman,serif" font-size="14.00">ε(27)</text>
</g>
<!-- 0x61 -->
<g id="node5" class="node">
<title>0x61</title>
<ellipse fill="none" stroke="black" cx="32.6" cy="-1439.19" rx="28.7" ry="18"/>
<text text-anchor="middle" x="32.6" y="-1435.49" font-family="Times New Roman,serif" font-size="14.00">0x61</text>
</g>
<!-- 0x60&#45;&gt;0x61 -->
<g id="edge3" class="edge">
<title>0x60&#45;&gt;0x61</title>
<path fill="none" stroke="black" d="M32.6,-1507.99C32.6,-1496.36 32.6,-1480.74 32.6,-1467.43"/>
<polygon fill="black" stroke="black" points="36.1,-1467.37 32.6,-1457.37 29.1,-1467.37 36.1,-1467.37"/>
<text text-anchor="middle" x="34.6" y="-1478.99" font-family="Times New Roman,serif" font-size="14.00">,</text>
</g>
<!-- 0x62 -->
<g id="node6" class="node">
<title>0x62</title>
<ellipse fill="none" stroke="black" cx="32.6" cy="-1352.19" rx="28.7" ry="18"/>
<text text-anchor="middle" x="32.6" y="-1348.49" font-family="Times New Roman,serif" font-size="14.00">0x62</text>
</g>
<!-- 0x61&#45;&gt;0x62 -->
<g id="edge6" class="edge">
<title>0x61&#45;&gt;0x62</title>
<path fill="none" stroke="black" d="M32.6,-1420.99C32.6,-1409.36 32.6,-1393.74 32.6,-1380.43"/>
<polygon fill="black" stroke="black" points="36.1,-1380.37 32.6,-1370.37 29.1,-1380.37 36.1,-1380.37"/>
<text text-anchor="middle" x="47.1" y="-1391.99" font-family="Times New Roman,serif" font-size="14.00">ε(28)</text>
</g>
<!-- 0x63 -->
<g id="node7" class="node">
<title>0x63</title>
<ellipse fill="none" stroke="black" cx="32.6" cy="-1265.19" rx="28.7" ry="18"/>
<text text-anchor="middle" x="32.6" y="-1261.49" font-family="Times New Roman,serif" font-size="14.00">0x63</text>
</g>
<!-- 0x62&#45;&gt;0x63 -->
<g id="edge5" class="edge">
<title>0x62&#45;&gt;0x63</title>
<path fill="none" stroke="black" d="M32.6,-1333.99C32.6,-1322.36 32.6,-1306.74 32.6,-1293.43"/>
<polygon fill="black" stroke="black" points="36.1,-1293.37 32.6,-1283.37 29.1,-1293.37 36.1,-1293.37"/>
<text text-anchor="middle" x="35.1" y="-1304.99" font-family="Times New Roman,serif" font-size="14.00">[</text>
</g>
<!-- 0x64 -->
<g id="node8" class="node">
<title>0x64</title>
<ellipse fill="none" stroke="black" cx="32.6" cy="-1178.19" rx="28.7" ry="18"/>
<text text-anchor="middle" x="32.6" y="-1174.49" font-family="Times New Roman,serif" font-size="14.00">0x64</text>
</g>
<!-- 0x63&#45;&gt;0x64 -->
<g id="edge8" class="edge">
<title>0x63&#45;&gt;0x64</title>
<path fill="none" stroke="black" d="M32.6,-1246.99C32.6,-1235.36 32.6,-1219.74 32.6,-1206.43"/>
<polygon fill="black" stroke="black" points="36.1,-1206.37 32.6,-1196.37 29.1,-1206.37 36.1,-1206.37"/>
<text text-anchor="middle" x="47.1" y="-1217.99" font-family="Times New Roman,serif" font-size="14.00">ε(29)</text>
</g>
<!-- 0x65 -->
<g id="node9" class="node">
<title>0x65</title>
<ellipse fill="none" stroke="black" cx="32.6" cy="-1091.19" rx="28.7" ry="18"/>
<text text-anchor="middle" x="32.6" y="-1087.49" font-family="Times New Roman,serif" font-size="14.00">0x65</text>
</g>
<!-- 0x64&#45;&gt;0x65 -->
<g id="edge7" class="edge">
<title>0x64&#45;&gt;0x65</title>
<path fill="none" stroke="black" d="M32.6,-1159.99C32.6,-1148.36 32.6,-1132.74 32.6,-1119.43"/>
<polygon fill="black" stroke="black" points="36.1,-1119.37 32.6,-1109.37 29.1,-1119.37 36.1,-1119.37"/>
<text text-anchor="middle" x="36.1" y="-1130.99" font-family="Times New Roman,serif" font-size="14.00">s</text>
</g>
<!-- 0x66 -->
<g id="node10" class="node">
<title>0x66</title>
<ellipse fill="none" stroke="black" cx="32.6" cy="-1004.19" rx="28.7" ry="18"/>
<text text-anchor="middle" x="32.6" y="-1000.49" font-family="Times New Roman,serif" font-size="14.00">0x66</text>
</g>
<!-- 0x65&#45;&gt;0x66 -->
<g id="edge10" class="edge">
<title>0x65&#45;&gt;0x66</title>
<path fill="none" stroke="black" d="M32.6,-1072.99C32.6,-1061.36 32.6,-1045.74 32.6,-1032.43"/>
<polygon fill="black" stroke="black" points="36.1,-1032.37 32.6,-1022.37 29.1,-1032.37 36.1,-1032.37"/>
<text text-anchor="middle" x="46.6" y="-1043.99" font-family="Times New Roman,serif" font-size="14.00">ε(2a)</text>
</g>
<!-- 0x67 -->
<g id="node11" class="node">
<title>0x67</title>
<ellipse fill="none" stroke="black" cx="32.6" cy="-917.19" rx="28.7" ry="18"/>
<text text-anchor="middle" x="32.6" y="-913.49" font-family="Times New Roman,serif" font-size="14.00">0x67</text>
</g>
<!-- 0x66&#45;&gt;0x67 -->
<g id="edge9" class="edge">
<title>0x66&#45;&gt;0x67</title>
<path fill="none" stroke="black" d="M32.6,-985.99C32.6,-974.36 32.6,-958.74 32.6,-945.43"/>
<polygon fill="black" stroke="black" points="36.1,-945.37 32.6,-935.37 29.1,-945.37 36.1,-945.37"/>
<text text-anchor="middle" x="36.1" y="-956.99" font-family="Times New Roman,serif" font-size="14.00">g</text>
</g>
<!-- 0x68 -->
<g id="node12" class="node">
<title>0x68</title>
<ellipse fill="none" stroke="black" cx="32.6" cy="-830.19" rx="28.7" ry="18"/>
<text text-anchor="middle" x="32.6" y="-826.49" font-family="Times New Roman,serif" font-size="14.00">0x68</text>
</g>
<!-- 0x67&#45;&gt;0x68 -->
<g id="edge12" class="edge">
<title>0x67&#45;&gt;0x68</title>
<path fill="none" stroke="black" d="M32.6,-898.99C32.6,-887.36 32.6,-871.74 32.6,-858.43"/>
<polygon fill="black" stroke="black" points="36.1,-858.37 32.6,-848.37 29.1,-858.37 36.1,-858.37"/>
<text text-anchor="middle" x="47.6" y="-869.99" font-family="Times New Roman,serif" font-size="14.00">ε(2b)</text>
</g>
<!-- 0x69 -->
<g id="node13" class="node">
<title>0x69</title>
<ellipse fill="none" stroke="black" cx="32.6" cy="-743.19" rx="28.7" ry="18"/>
<text text-anchor="middle" x="32.6" y="-739.49" font-family="Times New Roman,serif" font-size="14.00">0x69</text>
</g>
<!-- 0x68&#45;&gt;0x69 -->
<g id="edge11" class="edge">
<title>0x68&#45;&gt;0x69</title>
<path fill="none" stroke="black" d="M32.6,-811.99C32.6,-800.36 32.6,-784.74 32.6,-771.43"/>
<polygon fill="black" stroke="black" points="36.1,-771.37 32.6,-761.37 29.1,-771.37 36.1,-771.37"/>
<text text-anchor="middle" x="34.6" y="-782.99" font-family="Times New Roman,serif" font-size="14.00">.</text>
</g>
<!-- 0x6a -->
<g id="node14" class="node">
<title>0x6a</title>
<ellipse fill="none" stroke="black" cx="32.6" cy="-656.19" rx="27.9" ry="18"/>
<text text-anchor="middle" x="32.6" y="-652.49" font-family="Times New Roman,serif" font-size="14.00">0x6a</text>
</g>
<!-- 0x69&#45;&gt;0x6a -->
<g id="edge14" class="edge">
<title>0x69&#45;&gt;0x6a</title>
<path fill="none" stroke="black" d="M32.6,-724.99C32.6,-713.36 32.6,-697.74 32.6,-684.43"/>
<polygon fill="black" stroke="black" points="36.1,-684.37 32.6,-674.37 29.1,-684.37 36.1,-684.37"/>
<text text-anchor="middle" x="47.1" y="-695.99" font-family="Times New Roman,serif" font-size="14.00">ε(2c)</text>
</g>
<!-- 0x6b -->
<g id="node15" class="node">
<title>0x6b</title>
<ellipse fill="none" stroke="black" cx="32.6" cy="-569.19" rx="28.7" ry="18"/>
<text text-anchor="middle" x="32.6" y="-565.49" font-family="Times New Roman,serif" font-size="14.00">0x6b</text>
</g>
<!-- 0x6a&#45;&gt;0x6b -->
<g id="edge13" class="edge">
<title>0x6a&#45;&gt;0x6b</title>
<path fill="none" stroke="black" d="M32.6,-637.99C32.6,-626.36 32.6,-610.74 32.6,-597.43"/>
<polygon fill="black" stroke="black" points="36.1,-597.37 32.6,-587.37 29.1,-597.37 36.1,-597.37"/>
<text text-anchor="middle" x="37.6" y="-608.99" font-family="Times New Roman,serif" font-size="14.00">T</text>
</g>
<!-- 0x6c -->
<g id="node16" class="node">
<title>0x6c</title>
<ellipse fill="none" stroke="black" cx="32.6" cy="-482.19" rx="28.7" ry="18"/>
<text text-anchor="middle" x="32.6" y="-478.49" font-family="Times New Roman,serif" font-size="14.00">0x6c</text>
</g>
<!-- 0x6b&#45;&gt;0x6c -->
<g id="edge16" class="edge">
<title>0x6b&#45;&gt;0x6c</title>
<path fill="none" stroke="black" d="M32.6,-550.99C32.6,-539.36 32.6,-523.74 32.6,-510.43"/>
<polygon fill="black" stroke="black" points="36.1,-510.37 32.6,-500.37 29.1,-510.37 36.1,-510.37"/>
<text text-anchor="middle" x="47.6" y="-521.99" font-family="Times New Roman,serif" font-size="14.00">ε(2d)</text>
</g>
<!-- 0x6d -->
<g id="node17" class="node">
<title>0x6d</title>
<ellipse fill="none" stroke="black" cx="32.6" cy="-395.19" rx="28.7" ry="18"/>
<text text-anchor="middle" x="32.6" y="-391.49" font-family="Times New Roman,serif" font-size="14.00">0x6d</text>
</g>
<!-- 0x6c&#45;&gt;0x6d -->
<g id="edge15" class="edge">
<title>0x6c&#45;&gt;0x6d</title>
<path fill="none" stroke="black" d="M32.6,-463.99C32.6,-452.36 32.6,-436.74 32.6,-423.43"/>
<polygon fill="black" stroke="black" points="36.1,-423.37 32.6,-413.37 29.1,-423.37 36.1,-423.37"/>
<text text-anchor="middle" x="36.1" y="-434.99" font-family="Times New Roman,serif" font-size="14.00">e</text>
</g>
<!-- 0x6e -->
<g id="node18" class="node">
<title>0x6e</title>
<ellipse fill="none" stroke="black" cx="32.6" cy="-308.19" rx="27.9" ry="18"/>
<text text-anchor="middle" x="32.6" y="-304.49" font-family="Times New Roman,serif" font-size="14.00">0x6e</text>
</g>
<!-- 0x6d&#45;&gt;0x6e -->
<g id="edge18" class="edge">
<title>0x6d&#45;&gt;0x6e</title>
<path fill="none" stroke="black" d="M32.6,-376.99C32.6,-365.36 32.6,-349.74 32.6,-336.43"/>
<polygon fill="black" stroke="black" points="36.1,-336.37 32.6,-326.37 29.1,-336.37 36.1,-336.37"/>
<text text-anchor="middle" x="46.6" y="-347.99" font-family="Times New Roman,serif" font-size="14.00">ε(2e)</text>
</g>
<!-- 0x6f -->
<g id="node19" class="node">
<title>0x6f</title>
<ellipse fill="none" stroke="black" cx="32.6" cy="-221.19" rx="27" ry="18"/>
<text text-anchor="middle" x="32.6" y="-217.49" font-family="Times New Roman,serif" font-size="14.00">0x6f</text>
</g>
<!-- 0x6e&#45;&gt;0x6f -->
<g id="edge17" class="edge">
<title>0x6e&#45;&gt;0x6f</title>
<path fill="none" stroke="black" d="M32.6,-289.99C32.6,-278.36 32.6,-262.74 32.6,-249.43"/>
<polygon fill="black" stroke="black" points="36.1,-249.37 32.6,-239.37 29.1,-249.37 36.1,-249.37"/>
<text text-anchor="middle" x="36.1" y="-260.99" font-family="Times New Roman,serif" font-size="14.00">x</text>
</g>
<!-- 0x70 -->
<g id="node20" class="node">
<title>0x70</title>
<ellipse fill="none" stroke="black" cx="32.6" cy="-134.19" rx="28.7" ry="18"/>
<text text-anchor="middle" x="32.6" y="-130.49" font-family="Times New Roman,serif" font-size="14.00">0x70</text>
</g>
<!-- 0x6f&#45;&gt;0x70 -->
<g id="edge20" class="edge">
<title>0x6f&#45;&gt;0x70</title>
<path fill="none" stroke="black" d="M32.6,-202.99C32.6,-191.36 32.6,-175.74 32.6,-162.43"/>
<polygon fill="black" stroke="black" points="36.1,-162.37 32.6,-152.37 29.1,-162.37 36.1,-162.37"/>
<text text-anchor="middle" x="46.1" y="-173.99" font-family="Times New Roman,serif" font-size="14.00">ε(2f)</text>
</g>
<!-- 0x71 -->
<g id="node21" class="node">
<title>0x71</title>
<ellipse fill="none" stroke="black" cx="32.6" cy="-32.6" rx="28.68" ry="28.68"/>
<ellipse fill="none" stroke="black" cx="32.6" cy="-32.6" rx="32.7" ry="32.7"/>
<text text-anchor="middle" x="32.6" y="-28.9" font-family="Times New Roman,serif" font-size="14.00">0x71</text>
</g>
<!-- 0x70&#45;&gt;0x71 -->
<g id="edge19" class="edge">
<title>0x70&#45;&gt;0x71</title>
<path fill="none" stroke="black" d="M32.6,-115.85C32.6,-104.63 32.6,-89.54 32.6,-75.33"/>
<polygon fill="black" stroke="black" points="36.1,-75.22 32.6,-65.22 29.1,-75.22 36.1,-75.22"/>
<text text-anchor="middle" x="34.6" y="-86.99" font-family="Times New Roman,serif" font-size="14.00">t</text>
</g>
</g>
</svg>
