<?xml version="1.0" encoding="UTF-8" standalone="no"?>
<!DOCTYPE svg PUBLIC "-//W3C//DTD SVG 1.1//EN"
 "http://www.w3.org/Graphics/SVG/1.1/DTD/svg11.dtd">
<!-- Generated by graphviz version 3.0.0 (20220226.1711)
 -->
<!-- Pages: 1 -->
<svg width="81pt" height="1807pt"
 viewBox="0.00 0.00 80.99 1806.99" xmlns="http://www.w3.org/2000/svg" xmlns:xlink="http://www.w3.org/1999/xlink">
<g id="graph0" class="graph" transform="scale(1 1) rotate(0) translate(4 1802.99)">
<polygon fill="white" stroke="transparent" points="-4,4 -4,-1802.99 76.99,-1802.99 76.99,4 -4,4"/>
<!-- fake -->
<g id="node1" class="node">
<title>fake</title>
</g>
<!-- 0x7f6 -->
<g id="node2" class="node">
<title>0x7f6</title>
<ellipse fill="none" stroke="black" cx="36.5" cy="-1707.99" rx="31.4" ry="18"/>
<text text-anchor="middle" x="36.5" y="-1704.29" font-family="Times New Roman,serif" font-size="14.00">0x7f6</text>
</g>
<!-- fake&#45;&gt;0x7f6 -->
<g id="edge1" class="edge">
<title>fake&#45;&gt;0x7f6</title>
<path fill="none" stroke="black" stroke-width="2" d="M36.5,-1762.81C36.5,-1754.78 36.5,-1745.04 36.5,-1736.06"/>
<polygon fill="black" stroke="black" stroke-width="2" points="40,-1736.02 36.5,-1726.02 33,-1736.02 40,-1736.02"/>
</g>
<!-- 0x7f7 -->
<g id="node3" class="node">
<title>0x7f7</title>
<ellipse fill="none" stroke="black" cx="36.5" cy="-1620.99" rx="31.4" ry="18"/>
<text text-anchor="middle" x="36.5" y="-1617.29" font-family="Times New Roman,serif" font-size="14.00">0x7f7</text>
</g>
<!-- 0x7f6&#45;&gt;0x7f7 -->
<g id="edge2" class="edge">
<title>0x7f6&#45;&gt;0x7f7</title>
<path fill="none" stroke="black" d="M36.5,-1689.79C36.5,-1678.16 36.5,-1662.54 36.5,-1649.23"/>
<polygon fill="black" stroke="black" points="40,-1649.17 36.5,-1639.17 33,-1649.17 40,-1649.17"/>
<text text-anchor="middle" x="39" y="-1660.79" font-family="Times New Roman,serif" font-size="14.00">]</text>
</g>
<!-- 0x7f8 -->
<g id="node4" class="node">
<title>0x7f8</title>
<ellipse fill="none" stroke="black" cx="36.5" cy="-1533.99" rx="31.4" ry="18"/>
<text text-anchor="middle" x="36.5" y="-1530.29" font-family="Times New Roman,serif" font-size="14.00">0x7f8</text>
</g>
<!-- 0x7f7&#45;&gt;0x7f8 -->
<g id="edge4" class="edge">
<title>0x7f7&#45;&gt;0x7f8</title>
<path fill="none" stroke="black" d="M36.5,-1602.79C36.5,-1591.16 36.5,-1575.54 36.5,-1562.23"/>
<polygon fill="black" stroke="black" points="40,-1562.17 36.5,-1552.17 33,-1562.17 40,-1562.17"/>
<text text-anchor="middle" x="54.5" y="-1573.79" font-family="Times New Roman,serif" font-size="14.00">ε(351)</text>
</g>
<!-- 0x7f9 -->
<g id="node5" class="node">
<title>0x7f9</title>
<ellipse fill="none" stroke="black" cx="36.5" cy="-1446.99" rx="31.4" ry="18"/>
<text text-anchor="middle" x="36.5" y="-1443.29" font-family="Times New Roman,serif" font-size="14.00">0x7f9</text>
</g>
<!-- 0x7f8&#45;&gt;0x7f9 -->
<g id="edge3" class="edge">
<title>0x7f8&#45;&gt;0x7f9</title>
<path fill="none" stroke="black" d="M36.5,-1515.79C36.5,-1504.16 36.5,-1488.54 36.5,-1475.23"/>
<polygon fill="black" stroke="black" points="40,-1475.17 36.5,-1465.17 33,-1475.17 40,-1475.17"/>
<text text-anchor="middle" x="38.5" y="-1486.79" font-family="Times New Roman,serif" font-size="14.00">,</text>
</g>
<!-- 0x7fa -->
<g id="node6" class="node">
<title>0x7fa</title>
<ellipse fill="none" stroke="black" cx="36.5" cy="-1359.99" rx="30.59" ry="18"/>
<text text-anchor="middle" x="36.5" y="-1356.29" font-family="Times New Roman,serif" font-size="14.00">0x7fa</text>
</g>
<!-- 0x7f9&#45;&gt;0x7fa -->
<g id="edge6" class="edge">
<title>0x7f9&#45;&gt;0x7fa</title>
<path fill="none" stroke="black" d="M36.5,-1428.79C36.5,-1417.16 36.5,-1401.54 36.5,-1388.23"/>
<polygon fill="black" stroke="black" points="40,-1388.17 36.5,-1378.17 33,-1388.17 40,-1388.17"/>
<text text-anchor="middle" x="54.5" y="-1399.79" font-family="Times New Roman,serif" font-size="14.00">ε(352)</text>
</g>
<!-- 0x7fb -->
<g id="node7" class="node">
<title>0x7fb</title>
<ellipse fill="none" stroke="black" cx="36.5" cy="-1272.99" rx="31.7" ry="18"/>
<text text-anchor="middle" x="36.5" y="-1269.29" font-family="Times New Roman,serif" font-size="14.00">0x7fb</text>
</g>
<!-- 0x7fa&#45;&gt;0x7fb -->
<g id="edge5" class="edge">
<title>0x7fa&#45;&gt;0x7fb</title>
<path fill="none" stroke="black" d="M36.5,-1341.79C36.5,-1330.16 36.5,-1314.54 36.5,-1301.23"/>
<polygon fill="black" stroke="black" points="40,-1301.17 36.5,-1291.17 33,-1301.17 40,-1301.17"/>
<text text-anchor="middle" x="39" y="-1312.79" font-family="Times New Roman,serif" font-size="14.00">[</text>
</g>
<!-- 0x7fc -->
<g id="node8" class="node">
<title>0x7fc</title>
<ellipse fill="none" stroke="black" cx="36.5" cy="-1185.99" rx="31.4" ry="18"/>
<text text-anchor="middle" x="36.5" y="-1182.29" font-family="Times New Roman,serif" font-size="14.00">0x7fc</text>
</g>
<!-- 0x7fb&#45;&gt;0x7fc -->
<g id="edge8" class="edge">
<title>0x7fb&#45;&gt;0x7fc</title>
<path fill="none" stroke="black" d="M36.5,-1254.79C36.5,-1243.16 36.5,-1227.54 36.5,-1214.23"/>
<polygon fill="black" stroke="black" points="40,-1214.17 36.5,-1204.17 33,-1214.17 40,-1214.17"/>
<text text-anchor="middle" x="54.5" y="-1225.79" font-family="Times New Roman,serif" font-size="14.00">ε(353)</text>
</g>
<!-- 0x7fd -->
<g id="node9" class="node">
<title>0x7fd</title>
<ellipse fill="none" stroke="black" cx="36.5" cy="-1098.99" rx="31.7" ry="18"/>
<text text-anchor="middle" x="36.5" y="-1095.29" font-family="Times New Roman,serif" font-size="14.00">0x7fd</text>
</g>
<!-- 0x7fc&#45;&gt;0x7fd -->
<g id="edge7" class="edge">
<title>0x7fc&#45;&gt;0x7fd</title>
<path fill="none" stroke="black" d="M36.5,-1167.79C36.5,-1156.16 36.5,-1140.54 36.5,-1127.23"/>
<polygon fill="black" stroke="black" points="40,-1127.17 36.5,-1117.17 33,-1127.17 40,-1127.17"/>
<text text-anchor="middle" x="40" y="-1138.79" font-family="Times New Roman,serif" font-size="14.00">s</text>
</g>
<!-- 0x7fe -->
<g id="node10" class="node">
<title>0x7fe</title>
<ellipse fill="none" stroke="black" cx="36.5" cy="-1011.99" rx="30.59" ry="18"/>
<text text-anchor="middle" x="36.5" y="-1008.29" font-family="Times New Roman,serif" font-size="14.00">0x7fe</text>
</g>
<!-- 0x7fd&#45;&gt;0x7fe -->
<g id="edge10" class="edge">
<title>0x7fd&#45;&gt;0x7fe</title>
<path fill="none" stroke="black" d="M36.5,-1080.79C36.5,-1069.16 36.5,-1053.54 36.5,-1040.23"/>
<polygon fill="black" stroke="black" points="40,-1040.17 36.5,-1030.17 33,-1040.17 40,-1040.17"/>
<text text-anchor="middle" x="54.5" y="-1051.79" font-family="Times New Roman,serif" font-size="14.00">ε(354)</text>
</g>
<!-- 0x7ff -->
<g id="node11" class="node">
<title>0x7ff</title>
<ellipse fill="none" stroke="black" cx="36.5" cy="-924.99" rx="29.8" ry="18"/>
<text text-anchor="middle" x="36.5" y="-921.29" font-family="Times New Roman,serif" font-size="14.00">0x7ff</text>
</g>
<!-- 0x7fe&#45;&gt;0x7ff -->
<g id="edge9" class="edge">
<title>0x7fe&#45;&gt;0x7ff</title>
<path fill="none" stroke="black" d="M36.5,-993.79C36.5,-982.16 36.5,-966.54 36.5,-953.23"/>
<polygon fill="black" stroke="black" points="40,-953.17 36.5,-943.17 33,-953.17 40,-953.17"/>
<text text-anchor="middle" x="40" y="-964.79" font-family="Times New Roman,serif" font-size="14.00">g</text>
</g>
<!-- 0x800 -->
<g id="node12" class="node">
<title>0x800</title>
<ellipse fill="none" stroke="black" cx="36.5" cy="-837.99" rx="32.49" ry="18"/>
<text text-anchor="middle" x="36.5" y="-834.29" font-family="Times New Roman,serif" font-size="14.00">0x800</text>
</g>
<!-- 0x7ff&#45;&gt;0x800 -->
<g id="edge12" class="edge">
<title>0x7ff&#45;&gt;0x800</title>
<path fill="none" stroke="black" d="M36.5,-906.79C36.5,-895.16 36.5,-879.54 36.5,-866.23"/>
<polygon fill="black" stroke="black" points="40,-866.17 36.5,-856.17 33,-866.17 40,-866.17"/>
<text text-anchor="middle" x="54.5" y="-877.79" font-family="Times New Roman,serif" font-size="14.00">ε(355)</text>
</g>
<!-- 0x801 -->
<g id="node13" class="node">
<title>0x801</title>
<ellipse fill="none" stroke="black" cx="36.5" cy="-750.99" rx="32.49" ry="18"/>
<text text-anchor="middle" x="36.5" y="-747.29" font-family="Times New Roman,serif" font-size="14.00">0x801</text>
</g>
<!-- 0x800&#45;&gt;0x801 -->
<g id="edge11" class="edge">
<title>0x800&#45;&gt;0x801</title>
<path fill="none" stroke="black" d="M36.5,-819.79C36.5,-808.16 36.5,-792.54 36.5,-779.23"/>
<polygon fill="black" stroke="black" points="40,-779.17 36.5,-769.17 33,-779.17 40,-779.17"/>
<text text-anchor="middle" x="38.5" y="-790.79" font-family="Times New Roman,serif" font-size="14.00">.</text>
</g>
<!-- 0x802 -->
<g id="node14" class="node">
<title>0x802</title>
<ellipse fill="none" stroke="black" cx="36.5" cy="-663.99" rx="32.49" ry="18"/>
<text text-anchor="middle" x="36.5" y="-660.29" font-family="Times New Roman,serif" font-size="14.00">0x802</text>
</g>
<!-- 0x801&#45;&gt;0x802 -->
<g id="edge14" class="edge">
<title>0x801&#45;&gt;0x802</title>
<path fill="none" stroke="black" d="M36.5,-732.79C36.5,-721.16 36.5,-705.54 36.5,-692.23"/>
<polygon fill="black" stroke="black" points="40,-692.17 36.5,-682.17 33,-692.17 40,-692.17"/>
<text text-anchor="middle" x="54.5" y="-703.79" font-family="Times New Roman,serif" font-size="14.00">ε(356)</text>
</g>
<!-- 0x803 -->
<g id="node15" class="node">
<title>0x803</title>
<ellipse fill="none" stroke="black" cx="36.5" cy="-576.99" rx="32.49" ry="18"/>
<text text-anchor="middle" x="36.5" y="-573.29" font-family="Times New Roman,serif" font-size="14.00">0x803</text>
</g>
<!-- 0x802&#45;&gt;0x803 -->
<g id="edge13" class="edge">
<title>0x802&#45;&gt;0x803</title>
<path fill="none" stroke="black" d="M36.5,-645.79C36.5,-634.16 36.5,-618.54 36.5,-605.23"/>
<polygon fill="black" stroke="black" points="40,-605.17 36.5,-595.17 33,-605.17 40,-605.17"/>
<text text-anchor="middle" x="41.5" y="-616.79" font-family="Times New Roman,serif" font-size="14.00">T</text>
</g>
<!-- 0x804 -->
<g id="node16" class="node">
<title>0x804</title>
<ellipse fill="none" stroke="black" cx="36.5" cy="-489.99" rx="32.49" ry="18"/>
<text text-anchor="middle" x="36.5" y="-486.29" font-family="Times New Roman,serif" font-size="14.00">0x804</text>
</g>
<!-- 0x803&#45;&gt;0x804 -->
<g id="edge16" class="edge">
<title>0x803&#45;&gt;0x804</title>
<path fill="none" stroke="black" d="M36.5,-558.79C36.5,-547.16 36.5,-531.54 36.5,-518.23"/>
<polygon fill="black" stroke="black" points="40,-518.17 36.5,-508.17 33,-518.17 40,-518.17"/>
<text text-anchor="middle" x="54.5" y="-529.79" font-family="Times New Roman,serif" font-size="14.00">ε(357)</text>
</g>
<!-- 0x805 -->
<g id="node17" class="node">
<title>0x805</title>
<ellipse fill="none" stroke="black" cx="36.5" cy="-402.99" rx="32.49" ry="18"/>
<text text-anchor="middle" x="36.5" y="-399.29" font-family="Times New Roman,serif" font-size="14.00">0x805</text>
</g>
<!-- 0x804&#45;&gt;0x805 -->
<g id="edge15" class="edge">
<title>0x804&#45;&gt;0x805</title>
<path fill="none" stroke="black" d="M36.5,-471.79C36.5,-460.16 36.5,-444.54 36.5,-431.23"/>
<polygon fill="black" stroke="black" points="40,-431.17 36.5,-421.17 33,-431.17 40,-431.17"/>
<text text-anchor="middle" x="40" y="-442.79" font-family="Times New Roman,serif" font-size="14.00">e</text>
</g>
<!-- 0x806 -->
<g id="node18" class="node">
<title>0x806</title>
<ellipse fill="none" stroke="black" cx="36.5" cy="-315.99" rx="32.49" ry="18"/>
<text text-anchor="middle" x="36.5" y="-312.29" font-family="Times New Roman,serif" font-size="14.00">0x806</text>
</g>
<!-- 0x805&#45;&gt;0x806 -->
<g id="edge18" class="edge">
<title>0x805&#45;&gt;0x806</title>
<path fill="none" stroke="black" d="M36.5,-384.79C36.5,-373.16 36.5,-357.54 36.5,-344.23"/>
<polygon fill="black" stroke="black" points="40,-344.17 36.5,-334.17 33,-344.17 40,-344.17"/>
<text text-anchor="middle" x="54.5" y="-355.79" font-family="Times New Roman,serif" font-size="14.00">ε(358)</text>
</g>
<!-- 0x807 -->
<g id="node19" class="node">
<title>0x807</title>
<ellipse fill="none" stroke="black" cx="36.5" cy="-228.99" rx="32.49" ry="18"/>
<text text-anchor="middle" x="36.5" y="-225.29" font-family="Times New Roman,serif" font-size="14.00">0x807</text>
</g>
<!-- 0x806&#45;&gt;0x807 -->
<g id="edge17" class="edge">
<title>0x806&#45;&gt;0x807</title>
<path fill="none" stroke="black" d="M36.5,-297.79C36.5,-286.16 36.5,-270.54 36.5,-257.23"/>
<polygon fill="black" stroke="black" points="40,-257.17 36.5,-247.17 33,-257.17 40,-257.17"/>
<text text-anchor="middle" x="40" y="-268.79" font-family="Times New Roman,serif" font-size="14.00">x</text>
</g>
<!-- 0x808 -->
<g id="node20" class="node">
<title>0x808</title>
<ellipse fill="none" stroke="black" cx="36.5" cy="-141.99" rx="32.49" ry="18"/>
<text text-anchor="middle" x="36.5" y="-138.29" font-family="Times New Roman,serif" font-size="14.00">0x808</text>
</g>
<!-- 0x807&#45;&gt;0x808 -->
<g id="edge20" class="edge">
<title>0x807&#45;&gt;0x808</title>
<path fill="none" stroke="black" d="M36.5,-210.79C36.5,-199.16 36.5,-183.54 36.5,-170.23"/>
<polygon fill="black" stroke="black" points="40,-170.17 36.5,-160.17 33,-170.17 40,-170.17"/>
<text text-anchor="middle" x="54.5" y="-181.79" font-family="Times New Roman,serif" font-size="14.00">ε(359)</text>
</g>
<!-- 0x809 -->
<g id="node21" class="node">
<title>0x809</title>
<ellipse fill="none" stroke="black" cx="36.5" cy="-36.5" rx="32.49" ry="32.49"/>
<ellipse fill="none" stroke="black" cx="36.5" cy="-36.5" rx="36.49" ry="36.49"/>
<text text-anchor="middle" x="36.5" y="-32.8" font-family="Times New Roman,serif" font-size="14.00">0x809</text>
</g>
<!-- 0x808&#45;&gt;0x809 -->
<g id="edge19" class="edge">
<title>0x808&#45;&gt;0x809</title>
<path fill="none" stroke="black" d="M36.5,-123.9C36.5,-112.82 36.5,-97.8 36.5,-83.39"/>
<polygon fill="black" stroke="black" points="40,-83.08 36.5,-73.08 33,-83.08 40,-83.08"/>
<text text-anchor="middle" x="38.5" y="-94.79" font-family="Times New Roman,serif" font-size="14.00">t</text>
</g>
</g>
</svg>
