<?xml version="1.0" encoding="UTF-8" standalone="no"?>
<!DOCTYPE svg PUBLIC "-//W3C//DTD SVG 1.1//EN"
 "http://www.w3.org/Graphics/SVG/1.1/DTD/svg11.dtd">
<!-- Generated by graphviz version 3.0.0 (20220226.1711)
 -->
<!-- Pages: 1 -->
<svg width="72pt" height="1798pt"
 viewBox="0.00 0.00 71.90 1797.90" xmlns="http://www.w3.org/2000/svg" xmlns:xlink="http://www.w3.org/1999/xlink">
<g id="graph0" class="graph" transform="scale(1 1) rotate(0) translate(4 1793.9)">
<polygon fill="white" stroke="transparent" points="-4,4 -4,-1793.9 67.9,-1793.9 67.9,4 -4,4"/>
<!-- fake -->
<g id="node1" class="node">
<title>fake</title>
</g>
<!-- 0x8e -->
<g id="node2" class="node">
<title>0x8e</title>
<ellipse fill="none" stroke="black" cx="31.95" cy="-1698.9" rx="27.9" ry="18"/>
<text text-anchor="middle" x="31.95" y="-1695.2" font-family="Times New Roman,serif" font-size="14.00">0x8e</text>
</g>
<!-- fake&#45;&gt;0x8e -->
<g id="edge1" class="edge">
<title>fake&#45;&gt;0x8e</title>
<path fill="none" stroke="black" stroke-width="2" d="M31.95,-1753.71C31.95,-1745.68 31.95,-1735.94 31.95,-1726.96"/>
<polygon fill="black" stroke="black" stroke-width="2" points="35.45,-1726.92 31.95,-1716.92 28.45,-1726.92 35.45,-1726.92"/>
</g>
<!-- 0x8f -->
<g id="node3" class="node">
<title>0x8f</title>
<ellipse fill="none" stroke="black" cx="31.95" cy="-1611.9" rx="27" ry="18"/>
<text text-anchor="middle" x="31.95" y="-1608.2" font-family="Times New Roman,serif" font-size="14.00">0x8f</text>
</g>
<!-- 0x8e&#45;&gt;0x8f -->
<g id="edge2" class="edge">
<title>0x8e&#45;&gt;0x8f</title>
<path fill="none" stroke="black" d="M31.95,-1680.69C31.95,-1669.06 31.95,-1653.44 31.95,-1640.13"/>
<polygon fill="black" stroke="black" points="35.45,-1640.07 31.95,-1630.07 28.45,-1640.07 35.45,-1640.07"/>
<text text-anchor="middle" x="34.45" y="-1651.7" font-family="Times New Roman,serif" font-size="14.00">]</text>
</g>
<!-- 0x90 -->
<g id="node4" class="node">
<title>0x90</title>
<ellipse fill="none" stroke="black" cx="31.95" cy="-1524.9" rx="28.7" ry="18"/>
<text text-anchor="middle" x="31.95" y="-1521.2" font-family="Times New Roman,serif" font-size="14.00">0x90</text>
</g>
<!-- 0x8f&#45;&gt;0x90 -->
<g id="edge4" class="edge">
<title>0x8f&#45;&gt;0x90</title>
<path fill="none" stroke="black" d="M31.95,-1593.69C31.95,-1582.06 31.95,-1566.44 31.95,-1553.13"/>
<polygon fill="black" stroke="black" points="35.45,-1553.07 31.95,-1543.07 28.45,-1553.07 35.45,-1553.07"/>
<text text-anchor="middle" x="46.95" y="-1564.7" font-family="Times New Roman,serif" font-size="14.00">ε(3b)</text>
</g>
<!-- 0x91 -->
<g id="node5" class="node">
<title>0x91</title>
<ellipse fill="none" stroke="black" cx="31.95" cy="-1437.9" rx="28.7" ry="18"/>
<text text-anchor="middle" x="31.95" y="-1434.2" font-family="Times New Roman,serif" font-size="14.00">0x91</text>
</g>
<!-- 0x90&#45;&gt;0x91 -->
<g id="edge3" class="edge">
<title>0x90&#45;&gt;0x91</title>
<path fill="none" stroke="black" d="M31.95,-1506.69C31.95,-1495.06 31.95,-1479.44 31.95,-1466.13"/>
<polygon fill="black" stroke="black" points="35.45,-1466.07 31.95,-1456.07 28.45,-1466.07 35.45,-1466.07"/>
<text text-anchor="middle" x="33.95" y="-1477.7" font-family="Times New Roman,serif" font-size="14.00">,</text>
</g>
<!-- 0x92 -->
<g id="node6" class="node">
<title>0x92</title>
<ellipse fill="none" stroke="black" cx="31.95" cy="-1350.9" rx="28.7" ry="18"/>
<text text-anchor="middle" x="31.95" y="-1347.2" font-family="Times New Roman,serif" font-size="14.00">0x92</text>
</g>
<!-- 0x91&#45;&gt;0x92 -->
<g id="edge6" class="edge">
<title>0x91&#45;&gt;0x92</title>
<path fill="none" stroke="black" d="M31.95,-1419.69C31.95,-1408.06 31.95,-1392.44 31.95,-1379.13"/>
<polygon fill="black" stroke="black" points="35.45,-1379.07 31.95,-1369.07 28.45,-1379.07 35.45,-1379.07"/>
<text text-anchor="middle" x="46.45" y="-1390.7" font-family="Times New Roman,serif" font-size="14.00">ε(3c)</text>
</g>
<!-- 0x93 -->
<g id="node7" class="node">
<title>0x93</title>
<ellipse fill="none" stroke="black" cx="31.95" cy="-1263.9" rx="28.7" ry="18"/>
<text text-anchor="middle" x="31.95" y="-1260.2" font-family="Times New Roman,serif" font-size="14.00">0x93</text>
</g>
<!-- 0x92&#45;&gt;0x93 -->
<g id="edge5" class="edge">
<title>0x92&#45;&gt;0x93</title>
<path fill="none" stroke="black" d="M31.95,-1332.69C31.95,-1321.06 31.95,-1305.44 31.95,-1292.13"/>
<polygon fill="black" stroke="black" points="35.45,-1292.07 31.95,-1282.07 28.45,-1292.07 35.45,-1292.07"/>
<text text-anchor="middle" x="34.45" y="-1303.7" font-family="Times New Roman,serif" font-size="14.00">[</text>
</g>
<!-- 0x94 -->
<g id="node8" class="node">
<title>0x94</title>
<ellipse fill="none" stroke="black" cx="31.95" cy="-1176.9" rx="28.7" ry="18"/>
<text text-anchor="middle" x="31.95" y="-1173.2" font-family="Times New Roman,serif" font-size="14.00">0x94</text>
</g>
<!-- 0x93&#45;&gt;0x94 -->
<g id="edge8" class="edge">
<title>0x93&#45;&gt;0x94</title>
<path fill="none" stroke="black" d="M31.95,-1245.69C31.95,-1234.06 31.95,-1218.44 31.95,-1205.13"/>
<polygon fill="black" stroke="black" points="35.45,-1205.07 31.95,-1195.07 28.45,-1205.07 35.45,-1205.07"/>
<text text-anchor="middle" x="46.95" y="-1216.7" font-family="Times New Roman,serif" font-size="14.00">ε(3d)</text>
</g>
<!-- 0x95 -->
<g id="node9" class="node">
<title>0x95</title>
<ellipse fill="none" stroke="black" cx="31.95" cy="-1089.9" rx="28.7" ry="18"/>
<text text-anchor="middle" x="31.95" y="-1086.2" font-family="Times New Roman,serif" font-size="14.00">0x95</text>
</g>
<!-- 0x94&#45;&gt;0x95 -->
<g id="edge7" class="edge">
<title>0x94&#45;&gt;0x95</title>
<path fill="none" stroke="black" d="M31.95,-1158.69C31.95,-1147.06 31.95,-1131.44 31.95,-1118.13"/>
<polygon fill="black" stroke="black" points="35.45,-1118.07 31.95,-1108.07 28.45,-1118.07 35.45,-1118.07"/>
<text text-anchor="middle" x="35.45" y="-1129.7" font-family="Times New Roman,serif" font-size="14.00">s</text>
</g>
<!-- 0x96 -->
<g id="node10" class="node">
<title>0x96</title>
<ellipse fill="none" stroke="black" cx="31.95" cy="-1002.9" rx="28.7" ry="18"/>
<text text-anchor="middle" x="31.95" y="-999.2" font-family="Times New Roman,serif" font-size="14.00">0x96</text>
</g>
<!-- 0x95&#45;&gt;0x96 -->
<g id="edge10" class="edge">
<title>0x95&#45;&gt;0x96</title>
<path fill="none" stroke="black" d="M31.95,-1071.69C31.95,-1060.06 31.95,-1044.44 31.95,-1031.13"/>
<polygon fill="black" stroke="black" points="35.45,-1031.07 31.95,-1021.07 28.45,-1031.07 35.45,-1031.07"/>
<text text-anchor="middle" x="45.95" y="-1042.7" font-family="Times New Roman,serif" font-size="14.00">ε(3e)</text>
</g>
<!-- 0x97 -->
<g id="node11" class="node">
<title>0x97</title>
<ellipse fill="none" stroke="black" cx="31.95" cy="-915.9" rx="28.7" ry="18"/>
<text text-anchor="middle" x="31.95" y="-912.2" font-family="Times New Roman,serif" font-size="14.00">0x97</text>
</g>
<!-- 0x96&#45;&gt;0x97 -->
<g id="edge9" class="edge">
<title>0x96&#45;&gt;0x97</title>
<path fill="none" stroke="black" d="M31.95,-984.69C31.95,-973.06 31.95,-957.44 31.95,-944.13"/>
<polygon fill="black" stroke="black" points="35.45,-944.07 31.95,-934.07 28.45,-944.07 35.45,-944.07"/>
<text text-anchor="middle" x="35.45" y="-955.7" font-family="Times New Roman,serif" font-size="14.00">g</text>
</g>
<!-- 0x98 -->
<g id="node12" class="node">
<title>0x98</title>
<ellipse fill="none" stroke="black" cx="31.95" cy="-828.9" rx="28.7" ry="18"/>
<text text-anchor="middle" x="31.95" y="-825.2" font-family="Times New Roman,serif" font-size="14.00">0x98</text>
</g>
<!-- 0x97&#45;&gt;0x98 -->
<g id="edge12" class="edge">
<title>0x97&#45;&gt;0x98</title>
<path fill="none" stroke="black" d="M31.95,-897.69C31.95,-886.06 31.95,-870.44 31.95,-857.13"/>
<polygon fill="black" stroke="black" points="35.45,-857.07 31.95,-847.07 28.45,-857.07 35.45,-857.07"/>
<text text-anchor="middle" x="45.45" y="-868.7" font-family="Times New Roman,serif" font-size="14.00">ε(3f)</text>
</g>
<!-- 0x99 -->
<g id="node13" class="node">
<title>0x99</title>
<ellipse fill="none" stroke="black" cx="31.95" cy="-741.9" rx="28.7" ry="18"/>
<text text-anchor="middle" x="31.95" y="-738.2" font-family="Times New Roman,serif" font-size="14.00">0x99</text>
</g>
<!-- 0x98&#45;&gt;0x99 -->
<g id="edge11" class="edge">
<title>0x98&#45;&gt;0x99</title>
<path fill="none" stroke="black" d="M31.95,-810.69C31.95,-799.06 31.95,-783.44 31.95,-770.13"/>
<polygon fill="black" stroke="black" points="35.45,-770.07 31.95,-760.07 28.45,-770.07 35.45,-770.07"/>
<text text-anchor="middle" x="33.95" y="-781.7" font-family="Times New Roman,serif" font-size="14.00">.</text>
</g>
<!-- 0x9a -->
<g id="node14" class="node">
<title>0x9a</title>
<ellipse fill="none" stroke="black" cx="31.95" cy="-654.9" rx="27.9" ry="18"/>
<text text-anchor="middle" x="31.95" y="-651.2" font-family="Times New Roman,serif" font-size="14.00">0x9a</text>
</g>
<!-- 0x99&#45;&gt;0x9a -->
<g id="edge14" class="edge">
<title>0x99&#45;&gt;0x9a</title>
<path fill="none" stroke="black" d="M31.95,-723.69C31.95,-712.06 31.95,-696.44 31.95,-683.13"/>
<polygon fill="black" stroke="black" points="35.45,-683.07 31.95,-673.07 28.45,-683.07 35.45,-683.07"/>
<text text-anchor="middle" x="46.45" y="-694.7" font-family="Times New Roman,serif" font-size="14.00">ε(40)</text>
</g>
<!-- 0x9b -->
<g id="node15" class="node">
<title>0x9b</title>
<ellipse fill="none" stroke="black" cx="31.95" cy="-567.9" rx="28.7" ry="18"/>
<text text-anchor="middle" x="31.95" y="-564.2" font-family="Times New Roman,serif" font-size="14.00">0x9b</text>
</g>
<!-- 0x9a&#45;&gt;0x9b -->
<g id="edge13" class="edge">
<title>0x9a&#45;&gt;0x9b</title>
<path fill="none" stroke="black" d="M31.95,-636.69C31.95,-625.06 31.95,-609.44 31.95,-596.13"/>
<polygon fill="black" stroke="black" points="35.45,-596.07 31.95,-586.07 28.45,-596.07 35.45,-596.07"/>
<text text-anchor="middle" x="36.95" y="-607.7" font-family="Times New Roman,serif" font-size="14.00">T</text>
</g>
<!-- 0x9c -->
<g id="node16" class="node">
<title>0x9c</title>
<ellipse fill="none" stroke="black" cx="31.95" cy="-480.9" rx="28.7" ry="18"/>
<text text-anchor="middle" x="31.95" y="-477.2" font-family="Times New Roman,serif" font-size="14.00">0x9c</text>
</g>
<!-- 0x9b&#45;&gt;0x9c -->
<g id="edge16" class="edge">
<title>0x9b&#45;&gt;0x9c</title>
<path fill="none" stroke="black" d="M31.95,-549.69C31.95,-538.06 31.95,-522.44 31.95,-509.13"/>
<polygon fill="black" stroke="black" points="35.45,-509.07 31.95,-499.07 28.45,-509.07 35.45,-509.07"/>
<text text-anchor="middle" x="46.45" y="-520.7" font-family="Times New Roman,serif" font-size="14.00">ε(41)</text>
</g>
<!-- 0x9d -->
<g id="node17" class="node">
<title>0x9d</title>
<ellipse fill="none" stroke="black" cx="31.95" cy="-393.9" rx="28.7" ry="18"/>
<text text-anchor="middle" x="31.95" y="-390.2" font-family="Times New Roman,serif" font-size="14.00">0x9d</text>
</g>
<!-- 0x9c&#45;&gt;0x9d -->
<g id="edge15" class="edge">
<title>0x9c&#45;&gt;0x9d</title>
<path fill="none" stroke="black" d="M31.95,-462.69C31.95,-451.06 31.95,-435.44 31.95,-422.13"/>
<polygon fill="black" stroke="black" points="35.45,-422.07 31.95,-412.07 28.45,-422.07 35.45,-422.07"/>
<text text-anchor="middle" x="35.45" y="-433.7" font-family="Times New Roman,serif" font-size="14.00">e</text>
</g>
<!-- 0x9e -->
<g id="node18" class="node">
<title>0x9e</title>
<ellipse fill="none" stroke="black" cx="31.95" cy="-306.9" rx="27.9" ry="18"/>
<text text-anchor="middle" x="31.95" y="-303.2" font-family="Times New Roman,serif" font-size="14.00">0x9e</text>
</g>
<!-- 0x9d&#45;&gt;0x9e -->
<g id="edge18" class="edge">
<title>0x9d&#45;&gt;0x9e</title>
<path fill="none" stroke="black" d="M31.95,-375.69C31.95,-364.06 31.95,-348.44 31.95,-335.13"/>
<polygon fill="black" stroke="black" points="35.45,-335.07 31.95,-325.07 28.45,-335.07 35.45,-335.07"/>
<text text-anchor="middle" x="46.45" y="-346.7" font-family="Times New Roman,serif" font-size="14.00">ε(42)</text>
</g>
<!-- 0x9f -->
<g id="node19" class="node">
<title>0x9f</title>
<ellipse fill="none" stroke="black" cx="31.95" cy="-219.9" rx="27" ry="18"/>
<text text-anchor="middle" x="31.95" y="-216.2" font-family="Times New Roman,serif" font-size="14.00">0x9f</text>
</g>
<!-- 0x9e&#45;&gt;0x9f -->
<g id="edge17" class="edge">
<title>0x9e&#45;&gt;0x9f</title>
<path fill="none" stroke="black" d="M31.95,-288.69C31.95,-277.06 31.95,-261.44 31.95,-248.13"/>
<polygon fill="black" stroke="black" points="35.45,-248.07 31.95,-238.07 28.45,-248.07 35.45,-248.07"/>
<text text-anchor="middle" x="35.45" y="-259.7" font-family="Times New Roman,serif" font-size="14.00">x</text>
</g>
<!-- 0xa0 -->
<g id="node20" class="node">
<title>0xa0</title>
<ellipse fill="none" stroke="black" cx="31.95" cy="-132.9" rx="27.9" ry="18"/>
<text text-anchor="middle" x="31.95" y="-129.2" font-family="Times New Roman,serif" font-size="14.00">0xa0</text>
</g>
<!-- 0x9f&#45;&gt;0xa0 -->
<g id="edge20" class="edge">
<title>0x9f&#45;&gt;0xa0</title>
<path fill="none" stroke="black" d="M31.95,-201.69C31.95,-190.06 31.95,-174.44 31.95,-161.13"/>
<polygon fill="black" stroke="black" points="35.45,-161.07 31.95,-151.07 28.45,-161.07 35.45,-161.07"/>
<text text-anchor="middle" x="46.45" y="-172.7" font-family="Times New Roman,serif" font-size="14.00">ε(43)</text>
</g>
<!-- 0xa1 -->
<g id="node21" class="node">
<title>0xa1</title>
<ellipse fill="none" stroke="black" cx="31.95" cy="-31.95" rx="27.9" ry="27.9"/>
<ellipse fill="none" stroke="black" cx="31.95" cy="-31.95" rx="31.9" ry="31.9"/>
<text text-anchor="middle" x="31.95" y="-28.25" font-family="Times New Roman,serif" font-size="14.00">0xa1</text>
</g>
<!-- 0xa0&#45;&gt;0xa1 -->
<g id="edge19" class="edge">
<title>0xa0&#45;&gt;0xa1</title>
<path fill="none" stroke="black" d="M31.95,-114.66C31.95,-103.43 31.95,-88.28 31.95,-74.07"/>
<polygon fill="black" stroke="black" points="35.45,-73.97 31.95,-63.97 28.45,-73.97 35.45,-73.97"/>
<text text-anchor="middle" x="33.95" y="-85.7" font-family="Times New Roman,serif" font-size="14.00">t</text>
</g>
</g>
</svg>
