<?xml version="1.0" encoding="UTF-8" standalone="no"?>
<!DOCTYPE svg PUBLIC "-//W3C//DTD SVG 1.1//EN"
 "http://www.w3.org/Graphics/SVG/1.1/DTD/svg11.dtd">
<!-- Generated by graphviz version 3.0.0 (20220226.1711)
 -->
<!-- Pages: 1 -->
<svg width="265pt" height="1618pt"
 viewBox="0.00 0.00 264.60 1617.58" xmlns="http://www.w3.org/2000/svg" xmlns:xlink="http://www.w3.org/1999/xlink">
<g id="graph0" class="graph" transform="scale(1 1) rotate(0) translate(4 1613.58)">
<polygon fill="white" stroke="transparent" points="-4,4 -4,-1613.58 260.6,-1613.58 260.6,4 -4,4"/>
<!-- fake -->
<g id="node1" class="node">
<title>fake</title>
</g>
<!-- 0x2a -->
<g id="node4" class="node">
<title>0x2a</title>
<ellipse fill="none" stroke="black" cx="179.6" cy="-1518.58" rx="27.9" ry="18"/>
<text text-anchor="middle" x="179.6" y="-1514.88" font-family="Times New Roman,serif" font-size="14.00">0x2a</text>
</g>
<!-- fake&#45;&gt;0x2a -->
<g id="edge1" class="edge">
<title>fake&#45;&gt;0x2a</title>
<path fill="none" stroke="black" stroke-width="2" d="M179.6,-1573.4C179.6,-1565.37 179.6,-1555.63 179.6,-1546.65"/>
<polygon fill="black" stroke="black" stroke-width="2" points="183.1,-1546.61 179.6,-1536.61 176.1,-1546.61 183.1,-1546.61"/>
</g>
<!-- 0x1b -->
<g id="node2" class="node">
<title>0x1b</title>
<ellipse fill="none" stroke="black" cx="67.6" cy="-1141.39" rx="28.7" ry="18"/>
<text text-anchor="middle" x="67.6" y="-1137.69" font-family="Times New Roman,serif" font-size="14.00">0x1b</text>
</g>
<!-- 0x1c -->
<g id="node17" class="node">
<title>0x1c</title>
<ellipse fill="none" stroke="black" cx="67.6" cy="-1054.39" rx="28.7" ry="18"/>
<text text-anchor="middle" x="67.6" y="-1050.69" font-family="Times New Roman,serif" font-size="14.00">0x1c</text>
</g>
<!-- 0x1b&#45;&gt;0x1c -->
<g id="edge32" class="edge">
<title>0x1b&#45;&gt;0x1c</title>
<path fill="none" stroke="black" d="M67.6,-1123.19C67.6,-1111.55 67.6,-1095.94 67.6,-1082.63"/>
<polygon fill="black" stroke="black" points="71.1,-1082.57 67.6,-1072.57 64.1,-1082.57 71.1,-1082.57"/>
<text text-anchor="middle" x="69.6" y="-1094.19" font-family="Times New Roman,serif" font-size="14.00">l</text>
</g>
<!-- 0x29 -->
<g id="node3" class="node">
<title>0x29</title>
<ellipse fill="none" stroke="black" cx="142.6" cy="-1431.58" rx="28.7" ry="18"/>
<text text-anchor="middle" x="142.6" y="-1427.88" font-family="Times New Roman,serif" font-size="14.00">0x29</text>
</g>
<!-- 0x19 -->
<g id="node7" class="node">
<title>0x19</title>
<ellipse fill="none" stroke="black" cx="67.6" cy="-1329.99" rx="28.7" ry="18"/>
<text text-anchor="middle" x="67.6" y="-1326.29" font-family="Times New Roman,serif" font-size="14.00">0x19</text>
</g>
<!-- 0x29&#45;&gt;0x19 -->
<g id="edge43" class="edge">
<title>0x29&#45;&gt;0x19</title>
<path fill="none" stroke="black" d="M127.85,-1416.13C121.92,-1410.01 115.17,-1402.68 109.6,-1395.58 99.78,-1383.1 90.04,-1368.3 82.41,-1356.02"/>
<polygon fill="black" stroke="black" points="85.22,-1353.91 77.02,-1347.2 79.25,-1357.56 85.22,-1353.91"/>
<text text-anchor="middle" x="124.1" y="-1384.38" font-family="Times New Roman,serif" font-size="14.00">ε(17)</text>
</g>
<!-- 0x28 -->
<g id="node22" class="node">
<title>0x28</title>
<ellipse fill="none" stroke="black" cx="142.6" cy="-1329.99" rx="28.7" ry="18"/>
<text text-anchor="middle" x="142.6" y="-1326.29" font-family="Times New Roman,serif" font-size="14.00">0x28</text>
</g>
<!-- 0x29&#45;&gt;0x28 -->
<g id="edge42" class="edge">
<title>0x29&#45;&gt;0x28</title>
<path fill="none" stroke="black" d="M142.6,-1413.24C142.6,-1398.1 142.6,-1375.87 142.6,-1358.34"/>
<polygon fill="black" stroke="black" points="146.1,-1358.14 142.6,-1348.14 139.1,-1358.14 146.1,-1358.14"/>
<text text-anchor="middle" x="157.1" y="-1384.38" font-family="Times New Roman,serif" font-size="14.00">ε(16)</text>
</g>
<!-- 0x2a&#45;&gt;0x29 -->
<g id="edge45" class="edge">
<title>0x2a&#45;&gt;0x29</title>
<path fill="none" stroke="black" d="M170.18,-1501.46C166.94,-1495.61 163.43,-1488.89 160.6,-1482.58 157.24,-1475.09 154.04,-1466.77 151.3,-1459.09"/>
<polygon fill="black" stroke="black" points="154.55,-1457.81 147.97,-1449.5 147.94,-1460.1 154.55,-1457.81"/>
<text text-anchor="middle" x="175.1" y="-1471.38" font-family="Times New Roman,serif" font-size="14.00">ε(18)</text>
</g>
<!-- 0x25 -->
<g id="node43" class="node">
<title>0x25</title>
<ellipse fill="none" stroke="black" cx="219.6" cy="-1431.58" rx="28.7" ry="18"/>
<text text-anchor="middle" x="219.6" y="-1427.88" font-family="Times New Roman,serif" font-size="14.00">0x25</text>
</g>
<!-- 0x2a&#45;&gt;0x25 -->
<g id="edge46" class="edge">
<title>0x2a&#45;&gt;0x25</title>
<path fill="none" stroke="black" d="M187.31,-1501.2C193.06,-1488.97 201.04,-1472.03 207.62,-1458.04"/>
<polygon fill="black" stroke="black" points="210.82,-1459.46 211.91,-1448.92 204.48,-1456.48 210.82,-1459.46"/>
<text text-anchor="middle" x="216.1" y="-1471.38" font-family="Times New Roman,serif" font-size="14.00">ε(19)</text>
</g>
<!-- 0x21 -->
<g id="node5" class="node">
<title>0x21</title>
<ellipse fill="none" stroke="black" cx="67.6" cy="-619.39" rx="28.7" ry="18"/>
<text text-anchor="middle" x="67.6" y="-615.69" font-family="Times New Roman,serif" font-size="14.00">0x21</text>
</g>
<!-- 0x22 -->
<g id="node14" class="node">
<title>0x22</title>
<ellipse fill="none" stroke="black" cx="66.6" cy="-532.39" rx="28.7" ry="18"/>
<text text-anchor="middle" x="66.6" y="-528.69" font-family="Times New Roman,serif" font-size="14.00">0x22</text>
</g>
<!-- 0x21&#45;&gt;0x22 -->
<g id="edge38" class="edge">
<title>0x21&#45;&gt;0x22</title>
<path fill="none" stroke="black" d="M67.4,-601.19C67.26,-589.55 67.07,-573.94 66.92,-560.63"/>
<polygon fill="black" stroke="black" points="70.42,-560.52 66.8,-550.57 63.42,-560.61 70.42,-560.52"/>
<text text-anchor="middle" x="71.6" y="-572.19" font-family="Times New Roman,serif" font-size="14.00">o</text>
</g>
<!-- 0xe -->
<g id="node6" class="node">
<title>0xe</title>
<ellipse fill="none" stroke="black" cx="142.6" cy="-880.39" rx="27" ry="18"/>
<text text-anchor="middle" x="142.6" y="-876.69" font-family="Times New Roman,serif" font-size="14.00">0xe</text>
</g>
<!-- 0xf -->
<g id="node12" class="node">
<title>0xf</title>
<ellipse fill="none" stroke="black" cx="142.6" cy="-793.39" rx="27" ry="18"/>
<text text-anchor="middle" x="142.6" y="-789.69" font-family="Times New Roman,serif" font-size="14.00">0xf</text>
</g>
<!-- 0xe&#45;&gt;0xf -->
<g id="edge14" class="edge">
<title>0xe&#45;&gt;0xf</title>
<path fill="none" stroke="black" d="M142.6,-862.19C142.6,-850.55 142.6,-834.94 142.6,-821.63"/>
<polygon fill="black" stroke="black" points="146.1,-821.57 142.6,-811.57 139.1,-821.57 146.1,-821.57"/>
<text text-anchor="middle" x="146.1" y="-833.19" font-family="Times New Roman,serif" font-size="14.00">h</text>
</g>
<!-- 0x1a -->
<g id="node30" class="node">
<title>0x1a</title>
<ellipse fill="none" stroke="black" cx="67.6" cy="-1228.39" rx="27.9" ry="18"/>
<text text-anchor="middle" x="67.6" y="-1224.69" font-family="Times New Roman,serif" font-size="14.00">0x1a</text>
</g>
<!-- 0x19&#45;&gt;0x1a -->
<g id="edge31" class="edge">
<title>0x19&#45;&gt;0x1a</title>
<path fill="none" stroke="black" d="M67.6,-1311.64C67.6,-1296.5 67.6,-1274.28 67.6,-1256.74"/>
<polygon fill="black" stroke="black" points="71.1,-1256.54 67.6,-1246.54 64.1,-1256.54 71.1,-1256.54"/>
<text text-anchor="middle" x="71.1" y="-1268.19" font-family="Times New Roman,serif" font-size="14.00">k</text>
</g>
<!-- 0xa -->
<g id="node8" class="node">
<title>0xa</title>
<ellipse fill="none" stroke="black" cx="142.6" cy="-1228.39" rx="27" ry="18"/>
<text text-anchor="middle" x="142.6" y="-1224.69" font-family="Times New Roman,serif" font-size="14.00">0xa</text>
</g>
<!-- 0xb -->
<g id="node11" class="node">
<title>0xb</title>
<ellipse fill="none" stroke="black" cx="142.6" cy="-1141.39" rx="27" ry="18"/>
<text text-anchor="middle" x="142.6" y="-1137.69" font-family="Times New Roman,serif" font-size="14.00">0xb</text>
</g>
<!-- 0xa&#45;&gt;0xb -->
<g id="edge11" class="edge">
<title>0xa&#45;&gt;0xb</title>
<path fill="none" stroke="black" d="M142.6,-1210.19C142.6,-1198.55 142.6,-1182.94 142.6,-1169.63"/>
<polygon fill="black" stroke="black" points="146.1,-1169.57 142.6,-1159.57 139.1,-1169.57 146.1,-1169.57"/>
<text text-anchor="middle" x="145.1" y="-1181.19" font-family="Times New Roman,serif" font-size="14.00">f</text>
</g>
<!-- 0x2 -->
<g id="node9" class="node">
<title>0x2</title>
<ellipse fill="none" stroke="black" cx="215.6" cy="-1054.39" rx="27" ry="18"/>
<text text-anchor="middle" x="215.6" y="-1050.69" font-family="Times New Roman,serif" font-size="14.00">0x2</text>
</g>
<!-- 0x3 -->
<g id="node44" class="node">
<title>0x3</title>
<ellipse fill="none" stroke="black" cx="215.6" cy="-967.39" rx="27" ry="18"/>
<text text-anchor="middle" x="215.6" y="-963.69" font-family="Times New Roman,serif" font-size="14.00">0x3</text>
</g>
<!-- 0x2&#45;&gt;0x3 -->
<g id="edge3" class="edge">
<title>0x2&#45;&gt;0x3</title>
<path fill="none" stroke="black" d="M215.6,-1036.19C215.6,-1024.55 215.6,-1008.94 215.6,-995.63"/>
<polygon fill="black" stroke="black" points="219.1,-995.57 215.6,-985.57 212.1,-995.57 219.1,-995.57"/>
<text text-anchor="middle" x="219.6" y="-1007.19" font-family="Times New Roman,serif" font-size="14.00">b</text>
</g>
<!-- 0x16 -->
<g id="node10" class="node">
<title>0x16</title>
<ellipse fill="none" stroke="black" cx="210.6" cy="-32.6" rx="28.68" ry="28.68"/>
<ellipse fill="none" stroke="black" cx="210.6" cy="-32.6" rx="32.7" ry="32.7"/>
<text text-anchor="middle" x="210.6" y="-28.9" font-family="Times New Roman,serif" font-size="14.00">0x16</text>
</g>
<!-- 0xc -->
<g id="node15" class="node">
<title>0xc</title>
<ellipse fill="none" stroke="black" cx="142.6" cy="-1054.39" rx="27" ry="18"/>
<text text-anchor="middle" x="142.6" y="-1050.69" font-family="Times New Roman,serif" font-size="14.00">0xc</text>
</g>
<!-- 0xb&#45;&gt;0xc -->
<g id="edge13" class="edge">
<title>0xb&#45;&gt;0xc</title>
<path fill="none" stroke="black" d="M142.6,-1123.19C142.6,-1111.55 142.6,-1095.94 142.6,-1082.63"/>
<polygon fill="black" stroke="black" points="146.1,-1082.57 142.6,-1072.57 139.1,-1082.57 146.1,-1082.57"/>
<text text-anchor="middle" x="153.6" y="-1094.19" font-family="Times New Roman,serif" font-size="14.00">ε(6)</text>
</g>
<!-- 0x10 -->
<g id="node31" class="node">
<title>0x10</title>
<ellipse fill="none" stroke="black" cx="142.6" cy="-706.39" rx="28.7" ry="18"/>
<text text-anchor="middle" x="142.6" y="-702.69" font-family="Times New Roman,serif" font-size="14.00">0x10</text>
</g>
<!-- 0xf&#45;&gt;0x10 -->
<g id="edge17" class="edge">
<title>0xf&#45;&gt;0x10</title>
<path fill="none" stroke="black" d="M142.6,-775.19C142.6,-763.55 142.6,-747.94 142.6,-734.63"/>
<polygon fill="black" stroke="black" points="146.1,-734.57 142.6,-724.57 139.1,-734.57 146.1,-734.57"/>
<text text-anchor="middle" x="153.6" y="-746.19" font-family="Times New Roman,serif" font-size="14.00">ε(8)</text>
</g>
<!-- 0x8 -->
<g id="node13" class="node">
<title>0x8</title>
<ellipse fill="none" stroke="black" cx="223.6" cy="-532.39" rx="27" ry="18"/>
<text text-anchor="middle" x="223.6" y="-528.69" font-family="Times New Roman,serif" font-size="14.00">0x8</text>
</g>
<!-- 0x9 -->
<g id="node25" class="node">
<title>0x9</title>
<ellipse fill="none" stroke="black" cx="229.6" cy="-391.39" rx="27" ry="18"/>
<text text-anchor="middle" x="229.6" y="-387.69" font-family="Times New Roman,serif" font-size="14.00">0x9</text>
</g>
<!-- 0x8&#45;&gt;0x9 -->
<g id="edge9" class="edge">
<title>0x8&#45;&gt;0x9</title>
<path fill="none" stroke="black" d="M224.33,-514.35C225.35,-490.79 227.2,-448.03 228.41,-419.92"/>
<polygon fill="black" stroke="black" points="231.92,-419.72 228.86,-409.57 224.93,-419.41 231.92,-419.72"/>
<text text-anchor="middle" x="229.1" y="-485.19" font-family="Times New Roman,serif" font-size="14.00">e</text>
</g>
<!-- 0x23 -->
<g id="node28" class="node">
<title>0x23</title>
<ellipse fill="none" stroke="black" cx="34.6" cy="-445.39" rx="28.7" ry="18"/>
<text text-anchor="middle" x="34.6" y="-441.69" font-family="Times New Roman,serif" font-size="14.00">0x23</text>
</g>
<!-- 0x22&#45;&gt;0x23 -->
<g id="edge41" class="edge">
<title>0x22&#45;&gt;0x23</title>
<path fill="none" stroke="black" d="M60.28,-514.6C55.76,-502.61 49.6,-486.24 44.44,-472.55"/>
<polygon fill="black" stroke="black" points="47.71,-471.27 40.91,-463.15 41.15,-473.74 47.71,-471.27"/>
<text text-anchor="middle" x="63.6" y="-485.19" font-family="Times New Roman,serif" font-size="14.00">ε(e)</text>
</g>
<!-- 0xd -->
<g id="node38" class="node">
<title>0xd</title>
<ellipse fill="none" stroke="black" cx="142.6" cy="-967.39" rx="27" ry="18"/>
<text text-anchor="middle" x="142.6" y="-963.69" font-family="Times New Roman,serif" font-size="14.00">0xd</text>
</g>
<!-- 0xc&#45;&gt;0xd -->
<g id="edge12" class="edge">
<title>0xc&#45;&gt;0xd</title>
<path fill="none" stroke="black" d="M142.6,-1036.19C142.6,-1024.55 142.6,-1008.94 142.6,-995.63"/>
<polygon fill="black" stroke="black" points="146.1,-995.57 142.6,-985.57 139.1,-995.57 146.1,-995.57"/>
<text text-anchor="middle" x="146.1" y="-1007.19" font-family="Times New Roman,serif" font-size="14.00">g</text>
</g>
<!-- 0x24 -->
<g id="node16" class="node">
<title>0x24</title>
<ellipse fill="none" stroke="black" cx="32.6" cy="-322.79" rx="28.68" ry="28.68"/>
<ellipse fill="none" stroke="black" cx="32.6" cy="-322.79" rx="32.7" ry="32.7"/>
<text text-anchor="middle" x="32.6" y="-319.09" font-family="Times New Roman,serif" font-size="14.00">0x24</text>
</g>
<!-- 0x1d -->
<g id="node27" class="node">
<title>0x1d</title>
<ellipse fill="none" stroke="black" cx="67.6" cy="-967.39" rx="28.7" ry="18"/>
<text text-anchor="middle" x="67.6" y="-963.69" font-family="Times New Roman,serif" font-size="14.00">0x1d</text>
</g>
<!-- 0x1c&#45;&gt;0x1d -->
<g id="edge35" class="edge">
<title>0x1c&#45;&gt;0x1d</title>
<path fill="none" stroke="black" d="M67.6,-1036.19C67.6,-1024.55 67.6,-1008.94 67.6,-995.63"/>
<polygon fill="black" stroke="black" points="71.1,-995.57 67.6,-985.57 64.1,-995.57 71.1,-995.57"/>
<text text-anchor="middle" x="79.1" y="-1007.19" font-family="Times New Roman,serif" font-size="14.00">ε(b)</text>
</g>
<!-- 0x17 -->
<g id="node18" class="node">
<title>0x17</title>
<ellipse fill="none" stroke="black" cx="131.6" cy="-134.19" rx="28.7" ry="18"/>
<text text-anchor="middle" x="131.6" y="-130.49" font-family="Times New Roman,serif" font-size="14.00">0x17</text>
</g>
<!-- 0x18 -->
<g id="node36" class="node">
<title>0x18</title>
<ellipse fill="none" stroke="black" cx="127.6" cy="-32.6" rx="28.68" ry="28.68"/>
<ellipse fill="none" stroke="black" cx="127.6" cy="-32.6" rx="32.7" ry="32.7"/>
<text text-anchor="middle" x="127.6" y="-28.9" font-family="Times New Roman,serif" font-size="14.00">0x18</text>
</g>
<!-- 0x17&#45;&gt;0x18 -->
<g id="edge25" class="edge">
<title>0x17&#45;&gt;0x18</title>
<path fill="none" stroke="black" d="M130.9,-115.85C130.45,-104.63 129.84,-89.54 129.27,-75.33"/>
<polygon fill="black" stroke="black" points="132.77,-75.07 128.87,-65.22 125.77,-75.35 132.77,-75.07"/>
<text text-anchor="middle" x="134.6" y="-86.99" font-family="Times New Roman,serif" font-size="14.00">b</text>
</g>
<!-- 0x6 -->
<g id="node19" class="node">
<title>0x6</title>
<ellipse fill="none" stroke="black" cx="219.6" cy="-706.39" rx="27" ry="18"/>
<text text-anchor="middle" x="219.6" y="-702.69" font-family="Times New Roman,serif" font-size="14.00">0x6</text>
</g>
<!-- 0x7 -->
<g id="node23" class="node">
<title>0x7</title>
<ellipse fill="none" stroke="black" cx="221.6" cy="-619.39" rx="27" ry="18"/>
<text text-anchor="middle" x="221.6" y="-615.69" font-family="Times New Roman,serif" font-size="14.00">0x7</text>
</g>
<!-- 0x6&#45;&gt;0x7 -->
<g id="edge7" class="edge">
<title>0x6&#45;&gt;0x7</title>
<path fill="none" stroke="black" d="M220,-688.19C220.28,-676.55 220.64,-660.94 220.96,-647.63"/>
<polygon fill="black" stroke="black" points="224.46,-647.64 221.19,-637.57 217.46,-647.48 224.46,-647.64"/>
<text text-anchor="middle" x="224.6" y="-659.19" font-family="Times New Roman,serif" font-size="14.00">d</text>
</g>
<!-- 0x13 -->
<g id="node20" class="node">
<title>0x13</title>
<ellipse fill="none" stroke="black" cx="111.6" cy="-445.39" rx="28.7" ry="18"/>
<text text-anchor="middle" x="111.6" y="-441.69" font-family="Times New Roman,serif" font-size="14.00">0x13</text>
</g>
<!-- 0x14 -->
<g id="node41" class="node">
<title>0x14</title>
<ellipse fill="none" stroke="black" cx="111.6" cy="-322.79" rx="28.7" ry="18"/>
<text text-anchor="middle" x="111.6" y="-319.09" font-family="Times New Roman,serif" font-size="14.00">0x14</text>
</g>
<!-- 0x13&#45;&gt;0x14 -->
<g id="edge19" class="edge">
<title>0x13&#45;&gt;0x14</title>
<path fill="none" stroke="black" d="M103,-428.1C100.4,-422.35 97.9,-415.74 96.6,-409.39 92.55,-389.69 96.79,-367.29 101.78,-350.35"/>
<polygon fill="black" stroke="black" points="105.19,-351.17 104.92,-340.58 98.53,-349.03 105.19,-351.17"/>
<text text-anchor="middle" x="98.6" y="-387.69" font-family="Times New Roman,serif" font-size="14.00">j</text>
</g>
<!-- 0x27 -->
<g id="node21" class="node">
<title>0x27</title>
<ellipse fill="none" stroke="black" cx="168.6" cy="-221.19" rx="28.7" ry="18"/>
<text text-anchor="middle" x="168.6" y="-217.49" font-family="Times New Roman,serif" font-size="14.00">0x27</text>
</g>
<!-- 0x27&#45;&gt;0x17 -->
<g id="edge27" class="edge">
<title>0x27&#45;&gt;0x17</title>
<path fill="none" stroke="black" d="M159.79,-204C156.73,-198.14 153.38,-191.44 150.6,-185.19 147.23,-177.65 143.91,-169.3 141.01,-161.63"/>
<polygon fill="black" stroke="black" points="144.22,-160.22 137.47,-152.05 137.66,-162.64 144.22,-160.22"/>
<text text-anchor="middle" x="165.1" y="-173.99" font-family="Times New Roman,serif" font-size="14.00">ε(10)</text>
</g>
<!-- 0x15 -->
<g id="node33" class="node">
<title>0x15</title>
<ellipse fill="none" stroke="black" cx="208.6" cy="-134.19" rx="28.7" ry="18"/>
<text text-anchor="middle" x="208.6" y="-130.49" font-family="Times New Roman,serif" font-size="14.00">0x15</text>
</g>
<!-- 0x27&#45;&gt;0x15 -->
<g id="edge26" class="edge">
<title>0x27&#45;&gt;0x15</title>
<path fill="none" stroke="black" d="M176.31,-203.81C182.06,-191.58 190.04,-174.64 196.62,-160.65"/>
<polygon fill="black" stroke="black" points="199.82,-162.07 200.91,-151.53 193.48,-159.09 199.82,-162.07"/>
<text text-anchor="middle" x="201.6" y="-173.99" font-family="Times New Roman,serif" font-size="14.00">ε(f)</text>
</g>
<!-- 0x28&#45;&gt;0xa -->
<g id="edge23" class="edge">
<title>0x28&#45;&gt;0xa</title>
<path fill="none" stroke="black" d="M142.6,-1311.64C142.6,-1296.5 142.6,-1274.28 142.6,-1256.74"/>
<polygon fill="black" stroke="black" points="146.1,-1256.54 142.6,-1246.54 139.1,-1256.54 146.1,-1256.54"/>
<text text-anchor="middle" x="157.1" y="-1268.19" font-family="Times New Roman,serif" font-size="14.00">ε(12)</text>
</g>
<!-- 0x0 -->
<g id="node42" class="node">
<title>0x0</title>
<ellipse fill="none" stroke="black" cx="215.6" cy="-1228.39" rx="27" ry="18"/>
<text text-anchor="middle" x="215.6" y="-1224.69" font-family="Times New Roman,serif" font-size="14.00">0x0</text>
</g>
<!-- 0x28&#45;&gt;0x0 -->
<g id="edge22" class="edge">
<title>0x28&#45;&gt;0x0</title>
<path fill="none" stroke="black" d="M154,-1313.43C165.84,-1297.27 184.51,-1271.81 198.19,-1253.14"/>
<polygon fill="black" stroke="black" points="201.18,-1254.98 204.27,-1244.84 195.54,-1250.84 201.18,-1254.98"/>
<text text-anchor="middle" x="205.1" y="-1268.19" font-family="Times New Roman,serif" font-size="14.00">ε(11)</text>
</g>
<!-- 0x7&#45;&gt;0x8 -->
<g id="edge10" class="edge">
<title>0x7&#45;&gt;0x8</title>
<path fill="none" stroke="black" d="M222,-601.19C222.28,-589.55 222.64,-573.94 222.96,-560.63"/>
<polygon fill="black" stroke="black" points="226.46,-560.64 223.19,-550.57 219.46,-560.48 226.46,-560.64"/>
<text text-anchor="middle" x="233.6" y="-572.19" font-family="Times New Roman,serif" font-size="14.00">ε(3)</text>
</g>
<!-- 0x11 -->
<g id="node24" class="node">
<title>0x11</title>
<ellipse fill="none" stroke="black" cx="142.6" cy="-619.39" rx="28.7" ry="18"/>
<text text-anchor="middle" x="142.6" y="-615.69" font-family="Times New Roman,serif" font-size="14.00">0x11</text>
</g>
<!-- 0x12 -->
<g id="node34" class="node">
<title>0x12</title>
<ellipse fill="none" stroke="black" cx="142.6" cy="-532.39" rx="28.7" ry="18"/>
<text text-anchor="middle" x="142.6" y="-528.69" font-family="Times New Roman,serif" font-size="14.00">0x12</text>
</g>
<!-- 0x11&#45;&gt;0x12 -->
<g id="edge21" class="edge">
<title>0x11&#45;&gt;0x12</title>
<path fill="none" stroke="black" d="M142.6,-601.19C142.6,-589.55 142.6,-573.94 142.6,-560.63"/>
<polygon fill="black" stroke="black" points="146.1,-560.57 142.6,-550.57 139.1,-560.57 146.1,-560.57"/>
<text text-anchor="middle" x="153.6" y="-572.19" font-family="Times New Roman,serif" font-size="14.00">ε(9)</text>
</g>
<!-- 0x9&#45;&gt;0x27 -->
<g id="edge30" class="edge">
<title>0x9&#45;&gt;0x27</title>
<path fill="none" stroke="black" d="M223.88,-373.49C215.25,-348.12 198.23,-298.74 182.6,-257.19 181.5,-254.29 180.33,-251.25 179.15,-248.24"/>
<polygon fill="black" stroke="black" points="182.38,-246.88 175.43,-238.87 175.87,-249.46 182.38,-246.88"/>
<text text-anchor="middle" x="231.1" y="-319.09" font-family="Times New Roman,serif" font-size="14.00">ε(15)</text>
</g>
<!-- 0x1e -->
<g id="node26" class="node">
<title>0x1e</title>
<ellipse fill="none" stroke="black" cx="67.6" cy="-880.39" rx="27.9" ry="18"/>
<text text-anchor="middle" x="67.6" y="-876.69" font-family="Times New Roman,serif" font-size="14.00">0x1e</text>
</g>
<!-- 0x1f -->
<g id="node35" class="node">
<title>0x1f</title>
<ellipse fill="none" stroke="black" cx="67.6" cy="-793.39" rx="27" ry="18"/>
<text text-anchor="middle" x="67.6" y="-789.69" font-family="Times New Roman,serif" font-size="14.00">0x1f</text>
</g>
<!-- 0x1e&#45;&gt;0x1f -->
<g id="edge37" class="edge">
<title>0x1e&#45;&gt;0x1f</title>
<path fill="none" stroke="black" d="M67.6,-862.19C67.6,-850.55 67.6,-834.94 67.6,-821.63"/>
<polygon fill="black" stroke="black" points="71.1,-821.57 67.6,-811.57 64.1,-821.57 71.1,-821.57"/>
<text text-anchor="middle" x="78.6" y="-833.19" font-family="Times New Roman,serif" font-size="14.00">ε(c)</text>
</g>
<!-- 0x1d&#45;&gt;0x1e -->
<g id="edge34" class="edge">
<title>0x1d&#45;&gt;0x1e</title>
<path fill="none" stroke="black" d="M67.6,-949.19C67.6,-937.55 67.6,-921.94 67.6,-908.63"/>
<polygon fill="black" stroke="black" points="71.1,-908.57 67.6,-898.57 64.1,-908.57 71.1,-908.57"/>
<text text-anchor="middle" x="73.1" y="-920.19" font-family="Times New Roman,serif" font-size="14.00">m</text>
</g>
<!-- 0x23&#45;&gt;0x24 -->
<g id="edge40" class="edge">
<title>0x23&#45;&gt;0x24</title>
<path fill="none" stroke="black" d="M34.32,-427.37C34.05,-411.41 33.64,-386.9 33.29,-365.74"/>
<polygon fill="black" stroke="black" points="36.79,-365.6 33.13,-355.66 29.79,-365.72 36.79,-365.6"/>
<text text-anchor="middle" x="38.6" y="-387.69" font-family="Times New Roman,serif" font-size="14.00">p</text>
</g>
<!-- 0x20 -->
<g id="node29" class="node">
<title>0x20</title>
<ellipse fill="none" stroke="black" cx="67.6" cy="-706.39" rx="28.7" ry="18"/>
<text text-anchor="middle" x="67.6" y="-702.69" font-family="Times New Roman,serif" font-size="14.00">0x20</text>
</g>
<!-- 0x20&#45;&gt;0x21 -->
<g id="edge39" class="edge">
<title>0x20&#45;&gt;0x21</title>
<path fill="none" stroke="black" d="M67.6,-688.19C67.6,-676.55 67.6,-660.94 67.6,-647.63"/>
<polygon fill="black" stroke="black" points="71.1,-647.57 67.6,-637.57 64.1,-647.57 71.1,-647.57"/>
<text text-anchor="middle" x="79.1" y="-659.19" font-family="Times New Roman,serif" font-size="14.00">ε(d)</text>
</g>
<!-- 0x1a&#45;&gt;0x1b -->
<g id="edge33" class="edge">
<title>0x1a&#45;&gt;0x1b</title>
<path fill="none" stroke="black" d="M67.6,-1210.19C67.6,-1198.55 67.6,-1182.94 67.6,-1169.63"/>
<polygon fill="black" stroke="black" points="71.1,-1169.57 67.6,-1159.57 64.1,-1169.57 71.1,-1169.57"/>
<text text-anchor="middle" x="78.6" y="-1181.19" font-family="Times New Roman,serif" font-size="14.00">ε(a)</text>
</g>
<!-- 0x10&#45;&gt;0x11 -->
<g id="edge16" class="edge">
<title>0x10&#45;&gt;0x11</title>
<path fill="none" stroke="black" d="M142.6,-688.19C142.6,-676.55 142.6,-660.94 142.6,-647.63"/>
<polygon fill="black" stroke="black" points="146.1,-647.57 142.6,-637.57 139.1,-647.57 146.1,-647.57"/>
<text text-anchor="middle" x="144.6" y="-659.19" font-family="Times New Roman,serif" font-size="14.00">i</text>
</g>
<!-- 0x4 -->
<g id="node32" class="node">
<title>0x4</title>
<ellipse fill="none" stroke="black" cx="215.6" cy="-880.39" rx="27" ry="18"/>
<text text-anchor="middle" x="215.6" y="-876.69" font-family="Times New Roman,serif" font-size="14.00">0x4</text>
</g>
<!-- 0x5 -->
<g id="node40" class="node">
<title>0x5</title>
<ellipse fill="none" stroke="black" cx="216.6" cy="-793.39" rx="27" ry="18"/>
<text text-anchor="middle" x="216.6" y="-789.69" font-family="Times New Roman,serif" font-size="14.00">0x5</text>
</g>
<!-- 0x4&#45;&gt;0x5 -->
<g id="edge5" class="edge">
<title>0x4&#45;&gt;0x5</title>
<path fill="none" stroke="black" d="M215.8,-862.19C215.94,-850.55 216.12,-834.94 216.28,-821.63"/>
<polygon fill="black" stroke="black" points="219.78,-821.61 216.4,-811.57 212.78,-821.52 219.78,-821.61"/>
<text text-anchor="middle" x="219.1" y="-833.19" font-family="Times New Roman,serif" font-size="14.00">c</text>
</g>
<!-- 0x15&#45;&gt;0x16 -->
<g id="edge24" class="edge">
<title>0x15&#45;&gt;0x16</title>
<path fill="none" stroke="black" d="M208.95,-115.85C209.17,-104.63 209.47,-89.54 209.76,-75.33"/>
<polygon fill="black" stroke="black" points="213.26,-75.29 209.96,-65.22 206.26,-75.15 213.26,-75.29"/>
<text text-anchor="middle" x="213.1" y="-86.99" font-family="Times New Roman,serif" font-size="14.00">a</text>
</g>
<!-- 0x12&#45;&gt;0x13 -->
<g id="edge18" class="edge">
<title>0x12&#45;&gt;0x13</title>
<path fill="none" stroke="black" d="M136.47,-514.6C132.1,-502.61 126.13,-486.24 121.14,-472.55"/>
<polygon fill="black" stroke="black" points="124.42,-471.34 117.71,-463.15 117.85,-473.74 124.42,-471.34"/>
<text text-anchor="middle" x="140.6" y="-485.19" font-family="Times New Roman,serif" font-size="14.00">ε(4)</text>
</g>
<!-- 0x12&#45;&gt;0x27 -->
<g id="edge28" class="edge">
<title>0x12&#45;&gt;0x27</title>
<path fill="none" stroke="black" d="M149.43,-514.56C151.45,-508.88 153.43,-502.44 154.6,-496.39 163.61,-449.69 167.08,-309.15 168.17,-249.48"/>
<polygon fill="black" stroke="black" points="171.67,-249.37 168.35,-239.31 164.67,-249.25 171.67,-249.37"/>
<text text-anchor="middle" x="179.1" y="-387.69" font-family="Times New Roman,serif" font-size="14.00">ε(13)</text>
</g>
<!-- 0x1f&#45;&gt;0x20 -->
<g id="edge36" class="edge">
<title>0x1f&#45;&gt;0x20</title>
<path fill="none" stroke="black" d="M67.6,-775.19C67.6,-763.55 67.6,-747.94 67.6,-734.63"/>
<polygon fill="black" stroke="black" points="71.1,-734.57 67.6,-724.57 64.1,-734.57 71.1,-734.57"/>
<text text-anchor="middle" x="71.1" y="-746.19" font-family="Times New Roman,serif" font-size="14.00">n</text>
</g>
<!-- 0x1 -->
<g id="node37" class="node">
<title>0x1</title>
<ellipse fill="none" stroke="black" cx="215.6" cy="-1141.39" rx="27" ry="18"/>
<text text-anchor="middle" x="215.6" y="-1137.69" font-family="Times New Roman,serif" font-size="14.00">0x1</text>
</g>
<!-- 0x1&#45;&gt;0x2 -->
<g id="edge4" class="edge">
<title>0x1&#45;&gt;0x2</title>
<path fill="none" stroke="black" d="M215.6,-1123.19C215.6,-1111.55 215.6,-1095.94 215.6,-1082.63"/>
<polygon fill="black" stroke="black" points="219.1,-1082.57 215.6,-1072.57 212.1,-1082.57 219.1,-1082.57"/>
<text text-anchor="middle" x="226.6" y="-1094.19" font-family="Times New Roman,serif" font-size="14.00">ε(0)</text>
</g>
<!-- 0xd&#45;&gt;0xe -->
<g id="edge15" class="edge">
<title>0xd&#45;&gt;0xe</title>
<path fill="none" stroke="black" d="M142.6,-949.19C142.6,-937.55 142.6,-921.94 142.6,-908.63"/>
<polygon fill="black" stroke="black" points="146.1,-908.57 142.6,-898.57 139.1,-908.57 146.1,-908.57"/>
<text text-anchor="middle" x="153.6" y="-920.19" font-family="Times New Roman,serif" font-size="14.00">ε(7)</text>
</g>
<!-- 0x26 -->
<g id="node39" class="node">
<title>0x26</title>
<ellipse fill="none" stroke="black" cx="221.6" cy="-1329.99" rx="28.68" ry="28.68"/>
<ellipse fill="none" stroke="black" cx="221.6" cy="-1329.99" rx="32.7" ry="32.7"/>
<text text-anchor="middle" x="221.6" y="-1326.29" font-family="Times New Roman,serif" font-size="14.00">0x26</text>
</g>
<!-- 0x5&#45;&gt;0x6 -->
<g id="edge8" class="edge">
<title>0x5&#45;&gt;0x6</title>
<path fill="none" stroke="black" d="M217.2,-775.19C217.62,-763.55 218.17,-747.94 218.64,-734.63"/>
<polygon fill="black" stroke="black" points="222.14,-734.68 218.99,-724.57 215.14,-734.44 222.14,-734.68"/>
<text text-anchor="middle" x="228.6" y="-746.19" font-family="Times New Roman,serif" font-size="14.00">ε(2)</text>
</g>
<!-- 0x14&#45;&gt;0x13 -->
<g id="edge20" class="edge">
<title>0x14&#45;&gt;0x13</title>
<path fill="none" stroke="black" d="M111.6,-341.12C111.6,-360.98 111.6,-393.79 111.6,-417.1"/>
<polygon fill="black" stroke="black" points="108.1,-417.37 111.6,-427.37 115.1,-417.37 108.1,-417.37"/>
<text text-anchor="middle" x="122.6" y="-387.69" font-family="Times New Roman,serif" font-size="14.00">ε(5)</text>
</g>
<!-- 0x14&#45;&gt;0x27 -->
<g id="edge29" class="edge">
<title>0x14&#45;&gt;0x27</title>
<path fill="none" stroke="black" d="M112.23,-304.73C113.42,-291 116.71,-271.67 125.6,-257.19 129.39,-251.02 134.66,-245.45 140.23,-240.67"/>
<polygon fill="black" stroke="black" points="142.72,-243.16 148.44,-234.24 138.41,-237.65 142.72,-243.16"/>
<text text-anchor="middle" x="140.1" y="-260.99" font-family="Times New Roman,serif" font-size="14.00">ε(14)</text>
</g>
<!-- 0x0&#45;&gt;0x1 -->
<g id="edge2" class="edge">
<title>0x0&#45;&gt;0x1</title>
<path fill="none" stroke="black" d="M215.6,-1210.19C215.6,-1198.55 215.6,-1182.94 215.6,-1169.63"/>
<polygon fill="black" stroke="black" points="219.1,-1169.57 215.6,-1159.57 212.1,-1169.57 219.1,-1169.57"/>
<text text-anchor="middle" x="219.1" y="-1181.19" font-family="Times New Roman,serif" font-size="14.00">a</text>
</g>
<!-- 0x25&#45;&gt;0x26 -->
<g id="edge44" class="edge">
<title>0x25&#45;&gt;0x26</title>
<path fill="none" stroke="black" d="M219.95,-1413.24C220.17,-1402.02 220.47,-1386.93 220.76,-1372.72"/>
<polygon fill="black" stroke="black" points="224.26,-1372.68 220.96,-1362.61 217.26,-1372.54 224.26,-1372.68"/>
<text text-anchor="middle" x="224.1" y="-1384.38" font-family="Times New Roman,serif" font-size="14.00">a</text>
</g>
<!-- 0x3&#45;&gt;0x4 -->
<g id="edge6" class="edge">
<title>0x3&#45;&gt;0x4</title>
<path fill="none" stroke="black" d="M215.6,-949.19C215.6,-937.55 215.6,-921.94 215.6,-908.63"/>
<polygon fill="black" stroke="black" points="219.1,-908.57 215.6,-898.57 212.1,-908.57 219.1,-908.57"/>
<text text-anchor="middle" x="226.6" y="-920.19" font-family="Times New Roman,serif" font-size="14.00">ε(1)</text>
</g>
</g>
</svg>
