<?xml version="1.0" encoding="UTF-8" standalone="no"?>
<!DOCTYPE svg PUBLIC "-//W3C//DTD SVG 1.1//EN"
 "http://www.w3.org/Graphics/SVG/1.1/DTD/svg11.dtd">
<!-- Generated by graphviz version 3.0.0 (20220226.1711)
 -->
<!-- Pages: 1 -->
<svg width="73pt" height="1103pt"
 viewBox="0.00 0.00 73.19 1103.19" xmlns="http://www.w3.org/2000/svg" xmlns:xlink="http://www.w3.org/1999/xlink">
<g id="graph0" class="graph" transform="scale(1 1) rotate(0) translate(4 1099.19)">
<polygon fill="white" stroke="transparent" points="-4,4 -4,-1099.19 69.19,-1099.19 69.19,4 -4,4"/>
<!-- fake -->
<g id="node1" class="node">
<title>fake</title>
</g>
<!-- 0x19 -->
<g id="node2" class="node">
<title>0x19</title>
<ellipse fill="none" stroke="black" cx="32.6" cy="-1004.19" rx="28.7" ry="18"/>
<text text-anchor="middle" x="32.6" y="-1000.49" font-family="Times New Roman,serif" font-size="14.00">0x19</text>
</g>
<!-- fake&#45;&gt;0x19 -->
<g id="edge1" class="edge">
<title>fake&#45;&gt;0x19</title>
<path fill="none" stroke="black" stroke-width="2" d="M32.6,-1059.01C32.6,-1050.98 32.6,-1041.24 32.6,-1032.26"/>
<polygon fill="black" stroke="black" stroke-width="2" points="36.1,-1032.22 32.6,-1022.22 29.1,-1032.22 36.1,-1032.22"/>
</g>
<!-- 0x1a -->
<g id="node3" class="node">
<title>0x1a</title>
<ellipse fill="none" stroke="black" cx="32.6" cy="-917.19" rx="27.9" ry="18"/>
<text text-anchor="middle" x="32.6" y="-913.49" font-family="Times New Roman,serif" font-size="14.00">0x1a</text>
</g>
<!-- 0x19&#45;&gt;0x1a -->
<g id="edge2" class="edge">
<title>0x19&#45;&gt;0x1a</title>
<path fill="none" stroke="black" d="M32.6,-985.99C32.6,-974.36 32.6,-958.74 32.6,-945.43"/>
<polygon fill="black" stroke="black" points="36.1,-945.37 32.6,-935.37 29.1,-945.37 36.1,-945.37"/>
<text text-anchor="middle" x="36.1" y="-956.99" font-family="Times New Roman,serif" font-size="14.00">k</text>
</g>
<!-- 0x1b -->
<g id="node4" class="node">
<title>0x1b</title>
<ellipse fill="none" stroke="black" cx="32.6" cy="-830.19" rx="28.7" ry="18"/>
<text text-anchor="middle" x="32.6" y="-826.49" font-family="Times New Roman,serif" font-size="14.00">0x1b</text>
</g>
<!-- 0x1a&#45;&gt;0x1b -->
<g id="edge4" class="edge">
<title>0x1a&#45;&gt;0x1b</title>
<path fill="none" stroke="black" d="M32.6,-898.99C32.6,-887.36 32.6,-871.74 32.6,-858.43"/>
<polygon fill="black" stroke="black" points="36.1,-858.37 32.6,-848.37 29.1,-858.37 36.1,-858.37"/>
<text text-anchor="middle" x="43.6" y="-869.99" font-family="Times New Roman,serif" font-size="14.00">ε(a)</text>
</g>
<!-- 0x1c -->
<g id="node5" class="node">
<title>0x1c</title>
<ellipse fill="none" stroke="black" cx="32.6" cy="-743.19" rx="28.7" ry="18"/>
<text text-anchor="middle" x="32.6" y="-739.49" font-family="Times New Roman,serif" font-size="14.00">0x1c</text>
</g>
<!-- 0x1b&#45;&gt;0x1c -->
<g id="edge3" class="edge">
<title>0x1b&#45;&gt;0x1c</title>
<path fill="none" stroke="black" d="M32.6,-811.99C32.6,-800.36 32.6,-784.74 32.6,-771.43"/>
<polygon fill="black" stroke="black" points="36.1,-771.37 32.6,-761.37 29.1,-771.37 36.1,-771.37"/>
<text text-anchor="middle" x="34.6" y="-782.99" font-family="Times New Roman,serif" font-size="14.00">l</text>
</g>
<!-- 0x1d -->
<g id="node6" class="node">
<title>0x1d</title>
<ellipse fill="none" stroke="black" cx="32.6" cy="-656.19" rx="28.7" ry="18"/>
<text text-anchor="middle" x="32.6" y="-652.49" font-family="Times New Roman,serif" font-size="14.00">0x1d</text>
</g>
<!-- 0x1c&#45;&gt;0x1d -->
<g id="edge6" class="edge">
<title>0x1c&#45;&gt;0x1d</title>
<path fill="none" stroke="black" d="M32.6,-724.99C32.6,-713.36 32.6,-697.74 32.6,-684.43"/>
<polygon fill="black" stroke="black" points="36.1,-684.37 32.6,-674.37 29.1,-684.37 36.1,-684.37"/>
<text text-anchor="middle" x="44.1" y="-695.99" font-family="Times New Roman,serif" font-size="14.00">ε(b)</text>
</g>
<!-- 0x1e -->
<g id="node7" class="node">
<title>0x1e</title>
<ellipse fill="none" stroke="black" cx="32.6" cy="-569.19" rx="27.9" ry="18"/>
<text text-anchor="middle" x="32.6" y="-565.49" font-family="Times New Roman,serif" font-size="14.00">0x1e</text>
</g>
<!-- 0x1d&#45;&gt;0x1e -->
<g id="edge5" class="edge">
<title>0x1d&#45;&gt;0x1e</title>
<path fill="none" stroke="black" d="M32.6,-637.99C32.6,-626.36 32.6,-610.74 32.6,-597.43"/>
<polygon fill="black" stroke="black" points="36.1,-597.37 32.6,-587.37 29.1,-597.37 36.1,-597.37"/>
<text text-anchor="middle" x="38.1" y="-608.99" font-family="Times New Roman,serif" font-size="14.00">m</text>
</g>
<!-- 0x1f -->
<g id="node8" class="node">
<title>0x1f</title>
<ellipse fill="none" stroke="black" cx="32.6" cy="-482.19" rx="27" ry="18"/>
<text text-anchor="middle" x="32.6" y="-478.49" font-family="Times New Roman,serif" font-size="14.00">0x1f</text>
</g>
<!-- 0x1e&#45;&gt;0x1f -->
<g id="edge8" class="edge">
<title>0x1e&#45;&gt;0x1f</title>
<path fill="none" stroke="black" d="M32.6,-550.99C32.6,-539.36 32.6,-523.74 32.6,-510.43"/>
<polygon fill="black" stroke="black" points="36.1,-510.37 32.6,-500.37 29.1,-510.37 36.1,-510.37"/>
<text text-anchor="middle" x="43.6" y="-521.99" font-family="Times New Roman,serif" font-size="14.00">ε(c)</text>
</g>
<!-- 0x20 -->
<g id="node9" class="node">
<title>0x20</title>
<ellipse fill="none" stroke="black" cx="32.6" cy="-395.19" rx="28.7" ry="18"/>
<text text-anchor="middle" x="32.6" y="-391.49" font-family="Times New Roman,serif" font-size="14.00">0x20</text>
</g>
<!-- 0x1f&#45;&gt;0x20 -->
<g id="edge7" class="edge">
<title>0x1f&#45;&gt;0x20</title>
<path fill="none" stroke="black" d="M32.6,-463.99C32.6,-452.36 32.6,-436.74 32.6,-423.43"/>
<polygon fill="black" stroke="black" points="36.1,-423.37 32.6,-413.37 29.1,-423.37 36.1,-423.37"/>
<text text-anchor="middle" x="36.1" y="-434.99" font-family="Times New Roman,serif" font-size="14.00">n</text>
</g>
<!-- 0x21 -->
<g id="node10" class="node">
<title>0x21</title>
<ellipse fill="none" stroke="black" cx="32.6" cy="-308.19" rx="28.7" ry="18"/>
<text text-anchor="middle" x="32.6" y="-304.49" font-family="Times New Roman,serif" font-size="14.00">0x21</text>
</g>
<!-- 0x20&#45;&gt;0x21 -->
<g id="edge10" class="edge">
<title>0x20&#45;&gt;0x21</title>
<path fill="none" stroke="black" d="M32.6,-376.99C32.6,-365.36 32.6,-349.74 32.6,-336.43"/>
<polygon fill="black" stroke="black" points="36.1,-336.37 32.6,-326.37 29.1,-336.37 36.1,-336.37"/>
<text text-anchor="middle" x="44.1" y="-347.99" font-family="Times New Roman,serif" font-size="14.00">ε(d)</text>
</g>
<!-- 0x22 -->
<g id="node11" class="node">
<title>0x22</title>
<ellipse fill="none" stroke="black" cx="32.6" cy="-221.19" rx="28.7" ry="18"/>
<text text-anchor="middle" x="32.6" y="-217.49" font-family="Times New Roman,serif" font-size="14.00">0x22</text>
</g>
<!-- 0x21&#45;&gt;0x22 -->
<g id="edge9" class="edge">
<title>0x21&#45;&gt;0x22</title>
<path fill="none" stroke="black" d="M32.6,-289.99C32.6,-278.36 32.6,-262.74 32.6,-249.43"/>
<polygon fill="black" stroke="black" points="36.1,-249.37 32.6,-239.37 29.1,-249.37 36.1,-249.37"/>
<text text-anchor="middle" x="36.6" y="-260.99" font-family="Times New Roman,serif" font-size="14.00">o</text>
</g>
<!-- 0x23 -->
<g id="node12" class="node">
<title>0x23</title>
<ellipse fill="none" stroke="black" cx="32.6" cy="-134.19" rx="28.7" ry="18"/>
<text text-anchor="middle" x="32.6" y="-130.49" font-family="Times New Roman,serif" font-size="14.00">0x23</text>
</g>
<!-- 0x22&#45;&gt;0x23 -->
<g id="edge12" class="edge">
<title>0x22&#45;&gt;0x23</title>
<path fill="none" stroke="black" d="M32.6,-202.99C32.6,-191.36 32.6,-175.74 32.6,-162.43"/>
<polygon fill="black" stroke="black" points="36.1,-162.37 32.6,-152.37 29.1,-162.37 36.1,-162.37"/>
<text text-anchor="middle" x="43.6" y="-173.99" font-family="Times New Roman,serif" font-size="14.00">ε(e)</text>
</g>
<!-- 0x24 -->
<g id="node13" class="node">
<title>0x24</title>
<ellipse fill="none" stroke="black" cx="32.6" cy="-32.6" rx="28.68" ry="28.68"/>
<ellipse fill="none" stroke="black" cx="32.6" cy="-32.6" rx="32.7" ry="32.7"/>
<text text-anchor="middle" x="32.6" y="-28.9" font-family="Times New Roman,serif" font-size="14.00">0x24</text>
</g>
<!-- 0x23&#45;&gt;0x24 -->
<g id="edge11" class="edge">
<title>0x23&#45;&gt;0x24</title>
<path fill="none" stroke="black" d="M32.6,-115.85C32.6,-104.63 32.6,-89.54 32.6,-75.33"/>
<polygon fill="black" stroke="black" points="36.1,-75.22 32.6,-65.22 29.1,-75.22 36.1,-75.22"/>
<text text-anchor="middle" x="36.6" y="-86.99" font-family="Times New Roman,serif" font-size="14.00">p</text>
</g>
</g>
</svg>
