<?xml version="1.0" encoding="UTF-8" standalone="no"?>
<!DOCTYPE svg PUBLIC "-//W3C//DTD SVG 1.1//EN"
 "http://www.w3.org/Graphics/SVG/1.1/DTD/svg11.dtd">
<!-- Generated by graphviz version 3.0.0 (20220226.1711)
 -->
<!-- Pages: 1 -->
<svg width="217pt" height="727pt"
 viewBox="0.00 0.00 216.95 726.58" xmlns="http://www.w3.org/2000/svg" xmlns:xlink="http://www.w3.org/1999/xlink">
<g id="graph0" class="graph" transform="scale(1 1) rotate(0) translate(4 722.58)">
<polygon fill="white" stroke="transparent" points="-4,4 -4,-722.58 212.95,-722.58 212.95,4 -4,4"/>
<!-- fake -->
<g id="node1" class="node">
<title>fake</title>
</g>
<!-- 0x23 -->
<g id="node8" class="node">
<title>0x23</title>
<ellipse fill="none" stroke="black" cx="109.95" cy="-612.99" rx="28.68" ry="28.68"/>
<ellipse fill="none" stroke="black" cx="109.95" cy="-612.99" rx="32.7" ry="32.7"/>
<text text-anchor="middle" x="109.95" y="-609.29" font-family="Times New Roman,serif" font-size="14.00">0x23</text>
</g>
<!-- fake&#45;&gt;0x23 -->
<g id="edge1" class="edge">
<title>fake&#45;&gt;0x23</title>
<path fill="none" stroke="black" stroke-width="2" d="M109.95,-682.26C109.95,-674.59 109.95,-665.19 109.95,-655.85"/>
<polygon fill="black" stroke="black" stroke-width="2" points="113.45,-655.83 109.95,-645.83 106.45,-655.83 113.45,-655.83"/>
</g>
<!-- 0x1d -->
<g id="node2" class="node">
<title>0x1d</title>
<ellipse fill="none" stroke="black" cx="109.95" cy="-511.39" rx="28.7" ry="18"/>
<text text-anchor="middle" x="109.95" y="-507.69" font-family="Times New Roman,serif" font-size="14.00">0x1d</text>
</g>
<!-- 0x1e -->
<g id="node3" class="node">
<title>0x1e</title>
<ellipse fill="none" stroke="black" cx="27.95" cy="-424.39" rx="27.9" ry="18"/>
<text text-anchor="middle" x="27.95" y="-420.69" font-family="Times New Roman,serif" font-size="14.00">0x1e</text>
</g>
<!-- 0x1d&#45;&gt;0x1e -->
<g id="edge2" class="edge">
<title>0x1d&#45;&gt;0x1e</title>
<path fill="none" stroke="black" d="M84.21,-503.18C69.52,-497.8 51.9,-488.99 40.95,-475.39 35.78,-468.98 32.65,-460.74 30.76,-452.8"/>
<polygon fill="black" stroke="black" points="34.16,-451.93 28.92,-442.73 27.27,-453.19 34.16,-451.93"/>
<text text-anchor="middle" x="55.45" y="-464.19" font-family="Times New Roman,serif" font-size="14.00">ε(13)</text>
</g>
<!-- 0x20 -->
<g id="node5" class="node">
<title>0x20</title>
<ellipse fill="none" stroke="black" cx="86.95" cy="-235.79" rx="28.68" ry="28.68"/>
<ellipse fill="none" stroke="black" cx="86.95" cy="-235.79" rx="32.7" ry="32.7"/>
<text text-anchor="middle" x="86.95" y="-232.09" font-family="Times New Roman,serif" font-size="14.00">0x20</text>
</g>
<!-- 0x1d&#45;&gt;0x20 -->
<g id="edge8" class="edge">
<title>0x1d&#45;&gt;0x20</title>
<path fill="none" stroke="black" d="M105.38,-493.58C99.28,-470.21 88.81,-426.46 84.95,-388.39 81.21,-351.5 82.19,-309.29 83.83,-278.8"/>
<polygon fill="black" stroke="black" points="87.34,-278.72 84.43,-268.53 80.35,-278.31 87.34,-278.72"/>
<text text-anchor="middle" x="99.45" y="-377.19" font-family="Times New Roman,serif" font-size="14.00">ε(17)</text>
</g>
<!-- 0x1f -->
<g id="node4" class="node">
<title>0x1f</title>
<ellipse fill="none" stroke="black" cx="28.95" cy="-337.39" rx="27" ry="18"/>
<text text-anchor="middle" x="28.95" y="-333.69" font-family="Times New Roman,serif" font-size="14.00">0x1f</text>
</g>
<!-- 0x1e&#45;&gt;0x1f -->
<g id="edge3" class="edge">
<title>0x1e&#45;&gt;0x1f</title>
<path fill="none" stroke="black" d="M13.33,-409.03C5.26,-399.31 -2.35,-385.98 1.95,-373.39 3.44,-369.02 5.72,-364.78 8.33,-360.83"/>
<polygon fill="black" stroke="black" points="11.19,-362.86 14.42,-352.76 5.6,-358.64 11.19,-362.86"/>
<text text-anchor="middle" x="5.95" y="-377.19" font-family="Times New Roman,serif" font-size="14.00">b</text>
</g>
<!-- 0x1f&#45;&gt;0x1e -->
<g id="edge4" class="edge">
<title>0x1f&#45;&gt;0x1e</title>
<path fill="none" stroke="black" d="M28.75,-355.57C28.61,-367.2 28.42,-382.81 28.27,-396.12"/>
<polygon fill="black" stroke="black" points="24.77,-396.15 28.15,-406.19 31.77,-396.23 24.77,-396.15"/>
<text text-anchor="middle" x="43.45" y="-377.19" font-family="Times New Roman,serif" font-size="14.00">ε(14)</text>
</g>
<!-- 0x1f&#45;&gt;0x20 -->
<g id="edge9" class="edge">
<title>0x1f&#45;&gt;0x20</title>
<path fill="none" stroke="black" d="M30.83,-319.41C32.46,-309.35 35.47,-296.62 40.95,-286.39 44.85,-279.11 50.07,-272.09 55.6,-265.73"/>
<polygon fill="black" stroke="black" points="58.48,-267.78 62.7,-258.07 53.34,-263.03 58.48,-267.78"/>
<text text-anchor="middle" x="55.45" y="-290.19" font-family="Times New Roman,serif" font-size="14.00">ε(18)</text>
</g>
<!-- 0x20&#45;&gt;0x1d -->
<g id="edge11" class="edge">
<title>0x20&#45;&gt;0x1d</title>
<path fill="none" stroke="black" d="M93.99,-267.71C95.34,-273.89 96.72,-280.34 97.95,-286.39 105.76,-324.92 110.38,-334.24 113.95,-373.39 118.06,-418.54 116.53,-430.13 113.95,-475.39 113.8,-477.95 113.6,-480.62 113.35,-483.28"/>
<polygon fill="black" stroke="black" points="109.86,-483.02 112.29,-493.33 116.82,-483.76 109.86,-483.02"/>
<text text-anchor="middle" x="129.95" y="-377.19" font-family="Times New Roman,serif" font-size="14.00">ε(1a)</text>
</g>
<!-- 0x21 -->
<g id="node6" class="node">
<title>0x21</title>
<ellipse fill="none" stroke="black" cx="99.95" cy="-134.19" rx="28.7" ry="18"/>
<text text-anchor="middle" x="99.95" y="-130.49" font-family="Times New Roman,serif" font-size="14.00">0x21</text>
</g>
<!-- 0x20&#45;&gt;0x21 -->
<g id="edge5" class="edge">
<title>0x20&#45;&gt;0x21</title>
<path fill="none" stroke="black" d="M91.06,-203.28C92.78,-190.1 94.76,-174.94 96.41,-162.27"/>
<polygon fill="black" stroke="black" points="99.89,-162.69 97.71,-152.32 92.95,-161.78 99.89,-162.69"/>
<text text-anchor="middle" x="110.45" y="-173.99" font-family="Times New Roman,serif" font-size="14.00">ε(15)</text>
</g>
<!-- 0x22 -->
<g id="node7" class="node">
<title>0x22</title>
<ellipse fill="none" stroke="black" cx="129.95" cy="-32.6" rx="28.68" ry="28.68"/>
<ellipse fill="none" stroke="black" cx="129.95" cy="-32.6" rx="32.7" ry="32.7"/>
<text text-anchor="middle" x="129.95" y="-28.9" font-family="Times New Roman,serif" font-size="14.00">0x22</text>
</g>
<!-- 0x21&#45;&gt;0x22 -->
<g id="edge6" class="edge">
<title>0x21&#45;&gt;0x22</title>
<path fill="none" stroke="black" d="M99.15,-115.76C99.15,-106 99.93,-93.73 102.95,-83.19 104.26,-78.61 106.05,-73.97 108.09,-69.47"/>
<polygon fill="black" stroke="black" points="111.25,-70.99 112.55,-60.48 104.97,-67.88 111.25,-70.99"/>
<text text-anchor="middle" x="106.45" y="-86.99" font-family="Times New Roman,serif" font-size="14.00">e</text>
</g>
<!-- 0x22&#45;&gt;0x1d -->
<g id="edge12" class="edge">
<title>0x22&#45;&gt;0x1d</title>
<path fill="none" stroke="black" d="M150.16,-58.58C163.66,-77.79 178.95,-105.64 178.95,-133.19 178.95,-425.39 178.95,-425.39 178.95,-425.39 178.95,-453 156.73,-476.64 137.52,-491.93"/>
<polygon fill="black" stroke="black" points="135.4,-489.14 129.54,-497.96 139.62,-494.72 135.4,-489.14"/>
<text text-anchor="middle" x="193.95" y="-290.19" font-family="Times New Roman,serif" font-size="14.00">ε(1b)</text>
</g>
<!-- 0x22&#45;&gt;0x21 -->
<g id="edge7" class="edge">
<title>0x22&#45;&gt;0x21</title>
<path fill="none" stroke="black" d="M120.82,-63.89C116.73,-77.46 111.95,-93.33 108,-106.46"/>
<polygon fill="black" stroke="black" points="104.57,-105.72 105.04,-116.3 111.27,-107.73 104.57,-105.72"/>
<text text-anchor="middle" x="129.45" y="-86.99" font-family="Times New Roman,serif" font-size="14.00">ε(16)</text>
</g>
<!-- 0x23&#45;&gt;0x1d -->
<g id="edge10" class="edge">
<title>0x23&#45;&gt;0x1d</title>
<path fill="none" stroke="black" d="M91.38,-586.15C85.19,-574.43 80.8,-560.33 84.95,-547.39 86.26,-543.31 88.23,-539.3 90.51,-535.54"/>
<polygon fill="black" stroke="black" points="93.42,-537.49 96.21,-527.27 87.65,-533.52 93.42,-537.49"/>
<text text-anchor="middle" x="99.45" y="-551.19" font-family="Times New Roman,serif" font-size="14.00">ε(19)</text>
</g>
<!-- 0x23&#45;&gt;0x1d -->
<g id="edge13" class="edge">
<title>0x23&#45;&gt;0x1d</title>
<path fill="none" stroke="black" d="M113.4,-580.45C114.15,-569.94 114.56,-558.16 113.95,-547.39 113.8,-544.83 113.6,-542.16 113.35,-539.5"/>
<polygon fill="black" stroke="black" points="116.82,-539.02 112.29,-529.45 109.86,-539.76 116.82,-539.02"/>
<text text-anchor="middle" x="129.45" y="-551.19" font-family="Times New Roman,serif" font-size="14.00">ε(1c)</text>
</g>
</g>
</svg>
