<?xml version="1.0" encoding="UTF-8" standalone="no"?>
<!DOCTYPE svg PUBLIC "-//W3C//DTD SVG 1.1//EN"
 "http://www.w3.org/Graphics/SVG/1.1/DTD/svg11.dtd">
<!-- Generated by graphviz version 3.0.0 (20220226.1711)
 -->
<!-- Pages: 1 -->
<svg width="156pt" height="320pt"
 viewBox="0.00 0.00 156.19 320.19" xmlns="http://www.w3.org/2000/svg" xmlns:xlink="http://www.w3.org/1999/xlink">
<g id="graph0" class="graph" transform="scale(1 1) rotate(0) translate(4 316.19)">
<polygon fill="white" stroke="transparent" points="-4,4 -4,-316.19 152.19,-316.19 152.19,4 -4,4"/>
<!-- fake -->
<g id="node1" class="node">
<title>fake</title>
</g>
<!-- 0x27 -->
<g id="node6" class="node">
<title>0x27</title>
<ellipse fill="none" stroke="black" cx="71.6" cy="-221.19" rx="28.7" ry="18"/>
<text text-anchor="middle" x="71.6" y="-217.49" font-family="Times New Roman,serif" font-size="14.00">0x27</text>
</g>
<!-- fake&#45;&gt;0x27 -->
<g id="edge1" class="edge">
<title>fake&#45;&gt;0x27</title>
<path fill="none" stroke="black" stroke-width="2" d="M71.6,-276.01C71.6,-267.98 71.6,-258.24 71.6,-249.26"/>
<polygon fill="black" stroke="black" stroke-width="2" points="75.1,-249.22 71.6,-239.22 68.1,-249.22 75.1,-249.22"/>
</g>
<!-- 0x18 -->
<g id="node2" class="node">
<title>0x18</title>
<ellipse fill="none" stroke="black" cx="32.6" cy="-32.6" rx="28.68" ry="28.68"/>
<ellipse fill="none" stroke="black" cx="32.6" cy="-32.6" rx="32.7" ry="32.7"/>
<text text-anchor="middle" x="32.6" y="-28.9" font-family="Times New Roman,serif" font-size="14.00">0x18</text>
</g>
<!-- 0x17 -->
<g id="node3" class="node">
<title>0x17</title>
<ellipse fill="none" stroke="black" cx="34.6" cy="-134.19" rx="28.7" ry="18"/>
<text text-anchor="middle" x="34.6" y="-130.49" font-family="Times New Roman,serif" font-size="14.00">0x17</text>
</g>
<!-- 0x17&#45;&gt;0x18 -->
<g id="edge3" class="edge">
<title>0x17&#45;&gt;0x18</title>
<path fill="none" stroke="black" d="M34.25,-115.85C34.02,-104.63 33.72,-89.54 33.44,-75.33"/>
<polygon fill="black" stroke="black" points="36.93,-75.15 33.23,-65.22 29.93,-75.29 36.93,-75.15"/>
<text text-anchor="middle" x="38.6" y="-86.99" font-family="Times New Roman,serif" font-size="14.00">b</text>
</g>
<!-- 0x16 -->
<g id="node4" class="node">
<title>0x16</title>
<ellipse fill="none" stroke="black" cx="115.6" cy="-32.6" rx="28.68" ry="28.68"/>
<ellipse fill="none" stroke="black" cx="115.6" cy="-32.6" rx="32.7" ry="32.7"/>
<text text-anchor="middle" x="115.6" y="-28.9" font-family="Times New Roman,serif" font-size="14.00">0x16</text>
</g>
<!-- 0x15 -->
<g id="node5" class="node">
<title>0x15</title>
<ellipse fill="none" stroke="black" cx="113.6" cy="-134.19" rx="28.7" ry="18"/>
<text text-anchor="middle" x="113.6" y="-130.49" font-family="Times New Roman,serif" font-size="14.00">0x15</text>
</g>
<!-- 0x15&#45;&gt;0x16 -->
<g id="edge2" class="edge">
<title>0x15&#45;&gt;0x16</title>
<path fill="none" stroke="black" d="M113.95,-115.85C114.17,-104.63 114.47,-89.54 114.76,-75.33"/>
<polygon fill="black" stroke="black" points="118.26,-75.29 114.96,-65.22 111.26,-75.15 118.26,-75.29"/>
<text text-anchor="middle" x="118.1" y="-86.99" font-family="Times New Roman,serif" font-size="14.00">a</text>
</g>
<!-- 0x27&#45;&gt;0x17 -->
<g id="edge5" class="edge">
<title>0x27&#45;&gt;0x17</title>
<path fill="none" stroke="black" d="M62.18,-204.07C58.94,-198.22 55.43,-191.5 52.6,-185.19 49.24,-177.7 46.04,-169.38 43.3,-161.7"/>
<polygon fill="black" stroke="black" points="46.55,-160.42 39.97,-152.11 39.94,-162.71 46.55,-160.42"/>
<text text-anchor="middle" x="67.1" y="-173.99" font-family="Times New Roman,serif" font-size="14.00">ε(10)</text>
</g>
<!-- 0x27&#45;&gt;0x15 -->
<g id="edge4" class="edge">
<title>0x27&#45;&gt;0x15</title>
<path fill="none" stroke="black" d="M79.7,-203.81C85.74,-191.58 94.11,-174.64 101.02,-160.65"/>
<polygon fill="black" stroke="black" points="104.23,-162.05 105.52,-151.53 97.96,-158.95 104.23,-162.05"/>
<text text-anchor="middle" x="104.6" y="-173.99" font-family="Times New Roman,serif" font-size="14.00">ε(f)</text>
</g>
</g>
</svg>
