<?xml version="1.0" encoding="UTF-8" standalone="no"?>
<!DOCTYPE svg PUBLIC "-//W3C//DTD SVG 1.1//EN"
 "http://www.w3.org/Graphics/SVG/1.1/DTD/svg11.dtd">
<!-- Generated by graphviz version 3.0.0 (20220226.1711)
 -->
<!-- Pages: 1 -->
<svg width="73pt" height="407pt"
 viewBox="0.00 0.00 73.19 407.19" xmlns="http://www.w3.org/2000/svg" xmlns:xlink="http://www.w3.org/1999/xlink">
<g id="graph0" class="graph" transform="scale(1 1) rotate(0) translate(4 403.19)">
<polygon fill="white" stroke="transparent" points="-4,4 -4,-403.19 69.19,-403.19 69.19,4 -4,4"/>
<!-- fake -->
<g id="node1" class="node">
<title>fake</title>
</g>
<!-- 0xea -->
<g id="node2" class="node">
<title>0xea</title>
<ellipse fill="none" stroke="black" cx="32.6" cy="-308.19" rx="27.1" ry="18"/>
<text text-anchor="middle" x="32.6" y="-304.49" font-family="Times New Roman,serif" font-size="14.00">0xea</text>
</g>
<!-- fake&#45;&gt;0xea -->
<g id="edge1" class="edge">
<title>fake&#45;&gt;0xea</title>
<path fill="none" stroke="black" stroke-width="2" d="M32.6,-363.01C32.6,-354.98 32.6,-345.24 32.6,-336.26"/>
<polygon fill="black" stroke="black" stroke-width="2" points="36.1,-336.22 32.6,-326.22 29.1,-336.22 36.1,-336.22"/>
</g>
<!-- 0xeb -->
<g id="node3" class="node">
<title>0xeb</title>
<ellipse fill="none" stroke="black" cx="32.6" cy="-221.19" rx="28.7" ry="18"/>
<text text-anchor="middle" x="32.6" y="-217.49" font-family="Times New Roman,serif" font-size="14.00">0xeb</text>
</g>
<!-- 0xea&#45;&gt;0xeb -->
<g id="edge2" class="edge">
<title>0xea&#45;&gt;0xeb</title>
<path fill="none" stroke="black" d="M32.6,-289.99C32.6,-278.36 32.6,-262.74 32.6,-249.43"/>
<polygon fill="black" stroke="black" points="36.1,-249.37 32.6,-239.37 29.1,-249.37 36.1,-249.37"/>
<text text-anchor="middle" x="34.6" y="-260.99" font-family="Times New Roman,serif" font-size="14.00">&#39;</text>
</g>
<!-- 0xec -->
<g id="node4" class="node">
<title>0xec</title>
<ellipse fill="none" stroke="black" cx="32.6" cy="-134.19" rx="27.9" ry="18"/>
<text text-anchor="middle" x="32.6" y="-130.49" font-family="Times New Roman,serif" font-size="14.00">0xec</text>
</g>
<!-- 0xeb&#45;&gt;0xec -->
<g id="edge4" class="edge">
<title>0xeb&#45;&gt;0xec</title>
<path fill="none" stroke="black" d="M32.6,-202.99C32.6,-191.36 32.6,-175.74 32.6,-162.43"/>
<polygon fill="black" stroke="black" points="36.1,-162.37 32.6,-152.37 29.1,-162.37 36.1,-162.37"/>
<text text-anchor="middle" x="47.1" y="-173.99" font-family="Times New Roman,serif" font-size="14.00">ε(62)</text>
</g>
<!-- 0xed -->
<g id="node5" class="node">
<title>0xed</title>
<ellipse fill="none" stroke="black" cx="32.6" cy="-32.6" rx="28.68" ry="28.68"/>
<ellipse fill="none" stroke="black" cx="32.6" cy="-32.6" rx="32.7" ry="32.7"/>
<text text-anchor="middle" x="32.6" y="-28.9" font-family="Times New Roman,serif" font-size="14.00">0xed</text>
</g>
<!-- 0xec&#45;&gt;0xed -->
<g id="edge3" class="edge">
<title>0xec&#45;&gt;0xed</title>
<path fill="none" stroke="black" d="M32.6,-115.85C32.6,-104.63 32.6,-89.54 32.6,-75.33"/>
<polygon fill="black" stroke="black" points="36.1,-75.22 32.6,-65.22 29.1,-75.22 36.1,-75.22"/>
<text text-anchor="middle" x="34.6" y="-86.99" font-family="Times New Roman,serif" font-size="14.00">&#39;</text>
</g>
</g>
</svg>
