<?xml version="1.0" encoding="UTF-8" standalone="no"?>
<!DOCTYPE svg PUBLIC "-//W3C//DTD SVG 1.1//EN"
 "http://www.w3.org/Graphics/SVG/1.1/DTD/svg11.dtd">
<!-- Generated by graphviz version 3.0.0 (20220226.1711)
 -->
<!-- Pages: 1 -->
<svg width="82pt" height="416pt"
 viewBox="0.00 0.00 82.29 416.29" xmlns="http://www.w3.org/2000/svg" xmlns:xlink="http://www.w3.org/1999/xlink">
<g id="graph0" class="graph" transform="scale(1 1) rotate(0) translate(4 412.29)">
<polygon fill="white" stroke="transparent" points="-4,4 -4,-412.29 78.29,-412.29 78.29,4 -4,4"/>
<!-- fake -->
<g id="node1" class="node">
<title>fake</title>
</g>
<!-- 0x26a -->
<g id="node2" class="node">
<title>0x26a</title>
<ellipse fill="none" stroke="black" cx="37.15" cy="-317.29" rx="32.49" ry="18"/>
<text text-anchor="middle" x="37.15" y="-313.59" font-family="Times New Roman,serif" font-size="14.00">0x26a</text>
</g>
<!-- fake&#45;&gt;0x26a -->
<g id="edge1" class="edge">
<title>fake&#45;&gt;0x26a</title>
<path fill="none" stroke="black" stroke-width="2" d="M37.15,-372.11C37.15,-364.08 37.15,-354.34 37.15,-345.36"/>
<polygon fill="black" stroke="black" stroke-width="2" points="40.65,-345.32 37.15,-335.32 33.65,-345.32 40.65,-345.32"/>
</g>
<!-- 0x26b -->
<g id="node3" class="node">
<title>0x26b</title>
<ellipse fill="none" stroke="black" cx="37.15" cy="-230.29" rx="33.29" ry="18"/>
<text text-anchor="middle" x="37.15" y="-226.59" font-family="Times New Roman,serif" font-size="14.00">0x26b</text>
</g>
<!-- 0x26a&#45;&gt;0x26b -->
<g id="edge2" class="edge">
<title>0x26a&#45;&gt;0x26b</title>
<path fill="none" stroke="black" d="M37.15,-299.09C37.15,-287.46 37.15,-271.84 37.15,-258.53"/>
<polygon fill="black" stroke="black" points="40.65,-258.47 37.15,-248.47 33.65,-258.47 40.65,-258.47"/>
<text text-anchor="middle" x="39.15" y="-270.09" font-family="Times New Roman,serif" font-size="14.00">&#39;</text>
</g>
<!-- 0x26c -->
<g id="node4" class="node">
<title>0x26c</title>
<ellipse fill="none" stroke="black" cx="37.15" cy="-143.29" rx="32.49" ry="18"/>
<text text-anchor="middle" x="37.15" y="-139.59" font-family="Times New Roman,serif" font-size="14.00">0x26c</text>
</g>
<!-- 0x26b&#45;&gt;0x26c -->
<g id="edge4" class="edge">
<title>0x26b&#45;&gt;0x26c</title>
<path fill="none" stroke="black" d="M37.15,-212.09C37.15,-200.46 37.15,-184.84 37.15,-171.53"/>
<polygon fill="black" stroke="black" points="40.65,-171.47 37.15,-161.47 33.65,-171.47 40.65,-171.47"/>
<text text-anchor="middle" x="55.15" y="-183.09" font-family="Times New Roman,serif" font-size="14.00">ε(102)</text>
</g>
<!-- 0x26d -->
<g id="node5" class="node">
<title>0x26d</title>
<ellipse fill="none" stroke="black" cx="37.15" cy="-37.15" rx="33.28" ry="33.28"/>
<ellipse fill="none" stroke="black" cx="37.15" cy="-37.15" rx="37.29" ry="37.29"/>
<text text-anchor="middle" x="37.15" y="-33.45" font-family="Times New Roman,serif" font-size="14.00">0x26d</text>
</g>
<!-- 0x26c&#45;&gt;0x26d -->
<g id="edge3" class="edge">
<title>0x26c&#45;&gt;0x26d</title>
<path fill="none" stroke="black" d="M37.15,-125.1C37.15,-114.03 37.15,-99.08 37.15,-84.69"/>
<polygon fill="black" stroke="black" points="40.65,-84.39 37.15,-74.39 33.65,-84.39 40.65,-84.39"/>
<text text-anchor="middle" x="39.15" y="-96.09" font-family="Times New Roman,serif" font-size="14.00">&#39;</text>
</g>
</g>
</svg>
