<?xml version="1.0" encoding="UTF-8" standalone="no"?>
<!DOCTYPE svg PUBLIC "-//W3C//DTD SVG 1.1//EN"
 "http://www.w3.org/Graphics/SVG/1.1/DTD/svg11.dtd">
<!-- Generated by graphviz version 3.0.0 (20220226.1711)
 -->
<!-- Pages: 1 -->
<svg width="81pt" height="415pt"
 viewBox="0.00 0.00 80.99 414.99" xmlns="http://www.w3.org/2000/svg" xmlns:xlink="http://www.w3.org/1999/xlink">
<g id="graph0" class="graph" transform="scale(1 1) rotate(0) translate(4 410.99)">
<polygon fill="white" stroke="transparent" points="-4,4 -4,-410.99 76.99,-410.99 76.99,4 -4,4"/>
<!-- fake -->
<g id="node1" class="node">
<title>fake</title>
</g>
<!-- 0x432 -->
<g id="node2" class="node">
<title>0x432</title>
<ellipse fill="none" stroke="black" cx="36.5" cy="-315.99" rx="32.49" ry="18"/>
<text text-anchor="middle" x="36.5" y="-312.29" font-family="Times New Roman,serif" font-size="14.00">0x432</text>
</g>
<!-- fake&#45;&gt;0x432 -->
<g id="edge1" class="edge">
<title>fake&#45;&gt;0x432</title>
<path fill="none" stroke="black" stroke-width="2" d="M36.5,-370.81C36.5,-362.78 36.5,-353.04 36.5,-344.06"/>
<polygon fill="black" stroke="black" stroke-width="2" points="40,-344.02 36.5,-334.02 33,-344.02 40,-344.02"/>
</g>
<!-- 0x433 -->
<g id="node3" class="node">
<title>0x433</title>
<ellipse fill="none" stroke="black" cx="36.5" cy="-228.99" rx="32.49" ry="18"/>
<text text-anchor="middle" x="36.5" y="-225.29" font-family="Times New Roman,serif" font-size="14.00">0x433</text>
</g>
<!-- 0x432&#45;&gt;0x433 -->
<g id="edge2" class="edge">
<title>0x432&#45;&gt;0x433</title>
<path fill="none" stroke="black" d="M36.5,-297.79C36.5,-286.16 36.5,-270.54 36.5,-257.23"/>
<polygon fill="black" stroke="black" points="40,-257.17 36.5,-247.17 33,-257.17 40,-257.17"/>
<text text-anchor="middle" x="38.5" y="-268.79" font-family="Times New Roman,serif" font-size="14.00">&#39;</text>
</g>
<!-- 0x434 -->
<g id="node4" class="node">
<title>0x434</title>
<ellipse fill="none" stroke="black" cx="36.5" cy="-141.99" rx="32.49" ry="18"/>
<text text-anchor="middle" x="36.5" y="-138.29" font-family="Times New Roman,serif" font-size="14.00">0x434</text>
</g>
<!-- 0x433&#45;&gt;0x434 -->
<g id="edge4" class="edge">
<title>0x433&#45;&gt;0x434</title>
<path fill="none" stroke="black" d="M36.5,-210.79C36.5,-199.16 36.5,-183.54 36.5,-170.23"/>
<polygon fill="black" stroke="black" points="40,-170.17 36.5,-160.17 33,-170.17 40,-170.17"/>
<text text-anchor="middle" x="54.5" y="-181.79" font-family="Times New Roman,serif" font-size="14.00">ε(1c0)</text>
</g>
<!-- 0x435 -->
<g id="node5" class="node">
<title>0x435</title>
<ellipse fill="none" stroke="black" cx="36.5" cy="-36.5" rx="32.49" ry="32.49"/>
<ellipse fill="none" stroke="black" cx="36.5" cy="-36.5" rx="36.49" ry="36.49"/>
<text text-anchor="middle" x="36.5" y="-32.8" font-family="Times New Roman,serif" font-size="14.00">0x435</text>
</g>
<!-- 0x434&#45;&gt;0x435 -->
<g id="edge3" class="edge">
<title>0x434&#45;&gt;0x435</title>
<path fill="none" stroke="black" d="M36.5,-123.9C36.5,-112.82 36.5,-97.8 36.5,-83.39"/>
<polygon fill="black" stroke="black" points="40,-83.08 36.5,-73.08 33,-83.08 40,-83.08"/>
<text text-anchor="middle" x="38.5" y="-94.79" font-family="Times New Roman,serif" font-size="14.00">&#39;</text>
</g>
</g>
</svg>
