<?xml version="1.0" encoding="UTF-8" standalone="no"?>
<!DOCTYPE svg PUBLIC "-//W3C//DTD SVG 1.1//EN"
 "http://www.w3.org/Graphics/SVG/1.1/DTD/svg11.dtd">
<!-- Generated by graphviz version 3.0.0 (20220226.1711)
 -->
<!-- Pages: 1 -->
<svg width="80pt" height="414pt"
 viewBox="0.00 0.00 79.69 413.69" xmlns="http://www.w3.org/2000/svg" xmlns:xlink="http://www.w3.org/1999/xlink">
<g id="graph0" class="graph" transform="scale(1 1) rotate(0) translate(4 409.69)">
<polygon fill="white" stroke="transparent" points="-4,4 -4,-409.69 75.69,-409.69 75.69,4 -4,4"/>
<!-- fake -->
<g id="node1" class="node">
<title>fake</title>
</g>
<!-- 0x5fa -->
<g id="node2" class="node">
<title>0x5fa</title>
<ellipse fill="none" stroke="black" cx="35.85" cy="-314.69" rx="30.59" ry="18"/>
<text text-anchor="middle" x="35.85" y="-310.99" font-family="Times New Roman,serif" font-size="14.00">0x5fa</text>
</g>
<!-- fake&#45;&gt;0x5fa -->
<g id="edge1" class="edge">
<title>fake&#45;&gt;0x5fa</title>
<path fill="none" stroke="black" stroke-width="2" d="M35.85,-369.51C35.85,-361.48 35.85,-351.74 35.85,-342.76"/>
<polygon fill="black" stroke="black" stroke-width="2" points="39.35,-342.72 35.85,-332.72 32.35,-342.72 39.35,-342.72"/>
</g>
<!-- 0x5fb -->
<g id="node3" class="node">
<title>0x5fb</title>
<ellipse fill="none" stroke="black" cx="35.85" cy="-227.69" rx="31.7" ry="18"/>
<text text-anchor="middle" x="35.85" y="-223.99" font-family="Times New Roman,serif" font-size="14.00">0x5fb</text>
</g>
<!-- 0x5fa&#45;&gt;0x5fb -->
<g id="edge2" class="edge">
<title>0x5fa&#45;&gt;0x5fb</title>
<path fill="none" stroke="black" d="M35.85,-296.49C35.85,-284.86 35.85,-269.24 35.85,-255.93"/>
<polygon fill="black" stroke="black" points="39.35,-255.87 35.85,-245.87 32.35,-255.87 39.35,-255.87"/>
<text text-anchor="middle" x="37.85" y="-267.49" font-family="Times New Roman,serif" font-size="14.00">&#39;</text>
</g>
<!-- 0x5fc -->
<g id="node4" class="node">
<title>0x5fc</title>
<ellipse fill="none" stroke="black" cx="35.85" cy="-140.69" rx="31.4" ry="18"/>
<text text-anchor="middle" x="35.85" y="-136.99" font-family="Times New Roman,serif" font-size="14.00">0x5fc</text>
</g>
<!-- 0x5fb&#45;&gt;0x5fc -->
<g id="edge4" class="edge">
<title>0x5fb&#45;&gt;0x5fc</title>
<path fill="none" stroke="black" d="M35.85,-209.49C35.85,-197.86 35.85,-182.24 35.85,-168.93"/>
<polygon fill="black" stroke="black" points="39.35,-168.87 35.85,-158.87 32.35,-168.87 39.35,-168.87"/>
<text text-anchor="middle" x="53.35" y="-180.49" font-family="Times New Roman,serif" font-size="14.00">ε(27e)</text>
</g>
<!-- 0x5fd -->
<g id="node5" class="node">
<title>0x5fd</title>
<ellipse fill="none" stroke="black" cx="35.85" cy="-35.85" rx="31.71" ry="31.71"/>
<ellipse fill="none" stroke="black" cx="35.85" cy="-35.85" rx="35.69" ry="35.69"/>
<text text-anchor="middle" x="35.85" y="-32.15" font-family="Times New Roman,serif" font-size="14.00">0x5fd</text>
</g>
<!-- 0x5fc&#45;&gt;0x5fd -->
<g id="edge3" class="edge">
<title>0x5fc&#45;&gt;0x5fd</title>
<path fill="none" stroke="black" d="M35.85,-122.25C35.85,-111.18 35.85,-96.31 35.85,-82.08"/>
<polygon fill="black" stroke="black" points="39.35,-81.9 35.85,-71.9 32.35,-81.9 39.35,-81.9"/>
<text text-anchor="middle" x="37.85" y="-93.49" font-family="Times New Roman,serif" font-size="14.00">&#39;</text>
</g>
</g>
</svg>
