<?xml version="1.0" encoding="UTF-8" standalone="no"?>
<!DOCTYPE svg PUBLIC "-//W3C//DTD SVG 1.1//EN"
 "http://www.w3.org/Graphics/SVG/1.1/DTD/svg11.dtd">
<!-- Generated by graphviz version 3.0.0 (20220226.1711)
 -->
<!-- Pages: 1 -->
<svg width="84pt" height="418pt"
 viewBox="0.00 0.00 83.59 417.59" xmlns="http://www.w3.org/2000/svg" xmlns:xlink="http://www.w3.org/1999/xlink">
<g id="graph0" class="graph" transform="scale(1 1) rotate(0) translate(4 413.59)">
<polygon fill="white" stroke="transparent" points="-4,4 -4,-413.59 79.59,-413.59 79.59,4 -4,4"/>
<!-- fake -->
<g id="node1" class="node">
<title>fake</title>
</g>
<!-- 0x6ba -->
<g id="node2" class="node">
<title>0x6ba</title>
<ellipse fill="none" stroke="black" cx="37.8" cy="-318.59" rx="32.49" ry="18"/>
<text text-anchor="middle" x="37.8" y="-314.89" font-family="Times New Roman,serif" font-size="14.00">0x6ba</text>
</g>
<!-- fake&#45;&gt;0x6ba -->
<g id="edge1" class="edge">
<title>fake&#45;&gt;0x6ba</title>
<path fill="none" stroke="black" stroke-width="2" d="M37.8,-373.41C37.8,-365.38 37.8,-355.64 37.8,-346.66"/>
<polygon fill="black" stroke="black" stroke-width="2" points="41.3,-346.62 37.8,-336.62 34.3,-346.62 41.3,-346.62"/>
</g>
<!-- 0x6bb -->
<g id="node3" class="node">
<title>0x6bb</title>
<ellipse fill="none" stroke="black" cx="37.8" cy="-231.59" rx="33.6" ry="18"/>
<text text-anchor="middle" x="37.8" y="-227.89" font-family="Times New Roman,serif" font-size="14.00">0x6bb</text>
</g>
<!-- 0x6ba&#45;&gt;0x6bb -->
<g id="edge2" class="edge">
<title>0x6ba&#45;&gt;0x6bb</title>
<path fill="none" stroke="black" d="M37.8,-300.39C37.8,-288.76 37.8,-273.14 37.8,-259.83"/>
<polygon fill="black" stroke="black" points="41.3,-259.77 37.8,-249.77 34.3,-259.77 41.3,-259.77"/>
<text text-anchor="middle" x="39.8" y="-271.39" font-family="Times New Roman,serif" font-size="14.00">&#39;</text>
</g>
<!-- 0x6bc -->
<g id="node4" class="node">
<title>0x6bc</title>
<ellipse fill="none" stroke="black" cx="37.8" cy="-144.59" rx="33.29" ry="18"/>
<text text-anchor="middle" x="37.8" y="-140.89" font-family="Times New Roman,serif" font-size="14.00">0x6bc</text>
</g>
<!-- 0x6bb&#45;&gt;0x6bc -->
<g id="edge4" class="edge">
<title>0x6bb&#45;&gt;0x6bc</title>
<path fill="none" stroke="black" d="M37.8,-213.39C37.8,-201.76 37.8,-186.14 37.8,-172.83"/>
<polygon fill="black" stroke="black" points="41.3,-172.77 37.8,-162.77 34.3,-172.77 41.3,-172.77"/>
<text text-anchor="middle" x="55.3" y="-184.39" font-family="Times New Roman,serif" font-size="14.00">ε(2ce)</text>
</g>
<!-- 0x6bd -->
<g id="node5" class="node">
<title>0x6bd</title>
<ellipse fill="none" stroke="black" cx="37.8" cy="-37.8" rx="33.62" ry="33.62"/>
<ellipse fill="none" stroke="black" cx="37.8" cy="-37.8" rx="37.6" ry="37.6"/>
<text text-anchor="middle" x="37.8" y="-34.1" font-family="Times New Roman,serif" font-size="14.00">0x6bd</text>
</g>
<!-- 0x6bc&#45;&gt;0x6bd -->
<g id="edge3" class="edge">
<title>0x6bc&#45;&gt;0x6bd</title>
<path fill="none" stroke="black" d="M37.8,-126.29C37.8,-115.25 37.8,-100.36 37.8,-86"/>
<polygon fill="black" stroke="black" points="41.3,-85.7 37.8,-75.7 34.3,-85.7 41.3,-85.7"/>
<text text-anchor="middle" x="39.8" y="-97.39" font-family="Times New Roman,serif" font-size="14.00">&#39;</text>
</g>
</g>
</svg>
