<?xml version="1.0" encoding="UTF-8" standalone="no"?>
<!DOCTYPE svg PUBLIC "-//W3C//DTD SVG 1.1//EN"
 "http://www.w3.org/Graphics/SVG/1.1/DTD/svg11.dtd">
<!-- Generated by graphviz version 3.0.0 (20220226.1711)
 -->
<!-- Pages: 1 -->
<svg width="79pt" height="412pt"
 viewBox="0.00 0.00 79.20 412.39" xmlns="http://www.w3.org/2000/svg" xmlns:xlink="http://www.w3.org/1999/xlink">
<g id="graph0" class="graph" transform="scale(1 1) rotate(0) translate(4 408.39)">
<polygon fill="white" stroke="transparent" points="-4,4 -4,-408.39 75.2,-408.39 75.2,4 -4,4"/>
<!-- fake -->
<g id="node1" class="node">
<title>fake</title>
</g>
<!-- 0x7f2 -->
<g id="node2" class="node">
<title>0x7f2</title>
<ellipse fill="none" stroke="black" cx="35.2" cy="-313.39" rx="31.4" ry="18"/>
<text text-anchor="middle" x="35.2" y="-309.69" font-family="Times New Roman,serif" font-size="14.00">0x7f2</text>
</g>
<!-- fake&#45;&gt;0x7f2 -->
<g id="edge1" class="edge">
<title>fake&#45;&gt;0x7f2</title>
<path fill="none" stroke="black" stroke-width="2" d="M35.2,-368.21C35.2,-360.18 35.2,-350.44 35.2,-341.46"/>
<polygon fill="black" stroke="black" stroke-width="2" points="38.7,-341.42 35.2,-331.42 31.7,-341.42 38.7,-341.42"/>
</g>
<!-- 0x7f3 -->
<g id="node3" class="node">
<title>0x7f3</title>
<ellipse fill="none" stroke="black" cx="35.2" cy="-226.39" rx="31.4" ry="18"/>
<text text-anchor="middle" x="35.2" y="-222.69" font-family="Times New Roman,serif" font-size="14.00">0x7f3</text>
</g>
<!-- 0x7f2&#45;&gt;0x7f3 -->
<g id="edge2" class="edge">
<title>0x7f2&#45;&gt;0x7f3</title>
<path fill="none" stroke="black" d="M35.2,-295.19C35.2,-283.56 35.2,-267.94 35.2,-254.63"/>
<polygon fill="black" stroke="black" points="38.7,-254.57 35.2,-244.57 31.7,-254.57 38.7,-254.57"/>
<text text-anchor="middle" x="37.2" y="-266.19" font-family="Times New Roman,serif" font-size="14.00">&#39;</text>
</g>
<!-- 0x7f4 -->
<g id="node4" class="node">
<title>0x7f4</title>
<ellipse fill="none" stroke="black" cx="35.2" cy="-139.39" rx="31.4" ry="18"/>
<text text-anchor="middle" x="35.2" y="-135.69" font-family="Times New Roman,serif" font-size="14.00">0x7f4</text>
</g>
<!-- 0x7f3&#45;&gt;0x7f4 -->
<g id="edge4" class="edge">
<title>0x7f3&#45;&gt;0x7f4</title>
<path fill="none" stroke="black" d="M35.2,-208.19C35.2,-196.56 35.2,-180.94 35.2,-167.63"/>
<polygon fill="black" stroke="black" points="38.7,-167.57 35.2,-157.57 31.7,-167.57 38.7,-167.57"/>
<text text-anchor="middle" x="53.2" y="-179.19" font-family="Times New Roman,serif" font-size="14.00">ε(350)</text>
</g>
<!-- 0x7f5 -->
<g id="node5" class="node">
<title>0x7f5</title>
<ellipse fill="none" stroke="black" cx="35.2" cy="-35.2" rx="31.37" ry="31.37"/>
<ellipse fill="none" stroke="black" cx="35.2" cy="-35.2" rx="35.4" ry="35.4"/>
<text text-anchor="middle" x="35.2" y="-31.5" font-family="Times New Roman,serif" font-size="14.00">0x7f5</text>
</g>
<!-- 0x7f4&#45;&gt;0x7f5 -->
<g id="edge3" class="edge">
<title>0x7f4&#45;&gt;0x7f5</title>
<path fill="none" stroke="black" d="M35.2,-121.06C35.2,-109.97 35.2,-95.04 35.2,-80.79"/>
<polygon fill="black" stroke="black" points="38.7,-80.61 35.2,-70.61 31.7,-80.61 38.7,-80.61"/>
<text text-anchor="middle" x="37.2" y="-92.19" font-family="Times New Roman,serif" font-size="14.00">&#39;</text>
</g>
</g>
</svg>
