<?xml version="1.0" encoding="UTF-8" standalone="no"?>
<!DOCTYPE svg PUBLIC "-//W3C//DTD SVG 1.1//EN"
 "http://www.w3.org/Graphics/SVG/1.1/DTD/svg11.dtd">
<!-- Generated by graphviz version 3.0.0 (20220226.1711)
 -->
<!-- Pages: 1 -->
<svg width="72pt" height="406pt"
 viewBox="0.00 0.00 71.90 405.90" xmlns="http://www.w3.org/2000/svg" xmlns:xlink="http://www.w3.org/1999/xlink">
<g id="graph0" class="graph" transform="scale(1 1) rotate(0) translate(4 401.9)">
<polygon fill="white" stroke="transparent" points="-4,4 -4,-401.9 67.9,-401.9 67.9,4 -4,4"/>
<!-- fake -->
<g id="node1" class="node">
<title>fake</title>
</g>
<!-- 0xa2 -->
<g id="node2" class="node">
<title>0xa2</title>
<ellipse fill="none" stroke="black" cx="31.95" cy="-306.9" rx="27.9" ry="18"/>
<text text-anchor="middle" x="31.95" y="-303.2" font-family="Times New Roman,serif" font-size="14.00">0xa2</text>
</g>
<!-- fake&#45;&gt;0xa2 -->
<g id="edge1" class="edge">
<title>fake&#45;&gt;0xa2</title>
<path fill="none" stroke="black" stroke-width="2" d="M31.95,-361.71C31.95,-353.68 31.95,-343.94 31.95,-334.96"/>
<polygon fill="black" stroke="black" stroke-width="2" points="35.45,-334.92 31.95,-324.92 28.45,-334.92 35.45,-334.92"/>
</g>
<!-- 0xa3 -->
<g id="node3" class="node">
<title>0xa3</title>
<ellipse fill="none" stroke="black" cx="31.95" cy="-219.9" rx="27.9" ry="18"/>
<text text-anchor="middle" x="31.95" y="-216.2" font-family="Times New Roman,serif" font-size="14.00">0xa3</text>
</g>
<!-- 0xa2&#45;&gt;0xa3 -->
<g id="edge2" class="edge">
<title>0xa2&#45;&gt;0xa3</title>
<path fill="none" stroke="black" d="M31.95,-288.69C31.95,-277.06 31.95,-261.44 31.95,-248.13"/>
<polygon fill="black" stroke="black" points="35.45,-248.07 31.95,-238.07 28.45,-248.07 35.45,-248.07"/>
<text text-anchor="middle" x="33.95" y="-259.7" font-family="Times New Roman,serif" font-size="14.00">&#39;</text>
</g>
<!-- 0xa4 -->
<g id="node4" class="node">
<title>0xa4</title>
<ellipse fill="none" stroke="black" cx="31.95" cy="-132.9" rx="27.9" ry="18"/>
<text text-anchor="middle" x="31.95" y="-129.2" font-family="Times New Roman,serif" font-size="14.00">0xa4</text>
</g>
<!-- 0xa3&#45;&gt;0xa4 -->
<g id="edge4" class="edge">
<title>0xa3&#45;&gt;0xa4</title>
<path fill="none" stroke="black" d="M31.95,-201.69C31.95,-190.06 31.95,-174.44 31.95,-161.13"/>
<polygon fill="black" stroke="black" points="35.45,-161.07 31.95,-151.07 28.45,-161.07 35.45,-161.07"/>
<text text-anchor="middle" x="46.45" y="-172.7" font-family="Times New Roman,serif" font-size="14.00">ε(44)</text>
</g>
<!-- 0xa5 -->
<g id="node5" class="node">
<title>0xa5</title>
<ellipse fill="none" stroke="black" cx="31.95" cy="-31.95" rx="27.9" ry="27.9"/>
<ellipse fill="none" stroke="black" cx="31.95" cy="-31.95" rx="31.9" ry="31.9"/>
<text text-anchor="middle" x="31.95" y="-28.25" font-family="Times New Roman,serif" font-size="14.00">0xa5</text>
</g>
<!-- 0xa4&#45;&gt;0xa5 -->
<g id="edge3" class="edge">
<title>0xa4&#45;&gt;0xa5</title>
<path fill="none" stroke="black" d="M31.95,-114.66C31.95,-103.43 31.95,-88.28 31.95,-74.07"/>
<polygon fill="black" stroke="black" points="35.45,-73.97 31.95,-63.97 28.45,-73.97 35.45,-73.97"/>
<text text-anchor="middle" x="33.95" y="-85.7" font-family="Times New Roman,serif" font-size="14.00">&#39;</text>
</g>
</g>
</svg>
