<?xml version="1.0" encoding="UTF-8" standalone="no"?>
<!DOCTYPE svg PUBLIC "-//W3C//DTD SVG 1.1//EN"
 "http://www.w3.org/Graphics/SVG/1.1/DTD/svg11.dtd">
<!-- Generated by graphviz version 3.0.0 (20220226.1711)
 -->
<!-- Pages: 1 -->
<svg width="74pt" height="408pt"
 viewBox="0.00 0.00 74.49 408.49" xmlns="http://www.w3.org/2000/svg" xmlns:xlink="http://www.w3.org/1999/xlink">
<g id="graph0" class="graph" transform="scale(1 1) rotate(0) translate(4 404.49)">
<polygon fill="white" stroke="transparent" points="-4,4 -4,-404.49 70.49,-404.49 70.49,4 -4,4"/>
<!-- fake -->
<g id="node1" class="node">
<title>fake</title>
</g>
<!-- 0xba -->
<g id="node2" class="node">
<title>0xba</title>
<ellipse fill="none" stroke="black" cx="33.25" cy="-309.49" rx="28.7" ry="18"/>
<text text-anchor="middle" x="33.25" y="-305.79" font-family="Times New Roman,serif" font-size="14.00">0xba</text>
</g>
<!-- fake&#45;&gt;0xba -->
<g id="edge1" class="edge">
<title>fake&#45;&gt;0xba</title>
<path fill="none" stroke="black" stroke-width="2" d="M33.25,-364.31C33.25,-356.28 33.25,-346.54 33.25,-337.56"/>
<polygon fill="black" stroke="black" stroke-width="2" points="36.75,-337.52 33.25,-327.52 29.75,-337.52 36.75,-337.52"/>
</g>
<!-- 0xbb -->
<g id="node3" class="node">
<title>0xbb</title>
<ellipse fill="none" stroke="black" cx="33.25" cy="-222.49" rx="29.5" ry="18"/>
<text text-anchor="middle" x="33.25" y="-218.79" font-family="Times New Roman,serif" font-size="14.00">0xbb</text>
</g>
<!-- 0xba&#45;&gt;0xbb -->
<g id="edge2" class="edge">
<title>0xba&#45;&gt;0xbb</title>
<path fill="none" stroke="black" d="M33.25,-291.29C33.25,-279.66 33.25,-264.04 33.25,-250.73"/>
<polygon fill="black" stroke="black" points="36.75,-250.67 33.25,-240.67 29.75,-250.67 36.75,-250.67"/>
<text text-anchor="middle" x="35.25" y="-262.29" font-family="Times New Roman,serif" font-size="14.00">&#39;</text>
</g>
<!-- 0xbc -->
<g id="node4" class="node">
<title>0xbc</title>
<ellipse fill="none" stroke="black" cx="33.25" cy="-135.49" rx="28.7" ry="18"/>
<text text-anchor="middle" x="33.25" y="-131.79" font-family="Times New Roman,serif" font-size="14.00">0xbc</text>
</g>
<!-- 0xbb&#45;&gt;0xbc -->
<g id="edge4" class="edge">
<title>0xbb&#45;&gt;0xbc</title>
<path fill="none" stroke="black" d="M33.25,-204.29C33.25,-192.66 33.25,-177.04 33.25,-163.73"/>
<polygon fill="black" stroke="black" points="36.75,-163.67 33.25,-153.67 29.75,-163.67 36.75,-163.67"/>
<text text-anchor="middle" x="47.25" y="-175.29" font-family="Times New Roman,serif" font-size="14.00">ε(4e)</text>
</g>
<!-- 0xbd -->
<g id="node5" class="node">
<title>0xbd</title>
<ellipse fill="none" stroke="black" cx="33.25" cy="-33.25" rx="29.47" ry="29.47"/>
<ellipse fill="none" stroke="black" cx="33.25" cy="-33.25" rx="33.5" ry="33.5"/>
<text text-anchor="middle" x="33.25" y="-29.55" font-family="Times New Roman,serif" font-size="14.00">0xbd</text>
</g>
<!-- 0xbc&#45;&gt;0xbd -->
<g id="edge3" class="edge">
<title>0xbc&#45;&gt;0xbd</title>
<path fill="none" stroke="black" d="M33.25,-117.49C33.25,-106.34 33.25,-91.24 33.25,-76.96"/>
<polygon fill="black" stroke="black" points="36.75,-76.77 33.25,-66.77 29.75,-76.77 36.75,-76.77"/>
<text text-anchor="middle" x="35.25" y="-88.29" font-family="Times New Roman,serif" font-size="14.00">&#39;</text>
</g>
</g>
</svg>
