<?xml version="1.0" encoding="UTF-8" standalone="no"?>
<!DOCTYPE svg PUBLIC "-//W3C//DTD SVG 1.1//EN"
 "http://www.w3.org/Graphics/SVG/1.1/DTD/svg11.dtd">
<!-- Generated by graphviz version 2.50.0 (20211204.2007)
 -->
<!-- Pages: 1 -->
<svg width="64pt" height="224pt"
 viewBox="0.00 0.00 64.10 224.10" xmlns="http://www.w3.org/2000/svg" xmlns:xlink="http://www.w3.org/1999/xlink">
<g id="graph0" class="graph" transform="scale(1 1) rotate(0) translate(4 220.1)">
<polygon fill="white" stroke="transparent" points="-4,4 -4,-220.1 60.1,-220.1 60.1,4 -4,4"/>
<!-- fake -->
<g id="node1" class="node">
<title>fake</title>
</g>
<!-- 0x0 -->
<g id="node2" class="node">
<title>0x0</title>
<ellipse fill="none" stroke="black" cx="28.05" cy="-125.1" rx="27" ry="18"/>
<text text-anchor="middle" x="28.05" y="-121.4" font-family="Times New Roman,serif" font-size="14.00">0x0</text>
</g>
<!-- fake&#45;&gt;0x0 -->
<g id="edge1" class="edge">
<title>fake&#45;&gt;0x0</title>
<path fill="none" stroke="black" stroke-width="2" d="M28.05,-179.91C28.05,-171.89 28.05,-162.14 28.05,-153.16"/>
<polygon fill="black" stroke="black" stroke-width="2" points="31.55,-153.12 28.05,-143.12 24.55,-153.12 31.55,-153.12"/>
</g>
<!-- 0x1 -->
<g id="node3" class="node">
<title>0x1</title>
<ellipse fill="none" stroke="black" cx="28.05" cy="-28.05" rx="24.09" ry="24.09"/>
<ellipse fill="none" stroke="black" cx="28.05" cy="-28.05" rx="28.1" ry="28.1"/>
<text text-anchor="middle" x="28.05" y="-24.35" font-family="Times New Roman,serif" font-size="14.00">0x1</text>
</g>
<!-- 0x0&#45;&gt;0x1 -->
<g id="edge2" class="edge">
<title>0x0&#45;&gt;0x1</title>
<path fill="none" stroke="black" d="M28.05,-106.66C28.05,-95.47 28.05,-80.5 28.05,-66.7"/>
<polygon fill="black" stroke="black" points="31.55,-66.45 28.05,-56.45 24.55,-66.45 31.55,-66.45"/>
<text text-anchor="middle" x="31.55" y="-77.9" font-family="Times New Roman,serif" font-size="14.00">a</text>
</g>
</g>
</svg>
