<?xml version="1.0" encoding="UTF-8" standalone="no"?>
<!DOCTYPE svg PUBLIC "-//W3C//DTD SVG 1.1//EN"
 "http://www.w3.org/Graphics/SVG/1.1/DTD/svg11.dtd">
<!-- Generated by graphviz version 3.0.0 (20220226.1711)
 -->
<!-- Pages: 1 -->
<svg width="73pt" height="233pt"
 viewBox="0.00 0.00 73.19 233.19" xmlns="http://www.w3.org/2000/svg" xmlns:xlink="http://www.w3.org/1999/xlink">
<g id="graph0" class="graph" transform="scale(1 1) rotate(0) translate(4 229.19)">
<polygon fill="white" stroke="transparent" points="-4,4 -4,-229.19 69.19,-229.19 69.19,4 -4,4"/>
<!-- fake -->
<g id="node1" class="node">
<title>fake</title>
</g>
<!-- 0x25 -->
<g id="node2" class="node">
<title>0x25</title>
<ellipse fill="none" stroke="black" cx="32.6" cy="-134.19" rx="28.7" ry="18"/>
<text text-anchor="middle" x="32.6" y="-130.49" font-family="Times New Roman,serif" font-size="14.00">0x25</text>
</g>
<!-- fake&#45;&gt;0x25 -->
<g id="edge1" class="edge">
<title>fake&#45;&gt;0x25</title>
<path fill="none" stroke="black" stroke-width="2" d="M32.6,-189.01C32.6,-180.98 32.6,-171.24 32.6,-162.26"/>
<polygon fill="black" stroke="black" stroke-width="2" points="36.1,-162.22 32.6,-152.22 29.1,-162.22 36.1,-162.22"/>
</g>
<!-- 0x26 -->
<g id="node3" class="node">
<title>0x26</title>
<ellipse fill="none" stroke="black" cx="32.6" cy="-32.6" rx="28.68" ry="28.68"/>
<ellipse fill="none" stroke="black" cx="32.6" cy="-32.6" rx="32.7" ry="32.7"/>
<text text-anchor="middle" x="32.6" y="-28.9" font-family="Times New Roman,serif" font-size="14.00">0x26</text>
</g>
<!-- 0x25&#45;&gt;0x26 -->
<g id="edge2" class="edge">
<title>0x25&#45;&gt;0x26</title>
<path fill="none" stroke="black" d="M32.6,-115.85C32.6,-104.63 32.6,-89.54 32.6,-75.33"/>
<polygon fill="black" stroke="black" points="36.1,-75.22 32.6,-65.22 29.1,-75.22 36.1,-75.22"/>
<text text-anchor="middle" x="36.1" y="-86.99" font-family="Times New Roman,serif" font-size="14.00">a</text>
</g>
</g>
</svg>
