<?xml version="1.0" encoding="UTF-8" standalone="no"?>
<!DOCTYPE svg PUBLIC "-//W3C//DTD SVG 1.1//EN"
 "http://www.w3.org/Graphics/SVG/1.1/DTD/svg11.dtd">
<!-- Generated by graphviz version 3.0.0 (20220226.1711)
 -->
<!-- Pages: 1 -->
<svg width="73pt" height="1045pt"
 viewBox="0.00 0.00 73.19 1045.39" xmlns="http://www.w3.org/2000/svg" xmlns:xlink="http://www.w3.org/1999/xlink">
<g id="graph0" class="graph" transform="scale(1 1) rotate(0) translate(4 1041.39)">
<polygon fill="white" stroke="transparent" points="-4,4 -4,-1041.39 69.19,-1041.39 69.19,4 -4,4"/>
<!-- fake -->
<g id="node1" class="node">
<title>fake</title>
</g>
<!-- 0xa -->
<g id="node2" class="node">
<title>0xa</title>
<ellipse fill="none" stroke="black" cx="32.6" cy="-946.39" rx="27" ry="18"/>
<text text-anchor="middle" x="32.6" y="-942.69" font-family="Times New Roman,serif" font-size="14.00">0xa</text>
</g>
<!-- fake&#45;&gt;0xa -->
<g id="edge1" class="edge">
<title>fake&#45;&gt;0xa</title>
<path fill="none" stroke="black" stroke-width="2" d="M32.6,-1001.2C32.6,-993.18 32.6,-983.44 32.6,-974.46"/>
<polygon fill="black" stroke="black" stroke-width="2" points="36.1,-974.42 32.6,-964.42 29.1,-974.42 36.1,-974.42"/>
</g>
<!-- 0xb -->
<g id="node3" class="node">
<title>0xb</title>
<ellipse fill="none" stroke="black" cx="32.6" cy="-859.39" rx="27" ry="18"/>
<text text-anchor="middle" x="32.6" y="-855.69" font-family="Times New Roman,serif" font-size="14.00">0xb</text>
</g>
<!-- 0xa&#45;&gt;0xb -->
<g id="edge2" class="edge">
<title>0xa&#45;&gt;0xb</title>
<path fill="none" stroke="black" d="M32.6,-928.19C32.6,-916.55 32.6,-900.94 32.6,-887.63"/>
<polygon fill="black" stroke="black" points="36.1,-887.57 32.6,-877.57 29.1,-887.57 36.1,-887.57"/>
<text text-anchor="middle" x="35.1" y="-899.19" font-family="Times New Roman,serif" font-size="14.00">f</text>
</g>
<!-- 0xc -->
<g id="node4" class="node">
<title>0xc</title>
<ellipse fill="none" stroke="black" cx="32.6" cy="-772.39" rx="27" ry="18"/>
<text text-anchor="middle" x="32.6" y="-768.69" font-family="Times New Roman,serif" font-size="14.00">0xc</text>
</g>
<!-- 0xb&#45;&gt;0xc -->
<g id="edge4" class="edge">
<title>0xb&#45;&gt;0xc</title>
<path fill="none" stroke="black" d="M32.6,-841.19C32.6,-829.55 32.6,-813.94 32.6,-800.63"/>
<polygon fill="black" stroke="black" points="36.1,-800.57 32.6,-790.57 29.1,-800.57 36.1,-800.57"/>
<text text-anchor="middle" x="43.6" y="-812.19" font-family="Times New Roman,serif" font-size="14.00">ε(6)</text>
</g>
<!-- 0xd -->
<g id="node5" class="node">
<title>0xd</title>
<ellipse fill="none" stroke="black" cx="32.6" cy="-685.39" rx="27" ry="18"/>
<text text-anchor="middle" x="32.6" y="-681.69" font-family="Times New Roman,serif" font-size="14.00">0xd</text>
</g>
<!-- 0xc&#45;&gt;0xd -->
<g id="edge3" class="edge">
<title>0xc&#45;&gt;0xd</title>
<path fill="none" stroke="black" d="M32.6,-754.19C32.6,-742.55 32.6,-726.94 32.6,-713.63"/>
<polygon fill="black" stroke="black" points="36.1,-713.57 32.6,-703.57 29.1,-713.57 36.1,-713.57"/>
<text text-anchor="middle" x="36.1" y="-725.19" font-family="Times New Roman,serif" font-size="14.00">g</text>
</g>
<!-- 0xe -->
<g id="node6" class="node">
<title>0xe</title>
<ellipse fill="none" stroke="black" cx="32.6" cy="-598.39" rx="27" ry="18"/>
<text text-anchor="middle" x="32.6" y="-594.69" font-family="Times New Roman,serif" font-size="14.00">0xe</text>
</g>
<!-- 0xd&#45;&gt;0xe -->
<g id="edge6" class="edge">
<title>0xd&#45;&gt;0xe</title>
<path fill="none" stroke="black" d="M32.6,-667.19C32.6,-655.55 32.6,-639.94 32.6,-626.63"/>
<polygon fill="black" stroke="black" points="36.1,-626.57 32.6,-616.57 29.1,-626.57 36.1,-626.57"/>
<text text-anchor="middle" x="43.6" y="-638.19" font-family="Times New Roman,serif" font-size="14.00">ε(7)</text>
</g>
<!-- 0xf -->
<g id="node7" class="node">
<title>0xf</title>
<ellipse fill="none" stroke="black" cx="32.6" cy="-511.39" rx="27" ry="18"/>
<text text-anchor="middle" x="32.6" y="-507.69" font-family="Times New Roman,serif" font-size="14.00">0xf</text>
</g>
<!-- 0xe&#45;&gt;0xf -->
<g id="edge5" class="edge">
<title>0xe&#45;&gt;0xf</title>
<path fill="none" stroke="black" d="M32.6,-580.19C32.6,-568.55 32.6,-552.94 32.6,-539.63"/>
<polygon fill="black" stroke="black" points="36.1,-539.57 32.6,-529.57 29.1,-539.57 36.1,-539.57"/>
<text text-anchor="middle" x="36.1" y="-551.19" font-family="Times New Roman,serif" font-size="14.00">h</text>
</g>
<!-- 0x10 -->
<g id="node8" class="node">
<title>0x10</title>
<ellipse fill="none" stroke="black" cx="32.6" cy="-424.39" rx="28.7" ry="18"/>
<text text-anchor="middle" x="32.6" y="-420.69" font-family="Times New Roman,serif" font-size="14.00">0x10</text>
</g>
<!-- 0xf&#45;&gt;0x10 -->
<g id="edge8" class="edge">
<title>0xf&#45;&gt;0x10</title>
<path fill="none" stroke="black" d="M32.6,-493.19C32.6,-481.55 32.6,-465.94 32.6,-452.63"/>
<polygon fill="black" stroke="black" points="36.1,-452.57 32.6,-442.57 29.1,-452.57 36.1,-452.57"/>
<text text-anchor="middle" x="43.6" y="-464.19" font-family="Times New Roman,serif" font-size="14.00">ε(8)</text>
</g>
<!-- 0x11 -->
<g id="node9" class="node">
<title>0x11</title>
<ellipse fill="none" stroke="black" cx="32.6" cy="-337.39" rx="28.7" ry="18"/>
<text text-anchor="middle" x="32.6" y="-333.69" font-family="Times New Roman,serif" font-size="14.00">0x11</text>
</g>
<!-- 0x10&#45;&gt;0x11 -->
<g id="edge7" class="edge">
<title>0x10&#45;&gt;0x11</title>
<path fill="none" stroke="black" d="M32.6,-406.19C32.6,-394.55 32.6,-378.94 32.6,-365.63"/>
<polygon fill="black" stroke="black" points="36.1,-365.57 32.6,-355.57 29.1,-365.57 36.1,-365.57"/>
<text text-anchor="middle" x="34.6" y="-377.19" font-family="Times New Roman,serif" font-size="14.00">i</text>
</g>
<!-- 0x12 -->
<g id="node10" class="node">
<title>0x12</title>
<ellipse fill="none" stroke="black" cx="32.6" cy="-235.79" rx="28.68" ry="28.68"/>
<ellipse fill="none" stroke="black" cx="32.6" cy="-235.79" rx="32.7" ry="32.7"/>
<text text-anchor="middle" x="32.6" y="-232.09" font-family="Times New Roman,serif" font-size="14.00">0x12</text>
</g>
<!-- 0x11&#45;&gt;0x12 -->
<g id="edge12" class="edge">
<title>0x11&#45;&gt;0x12</title>
<path fill="none" stroke="black" d="M32.6,-319.04C32.6,-307.83 32.6,-292.73 32.6,-278.53"/>
<polygon fill="black" stroke="black" points="36.1,-278.42 32.6,-268.42 29.1,-278.42 36.1,-278.42"/>
<text text-anchor="middle" x="43.6" y="-290.19" font-family="Times New Roman,serif" font-size="14.00">ε(9)</text>
</g>
<!-- 0x13 -->
<g id="node11" class="node">
<title>0x13</title>
<ellipse fill="none" stroke="black" cx="32.6" cy="-134.19" rx="28.7" ry="18"/>
<text text-anchor="middle" x="32.6" y="-130.49" font-family="Times New Roman,serif" font-size="14.00">0x13</text>
</g>
<!-- 0x12&#45;&gt;0x13 -->
<g id="edge9" class="edge">
<title>0x12&#45;&gt;0x13</title>
<path fill="none" stroke="black" d="M32.6,-203.01C32.6,-189.97 32.6,-175.04 32.6,-162.51"/>
<polygon fill="black" stroke="black" points="36.1,-162.22 32.6,-152.22 29.1,-162.22 36.1,-162.22"/>
<text text-anchor="middle" x="43.6" y="-173.99" font-family="Times New Roman,serif" font-size="14.00">ε(4)</text>
</g>
<!-- 0x14 -->
<g id="node12" class="node">
<title>0x14</title>
<ellipse fill="none" stroke="black" cx="32.6" cy="-32.6" rx="28.68" ry="28.68"/>
<ellipse fill="none" stroke="black" cx="32.6" cy="-32.6" rx="32.7" ry="32.7"/>
<text text-anchor="middle" x="32.6" y="-28.9" font-family="Times New Roman,serif" font-size="14.00">0x14</text>
</g>
<!-- 0x13&#45;&gt;0x14 -->
<g id="edge10" class="edge">
<title>0x13&#45;&gt;0x14</title>
<path fill="none" stroke="black" d="M28.5,-116.21C27.31,-110.52 26.18,-104.11 25.6,-98.19 24.85,-90.62 24.98,-82.56 25.58,-74.78"/>
<polygon fill="black" stroke="black" points="29.06,-75.1 26.6,-64.8 22.1,-74.39 29.06,-75.1"/>
<text text-anchor="middle" x="27.6" y="-86.99" font-family="Times New Roman,serif" font-size="14.00">j</text>
</g>
<!-- 0x14&#45;&gt;0x13 -->
<g id="edge11" class="edge">
<title>0x14&#45;&gt;0x13</title>
<path fill="none" stroke="black" d="M32.6,-65.22C32.6,-78.18 32.6,-93.04 32.6,-105.56"/>
<polygon fill="black" stroke="black" points="29.1,-105.85 32.6,-115.85 36.1,-105.85 29.1,-105.85"/>
<text text-anchor="middle" x="43.6" y="-86.99" font-family="Times New Roman,serif" font-size="14.00">ε(5)</text>
</g>
</g>
</svg>
