<?xml version="1.0" encoding="UTF-8" standalone="no"?>
<!DOCTYPE svg PUBLIC "-//W3C//DTD SVG 1.1//EN"
 "http://www.w3.org/Graphics/SVG/1.1/DTD/svg11.dtd">
<!-- Generated by graphviz version 2.50.0 (20211204.2007)
 -->
<!-- Pages: 1 -->
<svg width="64pt" height="505pt"
 viewBox="0.00 0.00 64.10 505.19" xmlns="http://www.w3.org/2000/svg" xmlns:xlink="http://www.w3.org/1999/xlink">
<g id="graph0" class="graph" transform="scale(1 1) rotate(0) translate(4 501.19)">
<polygon fill="white" stroke="transparent" points="-4,4 -4,-501.19 60.1,-501.19 60.1,4 -4,4"/>
<!-- fake -->
<g id="node1" class="node">
<title>fake</title>
</g>
<!-- 0x2 -->
<g id="node2" class="node">
<title>0x2</title>
<ellipse fill="none" stroke="black" cx="28.05" cy="-406.19" rx="27" ry="18"/>
<text text-anchor="middle" x="28.05" y="-402.49" font-family="Times New Roman,serif" font-size="14.00">0x2</text>
</g>
<!-- fake&#45;&gt;0x2 -->
<g id="edge1" class="edge">
<title>fake&#45;&gt;0x2</title>
<path fill="none" stroke="black" stroke-width="2" d="M28.05,-461C28.05,-452.98 28.05,-443.24 28.05,-434.26"/>
<polygon fill="black" stroke="black" stroke-width="2" points="31.55,-434.22 28.05,-424.22 24.55,-434.22 31.55,-434.22"/>
</g>
<!-- 0x3 -->
<g id="node3" class="node">
<title>0x3</title>
<ellipse fill="none" stroke="black" cx="28.05" cy="-319.19" rx="27" ry="18"/>
<text text-anchor="middle" x="28.05" y="-315.49" font-family="Times New Roman,serif" font-size="14.00">0x3</text>
</g>
<!-- 0x2&#45;&gt;0x3 -->
<g id="edge2" class="edge">
<title>0x2&#45;&gt;0x3</title>
<path fill="none" stroke="black" d="M28.05,-387.99C28.05,-376.35 28.05,-360.74 28.05,-347.43"/>
<polygon fill="black" stroke="black" points="31.55,-347.37 28.05,-337.37 24.55,-347.37 31.55,-347.37"/>
<text text-anchor="middle" x="32.05" y="-358.99" font-family="Times New Roman,serif" font-size="14.00">b</text>
</g>
<!-- 0x4 -->
<g id="node4" class="node">
<title>0x4</title>
<ellipse fill="none" stroke="black" cx="28.05" cy="-222.14" rx="24.09" ry="24.09"/>
<ellipse fill="none" stroke="black" cx="28.05" cy="-222.14" rx="28.1" ry="28.1"/>
<text text-anchor="middle" x="28.05" y="-218.44" font-family="Times New Roman,serif" font-size="14.00">0x4</text>
</g>
<!-- 0x3&#45;&gt;0x4 -->
<g id="edge6" class="edge">
<title>0x3&#45;&gt;0x4</title>
<path fill="none" stroke="black" d="M28.05,-300.76C28.05,-289.57 28.05,-274.6 28.05,-260.79"/>
<polygon fill="black" stroke="black" points="31.55,-260.54 28.05,-250.54 24.55,-260.54 31.55,-260.54"/>
<text text-anchor="middle" x="39.05" y="-271.99" font-family="Times New Roman,serif" font-size="14.00">ε(2)</text>
</g>
<!-- 0x5 -->
<g id="node5" class="node">
<title>0x5</title>
<ellipse fill="none" stroke="black" cx="28.05" cy="-125.1" rx="27" ry="18"/>
<text text-anchor="middle" x="28.05" y="-121.4" font-family="Times New Roman,serif" font-size="14.00">0x5</text>
</g>
<!-- 0x4&#45;&gt;0x5 -->
<g id="edge3" class="edge">
<title>0x4&#45;&gt;0x5</title>
<path fill="none" stroke="black" d="M28.05,-193.91C28.05,-181.14 28.05,-165.96 28.05,-153.2"/>
<polygon fill="black" stroke="black" points="31.55,-153.16 28.05,-143.16 24.55,-153.16 31.55,-153.16"/>
<text text-anchor="middle" x="39.05" y="-164.9" font-family="Times New Roman,serif" font-size="14.00">ε(0)</text>
</g>
<!-- 0x6 -->
<g id="node6" class="node">
<title>0x6</title>
<ellipse fill="none" stroke="black" cx="28.05" cy="-28.05" rx="24.09" ry="24.09"/>
<ellipse fill="none" stroke="black" cx="28.05" cy="-28.05" rx="28.1" ry="28.1"/>
<text text-anchor="middle" x="28.05" y="-24.35" font-family="Times New Roman,serif" font-size="14.00">0x6</text>
</g>
<!-- 0x5&#45;&gt;0x6 -->
<g id="edge4" class="edge">
<title>0x5&#45;&gt;0x6</title>
<path fill="none" stroke="black" d="M21.16,-107.65C19.08,-101.89 17.08,-95.31 16.05,-89.1 14.72,-81.13 15.24,-72.61 16.62,-64.56"/>
<polygon fill="black" stroke="black" points="20.06,-65.21 18.76,-54.7 13.22,-63.73 20.06,-65.21"/>
<text text-anchor="middle" x="19.55" y="-77.9" font-family="Times New Roman,serif" font-size="14.00">c</text>
</g>
<!-- 0x6&#45;&gt;0x5 -->
<g id="edge5" class="edge">
<title>0x6&#45;&gt;0x5</title>
<path fill="none" stroke="black" d="M28.05,-56.45C28.05,-68.96 28.05,-83.76 28.05,-96.32"/>
<polygon fill="black" stroke="black" points="24.55,-96.66 28.05,-106.66 31.55,-96.66 24.55,-96.66"/>
<text text-anchor="middle" x="39.05" y="-77.9" font-family="Times New Roman,serif" font-size="14.00">ε(1)</text>
</g>
</g>
</svg>
