<?xml version="1.0" encoding="UTF-8" standalone="no"?>
<!DOCTYPE svg PUBLIC "-//W3C//DTD SVG 1.1//EN"
 "http://www.w3.org/Graphics/SVG/1.1/DTD/svg11.dtd">
<!-- Generated by graphviz version 3.0.0 (20220226.1711)
 -->
<!-- Pages: 1 -->
<svg width="73pt" height="522pt"
 viewBox="0.00 0.00 73.19 522.09" xmlns="http://www.w3.org/2000/svg" xmlns:xlink="http://www.w3.org/1999/xlink">
<g id="graph0" class="graph" transform="scale(1 1) rotate(0) translate(4 518.09)">
<polygon fill="white" stroke="transparent" points="-4,4 -4,-518.09 69.19,-518.09 69.19,4 -4,4"/>
<!-- fake -->
<g id="node1" class="node">
<title>fake</title>
</g>
<!-- 0x18 -->
<g id="node2" class="node">
<title>0x18</title>
<ellipse fill="none" stroke="black" cx="32.6" cy="-423.09" rx="28.7" ry="18"/>
<text text-anchor="middle" x="32.6" y="-419.39" font-family="Times New Roman,serif" font-size="14.00">0x18</text>
</g>
<!-- fake&#45;&gt;0x18 -->
<g id="edge1" class="edge">
<title>fake&#45;&gt;0x18</title>
<path fill="none" stroke="black" stroke-width="2" d="M32.6,-477.9C32.6,-469.88 32.6,-460.14 32.6,-451.16"/>
<polygon fill="black" stroke="black" stroke-width="2" points="36.1,-451.12 32.6,-441.12 29.1,-451.12 36.1,-451.12"/>
</g>
<!-- 0x19 -->
<g id="node3" class="node">
<title>0x19</title>
<ellipse fill="none" stroke="black" cx="32.6" cy="-336.09" rx="28.7" ry="18"/>
<text text-anchor="middle" x="32.6" y="-332.39" font-family="Times New Roman,serif" font-size="14.00">0x19</text>
</g>
<!-- 0x18&#45;&gt;0x19 -->
<g id="edge2" class="edge">
<title>0x18&#45;&gt;0x19</title>
<path fill="none" stroke="black" d="M32.6,-404.89C32.6,-393.25 32.6,-377.64 32.6,-364.33"/>
<polygon fill="black" stroke="black" points="36.1,-364.27 32.6,-354.27 29.1,-364.27 36.1,-364.27"/>
<text text-anchor="middle" x="36.6" y="-375.89" font-family="Times New Roman,serif" font-size="14.00">b</text>
</g>
<!-- 0x1a -->
<g id="node4" class="node">
<title>0x1a</title>
<ellipse fill="none" stroke="black" cx="32.6" cy="-235.14" rx="27.9" ry="27.9"/>
<ellipse fill="none" stroke="black" cx="32.6" cy="-235.14" rx="31.9" ry="31.9"/>
<text text-anchor="middle" x="32.6" y="-231.44" font-family="Times New Roman,serif" font-size="14.00">0x1a</text>
</g>
<!-- 0x19&#45;&gt;0x1a -->
<g id="edge6" class="edge">
<title>0x19&#45;&gt;0x1a</title>
<path fill="none" stroke="black" d="M32.6,-317.85C32.6,-306.63 32.6,-291.48 32.6,-277.27"/>
<polygon fill="black" stroke="black" points="36.1,-277.16 32.6,-267.16 29.1,-277.16 36.1,-277.16"/>
<text text-anchor="middle" x="47.1" y="-288.89" font-family="Times New Roman,serif" font-size="14.00">ε(12)</text>
</g>
<!-- 0x1b -->
<g id="node5" class="node">
<title>0x1b</title>
<ellipse fill="none" stroke="black" cx="32.6" cy="-134.19" rx="28.7" ry="18"/>
<text text-anchor="middle" x="32.6" y="-130.49" font-family="Times New Roman,serif" font-size="14.00">0x1b</text>
</g>
<!-- 0x1a&#45;&gt;0x1b -->
<g id="edge3" class="edge">
<title>0x1a&#45;&gt;0x1b</title>
<path fill="none" stroke="black" d="M32.6,-203.11C32.6,-190.13 32.6,-175.18 32.6,-162.62"/>
<polygon fill="black" stroke="black" points="36.1,-162.3 32.6,-152.3 29.1,-162.3 36.1,-162.3"/>
<text text-anchor="middle" x="47.1" y="-173.99" font-family="Times New Roman,serif" font-size="14.00">ε(10)</text>
</g>
<!-- 0x1c -->
<g id="node6" class="node">
<title>0x1c</title>
<ellipse fill="none" stroke="black" cx="32.6" cy="-32.6" rx="28.68" ry="28.68"/>
<ellipse fill="none" stroke="black" cx="32.6" cy="-32.6" rx="32.7" ry="32.7"/>
<text text-anchor="middle" x="32.6" y="-28.9" font-family="Times New Roman,serif" font-size="14.00">0x1c</text>
</g>
<!-- 0x1b&#45;&gt;0x1c -->
<g id="edge4" class="edge">
<title>0x1b&#45;&gt;0x1c</title>
<path fill="none" stroke="black" d="M25.58,-116.4C23.55,-110.72 21.61,-104.28 20.6,-98.19 19.28,-90.28 19.59,-81.85 20.73,-73.77"/>
<polygon fill="black" stroke="black" points="24.2,-74.26 22.57,-63.79 17.32,-72.99 24.2,-74.26"/>
<text text-anchor="middle" x="24.1" y="-86.99" font-family="Times New Roman,serif" font-size="14.00">c</text>
</g>
<!-- 0x1c&#45;&gt;0x1b -->
<g id="edge5" class="edge">
<title>0x1c&#45;&gt;0x1b</title>
<path fill="none" stroke="black" d="M32.6,-65.22C32.6,-78.18 32.6,-93.04 32.6,-105.56"/>
<polygon fill="black" stroke="black" points="29.1,-105.85 32.6,-115.85 36.1,-105.85 29.1,-105.85"/>
<text text-anchor="middle" x="47.1" y="-86.99" font-family="Times New Roman,serif" font-size="14.00">ε(11)</text>
</g>
</g>
</svg>
