<?xml version="1.0" encoding="UTF-8" standalone="no"?>
<!DOCTYPE svg PUBLIC "-//W3C//DTD SVG 1.1//EN"
 "http://www.w3.org/Graphics/SVG/1.1/DTD/svg11.dtd">
<!-- Generated by graphviz version 3.0.0 (20220226.1711)
 -->
<!-- Pages: 1 -->
<svg width="65pt" height="1095pt"
 viewBox="0.00 0.00 65.40 1095.40" xmlns="http://www.w3.org/2000/svg" xmlns:xlink="http://www.w3.org/1999/xlink">
<g id="graph0" class="graph" transform="scale(1 1) rotate(0) translate(4 1091.4)">
<polygon fill="white" stroke="transparent" points="-4,4 -4,-1091.4 61.4,-1091.4 61.4,4 -4,4"/>
<!-- fake -->
<g id="node1" class="node">
<title>fake</title>
</g>
<!-- 0x0 -->
<g id="node2" class="node">
<title>0x0</title>
<ellipse fill="none" stroke="black" cx="28.7" cy="-996.4" rx="27" ry="18"/>
<text text-anchor="middle" x="28.7" y="-992.7" font-family="Times New Roman,serif" font-size="14.00">0x0</text>
</g>
<!-- fake&#45;&gt;0x0 -->
<g id="edge1" class="edge">
<title>fake&#45;&gt;0x0</title>
<path fill="none" stroke="black" stroke-width="2" d="M28.7,-1051.21C28.7,-1043.19 28.7,-1033.44 28.7,-1024.46"/>
<polygon fill="black" stroke="black" stroke-width="2" points="32.2,-1024.42 28.7,-1014.42 25.2,-1024.42 32.2,-1024.42"/>
</g>
<!-- 0x1 -->
<g id="node3" class="node">
<title>0x1</title>
<ellipse fill="none" stroke="black" cx="28.7" cy="-909.4" rx="27" ry="18"/>
<text text-anchor="middle" x="28.7" y="-905.7" font-family="Times New Roman,serif" font-size="14.00">0x1</text>
</g>
<!-- 0x0&#45;&gt;0x1 -->
<g id="edge2" class="edge">
<title>0x0&#45;&gt;0x1</title>
<path fill="none" stroke="black" d="M28.7,-978.19C28.7,-966.56 28.7,-950.94 28.7,-937.63"/>
<polygon fill="black" stroke="black" points="32.2,-937.57 28.7,-927.57 25.2,-937.57 32.2,-937.57"/>
<text text-anchor="middle" x="32.7" y="-949.2" font-family="Times New Roman,serif" font-size="14.00">d</text>
</g>
<!-- 0x2 -->
<g id="node4" class="node">
<title>0x2</title>
<ellipse fill="none" stroke="black" cx="28.7" cy="-822.4" rx="27" ry="18"/>
<text text-anchor="middle" x="28.7" y="-818.7" font-family="Times New Roman,serif" font-size="14.00">0x2</text>
</g>
<!-- 0x1&#45;&gt;0x2 -->
<g id="edge4" class="edge">
<title>0x1&#45;&gt;0x2</title>
<path fill="none" stroke="black" d="M28.7,-891.19C28.7,-879.56 28.7,-863.94 28.7,-850.63"/>
<polygon fill="black" stroke="black" points="32.2,-850.57 28.7,-840.57 25.2,-850.57 32.2,-850.57"/>
<text text-anchor="middle" x="39.7" y="-862.2" font-family="Times New Roman,serif" font-size="14.00">ε(0)</text>
</g>
<!-- 0x3 -->
<g id="node5" class="node">
<title>0x3</title>
<ellipse fill="none" stroke="black" cx="28.7" cy="-735.4" rx="27" ry="18"/>
<text text-anchor="middle" x="28.7" y="-731.7" font-family="Times New Roman,serif" font-size="14.00">0x3</text>
</g>
<!-- 0x2&#45;&gt;0x3 -->
<g id="edge3" class="edge">
<title>0x2&#45;&gt;0x3</title>
<path fill="none" stroke="black" d="M28.7,-804.19C28.7,-792.56 28.7,-776.94 28.7,-763.63"/>
<polygon fill="black" stroke="black" points="32.2,-763.57 28.7,-753.57 25.2,-763.57 32.2,-763.57"/>
<text text-anchor="middle" x="32.2" y="-775.2" font-family="Times New Roman,serif" font-size="14.00">s</text>
</g>
<!-- 0x4 -->
<g id="node6" class="node">
<title>0x4</title>
<ellipse fill="none" stroke="black" cx="28.7" cy="-648.4" rx="27" ry="18"/>
<text text-anchor="middle" x="28.7" y="-644.7" font-family="Times New Roman,serif" font-size="14.00">0x4</text>
</g>
<!-- 0x3&#45;&gt;0x4 -->
<g id="edge6" class="edge">
<title>0x3&#45;&gt;0x4</title>
<path fill="none" stroke="black" d="M28.7,-717.19C28.7,-705.56 28.7,-689.94 28.7,-676.63"/>
<polygon fill="black" stroke="black" points="32.2,-676.57 28.7,-666.57 25.2,-676.57 32.2,-676.57"/>
<text text-anchor="middle" x="39.7" y="-688.2" font-family="Times New Roman,serif" font-size="14.00">ε(1)</text>
</g>
<!-- 0x5 -->
<g id="node7" class="node">
<title>0x5</title>
<ellipse fill="none" stroke="black" cx="28.7" cy="-561.4" rx="27" ry="18"/>
<text text-anchor="middle" x="28.7" y="-557.7" font-family="Times New Roman,serif" font-size="14.00">0x5</text>
</g>
<!-- 0x4&#45;&gt;0x5 -->
<g id="edge5" class="edge">
<title>0x4&#45;&gt;0x5</title>
<path fill="none" stroke="black" d="M28.7,-630.19C28.7,-618.56 28.7,-602.94 28.7,-589.63"/>
<polygon fill="black" stroke="black" points="32.2,-589.57 28.7,-579.57 25.2,-589.57 32.2,-589.57"/>
<text text-anchor="middle" x="32.2" y="-601.2" font-family="Times New Roman,serif" font-size="14.00">a</text>
</g>
<!-- 0x6 -->
<g id="node8" class="node">
<title>0x6</title>
<ellipse fill="none" stroke="black" cx="28.7" cy="-474.4" rx="27" ry="18"/>
<text text-anchor="middle" x="28.7" y="-470.7" font-family="Times New Roman,serif" font-size="14.00">0x6</text>
</g>
<!-- 0x5&#45;&gt;0x6 -->
<g id="edge8" class="edge">
<title>0x5&#45;&gt;0x6</title>
<path fill="none" stroke="black" d="M28.7,-543.19C28.7,-531.56 28.7,-515.94 28.7,-502.63"/>
<polygon fill="black" stroke="black" points="32.2,-502.57 28.7,-492.57 25.2,-502.57 32.2,-502.57"/>
<text text-anchor="middle" x="39.7" y="-514.2" font-family="Times New Roman,serif" font-size="14.00">ε(2)</text>
</g>
<!-- 0x7 -->
<g id="node9" class="node">
<title>0x7</title>
<ellipse fill="none" stroke="black" cx="28.7" cy="-387.4" rx="27" ry="18"/>
<text text-anchor="middle" x="28.7" y="-383.7" font-family="Times New Roman,serif" font-size="14.00">0x7</text>
</g>
<!-- 0x6&#45;&gt;0x7 -->
<g id="edge7" class="edge">
<title>0x6&#45;&gt;0x7</title>
<path fill="none" stroke="black" d="M28.7,-456.19C28.7,-444.56 28.7,-428.94 28.7,-415.63"/>
<polygon fill="black" stroke="black" points="32.2,-415.57 28.7,-405.57 25.2,-415.57 32.2,-415.57"/>
<text text-anchor="middle" x="32.7" y="-427.2" font-family="Times New Roman,serif" font-size="14.00">d</text>
</g>
<!-- 0x8 -->
<g id="node10" class="node">
<title>0x8</title>
<ellipse fill="none" stroke="black" cx="28.7" cy="-300.4" rx="27" ry="18"/>
<text text-anchor="middle" x="28.7" y="-296.7" font-family="Times New Roman,serif" font-size="14.00">0x8</text>
</g>
<!-- 0x7&#45;&gt;0x8 -->
<g id="edge10" class="edge">
<title>0x7&#45;&gt;0x8</title>
<path fill="none" stroke="black" d="M28.7,-369.19C28.7,-357.56 28.7,-341.94 28.7,-328.63"/>
<polygon fill="black" stroke="black" points="32.2,-328.57 28.7,-318.57 25.2,-328.57 32.2,-328.57"/>
<text text-anchor="middle" x="39.7" y="-340.2" font-family="Times New Roman,serif" font-size="14.00">ε(3)</text>
</g>
<!-- 0x9 -->
<g id="node11" class="node">
<title>0x9</title>
<ellipse fill="none" stroke="black" cx="28.7" cy="-213.4" rx="27" ry="18"/>
<text text-anchor="middle" x="28.7" y="-209.7" font-family="Times New Roman,serif" font-size="14.00">0x9</text>
</g>
<!-- 0x8&#45;&gt;0x9 -->
<g id="edge9" class="edge">
<title>0x8&#45;&gt;0x9</title>
<path fill="none" stroke="black" d="M28.7,-282.19C28.7,-270.56 28.7,-254.94 28.7,-241.63"/>
<polygon fill="black" stroke="black" points="32.2,-241.57 28.7,-231.57 25.2,-241.57 32.2,-241.57"/>
<text text-anchor="middle" x="32.2" y="-253.2" font-family="Times New Roman,serif" font-size="14.00">a</text>
</g>
<!-- 0xa -->
<g id="node12" class="node">
<title>0xa</title>
<ellipse fill="none" stroke="black" cx="28.7" cy="-126.4" rx="27" ry="18"/>
<text text-anchor="middle" x="28.7" y="-122.7" font-family="Times New Roman,serif" font-size="14.00">0xa</text>
</g>
<!-- 0x9&#45;&gt;0xa -->
<g id="edge12" class="edge">
<title>0x9&#45;&gt;0xa</title>
<path fill="none" stroke="black" d="M28.7,-195.19C28.7,-183.56 28.7,-167.94 28.7,-154.63"/>
<polygon fill="black" stroke="black" points="32.2,-154.57 28.7,-144.57 25.2,-154.57 32.2,-154.57"/>
<text text-anchor="middle" x="39.7" y="-166.2" font-family="Times New Roman,serif" font-size="14.00">ε(4)</text>
</g>
<!-- 0xb -->
<g id="node13" class="node">
<title>0xb</title>
<ellipse fill="none" stroke="black" cx="28.7" cy="-28.7" rx="24.87" ry="24.87"/>
<ellipse fill="none" stroke="black" cx="28.7" cy="-28.7" rx="28.9" ry="28.9"/>
<text text-anchor="middle" x="28.7" y="-25" font-family="Times New Roman,serif" font-size="14.00">0xb</text>
</g>
<!-- 0xa&#45;&gt;0xb -->
<g id="edge11" class="edge">
<title>0xa&#45;&gt;0xb</title>
<path fill="none" stroke="black" d="M28.7,-108.29C28.7,-97.06 28.7,-81.92 28.7,-67.93"/>
<polygon fill="black" stroke="black" points="32.2,-67.54 28.7,-57.54 25.2,-67.54 32.2,-67.54"/>
<text text-anchor="middle" x="32.2" y="-79.2" font-family="Times New Roman,serif" font-size="14.00">s</text>
</g>
</g>
</svg>
