<?xml version="1.0" encoding="UTF-8" standalone="no"?>
<!DOCTYPE svg PUBLIC "-//W3C//DTD SVG 1.1//EN"
 "http://www.w3.org/Graphics/SVG/1.1/DTD/svg11.dtd">
<!-- Generated by graphviz version 3.0.0 (20220226.1711)
 -->
<!-- Pages: 1 -->
<svg width="73pt" height="349pt"
 viewBox="0.00 0.00 73.19 349.39" xmlns="http://www.w3.org/2000/svg" xmlns:xlink="http://www.w3.org/1999/xlink">
<g id="graph0" class="graph" transform="scale(1 1) rotate(0) translate(4 345.39)">
<polygon fill="white" stroke="transparent" points="-4,4 -4,-345.39 69.19,-345.39 69.19,4 -4,4"/>
<!-- fake -->
<g id="node1" class="node">
<title>fake</title>
</g>
<!-- 0x25 -->
<g id="node2" class="node">
<title>0x25</title>
<ellipse fill="none" stroke="black" cx="32.6" cy="-235.79" rx="28.68" ry="28.68"/>
<ellipse fill="none" stroke="black" cx="32.6" cy="-235.79" rx="32.7" ry="32.7"/>
<text text-anchor="middle" x="32.6" y="-232.09" font-family="Times New Roman,serif" font-size="14.00">0x25</text>
</g>
<!-- fake&#45;&gt;0x25 -->
<g id="edge1" class="edge">
<title>fake&#45;&gt;0x25</title>
<path fill="none" stroke="black" stroke-width="2" d="M32.6,-305.07C32.6,-297.39 32.6,-287.99 32.6,-278.66"/>
<polygon fill="black" stroke="black" stroke-width="2" points="36.1,-278.63 32.6,-268.63 29.1,-278.63 36.1,-278.63"/>
</g>
<!-- 0x26 -->
<g id="node3" class="node">
<title>0x26</title>
<ellipse fill="none" stroke="black" cx="32.6" cy="-134.19" rx="28.7" ry="18"/>
<text text-anchor="middle" x="32.6" y="-130.49" font-family="Times New Roman,serif" font-size="14.00">0x26</text>
</g>
<!-- 0x25&#45;&gt;0x26 -->
<g id="edge2" class="edge">
<title>0x25&#45;&gt;0x26</title>
<path fill="none" stroke="black" d="M32.6,-203.01C32.6,-189.97 32.6,-175.04 32.6,-162.51"/>
<polygon fill="black" stroke="black" points="36.1,-162.22 32.6,-152.22 29.1,-162.22 36.1,-162.22"/>
<text text-anchor="middle" x="42.6" y="-173.99" font-family="Times New Roman,serif" font-size="14.00">ε(f)</text>
</g>
<!-- 0x27 -->
<g id="node4" class="node">
<title>0x27</title>
<ellipse fill="none" stroke="black" cx="32.6" cy="-32.6" rx="28.68" ry="28.68"/>
<ellipse fill="none" stroke="black" cx="32.6" cy="-32.6" rx="32.7" ry="32.7"/>
<text text-anchor="middle" x="32.6" y="-28.9" font-family="Times New Roman,serif" font-size="14.00">0x27</text>
</g>
<!-- 0x26&#45;&gt;0x27 -->
<g id="edge3" class="edge">
<title>0x26&#45;&gt;0x27</title>
<path fill="none" stroke="black" d="M25.58,-116.4C23.55,-110.72 21.61,-104.28 20.6,-98.19 19.28,-90.28 19.59,-81.85 20.73,-73.77"/>
<polygon fill="black" stroke="black" points="24.2,-74.26 22.57,-63.79 17.32,-72.99 24.2,-74.26"/>
<text text-anchor="middle" x="24.1" y="-86.99" font-family="Times New Roman,serif" font-size="14.00">a</text>
</g>
<!-- 0x27&#45;&gt;0x26 -->
<g id="edge4" class="edge">
<title>0x27&#45;&gt;0x26</title>
<path fill="none" stroke="black" d="M32.6,-65.22C32.6,-78.18 32.6,-93.04 32.6,-105.56"/>
<polygon fill="black" stroke="black" points="29.1,-105.85 32.6,-115.85 36.1,-105.85 29.1,-105.85"/>
<text text-anchor="middle" x="47.1" y="-86.99" font-family="Times New Roman,serif" font-size="14.00">ε(10)</text>
</g>
</g>
</svg>
