<?xml version="1.0" encoding="UTF-8" standalone="no"?>
<!DOCTYPE svg PUBLIC "-//W3C//DTD SVG 1.1//EN"
 "http://www.w3.org/Graphics/SVG/1.1/DTD/svg11.dtd">
<!-- Generated by graphviz version 3.0.0 (20220226.1711)
 -->
<!-- Pages: 1 -->
<svg width="62pt" height="395pt"
 viewBox="0.00 0.00 62.00 395.50" xmlns="http://www.w3.org/2000/svg" xmlns:xlink="http://www.w3.org/1999/xlink">
<g id="graph0" class="graph" transform="scale(1 1) rotate(0) translate(4 391.5)">
<polygon fill="white" stroke="transparent" points="-4,4 -4,-391.5 58,-391.5 58,4 -4,4"/>
<!-- fake -->
<g id="node1" class="node">
<title>fake</title>
</g>
<!-- 0xc -->
<g id="node2" class="node">
<title>0xc</title>
<ellipse fill="none" stroke="black" cx="27" cy="-296.5" rx="27" ry="18"/>
<text text-anchor="middle" x="27" y="-292.8" font-family="Times New Roman,serif" font-size="14.00">0xc</text>
</g>
<!-- fake&#45;&gt;0xc -->
<g id="edge1" class="edge">
<title>fake&#45;&gt;0xc</title>
<path fill="none" stroke="black" stroke-width="2" d="M27,-351.31C27,-343.29 27,-333.54 27,-324.57"/>
<polygon fill="black" stroke="black" stroke-width="2" points="30.5,-324.52 27,-314.52 23.5,-324.52 30.5,-324.52"/>
</g>
<!-- 0xd -->
<g id="node3" class="node">
<title>0xd</title>
<ellipse fill="none" stroke="black" cx="27" cy="-209.5" rx="27" ry="18"/>
<text text-anchor="middle" x="27" y="-205.8" font-family="Times New Roman,serif" font-size="14.00">0xd</text>
</g>
<!-- 0xc&#45;&gt;0xd -->
<g id="edge2" class="edge">
<title>0xc&#45;&gt;0xd</title>
<path fill="none" stroke="black" d="M27,-278.29C27,-266.66 27,-251.04 27,-237.73"/>
<polygon fill="black" stroke="black" points="30.5,-237.67 27,-227.67 23.5,-237.67 30.5,-237.67"/>
<text text-anchor="middle" x="30.5" y="-249.3" font-family="Times New Roman,serif" font-size="14.00">c</text>
</g>
<!-- 0xe -->
<g id="node4" class="node">
<title>0xe</title>
<ellipse fill="none" stroke="black" cx="27" cy="-122.5" rx="27" ry="18"/>
<text text-anchor="middle" x="27" y="-118.8" font-family="Times New Roman,serif" font-size="14.00">0xe</text>
</g>
<!-- 0xd&#45;&gt;0xe -->
<g id="edge4" class="edge">
<title>0xd&#45;&gt;0xe</title>
<path fill="none" stroke="black" d="M27,-191.29C27,-179.66 27,-164.04 27,-150.73"/>
<polygon fill="black" stroke="black" points="30.5,-150.67 27,-140.67 23.5,-150.67 30.5,-150.67"/>
<text text-anchor="middle" x="38" y="-162.3" font-family="Times New Roman,serif" font-size="14.00">ε(8)</text>
</g>
<!-- 0xf -->
<g id="node5" class="node">
<title>0xf</title>
<ellipse fill="none" stroke="black" cx="27" cy="-26.75" rx="22.96" ry="22.96"/>
<ellipse fill="none" stroke="black" cx="27" cy="-26.75" rx="27" ry="27"/>
<text text-anchor="middle" x="27" y="-23.05" font-family="Times New Roman,serif" font-size="14.00">0xf</text>
</g>
<!-- 0xe&#45;&gt;0xf -->
<g id="edge3" class="edge">
<title>0xe&#45;&gt;0xf</title>
<path fill="none" stroke="black" d="M27,-104.3C27,-93.01 27,-77.82 27,-63.95"/>
<polygon fill="black" stroke="black" points="30.5,-63.68 27,-53.68 23.5,-63.68 30.5,-63.68"/>
<text text-anchor="middle" x="31" y="-75.3" font-family="Times New Roman,serif" font-size="14.00">d</text>
</g>
</g>
</svg>
