<?xml version="1.0" encoding="UTF-8" standalone="no"?>
<!DOCTYPE svg PUBLIC "-//W3C//DTD SVG 1.1//EN"
 "http://www.w3.org/Graphics/SVG/1.1/DTD/svg11.dtd">
<!-- Generated by graphviz version 3.0.0 (20220226.1711)
 -->
<!-- Pages: 1 -->
<svg width="100pt" height="523pt"
 viewBox="0.00 0.00 99.60 523.39" xmlns="http://www.w3.org/2000/svg" xmlns:xlink="http://www.w3.org/1999/xlink">
<g id="graph0" class="graph" transform="scale(1 1) rotate(0) translate(4 519.39)">
<polygon fill="white" stroke="transparent" points="-4,4 -4,-519.39 95.6,-519.39 95.6,4 -4,4"/>
<!-- fake -->
<g id="node1" class="node">
<title>fake</title>
</g>
<!-- 0x12 -->
<g id="node6" class="node">
<title>0x12</title>
<ellipse fill="none" stroke="black" cx="58.6" cy="-409.79" rx="28.68" ry="28.68"/>
<ellipse fill="none" stroke="black" cx="58.6" cy="-409.79" rx="32.7" ry="32.7"/>
<text text-anchor="middle" x="58.6" y="-406.09" font-family="Times New Roman,serif" font-size="14.00">0x12</text>
</g>
<!-- fake&#45;&gt;0x12 -->
<g id="edge1" class="edge">
<title>fake&#45;&gt;0x12</title>
<path fill="none" stroke="black" stroke-width="2" d="M58.6,-479.07C58.6,-471.39 58.6,-461.99 58.6,-452.66"/>
<polygon fill="black" stroke="black" stroke-width="2" points="62.1,-452.63 58.6,-442.63 55.1,-452.63 62.1,-452.63"/>
</g>
<!-- 0xe -->
<g id="node2" class="node">
<title>0xe</title>
<ellipse fill="none" stroke="black" cx="58.6" cy="-308.19" rx="27" ry="18"/>
<text text-anchor="middle" x="58.6" y="-304.49" font-family="Times New Roman,serif" font-size="14.00">0xe</text>
</g>
<!-- 0xf -->
<g id="node3" class="node">
<title>0xf</title>
<ellipse fill="none" stroke="black" cx="30.6" cy="-221.19" rx="27" ry="18"/>
<text text-anchor="middle" x="30.6" y="-217.49" font-family="Times New Roman,serif" font-size="14.00">0xf</text>
</g>
<!-- 0xe&#45;&gt;0xf -->
<g id="edge2" class="edge">
<title>0xe&#45;&gt;0xf</title>
<path fill="none" stroke="black" d="M53.07,-290.4C49.15,-278.53 43.83,-262.36 39.35,-248.75"/>
<polygon fill="black" stroke="black" points="42.57,-247.36 36.12,-238.95 35.92,-249.55 42.57,-247.36"/>
<text text-anchor="middle" x="50.1" y="-260.99" font-family="Times New Roman,serif" font-size="14.00">g</text>
</g>
<!-- 0x10 -->
<g id="node4" class="node">
<title>0x10</title>
<ellipse fill="none" stroke="black" cx="28.6" cy="-134.19" rx="28.7" ry="18"/>
<text text-anchor="middle" x="28.6" y="-130.49" font-family="Times New Roman,serif" font-size="14.00">0x10</text>
</g>
<!-- 0xf&#45;&gt;0x10 -->
<g id="edge4" class="edge">
<title>0xf&#45;&gt;0x10</title>
<path fill="none" stroke="black" d="M30.19,-202.99C29.92,-191.36 29.55,-175.74 29.24,-162.43"/>
<polygon fill="black" stroke="black" points="32.74,-162.29 29,-152.37 25.74,-162.45 32.74,-162.29"/>
<text text-anchor="middle" x="41.6" y="-173.99" font-family="Times New Roman,serif" font-size="14.00">ε(3)</text>
</g>
<!-- 0x11 -->
<g id="node5" class="node">
<title>0x11</title>
<ellipse fill="none" stroke="black" cx="56.6" cy="-32.6" rx="28.68" ry="28.68"/>
<ellipse fill="none" stroke="black" cx="56.6" cy="-32.6" rx="32.7" ry="32.7"/>
<text text-anchor="middle" x="56.6" y="-28.9" font-family="Times New Roman,serif" font-size="14.00">0x11</text>
</g>
<!-- 0x10&#45;&gt;0x11 -->
<g id="edge3" class="edge">
<title>0x10&#45;&gt;0x11</title>
<path fill="none" stroke="black" d="M33.35,-116.3C36.59,-104.76 41.04,-88.94 45.17,-74.23"/>
<polygon fill="black" stroke="black" points="48.63,-74.87 47.97,-64.29 41.89,-72.97 48.63,-74.87"/>
<text text-anchor="middle" x="46.6" y="-86.99" font-family="Times New Roman,serif" font-size="14.00">o</text>
</g>
<!-- 0x11&#45;&gt;0xe -->
<g id="edge6" class="edge">
<title>0x11&#45;&gt;0xe</title>
<path fill="none" stroke="black" d="M61.29,-64.89C63.37,-80.3 65.57,-99.18 66.6,-116.19 69.89,-170.76 69.8,-184.62 66.6,-239.19 65.81,-252.69 64.14,-267.61 62.53,-280.03"/>
<polygon fill="black" stroke="black" points="59.03,-279.82 61.16,-290.2 65.97,-280.76 59.03,-279.82"/>
<text text-anchor="middle" x="80.6" y="-173.99" font-family="Times New Roman,serif" font-size="14.00">ε(5)</text>
</g>
<!-- 0x12&#45;&gt;0xe -->
<g id="edge5" class="edge">
<title>0x12&#45;&gt;0xe</title>
<path fill="none" stroke="black" d="M42.25,-381.29C37.4,-369.88 34.2,-356.47 37.6,-344.19 38.6,-340.57 40.09,-336.94 41.83,-333.46"/>
<polygon fill="black" stroke="black" points="44.89,-335.16 46.81,-324.74 38.81,-331.68 44.89,-335.16"/>
<text text-anchor="middle" x="48.6" y="-347.99" font-family="Times New Roman,serif" font-size="14.00">ε(4)</text>
</g>
<!-- 0x12&#45;&gt;0xe -->
<g id="edge7" class="edge">
<title>0x12&#45;&gt;0xe</title>
<path fill="none" stroke="black" d="M59.47,-376.92C59.65,-366.49 59.75,-354.85 59.6,-344.19 59.56,-341.64 59.51,-338.98 59.45,-336.33"/>
<polygon fill="black" stroke="black" points="62.95,-336.19 59.18,-326.28 55.95,-336.37 62.95,-336.19"/>
<text text-anchor="middle" x="71.6" y="-347.99" font-family="Times New Roman,serif" font-size="14.00">ε(6)</text>
</g>
</g>
</svg>
