<?xml version="1.0" encoding="UTF-8" standalone="no"?>
<!DOCTYPE svg PUBLIC "-//W3C//DTD SVG 1.1//EN"
 "http://www.w3.org/Graphics/SVG/1.1/DTD/svg11.dtd">
<!-- Generated by graphviz version 3.0.0 (20220226.1711)
 -->
<!-- Pages: 1 -->
<svg width="134pt" height="438pt"
 viewBox="0.00 0.00 134.05 438.29" xmlns="http://www.w3.org/2000/svg" xmlns:xlink="http://www.w3.org/1999/xlink">
<g id="graph0" class="graph" transform="scale(1 1) rotate(0) translate(4 434.29)">
<polygon fill="white" stroke="transparent" points="-4,4 -4,-434.29 130.05,-434.29 130.05,4 -4,4"/>
<!-- fake -->
<g id="node1" class="node">
<title>fake</title>
</g>
<!-- 0x3 -->
<g id="node5" class="node">
<title>0x3</title>
<ellipse fill="none" stroke="black" cx="58" cy="-329.24" rx="24.09" ry="24.09"/>
<ellipse fill="none" stroke="black" cx="58" cy="-329.24" rx="28.1" ry="28.1"/>
<text text-anchor="middle" x="58" y="-325.54" font-family="Times New Roman,serif" font-size="14.00">0x3</text>
</g>
<!-- fake&#45;&gt;0x3 -->
<g id="edge1" class="edge">
<title>fake&#45;&gt;0x3</title>
<path fill="none" stroke="black" stroke-width="2" d="M58,-394.1C58,-386.33 58,-376.83 58,-367.56"/>
<polygon fill="black" stroke="black" stroke-width="2" points="61.5,-367.29 58,-357.29 54.5,-367.29 61.5,-367.29"/>
</g>
<!-- 0x0 -->
<g id="node2" class="node">
<title>0x0</title>
<ellipse fill="none" stroke="black" cx="58" cy="-222.14" rx="24.09" ry="24.09"/>
<ellipse fill="none" stroke="black" cx="58" cy="-222.14" rx="28.1" ry="28.1"/>
<text text-anchor="middle" x="58" y="-218.44" font-family="Times New Roman,serif" font-size="14.00">0x0</text>
</g>
<!-- 0x0&#45;&gt;0x0 -->
<g id="edge6" class="edge">
<title>0x0&#45;&gt;0x0</title>
<path fill="none" stroke="black" d="M84.5,-231.83C95.13,-232.38 104.05,-229.15 104.05,-222.14 104.05,-217.54 100.21,-214.57 94.56,-213.23"/>
<polygon fill="black" stroke="black" points="94.74,-209.73 84.5,-212.45 94.2,-216.71 94.74,-209.73"/>
<text text-anchor="middle" x="115.05" y="-218.44" font-family="Times New Roman,serif" font-size="14.00">ε(3)</text>
</g>
<!-- 0x1 -->
<g id="node3" class="node">
<title>0x1</title>
<ellipse fill="none" stroke="black" cx="27" cy="-125.1" rx="27" ry="18"/>
<text text-anchor="middle" x="27" y="-121.4" font-family="Times New Roman,serif" font-size="14.00">0x1</text>
</g>
<!-- 0x0&#45;&gt;0x1 -->
<g id="edge2" class="edge">
<title>0x0&#45;&gt;0x1</title>
<path fill="none" stroke="black" d="M49.53,-195.17C45.19,-181.86 39.91,-165.68 35.55,-152.33"/>
<polygon fill="black" stroke="black" points="38.86,-151.18 32.44,-142.76 32.21,-153.35 38.86,-151.18"/>
<text text-anchor="middle" x="54" y="-164.9" font-family="Times New Roman,serif" font-size="14.00">ε(0)</text>
</g>
<!-- 0x2 -->
<g id="node4" class="node">
<title>0x2</title>
<ellipse fill="none" stroke="black" cx="53" cy="-28.05" rx="24.09" ry="24.09"/>
<ellipse fill="none" stroke="black" cx="53" cy="-28.05" rx="28.1" ry="28.1"/>
<text text-anchor="middle" x="53" y="-24.35" font-family="Times New Roman,serif" font-size="14.00">0x2</text>
</g>
<!-- 0x1&#45;&gt;0x2 -->
<g id="edge3" class="edge">
<title>0x1&#45;&gt;0x2</title>
<path fill="none" stroke="black" d="M24.28,-107.13C23.29,-97.31 23.04,-84.81 26,-74.1 27.3,-69.4 29.23,-64.7 31.48,-60.21"/>
<polygon fill="black" stroke="black" points="34.61,-61.77 36.43,-51.33 28.5,-58.36 34.61,-61.77"/>
<text text-anchor="middle" x="29.5" y="-77.9" font-family="Times New Roman,serif" font-size="14.00">a</text>
</g>
<!-- 0x2&#45;&gt;0x0 -->
<g id="edge7" class="edge">
<title>0x2&#45;&gt;0x0</title>
<path fill="none" stroke="black" d="M61.67,-55C63.41,-61.19 65,-67.83 66,-74.1 78.52,-152.83 71.89,-152.11 69,-176.1 68.66,-178.94 68.2,-181.87 67.66,-184.8"/>
<polygon fill="black" stroke="black" points="64.22,-184.15 65.58,-194.66 71.07,-185.59 64.22,-184.15"/>
<text text-anchor="middle" x="84" y="-121.4" font-family="Times New Roman,serif" font-size="14.00">ε(4)</text>
</g>
<!-- 0x2&#45;&gt;0x1 -->
<g id="edge4" class="edge">
<title>0x2&#45;&gt;0x1</title>
<path fill="none" stroke="black" d="M45.84,-55.21C42.27,-68.28 37.95,-84.06 34.35,-97.21"/>
<polygon fill="black" stroke="black" points="30.91,-96.53 31.65,-107.1 37.66,-98.38 30.91,-96.53"/>
<text text-anchor="middle" x="51" y="-77.9" font-family="Times New Roman,serif" font-size="14.00">ε(1)</text>
</g>
<!-- 0x3&#45;&gt;0x0 -->
<g id="edge5" class="edge">
<title>0x3&#45;&gt;0x0</title>
<path fill="none" stroke="black" d="M44.42,-304.14C41.37,-297.55 38.57,-290.27 37,-283.19 35,-274.18 36.55,-264.66 39.53,-255.91"/>
<polygon fill="black" stroke="black" points="42.86,-257.02 43.4,-246.44 36.38,-254.37 42.86,-257.02"/>
<text text-anchor="middle" x="48" y="-271.99" font-family="Times New Roman,serif" font-size="14.00">ε(2)</text>
</g>
<!-- 0x3&#45;&gt;0x0 -->
<g id="edge8" class="edge">
<title>0x3&#45;&gt;0x0</title>
<path fill="none" stroke="black" d="M58.77,-301.04C58.98,-290.75 59.12,-278.93 59,-268.19 58.97,-265.66 58.93,-263.05 58.89,-260.42"/>
<polygon fill="black" stroke="black" points="62.39,-260.23 58.7,-250.3 55.39,-260.36 62.39,-260.23"/>
<text text-anchor="middle" x="70" y="-271.99" font-family="Times New Roman,serif" font-size="14.00">ε(5)</text>
</g>
</g>
</svg>
